<svg width="68" height="84" viewBox="0 0 68 84" fill="none" xmlns="http://www.w3.org/2000/svg">
<path d="M13.2015 11.2706L18.7943 1.43213L26.0985 2.45868C28.696 1.64322 34.2542 0.192157 35.7076 0.911544C37.161 1.63093 43.2453 4.11727 46.1059 5.27052C50.0226 5.82099 58.2653 7.23699 59.9018 8.49723C61.5382 9.75747 61.6312 15.394 61.4732 18.0548C62.6275 19.8268 65.3275 23.8121 66.8929 25.5775C68.4584 27.3429 67.131 29.2598 66.2717 29.9976C64.6487 33.0964 61.2683 39.7902 60.7303 41.7751C60.0577 44.2562 57.6712 49.716 57.036 49.6267C56.4009 49.5374 54.6425 52.8318 54.1474 54.0501C53.7514 55.0247 51.5741 57.7665 50.5349 59.0156C49.7542 60.7303 48.4215 64.8357 49.3369 67.54C50.2522 70.2443 49.0083 73.7183 48.272 75.1173L42.4434 82.0251L37.0072 83.8367L26.4688 78.1702L22.1768 83.3622L7.79014 79.7305C5.42469 77.359 0.73815 72.3003 0.915636 71.0374L2.06929 62.8287L7.34447 52.9456L7.17648 42.6194L6.46207 31.5725L11.6485 22.3208L13.2015 11.2706Z" fill="#E8D5CB"/>
<path d="M37.853 8.87818C41.4302 9.38092 44.4634 10.4116 46.9526 11.9703C49.5035 13.4827 51.3555 15.4463 52.5084 17.8612C53.7231 20.2298 54.1184 22.9228 53.6943 25.9402C53.2702 28.9577 52.0786 31.5375 50.1194 33.6799C48.2144 35.8298 45.7082 37.5381 42.6009 38.8048C39.5011 40.0175 35.9899 40.8153 32.0672 41.1981L30.4087 52.9984L28.7827 52.7699L30.5434 40.2422C34.2015 39.3826 36.9842 38.2626 38.8916 36.8823C40.799 35.5019 42.1833 33.9107 43.0445 32.1086C43.9058 30.3065 44.4841 28.3547 44.7794 26.2533C45.4988 21.1345 44.9878 17.2988 43.2462 14.7462C41.5589 12.2013 39.1163 10.7041 35.9185 10.2547C34.5635 10.0643 33.1278 10.0548 31.6114 10.2263C30.1026 10.344 28.866 10.8845 27.9015 11.8479C29.0018 12.2773 29.8204 12.9418 30.3572 13.8414C30.9558 14.6948 31.1642 15.7681 30.9825 17.0613C30.778 18.5161 30.1236 19.633 29.0193 20.4119C27.9225 21.1369 26.6424 21.3966 25.179 21.1909C23.7699 20.9928 22.6689 20.3711 21.8763 19.3256C21.1378 18.2877 20.8595 17.1221 21.0412 15.829C21.2305 14.4819 21.7765 13.3498 22.6792 12.4327C23.6361 11.5231 24.7637 10.775 26.0621 10.1882C27.3605 9.60144 28.9728 9.14119 30.8989 8.80747C32.8792 8.48136 35.1972 8.50493 37.853 8.87818ZM28.4162 61.8671C30.0964 62.1032 31.4027 62.8363 32.3353 64.0663C33.2754 65.2424 33.6319 66.6387 33.4047 68.2552C33.1851 69.8178 32.4575 71.0617 31.2221 71.987C29.9942 72.8585 28.5402 73.1761 26.86 72.94C25.234 72.7115 23.9238 72.0053 22.9295 70.8216C21.997 69.5916 21.6405 68.1953 21.8601 66.6327C22.0873 65.0162 22.8148 63.7723 24.0427 62.9008C25.3324 61.9831 26.7902 61.6385 28.4162 61.8671Z" fill="#881E27"/>
</svg>
