<svg width="52" height="79" viewBox="0 0 52 79" fill="none" xmlns="http://www.w3.org/2000/svg">
<path d="M0.471932 19.7478L1.65349 9.66021L8.06574 7.94206C9.93173 6.3564 14.0279 3.20594 15.4845 3.28938C16.9412 3.37282 22.8549 3.28843 25.6297 3.23581C29.0682 2.31448 36.3946 0.58824 38.1927 1.05393C39.9908 1.51962 42.0458 6.14072 42.8485 8.39305C44.4267 9.45063 48.0623 11.7927 49.9788 12.7004C51.8954 13.6081 51.4683 15.657 51.0152 16.568C50.7578 19.6966 50.3058 26.4106 50.5565 28.2384C50.8699 30.5232 50.8084 35.8693 50.2508 36.0187C49.6932 36.1681 49.3923 39.5058 49.4096 40.6855C49.4234 41.6293 48.5815 44.6579 48.1588 46.0542C48.1136 47.7442 48.4501 51.6019 50.1574 53.5131C51.8648 55.4244 52.0532 58.7296 51.934 60.1433L49.5286 67.894L45.6601 71.2993L34.9401 70.3225L33.2057 76.1169L20.0111 78.1719C17.2191 77.0448 11.5609 74.5143 11.2648 73.4093L9.34017 66.2266L10.2429 56.2137L6.48025 47.747L2.01192 38.8772L3.06273 29.4168L0.471932 19.7478Z" fill="white"/>
<path d="M20.0577 9.11335C23.198 8.2719 26.0728 8.05745 28.6822 8.46999C31.3266 8.82264 33.5501 9.79338 35.3527 11.3822C37.1903 12.9111 38.4628 14.9957 39.1703 17.636C39.8777 20.2763 39.7957 22.8249 38.9241 25.2819C38.1001 27.7261 36.6231 30.0169 34.4929 32.1542C32.3502 34.2443 29.7208 36.1364 26.6049 37.8304L29.3716 48.1557L27.9442 48.5382L25.007 37.5763C27.7363 35.5817 29.649 33.6795 30.745 31.8699C31.841 30.0602 32.4296 28.2602 32.5108 26.4698C32.592 24.6793 32.3863 22.8648 31.8936 21.026C30.6935 16.5469 28.924 13.5596 26.5854 12.0638C24.2943 10.5553 21.7451 10.1772 18.9379 10.9294C17.7484 11.2481 16.5555 11.7446 15.3592 12.4189C14.1503 13.046 13.3154 13.9267 12.8543 15.0608C13.9167 15.0289 14.8281 15.29 15.5886 15.8442C16.384 16.3385 16.9333 17.1515 17.2365 18.283C17.5776 19.556 17.4273 20.708 16.7856 21.739C16.1313 22.7229 15.1618 23.3869 13.8771 23.7311C12.64 24.0626 11.5096 23.936 10.486 23.3512C9.50995 22.7536 8.87032 21.8891 8.56712 20.7576C8.25129 19.5789 8.30642 18.4524 8.73252 17.3781C9.2062 16.291 9.878 15.2772 10.7479 14.3367C11.6178 13.3961 12.7922 12.4498 14.2709 11.4977C15.7973 10.5328 17.7262 9.73806 20.0577 9.11335ZM30.8327 56.178C32.3077 55.7827 33.6473 55.9291 34.8516 56.6171C36.0433 57.2579 36.8286 58.2855 37.2076 59.7C37.5739 61.0673 37.4077 62.3499 36.7087 63.5478C35.9971 64.6986 34.9038 65.4716 33.4288 65.8668C32.0014 66.2493 30.6681 66.1265 29.4289 65.4984C28.2246 64.8105 27.4393 63.7828 27.0729 62.4156C26.6939 61.0011 26.8602 59.7185 27.5718 58.5677C28.3183 57.357 29.4053 56.5604 30.8327 56.178Z" fill="#131313"/>
</svg>
