<svg width="73" height="86" viewBox="0 0 73 86" fill="none" xmlns="http://www.w3.org/2000/svg">
<path d="M19.9777 10.0794L26.7438 0.936047L33.8685 2.84511C36.5477 2.34564 42.2448 1.57021 43.5988 2.46425C44.9529 3.3583 50.6865 6.57679 53.384 8.07428C57.2045 9.09798 65.2128 11.5094 66.6819 12.9655C68.151 14.4216 67.5479 20.0591 67.0627 22.6958C67.9901 24.6044 70.1788 28.9094 71.5151 30.8611C72.8514 32.8128 71.2972 34.5655 70.3531 35.1978C68.3595 38.0945 64.1777 44.3667 63.3987 46.2829C62.4249 48.678 59.382 53.8389 58.7625 53.6729C58.1429 53.5069 55.9908 56.5823 55.349 57.7384C54.8356 58.6633 52.3358 61.1365 51.1501 62.2575C50.1634 63.8745 48.3339 67.8111 48.909 70.6213C49.4841 73.4314 47.8206 76.7485 46.9169 78.0558L40.2783 84.2452L34.658 85.3953L24.895 78.4632L19.9935 83.126L6.15911 77.7591C4.10337 75.1055 0.0749033 69.4886 0.406914 68.2495L2.56498 60.1955L9.02132 50.9691L10.1286 40.6414L10.7823 29.5282L17.0726 20.9214L19.9777 10.0794Z" fill="#E6AB3B"/>
<path d="M44.7458 10.6761C48.2351 11.611 51.1191 13.0071 53.398 14.8643C55.7439 16.6828 57.3401 18.8671 58.1868 21.4172C59.1004 23.9285 59.1606 26.6644 58.3673 29.625C57.574 32.5856 56.0727 35.0165 53.8634 36.9177C51.707 38.833 49.0082 40.2348 45.7671 41.1229C42.5401 41.9581 38.9559 42.3293 35.0143 42.2364L31.912 53.8144L30.326 53.3894L33.6195 41.0978C37.3572 40.6827 40.258 39.9017 42.3218 38.7548C44.3857 37.6079 45.9563 36.1872 47.0337 34.4927C48.111 32.7982 48.9259 30.92 49.4784 28.8581C50.8241 23.8357 50.79 19.9452 49.376 17.1864C48.0149 14.4419 45.7747 12.6517 42.6555 11.8159C41.3338 11.4618 39.9097 11.2785 38.3831 11.2661C36.8707 11.2008 35.5763 11.5906 34.5 12.4355C35.5394 12.9973 36.27 13.7597 36.692 14.7227C37.1809 15.647 37.2554 16.7436 36.9154 18.0124C36.533 19.4398 35.7455 20.4754 34.5531 21.1192C33.3748 21.71 32.072 21.8143 30.6445 21.4318C29.27 21.0635 28.2537 20.3095 27.5958 19.17C26.9908 18.0446 26.8582 16.8475 27.1982 15.5786C27.5523 14.257 28.2341 13.193 29.2434 12.3869C30.3055 11.5949 31.5173 10.9846 32.8787 10.5561C34.2401 10.1276 35.8975 9.86343 37.8508 9.76353C39.857 9.67779 42.1553 9.98198 44.7458 10.6761ZM28.8397 62.4256C30.4786 62.8648 31.6851 63.7547 32.4591 65.0953C33.2473 66.3831 33.4289 67.82 33.0039 69.406C32.5931 70.9392 31.7174 72.0928 30.3767 72.8668C29.0502 73.588 27.5675 73.729 25.9286 73.2899C24.3426 72.8649 23.1291 72.0014 22.288 70.6995C21.514 69.3588 21.3324 67.9219 21.7432 66.3887C22.1681 64.8027 23.0439 63.6491 24.3704 62.928C25.7639 62.1681 27.2537 62.0006 28.8397 62.4256Z" fill="#887C1E"/>
</svg>
