<svg width="59" height="85" viewBox="0 0 59 85" fill="none" xmlns="http://www.w3.org/2000/svg">
<path d="M2.01425 15.3874L5.24508 4.48124L12.5931 3.83837C14.9399 2.45267 20.0281 -0.224494 21.6064 0.152507C23.1846 0.529507 29.6731 1.59291 32.7201 2.07748C36.6604 1.73276 45.0104 1.25976 46.8889 2.12556C48.7675 2.99137 50.1289 8.49517 50.5748 11.1389C52.099 12.6151 55.6281 15.9119 57.5513 17.2889C59.4746 18.6658 58.6135 20.8444 57.9426 21.7615C57.06 25.1653 55.2757 32.4896 55.199 34.5566C55.1031 37.1403 54.0088 43.0307 53.3699 43.0866C52.7309 43.1425 51.7605 46.7685 51.5528 48.0744C51.3867 49.1191 49.8835 52.2981 49.1527 53.7571C48.7786 55.614 48.4058 59.939 49.9073 62.383C51.4088 64.827 50.9802 68.5129 50.5781 70.0504L46.4568 78.1371L41.5688 81.1402L30.0237 77.9652L27.0126 84.0233L12.1768 83.7116C9.33751 81.9212 3.6309 78.0209 3.51909 76.7429L2.79238 68.4365L5.70373 57.5584L3.21193 47.4748L0.0252613 36.8083L2.99252 26.5691L2.01425 15.3874Z" fill="#D3E0E8"/>
<path d="M25.4928 7.47683C29.0914 7.16199 32.279 7.48747 35.0556 8.45326C37.882 9.35976 40.129 10.8664 41.7968 12.973C43.5143 15.0204 44.5066 17.5708 44.7737 20.6242C45.0408 23.6775 44.4615 26.4753 43.0357 29.0175C41.6643 31.5549 39.6077 33.7951 36.8658 35.7382C34.1192 37.6267 30.878 39.2014 27.1424 40.4622L28.1871 52.403L26.5514 52.5461L25.4423 39.8693C28.8126 38.2009 31.2713 36.4749 32.8185 34.6913C34.3656 32.9076 35.3556 31.0354 35.7884 29.0746C36.2212 27.1138 36.3446 25.0702 36.1585 22.9437C35.7054 17.7639 34.3426 14.1197 32.0704 12.0109C29.8526 9.89741 27.1353 8.98138 23.9184 9.26282C22.5553 9.38208 21.1543 9.69694 19.7156 10.2074C18.272 10.6633 17.189 11.4723 16.4666 12.6344C17.6355 12.8068 18.5828 13.2733 19.3086 14.034C20.0842 14.7353 20.5293 15.7402 20.6438 17.0488C20.7726 18.521 20.3868 19.7634 19.4865 20.7762C18.5813 21.7345 17.3927 22.278 15.9206 22.4068C14.5029 22.5308 13.2901 22.1699 12.2821 21.3241C11.3286 20.4735 10.7946 19.3939 10.6802 18.0854C10.5609 16.7222 10.8376 15.4893 11.5103 14.3866C12.2376 13.2791 13.1675 12.2912 14.3003 11.4229C15.433 10.5546 16.9001 9.73948 18.7014 8.97753C20.5573 8.21081 22.8211 7.71057 25.4928 7.47683ZM28.2453 61.5457C29.9355 61.3978 31.3736 61.8214 32.5595 62.8165C33.7406 63.757 34.4027 65.0452 34.5458 66.6809C34.6842 68.2621 34.2558 69.6456 33.2607 70.8315C32.2609 71.9629 30.9158 72.6025 29.2256 72.7504C27.5899 72.8935 26.1542 72.4972 24.9185 71.5614C23.7326 70.5663 23.0705 69.2782 22.9322 67.697C22.7891 66.0612 23.2175 64.6777 24.2173 63.5463C25.2669 62.3557 26.6096 61.6888 28.2453 61.5457Z" fill="#1E5888"/>
</svg>
