<svg width="404" height="139" viewBox="0 0 404 139" fill="none" xmlns="http://www.w3.org/2000/svg">
<path d="M0 30C0 13.4315 13.4315 0 30 0H267C283.569 0 297 13.4315 297 30V34C297 50.5685 283.569 64 267 64H30C13.4315 64 0 50.5685 0 34V30Z" fill="white"/>
<path d="M14.0105 11.475C14.7905 11.475 15.4055 11.775 15.8555 12.375C16.3055 12.975 16.6355 13.905 16.8455 15.165C17.0855 16.455 17.2655 18.15 17.3855 20.25C17.5055 22.35 17.5655 24.645 17.5655 27.135C17.5655 29.295 17.4905 31.365 17.3405 33.345C17.2205 35.325 17.0405 37.17 16.8005 38.88C16.5605 40.62 16.1855 41.835 15.6755 42.525C15.1655 43.215 14.4755 43.56 13.6055 43.56C12.7655 43.56 12.1055 43.29 11.6255 42.75C11.1755 42.21 10.8605 41.295 10.6805 40.005C10.5005 38.835 10.3505 37.305 10.2305 35.415C10.1405 33.525 10.0955 31.515 10.0955 29.385C10.0955 26.445 10.1855 23.775 10.3655 21.375C10.5455 18.975 10.7855 16.98 11.0855 15.39C11.3555 14.04 11.7005 13.05 12.1205 12.42C12.5705 11.79 13.2005 11.475 14.0105 11.475Z" fill="black"/>
<path d="M40.0676 19.71H39.5726C39.3026 18.39 39.1676 17.115 39.1676 15.885C39.1676 13.695 39.7376 11.97 40.8776 10.71C42.0476 9.45 44.0126 8.82 46.7726 8.82C48.4526 8.82 49.6526 9.09 50.3726 9.63C51.1226 10.14 51.4976 10.92 51.4976 11.97C51.4976 13.89 50.4026 14.94 48.2126 15.12C47.1026 15.24 46.2326 15.45 45.6026 15.75C45.0026 16.05 44.5526 16.53 44.2526 17.19C43.9826 17.82 43.8026 18.72 43.7126 19.89L42.9026 19.8C43.6526 19.53 44.5076 19.32 45.4676 19.17C46.4276 19.02 47.3726 18.945 48.3026 18.945C49.5926 18.945 50.6276 19.185 51.4076 19.665C52.2176 20.145 52.6226 20.955 52.6226 22.095C52.6226 23.205 52.2026 24.045 51.3626 24.615C50.5226 25.185 49.4876 25.47 48.2576 25.47C47.5076 25.47 46.7126 25.41 45.8726 25.29C45.0626 25.17 44.2526 25.005 43.4426 24.795L43.6676 24.12C43.9676 25.65 44.2226 27.33 44.4326 29.16C44.6426 30.96 44.8076 32.775 44.9276 34.605C45.0476 36.405 45.1076 38.1 45.1076 39.69C45.1076 40.71 44.9726 41.67 44.7026 42.57C44.4326 43.44 44.0126 44.145 43.4426 44.685C42.9026 45.195 42.2126 45.45 41.3726 45.45C40.1126 45.45 39.2126 44.955 38.6726 43.965C38.1326 42.945 37.8626 41.685 37.8626 40.185C37.8626 38.745 37.9226 37.125 38.0426 35.325C38.1926 33.495 38.4026 31.62 38.6726 29.7C38.9726 27.75 39.3176 25.875 39.7076 24.075L40.2476 24.48C38.7176 25.14 36.7676 25.47 34.3976 25.47C33.1376 25.47 32.1626 25.23 31.4726 24.75C30.7826 24.27 30.4376 23.535 30.4376 22.545C30.4376 21.465 30.8576 20.64 31.6976 20.07C32.5376 19.47 33.6626 19.17 35.0726 19.17C36.0326 19.17 36.9326 19.23 37.7726 19.35C38.6426 19.44 39.4076 19.56 40.0676 19.71Z" fill="black"/>
<path d="M68.4373 45.36C65.1073 45.36 62.4523 44.865 60.4723 43.875C58.4923 42.885 57.0673 41.46 56.1973 39.6C55.3273 37.74 54.8923 35.52 54.8923 32.94C54.8923 29.67 55.4923 26.895 56.6923 24.615C57.9223 22.305 59.6023 20.535 61.7323 19.305C63.8923 18.075 66.3373 17.46 69.0673 17.46C72.2773 17.46 74.6323 18.21 76.1323 19.71C77.6323 21.18 78.3823 23.115 78.3823 25.515C78.3823 27.435 77.8723 29.1 76.8523 30.51C75.8623 31.89 74.4823 32.955 72.7123 33.705C70.9423 34.455 68.9023 34.83 66.5923 34.83C65.3023 34.83 64.0573 34.665 62.8573 34.335C61.6573 34.005 60.5773 33.555 59.6173 32.985L60.6973 31.005C60.6073 31.725 60.5623 32.445 60.5623 33.165C60.5623 35.265 61.2223 36.78 62.5423 37.71C63.8623 38.61 65.7373 39.06 68.1673 39.06C70.0573 39.06 71.5723 38.895 72.7123 38.565C73.8523 38.235 74.8123 37.92 75.5923 37.62C76.3723 37.29 77.1373 37.125 77.8873 37.125C78.3073 37.125 78.6823 37.245 79.0123 37.485C79.3723 37.695 79.6573 38.01 79.8673 38.43C80.1073 38.85 80.2273 39.36 80.2273 39.96C80.2273 40.86 79.7773 41.73 78.8773 42.57C77.9773 43.38 76.6423 44.055 74.8723 44.595C73.1323 45.105 70.9873 45.36 68.4373 45.36ZM65.8273 30.645C67.9573 30.645 69.6673 30.195 70.9573 29.295C72.2473 28.395 72.8923 27.285 72.8923 25.965C72.8923 24.915 72.5323 24.06 71.8123 23.4C71.1223 22.71 70.0273 22.365 68.5273 22.365C67.1173 22.365 65.8423 22.635 64.7023 23.175C63.5923 23.685 62.7223 24.36 62.0923 25.2C61.4623 26.04 61.1473 26.955 61.1473 27.945C61.1473 28.815 61.5523 29.49 62.3623 29.97C63.2023 30.42 64.3573 30.645 65.8273 30.645Z" fill="black"/>
<path d="M89.042 45.09C88.112 45.09 87.377 44.88 86.837 44.46C86.297 44.01 85.862 43.275 85.532 42.255C85.082 40.755 84.737 38.865 84.497 36.585C84.287 34.275 84.182 31.44 84.182 28.08C84.182 26.01 84.257 23.94 84.407 21.87C84.587 19.77 84.812 17.865 85.082 16.155C85.352 14.415 85.637 13.065 85.937 12.105C86.267 11.085 86.657 10.38 87.107 9.99C87.557 9.6 88.067 9.405 88.637 9.405C89.237 9.405 89.717 9.615 90.077 10.035C90.437 10.425 90.722 11.13 90.932 12.15C91.112 13.14 91.247 14.355 91.337 15.795C91.457 17.235 91.517 18.78 91.517 20.43C91.517 22.68 91.412 25.05 91.202 27.54C90.992 30.03 90.707 32.475 90.347 34.875C90.017 37.275 89.612 39.48 89.132 41.49L87.872 40.86C88.652 39.9 89.537 39.15 90.527 38.61C91.547 38.07 92.477 37.8 93.317 37.8C94.007 37.8 94.532 37.995 94.892 38.385C95.282 38.745 95.477 39.315 95.477 40.095C95.477 40.875 95.132 41.655 94.442 42.435C93.782 43.215 92.957 43.86 91.967 44.37C90.977 44.85 90.002 45.09 89.042 45.09Z" fill="black"/>
<path d="M104.423 45.09C103.493 45.09 102.758 44.88 102.218 44.46C101.678 44.01 101.243 43.275 100.913 42.255C100.463 40.755 100.118 38.865 99.8779 36.585C99.6679 34.275 99.5629 31.44 99.5629 28.08C99.5629 26.01 99.6379 23.94 99.7879 21.87C99.9679 19.77 100.193 17.865 100.463 16.155C100.733 14.415 101.018 13.065 101.318 12.105C101.648 11.085 102.038 10.38 102.488 9.99C102.938 9.6 103.448 9.405 104.018 9.405C104.618 9.405 105.098 9.615 105.458 10.035C105.818 10.425 106.103 11.13 106.313 12.15C106.493 13.14 106.628 14.355 106.718 15.795C106.838 17.235 106.898 18.78 106.898 20.43C106.898 22.68 106.793 25.05 106.583 27.54C106.373 30.03 106.088 32.475 105.728 34.875C105.398 37.275 104.993 39.48 104.513 41.49L103.253 40.86C104.033 39.9 104.918 39.15 105.908 38.61C106.928 38.07 107.858 37.8 108.698 37.8C109.388 37.8 109.913 37.995 110.273 38.385C110.663 38.745 110.858 39.315 110.858 40.095C110.858 40.875 110.513 41.655 109.823 42.435C109.163 43.215 108.338 43.86 107.348 44.37C106.358 44.85 105.383 45.09 104.423 45.09Z" fill="black"/>
<path d="M127.913 10.485C129.113 10.485 129.968 10.815 130.478 11.475C131.018 12.135 131.288 12.9 131.288 13.77C131.288 14.85 130.958 15.69 130.298 16.29C129.668 16.86 128.768 17.145 127.598 17.145C126.458 17.145 125.603 16.83 125.033 16.2C124.463 15.54 124.178 14.775 124.178 13.905C124.178 12.765 124.523 11.91 125.213 11.34C125.903 10.77 126.803 10.485 127.913 10.485ZM128.183 20.52C129.143 20.52 129.893 21.42 130.433 23.22C131.003 25.02 131.288 27.885 131.288 31.815C131.288 36.645 130.943 40.125 130.253 42.255C129.563 44.385 128.513 45.45 127.103 45.45C126.023 45.45 125.228 44.67 124.718 43.11C124.208 41.52 123.953 38.76 123.953 34.83C123.953 30 124.343 26.415 125.123 24.075C125.933 21.705 126.953 20.52 128.183 20.52Z" fill="black"/>
<path d="M141.375 17.01C142.335 17.01 142.98 17.4 143.31 18.18C143.67 18.96 143.85 20.115 143.85 21.645C143.85 22.005 143.82 22.395 143.76 22.815C143.73 23.205 143.67 23.565 143.58 23.895L143.49 22.995C144.21 21.045 145.32 19.53 146.82 18.45C148.32 17.34 149.91 16.785 151.59 16.785C153.45 16.785 154.995 17.31 156.225 18.36C157.485 19.41 158.415 20.88 159.015 22.77C159.645 24.66 159.96 26.895 159.96 29.475C159.96 31.065 159.885 32.64 159.735 34.2C159.615 35.73 159.435 37.14 159.195 38.43C158.985 39.69 158.745 40.725 158.475 41.535C158.115 42.555 157.65 43.32 157.08 43.83C156.51 44.31 155.835 44.55 155.055 44.55C154.275 44.55 153.675 44.265 153.255 43.695C152.835 43.125 152.625 42.36 152.625 41.4C152.625 40.38 152.7 39.15 152.85 37.71C153 36.24 153.135 34.755 153.255 33.255C153.405 31.725 153.48 30.345 153.48 29.115C153.48 24.915 152.1 22.815 149.34 22.815C147.87 22.815 146.64 23.475 145.65 24.795C144.66 26.085 144 27.93 143.67 30.33C143.58 31.14 143.535 32.145 143.535 33.345C143.535 34.545 143.535 35.745 143.535 36.945C143.565 38.115 143.535 39.105 143.445 39.915C143.325 41.715 142.98 43.005 142.41 43.785C141.87 44.565 141.12 44.955 140.16 44.955C139.05 44.955 138.21 44.445 137.64 43.425C137.07 42.375 136.785 40.62 136.785 38.16C136.785 36.9 136.815 35.49 136.875 33.93C136.935 32.37 137.01 30.81 137.1 29.25C137.22 27.66 137.355 26.22 137.505 24.93C137.805 22.5 138.24 20.58 138.81 19.17C139.38 17.73 140.235 17.01 141.375 17.01Z" fill="black"/>
<path d="M179.306 45.09C178.376 45.09 177.641 44.88 177.101 44.46C176.561 44.01 176.126 43.275 175.796 42.255C175.346 40.755 175.001 38.865 174.761 36.585C174.551 34.275 174.446 31.44 174.446 28.08C174.446 26.01 174.521 23.94 174.671 21.87C174.851 19.77 175.076 17.865 175.346 16.155C175.616 14.415 175.901 13.065 176.201 12.105C176.531 11.085 176.921 10.38 177.371 9.99C177.821 9.6 178.331 9.405 178.901 9.405C179.501 9.405 179.981 9.615 180.341 10.035C180.701 10.425 180.986 11.13 181.196 12.15C181.376 13.14 181.511 14.355 181.601 15.795C181.721 17.235 181.781 18.78 181.781 20.43C181.781 22.68 181.676 25.05 181.466 27.54C181.256 30.03 180.971 32.475 180.611 34.875C180.281 37.275 179.876 39.48 179.396 41.49L178.136 40.86C178.916 39.9 179.801 39.15 180.791 38.61C181.811 38.07 182.741 37.8 183.581 37.8C184.271 37.8 184.796 37.995 185.156 38.385C185.546 38.745 185.741 39.315 185.741 40.095C185.741 40.875 185.396 41.655 184.706 42.435C184.046 43.215 183.221 43.86 182.231 44.37C181.241 44.85 180.266 45.09 179.306 45.09Z" fill="black"/>
<path d="M200.762 45.135C198.362 45.135 196.262 44.61 194.462 43.56C192.692 42.48 191.312 40.95 190.322 38.97C189.362 36.99 188.882 34.635 188.882 31.905C188.882 29.055 189.377 26.565 190.367 24.435C191.357 22.305 192.752 20.64 194.552 19.44C196.382 18.24 198.497 17.64 200.897 17.64C203.477 17.64 205.712 18.225 207.602 19.395C209.492 20.535 210.962 22.14 212.012 24.21C213.062 26.28 213.587 28.695 213.587 31.455C213.587 34.275 213.062 36.705 212.012 38.745C210.962 40.785 209.477 42.36 207.557 43.47C205.637 44.58 203.372 45.135 200.762 45.135ZM201.392 39.06C203.252 39.06 204.722 38.325 205.802 36.855C206.912 35.355 207.467 33.375 207.467 30.915C207.467 28.425 206.912 26.445 205.802 24.975C204.722 23.505 203.252 22.77 201.392 22.77C199.472 22.77 197.957 23.505 196.847 24.975C195.737 26.445 195.182 28.425 195.182 30.915C195.182 33.375 195.737 35.355 196.847 36.855C197.957 38.325 199.472 39.06 201.392 39.06Z" fill="black"/>
<path d="M219.432 16.695C220.602 16.695 221.472 17.145 222.042 18.045C222.612 18.945 223.092 20.325 223.482 22.185C223.812 23.775 224.277 25.62 224.877 27.72C225.477 29.79 226.152 31.92 226.902 34.11C227.682 36.3 228.477 38.4 229.287 40.41H229.467C230.187 38.55 230.847 36.57 231.447 34.47C232.077 32.37 232.602 30.315 233.022 28.305C233.472 26.265 233.772 24.45 233.922 22.86C234.102 20.91 234.417 19.53 234.867 18.72C235.317 17.88 236.037 17.46 237.027 17.46C238.077 17.46 238.902 17.88 239.502 18.72C240.102 19.56 240.402 20.865 240.402 22.635C240.402 24.135 240.237 25.725 239.907 27.405C239.607 29.085 239.187 30.75 238.647 32.4C238.137 34.05 237.552 35.58 236.892 36.99C236.112 38.67 235.332 40.14 234.552 41.4C233.772 42.63 232.902 43.59 231.942 44.28C231.012 44.97 229.872 45.315 228.522 45.315C227.082 45.315 225.852 44.805 224.832 43.785C223.812 42.765 222.687 41.16 221.457 38.97C220.437 37.08 219.552 35.115 218.802 33.075C218.082 31.035 217.512 29.04 217.092 27.09C216.702 25.11 216.507 23.31 216.507 21.69C216.507 20.01 216.732 18.765 217.182 17.955C217.662 17.115 218.412 16.695 219.432 16.695Z" fill="black"/>
<path d="M256.875 45.36C253.545 45.36 250.89 44.865 248.91 43.875C246.93 42.885 245.505 41.46 244.635 39.6C243.765 37.74 243.33 35.52 243.33 32.94C243.33 29.67 243.93 26.895 245.13 24.615C246.36 22.305 248.04 20.535 250.17 19.305C252.33 18.075 254.775 17.46 257.505 17.46C260.715 17.46 263.07 18.21 264.57 19.71C266.07 21.18 266.82 23.115 266.82 25.515C266.82 27.435 266.31 29.1 265.29 30.51C264.3 31.89 262.92 32.955 261.15 33.705C259.38 34.455 257.34 34.83 255.03 34.83C253.74 34.83 252.495 34.665 251.295 34.335C250.095 34.005 249.015 33.555 248.055 32.985L249.135 31.005C249.045 31.725 249 32.445 249 33.165C249 35.265 249.66 36.78 250.98 37.71C252.3 38.61 254.175 39.06 256.605 39.06C258.495 39.06 260.01 38.895 261.15 38.565C262.29 38.235 263.25 37.92 264.03 37.62C264.81 37.29 265.575 37.125 266.325 37.125C266.745 37.125 267.12 37.245 267.45 37.485C267.81 37.695 268.095 38.01 268.305 38.43C268.545 38.85 268.665 39.36 268.665 39.96C268.665 40.86 268.215 41.73 267.315 42.57C266.415 43.38 265.08 44.055 263.31 44.595C261.57 45.105 259.425 45.36 256.875 45.36ZM254.265 30.645C256.395 30.645 258.105 30.195 259.395 29.295C260.685 28.395 261.33 27.285 261.33 25.965C261.33 24.915 260.97 24.06 260.25 23.4C259.56 22.71 258.465 22.365 256.965 22.365C255.555 22.365 254.28 22.635 253.14 23.175C252.03 23.685 251.16 24.36 250.53 25.2C249.9 26.04 249.585 26.955 249.585 27.945C249.585 28.815 249.99 29.49 250.8 29.97C251.64 30.42 252.795 30.645 254.265 30.645Z" fill="black"/>
<path d="M194.249 109.661C193.007 93.1392 205.394 78.7385 221.916 77.4962L371.493 66.2494C388.015 65.0071 402.416 77.3937 403.658 93.9156L403.733 94.9128C404.976 111.435 392.589 125.835 376.067 127.078L226.489 138.324C209.967 139.567 195.567 127.18 194.324 110.658L194.249 109.661Z" fill="white"/>
<path d="M203.418 105.693C203.184 102.581 203.374 100.311 203.988 98.8805C204.633 97.4482 205.553 96.687 206.75 96.597C207.438 96.5453 207.981 96.7602 208.378 97.2418C208.803 97.6912 209.122 98.3291 209.334 99.1555C209.544 99.952 209.688 100.859 209.764 101.876C209.861 103.162 209.975 104.673 210.105 106.408C210.263 108.111 210.426 109.874 210.593 111.696C210.788 113.487 210.974 115.158 211.15 116.709L211.33 116.695C211.963 112.707 212.648 109.421 213.387 106.838C214.155 104.253 214.988 102.326 215.885 101.055C216.81 99.7516 217.781 99.0619 218.798 98.9854C219.905 98.9022 220.998 99.4367 222.077 100.589C223.185 101.709 224.309 103.46 225.451 105.841C226.622 108.22 227.857 111.241 229.156 114.904L229.335 114.89C229.231 112.311 229.088 109.599 228.904 106.755C228.72 103.91 228.539 101.307 228.362 98.9432C228.233 97.238 228.423 95.9602 228.931 95.1098C229.439 94.2593 230.201 93.7958 231.218 93.7194C232.504 93.6226 233.482 94.226 234.152 95.5295C234.849 96.8008 235.282 98.5582 235.451 100.802C235.575 102.447 235.618 104.219 235.58 106.117C235.57 107.983 235.48 109.795 235.312 111.553C235.143 113.31 234.898 114.848 234.576 116.166C234.091 118.128 233.497 119.631 232.794 120.677C232.12 121.721 231.17 122.288 229.943 122.381C228.837 122.464 227.681 121.904 226.478 120.701C225.302 119.465 224.137 117.582 222.984 115.052C221.831 112.521 220.705 109.342 219.605 105.513L219.425 105.527C218.926 109.295 218.233 112.476 217.345 115.07C216.485 117.631 215.503 119.585 214.401 120.932C213.329 122.276 212.209 122.992 211.043 123.08C209.816 123.172 208.742 122.696 207.822 121.652C206.931 120.606 206.129 118.952 205.418 116.688C205.091 115.54 204.788 114.314 204.509 113.011C204.229 111.679 203.995 110.372 203.809 109.093C203.622 107.813 203.492 106.68 203.418 105.693Z" fill="black"/>
<path d="M242.208 86.485C243.404 86.395 244.282 86.66 244.84 87.2799C245.428 87.8976 245.754 88.6402 245.819 89.5077C245.9 90.5847 245.634 91.4471 245.021 92.0948C244.436 92.7105 243.56 93.0622 242.393 93.1499C241.256 93.2354 240.38 92.9854 239.764 92.3999C239.146 91.7845 238.805 91.043 238.74 90.1754C238.654 89.0386 238.934 88.1602 239.579 87.54C240.225 86.9199 241.101 86.5682 242.208 86.485ZM243.229 96.4715C244.187 96.3995 245.002 97.2408 245.675 98.9952C246.379 100.747 246.878 103.583 247.172 107.502C247.535 112.318 247.451 115.814 246.923 117.99C246.395 120.166 245.428 121.307 244.022 121.412C242.945 121.493 242.093 120.775 241.468 119.258C240.84 117.71 240.379 114.977 240.084 111.058C239.722 106.242 239.842 102.638 240.444 100.246C241.074 97.8219 242.003 96.5637 243.229 96.4715Z" fill="black"/>
<path d="M259.195 92.6537L258.297 92.7212C258.109 91.4116 258.045 90.1679 258.107 88.9899C258.167 87.7821 258.409 86.8011 258.834 86.0472C259.286 85.2611 259.976 84.8331 260.903 84.7634C261.741 84.7004 262.374 84.9235 262.804 85.4328C263.233 85.942 263.484 86.6753 263.556 87.6326C263.697 89.5173 263.46 91.1597 262.843 92.5599L262.029 92.5309C263.601 91.841 265.405 91.4196 267.439 91.2666C268.726 91.1699 269.762 91.3477 270.548 91.8C271.362 92.2202 271.812 93.0137 271.9 94.1804C271.983 95.2872 271.598 96.1586 270.743 96.7945C269.888 97.4304 268.788 97.7989 267.442 97.9001C266.634 97.9609 265.764 97.9962 264.832 98.0061C263.928 97.9838 263.035 97.9156 262.154 97.8013L262.846 96.8016C263.201 97.9181 263.553 99.2003 263.903 100.648C264.28 102.064 264.632 103.542 264.958 105.082C265.284 106.621 265.563 108.12 265.792 109.577C266.022 111.034 266.181 112.345 266.269 113.512C266.413 115.427 266.227 116.96 265.712 118.112C265.197 119.264 264.356 119.883 263.189 119.971C262.262 120.041 261.508 119.812 260.927 119.284C260.375 118.754 259.947 118.064 259.643 117.214C259.366 116.333 259.162 115.415 259.03 114.462C258.928 113.507 258.848 112.641 258.789 111.863C258.69 110.547 258.639 109.062 258.635 107.407C258.628 105.723 258.663 103.99 258.74 102.21C258.847 100.427 258.988 98.7012 259.163 97.0334L260.118 97.7288C258.651 98.6213 256.795 99.1519 254.552 99.3206C253.176 99.4241 252.095 99.2496 251.308 98.7973C250.522 98.345 250.089 97.5803 250.008 96.5034C249.92 95.3367 250.271 94.4077 251.062 93.7165C251.85 92.9954 252.947 92.5819 254.353 92.4762C255.28 92.4065 256.152 92.4011 256.969 92.46C257.814 92.4868 258.556 92.5513 259.195 92.6537Z" fill="black"/>
<path d="M279.344 82.5646C280.301 82.4926 280.987 82.817 281.402 83.5379C281.847 84.2566 282.126 85.3638 282.239 86.8596C282.335 88.1459 282.382 89.767 282.379 91.7228C282.375 93.6785 282.322 95.5629 282.217 97.3758L281.948 97.396C282.796 95.467 283.955 93.8757 285.425 92.6219C286.895 91.3682 288.498 90.676 290.233 90.5456C291.758 90.4309 293.148 90.7025 294.4 91.3604C295.651 91.9884 296.709 93.0521 297.574 94.5514C298.367 95.9057 299.002 97.5428 299.477 99.4625C299.95 101.352 300.252 103.165 300.382 104.9C300.592 107.682 300.564 109.91 300.298 111.585C300.063 113.257 299.645 114.492 299.043 115.29C298.439 116.057 297.688 116.475 296.79 116.542C294.906 116.684 293.847 115.214 293.616 112.133C293.503 110.637 293.462 109.091 293.493 107.494C293.553 105.895 293.534 104.437 293.435 103.121C293.266 100.877 292.781 99.229 291.98 98.1761C291.206 97.091 290.161 96.598 288.845 96.6969C287.2 96.8207 285.923 97.6537 285.017 99.196C284.11 100.738 283.753 102.796 283.946 105.369C284.048 106.715 284.279 108.187 284.639 109.784C284.998 111.352 285.227 112.794 285.326 114.11C285.436 115.576 285.231 116.659 284.713 117.36C284.221 118.029 283.542 118.396 282.674 118.461C282.016 118.51 281.423 118.42 280.894 118.189C280.397 117.985 279.941 117.523 279.526 116.802C279.139 116.049 278.768 114.919 278.414 113.411C278.147 112.258 277.865 110.91 277.568 109.368C277.272 107.826 277 106.207 276.752 104.511C276.504 102.814 276.274 101.162 276.063 99.5534C275.88 97.9125 275.737 96.419 275.636 95.0728C275.317 90.8248 275.489 87.7131 276.153 85.7378C276.814 83.7325 277.878 82.6748 279.344 82.5646Z" fill="black"/>
<path d="M320.852 124.164C319.236 124.286 318.363 123.479 318.233 121.744C318.161 120.787 318.404 119.625 318.964 118.259C319.523 116.894 320.373 115.401 321.515 113.78C322.687 112.158 324.125 110.485 325.831 108.763L325.813 109.125C321.537 105.475 318.255 102.232 315.966 99.3961C313.707 96.5575 312.495 94.0462 312.331 91.8624C312.25 90.7854 312.456 89.9276 312.949 89.2888C313.473 88.6477 314.198 88.2923 315.126 88.2226C317.1 88.0741 319.168 89.3628 321.328 92.0884C323.488 94.8141 325.657 99.0435 327.833 104.776L328.012 104.763C328.686 98.5149 329.557 93.9065 330.628 90.9379C331.696 87.9394 333.113 86.3737 334.878 86.241C335.715 86.1781 336.351 86.4311 336.785 87.0002C337.247 87.5371 337.517 88.329 337.595 89.3761C337.661 90.2436 337.553 91.41 337.272 92.8752C337.019 94.3082 336.615 95.9481 336.062 97.7947C335.537 99.6092 334.897 101.508 334.144 103.49C333.42 105.469 332.605 107.426 331.697 109.36C329.397 114.376 327.388 118.062 325.669 120.418C323.953 122.803 322.347 124.052 320.852 124.164Z" fill="black"/>
<path d="M354.216 112.811C351.823 112.991 349.689 112.625 347.816 111.713C345.97 110.768 344.479 109.346 343.343 107.446C342.237 105.544 341.582 103.231 341.377 100.509C341.164 97.6669 341.471 95.1468 342.298 92.9485C343.126 90.7503 344.392 88.9854 346.097 87.6538C347.832 86.32 349.896 85.5631 352.289 85.3831C354.862 85.1897 357.134 85.6055 359.107 86.6305C361.077 87.6256 362.663 89.1158 363.865 91.1013C365.068 93.0867 365.772 95.4555 365.979 98.2078C366.191 101.02 365.849 103.482 364.955 105.595C364.061 107.708 362.698 109.39 360.867 110.641C359.036 111.892 356.819 112.615 354.216 112.811ZM354.389 106.706C356.243 106.566 357.654 105.723 358.621 104.176C359.615 102.597 360.02 100.581 359.836 98.1282C359.649 95.6452 358.947 93.7124 357.73 92.3297C356.543 90.9448 355.022 90.3221 353.167 90.4616C351.253 90.6056 349.797 91.4521 348.8 93.0012C347.804 94.5503 347.399 96.5663 347.585 99.0493C347.77 101.502 348.472 103.435 349.691 104.848C350.908 106.23 352.474 106.85 354.389 106.706Z" fill="black"/>
<path d="M391.695 109.587C390.888 109.647 390.239 109.425 389.75 108.921C389.288 108.384 388.95 107.687 388.735 106.831C388.518 105.945 388.373 105.008 388.299 104.021L388.509 103.824C388.307 105.133 387.807 106.284 387.009 107.277C386.211 108.269 385.263 109.062 384.164 109.656C383.064 110.221 381.945 110.545 380.808 110.631C379.282 110.746 377.864 110.491 376.554 109.868C375.243 109.244 374.188 108.21 373.387 106.766C372.58 105.233 371.892 103.284 371.323 100.92C370.752 98.5258 370.371 96.0574 370.18 93.5146C370.076 92.1385 370.041 90.8626 370.073 89.6869C370.104 88.5112 370.227 87.5393 370.44 86.7711C370.621 85.9753 370.937 85.3799 371.389 84.985C371.838 84.5601 372.437 84.3195 373.185 84.2633C374.052 84.198 374.751 84.4915 375.282 85.1435C375.84 85.7634 376.223 86.6672 376.433 87.8548C376.627 88.833 376.794 90.0539 376.934 91.5176C377.102 92.949 377.256 94.3965 377.396 95.8601C377.564 97.2916 377.73 98.4976 377.894 99.478C378.208 101.259 378.772 102.556 379.585 103.367C380.396 104.149 381.34 104.499 382.417 104.418C384.002 104.299 385.169 103.609 385.917 102.35C386.664 101.09 386.957 99.3832 386.795 97.2293C386.714 96.1523 386.563 94.9452 386.342 93.608C386.119 92.2409 385.884 90.9198 385.638 89.6447C385.422 88.3673 385.282 87.3098 385.219 86.4722C385.113 85.0661 385.277 84.046 385.711 83.4117C386.142 82.7474 386.777 82.3838 387.615 82.3209C388.333 82.2669 388.946 82.4163 389.453 82.7692C389.991 83.1199 390.436 83.628 390.786 84.2936C391.273 85.1596 391.724 86.3591 392.14 87.8922C392.556 89.4253 392.928 91.1724 393.256 93.1333C393.584 95.0942 393.83 97.1666 393.994 99.3504C394.246 102.701 394.211 105.231 393.888 106.94C393.563 108.619 392.832 109.501 391.695 109.587Z" fill="black"/>
</svg>
