<svg width="221" height="346" viewBox="0 0 221 346" fill="none" xmlns="http://www.w3.org/2000/svg">
<path d="M0 0H221V346H0V0Z" fill="#D3E0E8"/>
<path d="M29.256 23.016V23.976C28.168 24.008 27.336 24.136 26.76 24.36C26.216 24.552 25.848 24.936 25.656 25.512C25.464 26.056 25.368 26.92 25.368 28.104V51.912C25.368 53.064 25.464 53.928 25.656 54.504C25.848 55.08 26.216 55.464 26.76 55.656C27.336 55.848 28.168 55.976 29.256 56.04V57C28.52 56.936 27.592 56.904 26.472 56.904C25.384 56.872 24.28 56.856 23.16 56.856C21.912 56.856 20.744 56.872 19.656 56.904C18.568 56.904 17.688 56.936 17.016 57V56.04C18.104 55.976 18.92 55.848 19.464 55.656C20.04 55.464 20.424 55.08 20.616 54.504C20.808 53.928 20.904 53.064 20.904 51.912V28.104C20.904 26.92 20.808 26.056 20.616 25.512C20.424 24.936 20.04 24.552 19.464 24.36C18.92 24.136 18.104 24.008 17.016 23.976V23.016C17.688 23.048 18.568 23.08 19.656 23.112C20.744 23.144 21.912 23.16 23.16 23.16C24.28 23.16 25.384 23.144 26.472 23.112C27.592 23.08 28.52 23.048 29.256 23.016Z" fill="black"/>
<path d="M56.4668 19.464C57.3628 19.464 58.1468 19.592 58.8188 19.848C59.5228 20.072 60.1307 20.376 60.6427 20.76C61.1228 21.144 61.4908 21.592 61.7467 22.104C62.0028 22.616 62.1308 23.16 62.1308 23.736C62.1308 24.472 61.8908 25.08 61.4108 25.56C60.9308 26.04 60.3228 26.28 59.5868 26.28C58.8827 26.28 58.2588 26.056 57.7148 25.608C57.2028 25.128 56.9468 24.488 56.9468 23.688C56.9468 23.016 57.1228 22.472 57.4748 22.056C57.8588 21.64 58.3547 21.368 58.9627 21.24C58.8667 20.952 58.6108 20.712 58.1948 20.52C57.8108 20.296 57.2828 20.184 56.6108 20.184C55.8748 20.184 55.2348 20.344 54.6908 20.664C54.1788 20.984 53.7787 21.416 53.4907 21.96C53.1067 22.632 52.8668 23.64 52.7708 24.984C52.6748 26.296 52.6268 28.328 52.6268 31.08V32.328H57.7627V33.288H52.6268V52.056C52.6268 53.624 53.0747 54.68 53.9707 55.224C54.8987 55.736 56.1468 55.992 57.7148 55.992V57C56.9788 56.968 55.9387 56.936 54.5947 56.904C53.2507 56.84 51.8268 56.808 50.3228 56.808C49.2348 56.808 48.1468 56.84 47.0588 56.904C46.0028 56.936 45.2027 56.968 44.6587 57V55.992C45.9707 55.992 46.8987 55.752 47.4427 55.272C48.0187 54.792 48.3068 53.88 48.3068 52.536V33.288H44.4668V32.328H48.3068C48.3068 30.44 48.3867 28.856 48.5467 27.576C48.7067 26.296 48.9628 25.208 49.3148 24.312C49.6668 23.384 50.1467 22.568 50.7547 21.864C51.3947 21.128 52.2108 20.552 53.2028 20.136C54.1948 19.688 55.2828 19.464 56.4668 19.464Z" fill="black"/>
<path d="M71.4154 31.608C74.2314 31.608 76.4234 32.472 77.9914 34.2C79.5914 35.896 80.3914 38.552 80.3914 42.168H63.4474L63.3994 41.256H75.7834C75.8474 39.688 75.7194 38.248 75.3994 36.936C75.0794 35.592 74.5674 34.52 73.8634 33.72C73.1914 32.92 72.3114 32.52 71.2234 32.52C69.7514 32.52 68.4394 33.256 67.2874 34.728C66.1674 36.2 65.4954 38.536 65.2714 41.736L65.4154 41.928C65.3514 42.408 65.3034 42.936 65.2714 43.512C65.2394 44.088 65.2234 44.664 65.2234 45.24C65.2234 47.416 65.5754 49.288 66.2794 50.856C66.9834 52.424 67.8954 53.624 69.0154 54.456C70.1674 55.256 71.3514 55.656 72.5674 55.656C73.5274 55.656 74.4394 55.512 75.3034 55.224C76.1674 54.904 76.9674 54.392 77.7034 53.688C78.4394 52.984 79.0794 52.04 79.6234 50.856L80.5834 51.24C80.2314 52.296 79.6554 53.32 78.8554 54.312C78.0554 55.304 77.0474 56.12 75.8314 56.76C74.6154 57.368 73.2074 57.672 71.6074 57.672C69.3034 57.672 67.3194 57.144 65.6554 56.088C64.0234 55.032 62.7594 53.576 61.8634 51.72C60.9994 49.832 60.5674 47.672 60.5674 45.24C60.5674 42.424 61.0154 40.008 61.9114 37.992C62.8074 35.944 64.0714 34.376 65.7034 33.288C67.3354 32.168 69.2394 31.608 71.4154 31.608Z" fill="black"/>
<path d="M91.6646 19.368V52.536C91.6646 53.88 91.9366 54.792 92.4806 55.272C93.0566 55.752 94.0006 55.992 95.3126 55.992V57C94.7686 56.968 93.9366 56.936 92.8166 56.904C91.7286 56.84 90.6246 56.808 89.5046 56.808C88.4166 56.808 87.3126 56.84 86.1926 56.904C85.0726 56.936 84.2406 56.968 83.6966 57V55.992C85.0086 55.992 85.9366 55.752 86.4806 55.272C87.0566 54.792 87.3446 53.88 87.3446 52.536V25.128C87.3446 23.688 87.0886 22.632 86.5766 21.96C86.0646 21.256 85.1046 20.904 83.6966 20.904V19.896C84.7206 19.992 85.7126 20.04 86.6726 20.04C87.6006 20.04 88.4806 19.992 89.3126 19.896C90.1766 19.768 90.9606 19.592 91.6646 19.368Z" fill="black"/>
<path d="M105.399 19.368V52.536C105.399 53.88 105.671 54.792 106.215 55.272C106.791 55.752 107.735 55.992 109.047 55.992V57C108.503 56.968 107.671 56.936 106.551 56.904C105.463 56.84 104.359 56.808 103.239 56.808C102.151 56.808 101.047 56.84 99.927 56.904C98.807 56.936 97.975 56.968 97.431 57V55.992C98.743 55.992 99.671 55.752 100.215 55.272C100.791 54.792 101.079 53.88 101.079 52.536V25.128C101.079 23.688 100.823 22.632 100.311 21.96C99.799 21.256 98.839 20.904 97.431 20.904V19.896C98.455 19.992 99.447 20.04 100.407 20.04C101.335 20.04 102.215 19.992 103.047 19.896C103.911 19.768 104.695 19.592 105.399 19.368Z" fill="black"/>
<path d="M40.968 87.016C40.84 88.232 40.744 89.416 40.68 90.568C40.648 91.688 40.632 92.552 40.632 93.16C40.632 93.928 40.648 94.648 40.68 95.32C40.712 95.992 40.744 96.584 40.776 97.096H39.672C39.448 94.856 39.144 93.096 38.76 91.816C38.376 90.504 37.704 89.56 36.744 88.984C35.784 88.408 34.296 88.12 32.28 88.12H29.256C28.168 88.12 27.336 88.216 26.76 88.408C26.216 88.568 25.848 88.936 25.656 89.512C25.464 90.056 25.368 90.92 25.368 92.104V115.912C25.368 117.064 25.48 117.928 25.704 118.504C25.96 119.08 26.44 119.464 27.144 119.656C27.848 119.848 28.872 119.976 30.216 120.04V121C29.384 120.936 28.328 120.904 27.048 120.904C25.768 120.872 24.472 120.856 23.16 120.856C21.912 120.856 20.744 120.872 19.656 120.904C18.568 120.904 17.688 120.936 17.016 121V120.04C18.104 119.976 18.92 119.848 19.464 119.656C20.04 119.464 20.424 119.08 20.616 118.504C20.808 117.928 20.904 117.064 20.904 115.912V92.104C20.904 90.92 20.808 90.056 20.616 89.512C20.424 88.936 20.04 88.552 19.464 88.36C18.92 88.136 18.104 88.008 17.016 87.976V87.016C18.2 87.048 19.448 87.08 20.76 87.112C22.072 87.112 23.368 87.128 24.648 87.16C25.928 87.16 27.112 87.16 28.2 87.16C29.32 87.16 30.232 87.16 30.936 87.16C32.408 87.16 34.072 87.16 35.928 87.16C37.816 87.128 39.496 87.08 40.968 87.016ZM33.528 103.912C33.528 103.912 33.528 104.072 33.528 104.392C33.528 104.712 33.528 104.872 33.528 104.872H23.928C23.928 104.872 23.928 104.712 23.928 104.392C23.928 104.072 23.928 103.912 23.928 103.912H33.528ZM34.44 97.576C34.312 99.4 34.248 100.792 34.248 101.752C34.28 102.712 34.296 103.592 34.296 104.392C34.296 105.192 34.312 106.072 34.344 107.032C34.376 107.992 34.456 109.384 34.584 111.208H33.48C33.352 110.184 33.192 109.192 33 108.232C32.84 107.24 32.456 106.44 31.848 105.832C31.272 105.192 30.28 104.872 28.872 104.872V103.912C29.928 103.912 30.728 103.704 31.272 103.288C31.848 102.84 32.264 102.28 32.52 101.608C32.776 100.936 32.952 100.248 33.048 99.544C33.144 98.808 33.24 98.152 33.336 97.576H34.44Z" fill="black"/>
<path d="M54.3083 95.608C56.3563 95.608 58.1963 96.056 59.8283 96.952C61.4603 97.848 62.7563 99.256 63.7163 101.176C64.7083 103.096 65.2043 105.592 65.2043 108.664C65.2043 111.736 64.7083 114.232 63.7163 116.152C62.7563 118.04 61.4603 119.432 59.8283 120.328C58.1963 121.224 56.3563 121.672 54.3083 121.672C52.2923 121.672 50.4523 121.224 48.7882 120.328C47.1562 119.432 45.8442 118.04 44.8522 116.152C43.8922 114.232 43.4123 111.736 43.4123 108.664C43.4123 105.592 43.8922 103.096 44.8522 101.176C45.8442 99.256 47.1562 97.848 48.7882 96.952C50.4523 96.056 52.2923 95.608 54.3083 95.608ZM54.3083 96.568C52.4843 96.568 50.9802 97.512 49.7962 99.4C48.6442 101.288 48.0682 104.376 48.0682 108.664C48.0682 112.952 48.6442 116.04 49.7962 117.928C50.9802 119.784 52.4843 120.712 54.3083 120.712C56.1323 120.712 57.6203 119.784 58.7723 117.928C59.9563 116.04 60.5483 112.952 60.5483 108.664C60.5483 104.376 59.9563 101.288 58.7723 99.4C57.6203 97.512 56.1323 96.568 54.3083 96.568Z" fill="black"/>
<path d="M83.7731 95.608C84.6371 95.608 85.3891 95.784 86.0291 96.136C86.7011 96.488 87.2131 96.952 87.5651 97.528C87.9491 98.072 88.1411 98.696 88.1411 99.4C88.1411 100.2 87.8851 100.904 87.3731 101.512C86.8931 102.12 86.2371 102.424 85.4051 102.424C84.7331 102.424 84.1411 102.216 83.6291 101.8C83.1171 101.352 82.8611 100.728 82.8611 99.928C82.8611 99.32 83.0211 98.808 83.3411 98.392C83.6931 97.944 84.0771 97.592 84.4931 97.336C84.2691 97.016 83.9331 96.856 83.4851 96.856C82.4931 96.856 81.5811 97.16 80.7491 97.768C79.9171 98.344 79.2131 99.096 78.6371 100.024C78.0611 100.952 77.6131 101.944 77.2931 103C76.9731 104.024 76.8131 104.984 76.8131 105.88V116.056C76.8131 117.624 77.2611 118.68 78.1571 119.224C79.0851 119.736 80.3331 119.992 81.9011 119.992V121C81.1651 120.968 80.1251 120.936 78.7811 120.904C77.4371 120.84 76.0131 120.808 74.5091 120.808C73.4211 120.808 72.3331 120.84 71.2451 120.904C70.1891 120.936 69.3891 120.968 68.8451 121V119.992C70.1571 119.992 71.0851 119.752 71.6291 119.272C72.2051 118.792 72.4931 117.88 72.4931 116.536V101.512C72.4931 100.072 72.2371 99.016 71.7251 98.344C71.2131 97.64 70.2531 97.288 68.8451 97.288V96.28C69.8691 96.376 70.8611 96.424 71.8211 96.424C72.7491 96.424 73.6291 96.376 74.4611 96.28C75.3251 96.152 76.1091 95.976 76.8131 95.752V101.752C77.1651 100.824 77.6611 99.896 78.3011 98.968C78.9731 98.008 79.7731 97.208 80.7011 96.568C81.6291 95.928 82.6531 95.608 83.7731 95.608Z" fill="black"/>
<path d="M122.196 96.28V97.24C121.588 97.304 121.028 97.576 120.516 98.056C120.004 98.536 119.524 99.384 119.076 100.6L111.204 121.24H110.388L101.556 99.976C100.948 98.728 100.34 97.976 99.7324 97.72C99.1564 97.432 98.6764 97.288 98.2924 97.288V96.28C98.9964 96.376 99.7324 96.456 100.5 96.52C101.268 96.552 102.1 96.568 102.996 96.568C103.988 96.568 105.028 96.536 106.116 96.472C107.236 96.408 108.276 96.344 109.236 96.28V97.288C108.436 97.288 107.716 97.352 107.076 97.48C106.468 97.576 106.084 97.912 105.924 98.488C105.764 99.032 105.956 99.976 106.5 101.32L112.404 115.96L112.116 116.056L117.588 101.752C118.004 100.696 118.164 99.864 118.068 99.256C118.004 98.616 117.684 98.136 117.108 97.816C116.532 97.496 115.668 97.304 114.516 97.24V96.28C115.092 96.312 115.588 96.344 116.004 96.376C116.42 96.376 116.82 96.392 117.204 96.424C117.62 96.424 118.068 96.424 118.548 96.424C119.284 96.424 119.94 96.408 120.516 96.376C121.124 96.344 121.684 96.312 122.196 96.28ZM111.204 121.24L109.572 125.416C109.252 126.216 108.916 126.888 108.564 127.432C108.244 127.976 107.892 128.424 107.508 128.776C106.996 129.256 106.388 129.576 105.684 129.736C104.98 129.928 104.34 130.024 103.764 130.024C103.156 130.024 102.596 129.912 102.084 129.688C101.604 129.464 101.22 129.128 100.932 128.68C100.644 128.264 100.5 127.752 100.5 127.144C100.5 126.376 100.724 125.752 101.172 125.272C101.62 124.824 102.244 124.6 103.044 124.6C103.716 124.6 104.292 124.792 104.772 125.176C105.252 125.56 105.492 126.12 105.492 126.856C105.492 127.4 105.364 127.848 105.108 128.2C104.852 128.552 104.548 128.824 104.196 129.016C104.26 129.048 104.308 129.064 104.34 129.064C104.404 129.064 104.452 129.064 104.484 129.064C105.348 129.064 106.116 128.76 106.788 128.152C107.46 127.576 108.052 126.632 108.564 125.32L110.292 120.856L111.204 121.24Z" fill="black"/>
<path d="M135.402 95.608C137.45 95.608 139.29 96.056 140.922 96.952C142.554 97.848 143.85 99.256 144.81 101.176C145.802 103.096 146.298 105.592 146.298 108.664C146.298 111.736 145.802 114.232 144.81 116.152C143.85 118.04 142.554 119.432 140.922 120.328C139.29 121.224 137.45 121.672 135.402 121.672C133.386 121.672 131.546 121.224 129.882 120.328C128.25 119.432 126.938 118.04 125.946 116.152C124.986 114.232 124.506 111.736 124.506 108.664C124.506 105.592 124.986 103.096 125.946 101.176C126.938 99.256 128.25 97.848 129.882 96.952C131.546 96.056 133.386 95.608 135.402 95.608ZM135.402 96.568C133.578 96.568 132.074 97.512 130.89 99.4C129.738 101.288 129.162 104.376 129.162 108.664C129.162 112.952 129.738 116.04 130.89 117.928C132.074 119.784 133.578 120.712 135.402 120.712C137.226 120.712 138.714 119.784 139.866 117.928C141.05 116.04 141.642 112.952 141.642 108.664C141.642 104.376 141.05 101.288 139.866 99.4C138.714 97.512 137.226 96.568 135.402 96.568Z" fill="black"/>
<path d="M171.731 95.752V115.816C171.731 117.256 171.987 118.328 172.499 119.032C173.043 119.704 174.003 120.04 175.379 120.04V121.048C174.387 120.952 173.395 120.904 172.403 120.904C171.475 120.904 170.579 120.952 169.715 121.048C168.883 121.144 168.115 121.32 167.411 121.576V115.912C166.611 117.992 165.475 119.48 164.003 120.376C162.563 121.24 161.075 121.672 159.539 121.672C158.419 121.672 157.443 121.512 156.611 121.192C155.779 120.872 155.091 120.424 154.547 119.848C153.939 119.208 153.523 118.376 153.299 117.352C153.075 116.328 152.963 115.064 152.963 113.56V101.512C152.963 100.072 152.707 99.016 152.195 98.344C151.683 97.64 150.723 97.288 149.315 97.288V96.28C150.339 96.376 151.331 96.424 152.291 96.424C153.219 96.424 154.099 96.376 154.931 96.28C155.795 96.152 156.579 95.976 157.283 95.752V114.616C157.283 115.608 157.347 116.52 157.475 117.352C157.603 118.184 157.923 118.856 158.435 119.368C158.947 119.88 159.779 120.136 160.931 120.136C162.179 120.136 163.283 119.752 164.243 118.984C165.235 118.216 166.003 117.176 166.547 115.864C167.123 114.552 167.411 113.08 167.411 111.448V101.512C167.411 100.072 167.155 99.016 166.643 98.344C166.131 97.64 165.171 97.288 163.763 97.288V96.28C164.787 96.376 165.779 96.424 166.739 96.424C167.667 96.424 168.547 96.376 169.379 96.28C170.243 96.152 171.027 95.976 171.731 95.752Z" fill="black"/>
<path d="M30.504 150.776L42.216 180.968C42.696 182.184 43.24 183 43.848 183.416C44.456 183.8 45.016 184.008 45.528 184.04V185C44.888 184.936 44.104 184.904 43.176 184.904C42.248 184.872 41.32 184.856 40.392 184.856C39.144 184.856 37.976 184.872 36.888 184.904C35.8 184.904 34.92 184.936 34.248 185V184.04C35.88 183.976 36.92 183.704 37.368 183.224C37.816 182.712 37.72 181.64 37.08 180.008L28.152 156.152L28.92 155.528L20.568 177.224C20.056 178.504 19.752 179.592 19.656 180.488C19.56 181.352 19.64 182.04 19.896 182.552C20.184 183.064 20.648 183.432 21.288 183.656C21.96 183.88 22.792 184.008 23.784 184.04V185C22.888 184.936 21.944 184.904 20.952 184.904C19.992 184.872 19.096 184.856 18.264 184.856C17.464 184.856 16.776 184.872 16.2 184.904C15.656 184.904 15.144 184.936 14.664 185V184.04C15.304 183.88 15.96 183.512 16.632 182.936C17.304 182.328 17.912 181.304 18.456 179.864L29.736 150.776C29.864 150.776 29.992 150.776 30.12 150.776C30.248 150.776 30.376 150.776 30.504 150.776ZM36.36 171.176V172.136H22.056L22.536 171.176H36.36Z" fill="black"/>
<path d="M62.7544 159.608C63.9704 159.608 64.9784 159.768 65.7784 160.088C66.6104 160.408 67.2984 160.856 67.8424 161.432C68.4504 162.072 68.8824 162.872 69.1384 163.832C69.3944 164.792 69.5224 166.088 69.5224 167.72V180.536C69.5224 181.88 69.7944 182.792 70.3384 183.272C70.9144 183.752 71.8584 183.992 73.1704 183.992V185C72.6264 184.968 71.7944 184.936 70.6744 184.904C69.5544 184.84 68.4664 184.808 67.4104 184.808C66.3544 184.808 65.3144 184.84 64.2904 184.904C63.2984 184.936 62.5464 184.968 62.0344 185V183.992C63.1864 183.992 64.0024 183.752 64.4824 183.272C64.9624 182.792 65.2024 181.88 65.2024 180.536V166.664C65.2024 165.672 65.1224 164.76 64.9624 163.928C64.8024 163.096 64.4344 162.424 63.8584 161.912C63.3144 161.4 62.4664 161.144 61.3144 161.144C59.9704 161.144 58.7864 161.528 57.7624 162.296C56.7704 163.064 55.9864 164.12 55.4104 165.464C54.8664 166.776 54.5944 168.248 54.5944 169.88V180.536C54.5944 181.88 54.8344 182.792 55.3144 183.272C55.7944 183.752 56.6104 183.992 57.7624 183.992V185C57.2504 184.968 56.4824 184.936 55.4584 184.904C54.4664 184.84 53.4424 184.808 52.3864 184.808C51.3304 184.808 50.2424 184.84 49.1224 184.904C48.0024 184.936 47.1704 184.968 46.6264 185V183.992C47.9384 183.992 48.8664 183.752 49.4104 183.272C49.9864 182.792 50.2744 181.88 50.2744 180.536V165.512C50.2744 164.072 50.0184 163.016 49.5064 162.344C48.9944 161.64 48.0344 161.288 46.6264 161.288V160.28C47.6504 160.376 48.6424 160.424 49.6024 160.424C50.5304 160.424 51.4104 160.376 52.2424 160.28C53.1064 160.152 53.8904 159.976 54.5944 159.752V165.416C55.4264 163.24 56.5784 161.736 58.0504 160.904C59.5544 160.04 61.1224 159.608 62.7544 159.608Z" fill="black"/>
<path d="M97.107 147.368V179.768C97.107 181.208 97.363 182.28 97.875 182.984C98.419 183.656 99.379 183.992 100.755 183.992V185C99.763 184.904 98.771 184.856 97.779 184.856C96.851 184.856 95.955 184.904 95.091 185C94.259 185.096 93.491 185.272 92.787 185.528V153.128C92.787 151.688 92.531 150.632 92.019 149.96C91.507 149.256 90.547 148.904 89.139 148.904V147.896C90.163 147.992 91.155 148.04 92.115 148.04C93.043 148.04 93.923 147.992 94.755 147.896C95.619 147.768 96.403 147.592 97.107 147.368ZM87.027 159.608C88.435 159.608 89.747 159.944 90.963 160.616C92.211 161.288 93.043 162.44 93.459 164.072L92.835 164.552C92.387 163.208 91.683 162.232 90.723 161.624C89.795 161.016 88.691 160.712 87.411 160.712C85.523 160.712 83.939 161.688 82.659 163.64C81.411 165.592 80.803 168.6 80.835 172.664C80.835 175.256 81.075 177.416 81.555 179.144C82.067 180.84 82.803 182.12 83.763 182.984C84.755 183.816 85.955 184.232 87.363 184.232C88.707 184.232 89.923 183.656 91.011 182.504C92.099 181.352 92.755 179.656 92.979 177.416L93.555 178.088C93.299 180.52 92.515 182.392 91.203 183.704C89.923 185.016 88.179 185.672 85.971 185.672C83.987 185.672 82.243 185.192 80.739 184.232C79.267 183.272 78.131 181.832 77.331 179.912C76.563 177.992 76.179 175.576 76.179 172.664C76.179 169.752 76.675 167.336 77.667 165.416C78.691 163.464 80.019 162.008 81.651 161.048C83.315 160.088 85.107 159.608 87.027 159.608Z" fill="black"/>
<path d="M127.975 151.016V151.976C126.887 152.008 126.055 152.136 125.479 152.36C124.935 152.552 124.567 152.936 124.375 153.512C124.183 154.056 124.087 154.92 124.087 156.104V179.912C124.087 181.064 124.183 181.928 124.375 182.504C124.567 183.08 124.935 183.464 125.479 183.656C126.055 183.848 126.887 183.976 127.975 184.04V185C127.239 184.936 126.311 184.904 125.191 184.904C124.103 184.872 122.999 184.856 121.879 184.856C120.631 184.856 119.463 184.872 118.375 184.904C117.287 184.904 116.407 184.936 115.735 185V184.04C116.823 183.976 117.639 183.848 118.183 183.656C118.759 183.464 119.143 183.08 119.335 182.504C119.527 181.928 119.623 181.064 119.623 179.912V156.104C119.623 154.92 119.527 154.056 119.335 153.512C119.143 152.936 118.759 152.552 118.183 152.36C117.639 152.136 116.823 152.008 115.735 151.976V151.016C116.407 151.048 117.287 151.08 118.375 151.112C119.463 151.144 120.631 151.16 121.879 151.16C122.999 151.16 124.103 151.144 125.191 151.112C126.311 151.08 127.239 151.048 127.975 151.016Z" fill="black"/>
<path d="M150.146 185.336C148.834 185.336 147.698 185.096 146.738 184.616C145.778 184.104 145.041 183.4 144.529 182.504C144.049 181.608 143.809 180.568 143.809 179.384C143.809 177.976 144.13 176.824 144.77 175.928C145.442 175.032 146.29 174.312 147.314 173.768C148.338 173.224 149.409 172.776 150.529 172.424C151.681 172.04 152.77 171.688 153.794 171.368C154.818 171.016 155.65 170.616 156.29 170.168C156.962 169.72 157.298 169.128 157.298 168.392V165.416C157.298 164.072 157.09 163.048 156.674 162.344C156.29 161.64 155.762 161.176 155.09 160.952C154.418 160.696 153.665 160.568 152.833 160.568C152.033 160.568 151.17 160.68 150.242 160.904C149.346 161.128 148.625 161.592 148.081 162.296C148.689 162.424 149.217 162.744 149.665 163.256C150.113 163.768 150.337 164.424 150.337 165.224C150.337 166.024 150.082 166.664 149.57 167.144C149.058 167.592 148.402 167.816 147.602 167.816C146.674 167.816 145.986 167.528 145.538 166.952C145.122 166.344 144.913 165.672 144.913 164.936C144.913 164.104 145.122 163.432 145.538 162.92C145.954 162.408 146.482 161.928 147.122 161.48C147.858 160.968 148.802 160.536 149.954 160.184C151.138 159.8 152.466 159.608 153.938 159.608C155.25 159.608 156.37 159.768 157.298 160.088C158.226 160.376 158.994 160.808 159.602 161.384C160.434 162.152 160.978 163.096 161.234 164.216C161.49 165.304 161.618 166.616 161.618 168.152V181.496C161.618 182.296 161.73 182.872 161.954 183.224C162.21 183.576 162.593 183.752 163.105 183.752C163.457 183.752 163.793 183.672 164.113 183.512C164.433 183.352 164.818 183.096 165.266 182.744L165.794 183.56C165.122 184.072 164.482 184.504 163.874 184.856C163.266 185.176 162.45 185.336 161.426 185.336C160.498 185.336 159.73 185.176 159.122 184.856C158.514 184.536 158.05 184.072 157.73 183.464C157.442 182.824 157.298 182.024 157.298 181.064C156.434 182.504 155.394 183.576 154.178 184.28C152.994 184.984 151.65 185.336 150.146 185.336ZM151.874 183.416C152.93 183.416 153.905 183.112 154.801 182.504C155.729 181.896 156.562 180.984 157.298 179.768V170.36C156.914 170.904 156.354 171.368 155.618 171.752C154.882 172.104 154.081 172.472 153.217 172.856C152.353 173.208 151.521 173.64 150.721 174.152C149.953 174.632 149.313 175.272 148.801 176.072C148.289 176.872 148.033 177.912 148.033 179.192C148.033 180.472 148.37 181.496 149.042 182.264C149.746 183.032 150.69 183.416 151.874 183.416Z" fill="black"/>
<path d="M183.076 159.608C184.196 159.608 185.172 159.768 186.004 160.088C186.836 160.408 187.524 160.856 188.068 161.432C188.676 162.072 189.092 162.904 189.316 163.928C189.54 164.952 189.652 166.216 189.652 167.72V180.536C189.652 181.88 189.924 182.792 190.468 183.272C191.044 183.752 191.988 183.992 193.3 183.992V185C192.756 184.968 191.924 184.936 190.804 184.904C189.684 184.84 188.596 184.808 187.54 184.808C186.484 184.808 185.444 184.84 184.42 184.904C183.428 184.936 182.676 184.968 182.164 185V183.992C183.316 183.992 184.132 183.752 184.612 183.272C185.092 182.792 185.332 181.88 185.332 180.536V166.664C185.332 165.672 185.268 164.76 185.14 163.928C185.012 163.096 184.692 162.424 184.18 161.912C183.668 161.4 182.836 161.144 181.684 161.144C180.436 161.144 179.316 161.528 178.324 162.296C177.364 163.064 176.596 164.12 176.02 165.464C175.476 166.776 175.204 168.248 175.204 169.88V180.536C175.204 181.88 175.444 182.792 175.924 183.272C176.404 183.752 177.22 183.992 178.372 183.992V185C177.86 184.968 177.092 184.936 176.068 184.904C175.076 184.84 174.052 184.808 172.996 184.808C171.94 184.808 170.852 184.84 169.732 184.904C168.612 184.936 167.78 184.968 167.236 185V183.992C168.548 183.992 169.476 183.752 170.02 183.272C170.596 182.792 170.884 181.88 170.884 180.536V165.512C170.884 164.072 170.628 163.016 170.116 162.344C169.604 161.64 168.644 161.288 167.236 161.288V160.28C168.26 160.376 169.252 160.424 170.212 160.424C171.14 160.424 172.02 160.376 172.852 160.28C173.716 160.152 174.5 159.976 175.204 159.752V165.416C176.036 163.336 177.172 161.848 178.612 160.952C180.052 160.056 181.54 159.608 183.076 159.608ZM197.524 159.608C198.644 159.608 199.62 159.768 200.452 160.088C201.284 160.408 201.972 160.856 202.516 161.432C203.124 162.072 203.54 162.904 203.764 163.928C203.988 164.952 204.1 166.216 204.1 167.72V180.536C204.1 181.88 204.372 182.792 204.916 183.272C205.492 183.752 206.436 183.992 207.748 183.992V185C207.204 184.968 206.372 184.936 205.252 184.904C204.132 184.84 203.044 184.808 201.988 184.808C200.932 184.808 199.892 184.84 198.868 184.904C197.876 184.936 197.124 184.968 196.612 185V183.992C197.764 183.992 198.58 183.752 199.06 183.272C199.54 182.792 199.78 181.88 199.78 180.536V166.664C199.78 165.672 199.716 164.76 199.588 163.928C199.46 163.096 199.14 162.424 198.628 161.912C198.116 161.4 197.284 161.144 196.132 161.144C194.884 161.144 193.764 161.528 192.772 162.296C191.812 163.064 191.044 164.104 190.468 165.416C189.924 166.728 189.652 168.2 189.652 169.832L189.508 165.368C190.372 163.16 191.54 161.656 193.012 160.856C194.484 160.024 195.988 159.608 197.524 159.608Z" fill="black"/>
<path d="M27.288 214.488C28.888 214.488 30.104 214.68 30.936 215.064C31.768 215.416 32.504 215.816 33.144 216.264C33.528 216.488 33.832 216.664 34.056 216.792C34.312 216.888 34.552 216.936 34.776 216.936C35.096 216.936 35.32 216.76 35.448 216.408C35.608 216.056 35.736 215.528 35.832 214.824H36.936C36.904 215.368 36.856 216.024 36.792 216.792C36.76 217.528 36.728 218.52 36.696 219.768C36.696 220.984 36.696 222.6 36.696 224.616H35.592C35.496 223.08 35.16 221.608 34.584 220.2C34.008 218.792 33.16 217.64 32.04 216.744C30.952 215.848 29.512 215.4 27.72 215.4C26.024 215.4 24.616 215.912 23.496 216.936C22.408 217.96 21.864 219.304 21.864 220.968C21.864 222.408 22.232 223.624 22.968 224.616C23.704 225.576 24.68 226.456 25.896 227.256C27.144 228.024 28.488 228.856 29.928 229.752C31.592 230.776 33.064 231.8 34.344 232.824C35.656 233.816 36.68 234.92 37.416 236.136C38.184 237.352 38.568 238.824 38.568 240.552C38.568 242.6 38.104 244.296 37.176 245.64C36.248 246.984 35.016 247.992 33.48 248.664C31.944 249.336 30.248 249.672 28.392 249.672C26.696 249.672 25.352 249.48 24.36 249.096C23.368 248.712 22.52 248.312 21.816 247.896C21.112 247.448 20.568 247.224 20.184 247.224C19.864 247.224 19.624 247.4 19.464 247.752C19.336 248.104 19.224 248.632 19.128 249.336H18.024C18.088 248.664 18.12 247.88 18.12 246.984C18.152 246.056 18.168 244.856 18.168 243.384C18.2 241.912 18.216 240.056 18.216 237.816H19.32C19.448 239.736 19.8 241.528 20.376 243.192C20.984 244.856 21.896 246.2 23.112 247.224C24.36 248.216 26.008 248.712 28.056 248.712C29.112 248.712 30.104 248.504 31.032 248.088C31.992 247.64 32.776 246.952 33.384 246.024C33.992 245.064 34.296 243.832 34.296 242.328C34.296 241.016 33.976 239.88 33.336 238.92C32.728 237.928 31.864 237.016 30.744 236.184C29.624 235.32 28.312 234.44 26.808 233.544C25.304 232.616 23.896 231.672 22.584 230.712C21.272 229.752 20.216 228.648 19.416 227.4C18.648 226.12 18.264 224.584 18.264 222.792C18.264 220.904 18.68 219.352 19.512 218.136C20.376 216.888 21.496 215.976 22.872 215.4C24.248 214.792 25.72 214.488 27.288 214.488Z" fill="black"/>
<path d="M50.0419 216.312V224.328H57.1459V225.288H50.0419V243.864C50.0419 245.368 50.3139 246.424 50.8579 247.032C51.4019 247.64 52.1539 247.944 53.1139 247.944C54.0739 247.944 54.9059 247.56 55.6099 246.792C56.3139 245.992 56.9219 244.664 57.4339 242.808L58.3939 243.048C58.0739 244.904 57.4339 246.472 56.4739 247.752C55.5459 249.032 54.1059 249.672 52.1539 249.672C51.0659 249.672 50.1699 249.528 49.4659 249.24C48.7619 248.984 48.1379 248.6 47.5939 248.088C46.8899 247.352 46.3939 246.472 46.1059 245.448C45.8499 244.424 45.7219 243.064 45.7219 241.368V225.288H41.1139V224.328H45.7219V216.984C46.5219 216.952 47.2899 216.888 48.0259 216.792C48.7619 216.696 49.4339 216.536 50.0419 216.312Z" fill="black"/>
<path d="M64.7546 212.28C65.5866 212.28 66.3066 212.584 66.9146 213.192C67.5226 213.8 67.8266 214.52 67.8266 215.352C67.8266 216.184 67.5226 216.904 66.9146 217.512C66.3066 218.12 65.5866 218.424 64.7546 218.424C63.9226 218.424 63.2026 218.12 62.5946 217.512C61.9866 216.904 61.6826 216.184 61.6826 215.352C61.6826 214.52 61.9866 213.8 62.5946 213.192C63.2026 212.584 63.9226 212.28 64.7546 212.28ZM67.2506 223.752V244.536C67.2506 245.88 67.5226 246.792 68.0666 247.272C68.6426 247.752 69.5866 247.992 70.8986 247.992V249C70.3546 248.968 69.5226 248.936 68.4026 248.904C67.3146 248.84 66.2106 248.808 65.0906 248.808C64.0026 248.808 62.8986 248.84 61.7786 248.904C60.6586 248.936 59.8266 248.968 59.2826 249V247.992C60.5946 247.992 61.5226 247.752 62.0666 247.272C62.6426 246.792 62.9306 245.88 62.9306 244.536V229.512C62.9306 228.072 62.6746 227.016 62.1626 226.344C61.6506 225.64 60.6906 225.288 59.2826 225.288V224.28C60.3066 224.376 61.2986 224.424 62.2586 224.424C63.1866 224.424 64.0666 224.376 64.8986 224.28C65.7626 224.152 66.5466 223.976 67.2506 223.752Z" fill="black"/>
<path d="M80.9771 211.368V244.536C80.9771 245.88 81.2491 246.792 81.7931 247.272C82.3691 247.752 83.3131 247.992 84.6251 247.992V249C84.0811 248.968 83.2491 248.936 82.1291 248.904C81.0411 248.84 79.9371 248.808 78.8171 248.808C77.7291 248.808 76.6251 248.84 75.5051 248.904C74.3851 248.936 73.5531 248.968 73.0091 249V247.992C74.3211 247.992 75.2491 247.752 75.7931 247.272C76.3691 246.792 76.6571 245.88 76.6571 244.536V217.128C76.6571 215.688 76.4011 214.632 75.8891 213.96C75.3771 213.256 74.4171 212.904 73.0091 212.904V211.896C74.0331 211.992 75.0251 212.04 75.9851 212.04C76.9131 212.04 77.7931 211.992 78.6251 211.896C79.4891 211.768 80.2731 211.592 80.9771 211.368Z" fill="black"/>
<path d="M94.7115 211.368V244.536C94.7115 245.88 94.9835 246.792 95.5275 247.272C96.1035 247.752 97.0475 247.992 98.3595 247.992V249C97.8155 248.968 96.9835 248.936 95.8635 248.904C94.7755 248.84 93.6715 248.808 92.5515 248.808C91.4635 248.808 90.3595 248.84 89.2395 248.904C88.1195 248.936 87.2875 248.968 86.7435 249V247.992C88.0555 247.992 88.9835 247.752 89.5275 247.272C90.1035 246.792 90.3915 245.88 90.3915 244.536V217.128C90.3915 215.688 90.1355 214.632 89.6235 213.96C89.1115 213.256 88.1515 212.904 86.7435 212.904V211.896C87.7675 211.992 88.7595 212.04 89.7195 212.04C90.6475 212.04 91.5275 211.992 92.3595 211.896C93.2235 211.768 94.0075 211.592 94.7115 211.368Z" fill="black"/>
<path d="M40.968 279.016C40.84 280.232 40.744 281.416 40.68 282.568C40.648 283.688 40.632 284.552 40.632 285.16C40.632 285.928 40.648 286.648 40.68 287.32C40.712 287.992 40.744 288.584 40.776 289.096H39.672C39.448 286.856 39.144 285.096 38.76 283.816C38.376 282.504 37.704 281.56 36.744 280.984C35.784 280.408 34.296 280.12 32.28 280.12H29.256C28.168 280.12 27.336 280.216 26.76 280.408C26.216 280.568 25.848 280.936 25.656 281.512C25.464 282.056 25.368 282.92 25.368 284.104V307.912C25.368 309.064 25.48 309.928 25.704 310.504C25.96 311.08 26.44 311.464 27.144 311.656C27.848 311.848 28.872 311.976 30.216 312.04V313C29.384 312.936 28.328 312.904 27.048 312.904C25.768 312.872 24.472 312.856 23.16 312.856C21.912 312.856 20.744 312.872 19.656 312.904C18.568 312.904 17.688 312.936 17.016 313V312.04C18.104 311.976 18.92 311.848 19.464 311.656C20.04 311.464 20.424 311.08 20.616 310.504C20.808 309.928 20.904 309.064 20.904 307.912V284.104C20.904 282.92 20.808 282.056 20.616 281.512C20.424 280.936 20.04 280.552 19.464 280.36C18.92 280.136 18.104 280.008 17.016 279.976V279.016C18.2 279.048 19.448 279.08 20.76 279.112C22.072 279.112 23.368 279.128 24.648 279.16C25.928 279.16 27.112 279.16 28.2 279.16C29.32 279.16 30.232 279.16 30.936 279.16C32.408 279.16 34.072 279.16 35.928 279.16C37.816 279.128 39.496 279.08 40.968 279.016ZM33.528 295.912C33.528 295.912 33.528 296.072 33.528 296.392C33.528 296.712 33.528 296.872 33.528 296.872H23.928C23.928 296.872 23.928 296.712 23.928 296.392C23.928 296.072 23.928 295.912 23.928 295.912H33.528ZM34.44 289.576C34.312 291.4 34.248 292.792 34.248 293.752C34.28 294.712 34.296 295.592 34.296 296.392C34.296 297.192 34.312 298.072 34.344 299.032C34.376 299.992 34.456 301.384 34.584 303.208H33.48C33.352 302.184 33.192 301.192 33 300.232C32.84 299.24 32.456 298.44 31.848 297.832C31.272 297.192 30.28 296.872 28.872 296.872V295.912C29.928 295.912 30.728 295.704 31.272 295.288C31.848 294.84 32.264 294.28 32.52 293.608C32.776 292.936 32.952 292.248 33.048 291.544C33.144 290.808 33.24 290.152 33.336 289.576H34.44Z" fill="black"/>
<path d="M49.8799 313.336C48.5679 313.336 47.4319 313.096 46.4719 312.616C45.5119 312.104 44.7759 311.4 44.2639 310.504C43.7839 309.608 43.5439 308.568 43.5439 307.384C43.5439 305.976 43.8639 304.824 44.5039 303.928C45.1759 303.032 46.0239 302.312 47.0479 301.768C48.0719 301.224 49.1439 300.776 50.2639 300.424C51.4159 300.04 52.5039 299.688 53.5279 299.368C54.5519 299.016 55.3839 298.616 56.0239 298.168C56.6959 297.72 57.0319 297.128 57.0319 296.392V293.416C57.0319 292.072 56.8239 291.048 56.4079 290.344C56.0239 289.64 55.4959 289.176 54.8239 288.952C54.1519 288.696 53.3999 288.568 52.5679 288.568C51.7679 288.568 50.9039 288.68 49.9759 288.904C49.0799 289.128 48.3599 289.592 47.8159 290.296C48.4239 290.424 48.9519 290.744 49.3999 291.256C49.8479 291.768 50.0719 292.424 50.0719 293.224C50.0719 294.024 49.8159 294.664 49.3039 295.144C48.7919 295.592 48.1359 295.816 47.3359 295.816C46.4079 295.816 45.7199 295.528 45.2719 294.952C44.8559 294.344 44.6479 293.672 44.6479 292.936C44.6479 292.104 44.8559 291.432 45.2719 290.92C45.6879 290.408 46.2159 289.928 46.8559 289.48C47.5919 288.968 48.5359 288.536 49.6879 288.184C50.8719 287.8 52.1999 287.608 53.6719 287.608C54.9839 287.608 56.1039 287.768 57.0319 288.088C57.9599 288.376 58.7279 288.808 59.3359 289.384C60.1679 290.152 60.7119 291.096 60.9679 292.216C61.2239 293.304 61.3519 294.616 61.3519 296.152V309.496C61.3519 310.296 61.4639 310.872 61.6879 311.224C61.9439 311.576 62.3279 311.752 62.8399 311.752C63.1919 311.752 63.5279 311.672 63.8479 311.512C64.1679 311.352 64.5519 311.096 64.9999 310.744L65.5279 311.56C64.8559 312.072 64.2159 312.504 63.6079 312.856C62.9999 313.176 62.1839 313.336 61.1599 313.336C60.2319 313.336 59.4639 313.176 58.8559 312.856C58.2479 312.536 57.7839 312.072 57.4639 311.464C57.1759 310.824 57.0319 310.024 57.0319 309.064C56.1679 310.504 55.1279 311.576 53.9119 312.28C52.7279 312.984 51.3839 313.336 49.8799 313.336ZM51.6079 311.416C52.6639 311.416 53.6399 311.112 54.5359 310.504C55.4639 309.896 56.2959 308.984 57.0319 307.768V298.36C56.6479 298.904 56.0879 299.368 55.3519 299.752C54.6159 300.104 53.8159 300.472 52.9519 300.856C52.0879 301.208 51.2559 301.64 50.4559 302.152C49.6879 302.632 49.0479 303.272 48.5359 304.072C48.0239 304.872 47.7679 305.912 47.7679 307.192C47.7679 308.472 48.1039 309.496 48.7759 310.264C49.4799 311.032 50.4239 311.416 51.6079 311.416Z" fill="black"/>
<path d="M72.4421 276.28C73.2741 276.28 73.9941 276.584 74.6021 277.192C75.2101 277.8 75.5141 278.52 75.5141 279.352C75.5141 280.184 75.2101 280.904 74.6021 281.512C73.9941 282.12 73.2741 282.424 72.4421 282.424C71.6101 282.424 70.8901 282.12 70.2821 281.512C69.6741 280.904 69.3701 280.184 69.3701 279.352C69.3701 278.52 69.6741 277.8 70.2821 277.192C70.8901 276.584 71.6101 276.28 72.4421 276.28ZM74.9381 287.752V308.536C74.9381 309.88 75.2101 310.792 75.7541 311.272C76.3301 311.752 77.2741 311.992 78.5861 311.992V313C78.0421 312.968 77.2101 312.936 76.0901 312.904C75.0021 312.84 73.8981 312.808 72.7781 312.808C71.6901 312.808 70.5861 312.84 69.4661 312.904C68.3461 312.936 67.5141 312.968 66.9701 313V311.992C68.2821 311.992 69.2101 311.752 69.7541 311.272C70.3301 310.792 70.6181 309.88 70.6181 308.536V293.512C70.6181 292.072 70.3621 291.016 69.8501 290.344C69.3381 289.64 68.3781 289.288 66.9701 289.288V288.28C67.9941 288.376 68.9861 288.424 69.9461 288.424C70.8741 288.424 71.7541 288.376 72.5861 288.28C73.4501 288.152 74.2341 287.976 74.9381 287.752Z" fill="black"/>
<path d="M88.6646 275.368V308.536C88.6646 309.88 88.9366 310.792 89.4806 311.272C90.0566 311.752 91.0006 311.992 92.3126 311.992V313C91.7686 312.968 90.9366 312.936 89.8166 312.904C88.7286 312.84 87.6246 312.808 86.5046 312.808C85.4166 312.808 84.3126 312.84 83.1926 312.904C82.0726 312.936 81.2406 312.968 80.6966 313V311.992C82.0086 311.992 82.9366 311.752 83.4806 311.272C84.0566 310.792 84.3446 309.88 84.3446 308.536V281.128C84.3446 279.688 84.0886 278.632 83.5766 277.96C83.0646 277.256 82.1046 276.904 80.6966 276.904V275.896C81.7206 275.992 82.7126 276.04 83.6726 276.04C84.6006 276.04 85.4806 275.992 86.3126 275.896C87.1766 275.768 87.9606 275.592 88.6646 275.368Z" fill="black"/>
<path d="M102.399 275.368V308.536C102.399 309.88 102.671 310.792 103.215 311.272C103.791 311.752 104.735 311.992 106.047 311.992V313C105.503 312.968 104.671 312.936 103.551 312.904C102.463 312.84 101.359 312.808 100.239 312.808C99.151 312.808 98.047 312.84 96.927 312.904C95.807 312.936 94.975 312.968 94.431 313V311.992C95.743 311.992 96.671 311.752 97.215 311.272C97.791 310.792 98.079 309.88 98.079 308.536V281.128C98.079 279.688 97.823 278.632 97.311 277.96C96.799 277.256 95.839 276.904 94.431 276.904V275.896C95.455 275.992 96.447 276.04 97.407 276.04C98.335 276.04 99.215 275.992 100.047 275.896C100.911 275.768 101.695 275.592 102.399 275.368Z" fill="black"/>
<path d="M113.973 276.28C114.805 276.28 115.525 276.584 116.133 277.192C116.741 277.8 117.045 278.52 117.045 279.352C117.045 280.184 116.741 280.904 116.133 281.512C115.525 282.12 114.805 282.424 113.973 282.424C113.141 282.424 112.421 282.12 111.813 281.512C111.205 280.904 110.901 280.184 110.901 279.352C110.901 278.52 111.205 277.8 111.813 277.192C112.421 276.584 113.141 276.28 113.973 276.28ZM116.469 287.752V308.536C116.469 309.88 116.741 310.792 117.285 311.272C117.861 311.752 118.805 311.992 120.117 311.992V313C119.573 312.968 118.741 312.936 117.621 312.904C116.533 312.84 115.429 312.808 114.309 312.808C113.221 312.808 112.117 312.84 110.997 312.904C109.877 312.936 109.045 312.968 108.501 313V311.992C109.813 311.992 110.741 311.752 111.285 311.272C111.861 310.792 112.149 309.88 112.149 308.536V293.512C112.149 292.072 111.893 291.016 111.381 290.344C110.869 289.64 109.909 289.288 108.501 289.288V288.28C109.525 288.376 110.517 288.424 111.477 288.424C112.405 288.424 113.285 288.376 114.117 288.28C114.981 288.152 115.765 287.976 116.469 287.752Z" fill="black"/>
<path d="M138.692 287.608C139.908 287.608 140.916 287.768 141.716 288.088C142.548 288.408 143.236 288.856 143.78 289.432C144.388 290.072 144.82 290.872 145.076 291.832C145.332 292.792 145.46 294.088 145.46 295.72V308.536C145.46 309.88 145.732 310.792 146.276 311.272C146.852 311.752 147.796 311.992 149.108 311.992V313C148.564 312.968 147.732 312.936 146.612 312.904C145.492 312.84 144.404 312.808 143.348 312.808C142.292 312.808 141.252 312.84 140.228 312.904C139.236 312.936 138.484 312.968 137.972 313V311.992C139.124 311.992 139.94 311.752 140.42 311.272C140.9 310.792 141.14 309.88 141.14 308.536V294.664C141.14 293.672 141.06 292.76 140.9 291.928C140.74 291.096 140.372 290.424 139.796 289.912C139.252 289.4 138.404 289.144 137.252 289.144C135.908 289.144 134.724 289.528 133.7 290.296C132.708 291.064 131.924 292.12 131.348 293.464C130.804 294.776 130.532 296.248 130.532 297.88V308.536C130.532 309.88 130.772 310.792 131.252 311.272C131.732 311.752 132.548 311.992 133.7 311.992V313C133.188 312.968 132.42 312.936 131.396 312.904C130.404 312.84 129.38 312.808 128.324 312.808C127.268 312.808 126.18 312.84 125.06 312.904C123.94 312.936 123.108 312.968 122.564 313V311.992C123.876 311.992 124.804 311.752 125.348 311.272C125.924 310.792 126.212 309.88 126.212 308.536V293.512C126.212 292.072 125.956 291.016 125.444 290.344C124.932 289.64 123.972 289.288 122.564 289.288V288.28C123.588 288.376 124.58 288.424 125.54 288.424C126.468 288.424 127.348 288.376 128.18 288.28C129.044 288.152 129.828 287.976 130.532 287.752V293.416C131.364 291.24 132.516 289.736 133.988 288.904C135.492 288.04 137.06 287.608 138.692 287.608Z" fill="black"/>
<path d="M159.568 322.024C157.872 322.024 156.272 321.848 154.768 321.496C153.264 321.144 152.048 320.584 151.12 319.816C150.224 319.08 149.776 318.136 149.776 316.984C149.776 315.864 150.224 314.904 151.12 314.104C152.016 313.304 153.232 312.696 154.768 312.28L155.056 313.048C154.352 313.272 153.792 313.72 153.376 314.392C152.96 315.064 152.752 315.816 152.752 316.648C152.752 318.12 153.424 319.24 154.768 320.008C156.144 320.808 157.92 321.208 160.096 321.208C161.536 321.208 162.944 321.016 164.32 320.632C165.696 320.28 166.832 319.672 167.728 318.808C168.624 317.944 169.072 316.808 169.072 315.4C169.072 314.344 168.688 313.48 167.92 312.808C167.184 312.104 165.712 311.752 163.504 311.752H159.952C158.928 311.752 157.936 311.672 156.976 311.512C156.016 311.352 155.232 311.016 154.624 310.504C154.016 309.992 153.712 309.208 153.712 308.152C153.712 307.064 154.16 306.024 155.056 305.032C155.952 304.008 157.6 302.968 160 301.912L160.576 302.344C159.488 302.92 158.544 303.512 157.744 304.12C156.944 304.696 156.544 305.384 156.544 306.184C156.544 307.208 157.312 307.72 158.848 307.72H164.848C166.192 307.72 167.424 307.912 168.544 308.296C169.696 308.68 170.624 309.288 171.328 310.12C172.032 310.952 172.384 312.04 172.384 313.384C172.384 314.888 171.904 316.296 170.944 317.608C169.984 318.92 168.544 319.976 166.624 320.776C164.736 321.608 162.384 322.024 159.568 322.024ZM159.808 302.776C158.24 302.776 156.816 302.52 155.536 302.008C154.256 301.464 153.248 300.632 152.512 299.512C151.776 298.392 151.408 296.952 151.408 295.192C151.408 293.432 151.776 291.992 152.512 290.872C153.248 289.752 154.256 288.936 155.536 288.424C156.816 287.88 158.24 287.608 159.808 287.608C161.408 287.608 162.832 287.88 164.08 288.424C165.36 288.936 166.368 289.752 167.104 290.872C167.84 291.992 168.208 293.432 168.208 295.192C168.208 296.952 167.84 298.392 167.104 299.512C166.368 300.632 165.36 301.464 164.08 302.008C162.832 302.52 161.408 302.776 159.808 302.776ZM159.808 301.912C161.024 301.912 161.968 301.432 162.64 300.472C163.344 299.512 163.696 297.752 163.696 295.192C163.696 292.632 163.344 290.872 162.64 289.912C161.968 288.952 161.024 288.472 159.808 288.472C158.624 288.472 157.68 288.952 156.976 289.912C156.272 290.872 155.92 292.632 155.92 295.192C155.92 297.752 156.272 299.512 156.976 300.472C157.68 301.432 158.624 301.912 159.808 301.912ZM166.72 291.592L165.856 291.256C166.304 290.168 167.072 289.208 168.16 288.376C169.248 287.544 170.384 287.128 171.568 287.128C172.4 287.128 173.072 287.368 173.584 287.848C174.096 288.296 174.352 288.984 174.352 289.912C174.352 290.904 174.08 291.608 173.536 292.024C173.024 292.408 172.496 292.6 171.952 292.6C171.472 292.6 171.024 292.44 170.608 292.12C170.192 291.768 169.952 291.224 169.888 290.488C169.824 289.752 170.048 288.808 170.56 287.656L171.184 287.8C169.84 288.312 168.88 288.856 168.304 289.432C167.728 289.976 167.2 290.696 166.72 291.592Z" fill="black"/>
<path d="M180.751 307.528C181.583 307.528 182.303 307.832 182.911 308.44C183.519 309.048 183.823 309.768 183.823 310.6C183.823 311.432 183.519 312.152 182.911 312.76C182.303 313.368 181.583 313.672 180.751 313.672C179.919 313.672 179.199 313.368 178.591 312.76C177.983 312.152 177.679 311.432 177.679 310.6C177.679 309.768 177.983 309.048 178.591 308.44C179.199 307.832 179.919 307.528 180.751 307.528Z" fill="black"/>
</svg>
