<svg width="151" height="65" viewBox="0 0 151 65" fill="none" xmlns="http://www.w3.org/2000/svg">
<rect y="10" width="151" height="47" rx="23.5" fill="white"/>
<path d="M12.288 15H24.048V50.136H26.736V51H12.48V50.136H15.12V15.864H12.288V15ZM43.1715 41.544V37.464C43.1715 34.36 42.9955 32.104 42.6435 30.696C42.3235 29.256 41.5555 28.536 40.3395 28.536C39.6355 28.536 39.0595 28.744 38.6115 29.16C38.1955 29.544 37.8915 30.2 37.6995 31.128C37.4115 32.568 37.2675 34.76 37.2675 37.704V41.448C37.2675 44.936 37.3635 47.032 37.5555 47.736C37.7795 48.44 38.0035 49.016 38.2275 49.464C38.5795 50.232 39.2675 50.616 40.2915 50.616C41.5395 50.616 42.3555 49.896 42.7395 48.456C43.0275 47.432 43.1715 45.128 43.1715 41.544ZM40.1955 51.48C36.1955 51.48 33.1715 50.456 31.1235 48.408C29.0755 46.36 28.0515 43.432 28.0515 39.624C28.0515 35.784 29.1395 32.84 31.3155 30.792C33.5235 28.712 36.6115 27.672 40.5795 27.672C44.5475 27.672 47.5075 28.632 49.4595 30.552C51.4115 32.44 52.3875 35.336 52.3875 39.24C52.3875 47.4 48.3235 51.48 40.1955 51.48ZM52.0312 29.016V28.152H66.3833V29.016H63.3593L69.1193 44.952L74.3033 29.016H71.0873V28.152H77.5673V29.016H75.4553L68.3513 51H62.8793L53.9993 29.016H52.0312ZM89.4634 51.48C85.3354 51.48 82.2314 50.424 80.1514 48.312C78.1034 46.168 77.0794 43.208 77.0794 39.432C77.0794 35.624 78.2314 32.712 80.5354 30.696C82.8714 28.68 85.8314 27.672 89.4154 27.672C96.6794 27.672 100.167 31.32 99.8794 38.616H86.3434V40.488C86.3434 43.624 86.7434 45.992 87.5434 47.592C88.3434 49.192 89.7354 49.992 91.7194 49.992C95.4314 49.992 97.8634 48.008 99.0154 44.04L99.8794 44.184C99.2714 46.488 98.1674 48.28 96.5674 49.56C94.9994 50.84 92.6314 51.48 89.4634 51.48ZM86.3914 37.656H91.3354V35.304C91.3354 32.712 91.1754 30.952 90.8554 30.024C90.5674 29.064 89.9594 28.584 89.0314 28.584C88.1354 28.584 87.4634 29.096 87.0154 30.12C86.5994 31.112 86.3914 32.84 86.3914 35.304V37.656Z" fill="black"/>
</svg>
