<svg width="438" height="105" viewBox="0 0 438 105" fill="none" xmlns="http://www.w3.org/2000/svg">
<path d="M0 15C0 6.71573 6.71573 0 15 0H423C431.284 0 438 6.71573 438 15V90C438 98.2843 431.284 105 423 105H15C6.71572 105 0 98.2843 0 90V15Z" fill="#E9D1D1"/>
<path d="M49.5938 21.25L49.4375 21.2812C49.2083 21.2812 49.0104 21.2188 48.8438 21.0938C48.6771 20.9479 48.4896 20.8542 48.2812 20.8125L48.25 20.9375C48.25 21.1042 48.3021 21.2604 48.4062 21.4062C48.5104 21.5521 48.625 21.6875 48.75 21.8125C48.875 21.9375 48.9896 22.0729 49.0938 22.2188C49.1979 22.3438 49.25 22.4688 49.25 22.5938C49.25 22.7812 49.125 22.8854 48.875 22.9062C48.6458 22.9271 48.4688 22.9583 48.3438 23C48.0938 23.0625 47.8958 23.2188 47.75 23.4688C47.6042 23.6979 47.4271 23.9583 47.2188 24.25C47.0312 24.5208 46.7708 24.7708 46.4375 25C46.125 25.2083 45.6771 25.3125 45.0938 25.3125C44.3646 25.3125 43.6354 25.1458 42.9062 24.8125C42.0729 24.4167 41.4688 23.9375 41.0938 23.375C40.7188 22.7917 40.4688 22.1875 40.3438 21.5625C40.2188 20.9375 40.1458 20.3229 40.125 19.7188C40.1042 19.0938 40.0312 18.5312 39.9062 18.0312C39.7812 17.5312 39.5417 17.1354 39.1875 16.8438C38.8333 16.5312 38.25 16.375 37.4375 16.375C36.6875 16.375 35.8958 16.4688 35.0625 16.6562C34.2292 16.8229 33.4583 17.1146 32.75 17.5312C32.0625 17.9271 31.4896 18.4479 31.0312 19.0938C30.5729 19.7188 30.3438 20.4792 30.3438 21.375C30.3438 22.3542 30.3854 23.1146 30.4688 23.6562C30.5521 24.1771 30.7292 24.5625 31 24.8125C31.2708 25.0417 31.6667 25.1771 32.1875 25.2188C32.7083 25.2396 33.4062 25.25 34.2812 25.25C34.4479 25.25 34.6771 25.375 34.9688 25.625C35.2812 25.8542 35.5833 26.1354 35.875 26.4688C36.1875 26.7812 36.4479 27.1042 36.6562 27.4375C36.8854 27.7708 37 28.0417 37 28.25C37 28.7292 36.7917 29.1042 36.375 29.375C35.9792 29.625 35.5 29.8125 34.9375 29.9375C34.375 30.0625 33.8021 30.1354 33.2188 30.1562C32.6354 30.1771 32.1771 30.1875 31.8438 30.1875C31.4896 30.1875 31.1979 30.2604 30.9688 30.4062C30.7604 30.5521 30.6042 30.7396 30.5 30.9688C30.3958 31.1979 30.3229 31.4583 30.2812 31.75C30.2604 32.0417 30.25 32.3333 30.25 32.625C30.25 34.0208 30.3229 35.4167 30.4688 36.8125C30.6354 38.1875 30.7188 39.5833 30.7188 41C30.7188 41.8125 30.6042 42.4792 30.375 43C30.1667 43.5208 30.0625 43.9479 30.0625 44.2812C30.0625 44.5104 30.1042 44.7396 30.1875 44.9688C30.2917 45.1979 30.3438 45.4271 30.3438 45.6562C30.3438 46.1146 30.2708 46.5625 30.125 47C30 47.4167 29.9375 47.8542 29.9375 48.3125C29.9375 48.6875 30 49.0104 30.125 49.2812C30.25 49.5312 30.3958 49.7812 30.5625 50.0312C30.7292 50.2604 30.8854 50.4896 31.0312 50.7188C31.1771 50.9479 31.2812 51.2188 31.3438 51.5312C31.9062 51.4479 32.4583 51.3333 33 51.1875C33.5625 51.0417 34.1354 50.9688 34.7188 50.9688C35.0938 50.9688 35.6042 50.9896 36.25 51.0312C36.9167 51.0729 37.5625 51.1771 38.1875 51.3438C38.8333 51.4896 39.3854 51.7188 39.8438 52.0312C40.3229 52.3229 40.5625 52.7292 40.5625 53.25C40.5625 53.6875 40.5 54.1042 40.375 54.5C40.2708 54.8958 40.1042 55.2604 39.875 55.5938C39.6458 55.9271 39.3646 56.1979 39.0312 56.4062C38.6979 56.6354 38.3125 56.7812 37.875 56.8438C37.3125 56.9271 36.7604 57.0833 36.2188 57.3125C35.6771 57.5417 35.125 57.6562 34.5625 57.6562C34.2083 57.6562 33.8646 57.5938 33.5312 57.4688C33.2188 57.3438 32.8854 57.2083 32.5312 57.0625C32.1979 56.9375 31.8542 56.8125 31.5 56.6875C31.1458 56.5625 30.7708 56.5 30.375 56.5C29.4375 56.5 28.5104 56.5 27.5938 56.5C26.6979 56.5208 25.7812 56.5729 24.8438 56.6562C24.3229 56.6979 23.8125 56.7812 23.3125 56.9062C22.8125 57.0521 22.3021 57.1875 21.7812 57.3125C21.2812 57.4583 20.7708 57.5833 20.25 57.6875C19.7292 57.7917 19.2083 57.8438 18.6875 57.8438C18.4583 57.8438 18.1875 57.8021 17.875 57.7188C17.5625 57.6354 17.2396 57.5208 16.9062 57.375C16.5938 57.2292 16.2917 57.0729 16 56.9062C15.7292 56.7604 15.5 56.6042 15.3125 56.4375L15.2812 55C15.2812 54.3125 15.4271 53.7917 15.7188 53.4375C16.0104 53.0625 16.3854 52.7917 16.8438 52.625C17.3229 52.4375 17.8646 52.3229 18.4688 52.2812C19.0729 52.2396 19.6875 52.2083 20.3125 52.1875C20.9583 52.1667 21.5833 52.1354 22.1875 52.0938C22.7917 52.0312 23.3229 51.8958 23.7812 51.6875C24.2604 51.4792 24.6458 51.1667 24.9375 50.75C25.2292 50.3125 25.375 49.7188 25.375 48.9688C25.375 48.6562 25.3438 48.3438 25.2812 48.0312C25.2396 47.7188 25.1771 47.4062 25.0938 47.0938H25.1562C25.2812 46.9062 25.375 46.6354 25.4375 46.2812C25.5208 45.9062 25.5729 45.5104 25.5938 45.0938C25.6146 44.6771 25.625 44.2812 25.625 43.9062C25.625 43.5104 25.625 43.1979 25.625 42.9688C25.625 42.3854 25.6146 41.7604 25.5938 41.0938C25.5729 40.4062 25.4792 39.7917 25.3125 39.25C25.2708 39.1042 25.2188 38.9688 25.1562 38.8438C25.1146 38.6979 25.0938 38.5417 25.0938 38.375C25.0938 37.8958 25.1771 37.4271 25.3438 36.9688C25.5104 36.4896 25.5938 36.0104 25.5938 35.5312C25.5938 35.3438 25.5729 35.2083 25.5312 35.125C25.5104 35.0208 25.4688 34.9375 25.4062 34.875C25.3646 34.7917 25.3229 34.7188 25.2812 34.6562C25.2396 34.5729 25.2083 34.4688 25.1875 34.3438C25.3333 34.1146 25.4479 33.875 25.5312 33.625C25.6354 33.3542 25.6875 33.0833 25.6875 32.8125C25.6875 32.5625 25.6354 32.3542 25.5312 32.1875C25.4271 32 25.3125 31.8333 25.1875 31.6875C25.0625 31.5208 24.9375 31.3542 24.8125 31.1875C24.7083 31.0208 24.6562 30.8333 24.6562 30.625C24.3646 30.625 23.9896 30.625 23.5312 30.625C23.0729 30.6042 22.5729 30.5729 22.0312 30.5312C21.4896 30.4896 20.9479 30.4167 20.4062 30.3125C19.8646 30.2083 19.375 30.0729 18.9375 29.9062C18.5 29.7188 18.1354 29.4896 17.8438 29.2188C17.5729 28.9271 17.4375 28.5729 17.4375 28.1562C17.4375 27.8646 17.5521 27.5938 17.7812 27.3438C18.0312 27.0729 18.3229 26.8438 18.6562 26.6562C19.0104 26.4688 19.375 26.3229 19.75 26.2188C20.1458 26.1146 20.4792 26.0625 20.75 26.0625C21.0417 26.0625 21.3333 26.0729 21.625 26.0938C21.9375 26.1146 22.2396 26.125 22.5312 26.125C22.8438 26.125 23.2188 26.1042 23.6562 26.0625C24.1146 26.0208 24.4688 25.9062 24.7188 25.7188C24.7812 25.6562 24.8542 25.5 24.9375 25.25C25.0208 24.9792 25.0938 24.6875 25.1562 24.375C25.2188 24.0417 25.2708 23.7292 25.3125 23.4375C25.3542 23.125 25.375 22.9167 25.375 22.8125C25.375 22.3333 25.3333 21.875 25.25 21.4375C25.1875 21 25.1562 20.5417 25.1562 20.0625C25.1562 19.375 25.2396 18.7396 25.4062 18.1562C25.5729 17.5729 25.9062 17.0312 26.4062 16.5312C26.9896 15.9479 27.5417 15.3854 28.0625 14.8438C28.6042 14.2812 29.1562 13.7812 29.7188 13.3438C30.3021 12.9062 30.9271 12.5312 31.5938 12.2188C32.2812 11.9062 33.0729 11.6875 33.9688 11.5625C34.5938 11.4792 35.2188 11.3854 35.8438 11.2812C36.4896 11.1771 37.1354 11.125 37.7812 11.125C38.1354 11.125 38.6042 11.1771 39.1875 11.2812C39.7917 11.3646 40.4271 11.5 41.0938 11.6875C41.7812 11.8542 42.4688 12.0625 43.1562 12.3125C43.8438 12.5625 44.4688 12.8542 45.0312 13.1875C45.5938 13.5 46.0521 13.8542 46.4062 14.25C46.7604 14.625 46.9375 15.0312 46.9375 15.4688C47.5833 15.4896 48.0521 15.7083 48.3438 16.125C48.6562 16.5417 48.875 17.0417 49 17.625C49.125 18.2083 49.2083 18.8229 49.25 19.4688C49.2917 20.0938 49.3854 20.6354 49.5312 21.0938L49.5938 21.25Z" fill="black"/>
<path d="M80.1875 50.5312C80.1875 50.8854 80.125 51.2188 80 51.5312C79.875 51.8438 79.7604 52.1667 79.6562 52.5C79.5729 52.7917 79.5104 53.0312 79.4688 53.2188C79.4479 53.4062 79.4062 53.5729 79.3438 53.7188C79.2812 53.8438 79.1771 53.9688 79.0312 54.0938C78.9062 54.1979 78.6979 54.3229 78.4062 54.4688C77.7812 54.8021 77.1146 55.1458 76.4062 55.5C75.7188 55.8333 75.0208 56 74.3125 56C73.7083 56 73.1354 55.8646 72.5938 55.5938C72.0729 55.3021 71.5833 54.9896 71.125 54.6562C70.6875 54.3021 70.2812 53.9792 69.9062 53.6875C69.5521 53.3958 69.25 53.25 69 53.25C68.7292 53.25 68.4896 53.3229 68.2812 53.4688C68.0938 53.6146 67.8958 53.7708 67.6875 53.9375C67.5 54.1042 67.2812 54.2604 67.0312 54.4062C66.8021 54.5521 66.5104 54.625 66.1562 54.625C65.8646 54.625 65.5625 54.6771 65.25 54.7812C64.9375 54.8854 64.625 55.0104 64.3125 55.1562C64 55.2812 63.6771 55.4167 63.3438 55.5625C63.0312 55.6875 62.7396 55.7917 62.4688 55.875C61.5312 56.125 60.5833 56.2708 59.625 56.3125C58.6875 56.3542 57.7396 56.375 56.7812 56.375C56.5312 56.375 56.1458 56.3646 55.625 56.3438C55.1042 56.3438 54.5729 56.2917 54.0312 56.1875C53.5104 56.1042 53.0417 55.9583 52.625 55.75C52.2292 55.5417 52.0312 55.25 52.0312 54.875C52.0312 54.7917 52.0417 54.7188 52.0625 54.6562C51.9167 54.8229 51.75 54.9583 51.5625 55.0625C51.375 55.1667 51.1667 55.2188 50.9375 55.2188C50.6042 55.2188 50.1979 54.9896 49.7188 54.5312C49.2396 54.0729 48.7812 53.5417 48.3438 52.9375C47.9062 52.3333 47.5312 51.7396 47.2188 51.1562C46.9062 50.5521 46.75 50.1042 46.75 49.8125C46.75 49.5833 46.8125 49.375 46.9375 49.1875C47.0833 49 47.1562 48.7917 47.1562 48.5625C47.1562 48.2708 47.1146 48 47.0312 47.75C46.9688 47.4792 46.9375 47.1979 46.9375 46.9062C46.9375 46.5312 47.0104 46.1354 47.1562 45.7188C47.3021 45.2812 47.4792 44.8542 47.6875 44.4375C47.8958 44 48.1146 43.5833 48.3438 43.1875C48.5729 42.7708 48.7812 42.3854 48.9688 42.0312C49.1771 41.6146 49.4688 41.2812 49.8438 41.0312C50.2188 40.7812 50.6146 40.5625 51.0312 40.375C51.4479 40.1875 51.8646 40 52.2812 39.8125C52.6979 39.625 53.0625 39.375 53.375 39.0625C53.6875 39.4167 54.0938 39.5938 54.5938 39.5938C55.1146 39.5938 55.625 39.5208 56.125 39.375C56.625 39.2083 57.1354 39.125 57.6562 39.125C58.0729 39.125 58.4688 39.1667 58.8438 39.25C59.2396 39.3333 59.6458 39.375 60.0625 39.375C60.5208 39.375 60.8542 39.3229 61.0625 39.2188C61.2917 39.0938 61.5729 38.8854 61.9062 38.5938C62.2396 38.3021 62.6562 38.0833 63.1562 37.9375C63.6771 37.7708 64.2083 37.6458 64.75 37.5625C65.3125 37.4583 65.8646 37.3542 66.4062 37.25C66.9688 37.1458 67.4688 37 67.9062 36.8125C68.3438 36.6042 68.6979 36.3333 68.9688 36C69.2396 35.6458 69.375 35.1667 69.375 34.5625C69.375 33.8958 69.1771 33.1979 68.7812 32.4688C68.4062 31.7188 67.9167 31.0417 67.3125 30.4375C66.7083 29.8125 66.0417 29.3021 65.3125 28.9062C64.5833 28.5104 63.8854 28.3125 63.2188 28.3125C63.1354 28.3125 63.0521 28.3229 62.9688 28.3438C62.8854 28.3646 62.8125 28.375 62.75 28.375C62.25 28.4583 61.6875 28.5208 61.0625 28.5625C60.4375 28.5833 59.8542 28.6771 59.3125 28.8438C58.7708 28.9896 58.3125 29.25 57.9375 29.625C57.5625 29.9792 57.375 30.5104 57.375 31.2188C57.375 31.6354 57.4062 32.0521 57.4688 32.4688C57.5521 32.8646 57.5938 33.2708 57.5938 33.6875C57.5938 34.3125 57.4375 34.8333 57.125 35.25C56.8333 35.6667 56.4479 36 55.9688 36.25C55.5104 36.5 55 36.6771 54.4375 36.7812C53.875 36.8646 53.3333 36.9062 52.8125 36.9062C52.1875 36.9062 51.6458 36.8229 51.1875 36.6562C50.7292 36.4896 50.3542 36.1042 50.0625 35.5C49.8333 35.0625 49.5833 34.5938 49.3125 34.0938C49.0625 33.5729 48.9375 33.0521 48.9375 32.5312C48.9375 31.9688 49.0312 31.4479 49.2188 30.9688C49.4271 30.4688 49.6562 29.9896 49.9062 29.5312C50.1562 29.0521 50.3958 28.5833 50.625 28.125C50.875 27.6458 51.0521 27.1354 51.1562 26.5938C51.3021 26.5104 51.5 26.4271 51.75 26.3438C52.0208 26.2604 52.3021 26.1771 52.5938 26.0938C52.9062 26.0104 53.1979 25.9375 53.4688 25.875C53.7604 25.7917 54 25.7188 54.1875 25.6562C54.6875 25.5104 55.1667 25.3438 55.625 25.1562C56.1042 24.9479 56.5833 24.7604 57.0625 24.5938C57.5625 24.4271 58.0521 24.2812 58.5312 24.1562C59.0312 24.0312 59.5417 23.9583 60.0625 23.9375L61.0312 23.9062C61.9271 23.9062 62.8438 23.9896 63.7812 24.1562C64.7188 24.3021 65.6354 24.5417 66.5312 24.875C67.4271 25.2083 68.2708 25.625 69.0625 26.125C69.875 26.6042 70.5938 27.1771 71.2188 27.8438C71.6771 28.3438 72.0521 28.9375 72.3438 29.625C72.6562 30.2917 72.8958 31 73.0625 31.75C73.25 32.5 73.375 33.2604 73.4375 34.0312C73.5208 34.7812 73.5625 35.4792 73.5625 36.125C73.5625 37 73.5312 37.8646 73.4688 38.7188C73.4271 39.5521 73.4062 40.4062 73.4062 41.2812C73.4062 42.1146 73.4479 42.9479 73.5312 43.7812C73.6354 44.5938 73.75 45.4167 73.875 46.25C74 47.0625 74.1042 47.8854 74.1875 48.7188C74.2917 49.5312 74.3438 50.3438 74.3438 51.1562C74.3854 51.6562 74.4479 51.9688 74.5312 52.0938C74.6354 52.1979 74.7396 52.25 74.8438 52.25C75.3021 52.25 75.6667 52.1146 75.9375 51.8438C76.2292 51.5521 76.4896 51.2396 76.7188 50.9062C76.9479 50.5521 77.1979 50.2292 77.4688 49.9375C77.7396 49.6458 78.0833 49.5 78.5 49.5C78.6875 49.5 78.875 49.5104 79.0625 49.5312C79.2708 49.5521 79.4583 49.6042 79.625 49.6875C79.7917 49.75 79.9271 49.8542 80.0312 50C80.1354 50.125 80.1875 50.3021 80.1875 50.5312ZM69.9062 42.75C69.9062 42.625 69.8958 42.4062 69.875 42.0938C69.875 41.7812 69.8542 41.4688 69.8125 41.1562C69.7708 40.8229 69.6979 40.5312 69.5938 40.2812C69.5104 40.0312 69.375 39.9062 69.1875 39.9062C69.1458 39.9062 69.0938 39.9271 69.0312 39.9688C68.9688 39.9896 68.9167 40 68.875 40C68.0833 40.4375 67.4062 40.8021 66.8438 41.0938C66.2812 41.3646 65.7188 41.5938 65.1562 41.7812C64.6146 41.9479 64.0312 42.0625 63.4062 42.125C62.7812 42.1875 62 42.2188 61.0625 42.2188C60.9375 42.2188 60.5938 42.2708 60.0312 42.375C59.4688 42.4792 58.8542 42.6042 58.1875 42.75C57.5208 42.875 56.8958 43.0104 56.3125 43.1562C55.7292 43.2812 55.3646 43.3646 55.2188 43.4062C54.9479 43.5104 54.75 43.6146 54.625 43.7188C54.5208 43.8229 54.4375 43.9375 54.375 44.0625C54.3125 44.1875 54.25 44.3229 54.1875 44.4688C54.125 44.5938 54.0104 44.7292 53.8438 44.875C53.6354 45.0417 53.4062 45.1771 53.1562 45.2812C52.9271 45.3854 52.7083 45.5417 52.5 45.75C52.1875 46.0625 51.8958 46.4792 51.625 47C51.3542 47.5 51.2188 47.9792 51.2188 48.4375C51.2188 49 51.3646 49.5 51.6562 49.9375C51.9479 50.375 52.3333 50.75 52.8125 51.0625C53.2917 51.375 53.8333 51.6458 54.4375 51.875C55.0417 52.1042 55.6458 52.2812 56.25 52.4062C56.875 52.5312 57.4688 52.625 58.0312 52.6875C58.6146 52.75 59.1146 52.7812 59.5312 52.7812C60.0312 52.7812 60.625 52.75 61.3125 52.6875C62 52.6042 62.6875 52.4896 63.375 52.3438C64.0625 52.1771 64.7083 51.9583 65.3125 51.6875C65.9167 51.4167 66.3958 51.0729 66.75 50.6562C66.8958 50.4896 67 50.3438 67.0625 50.2188C67.125 50.0729 67.1875 49.9375 67.25 49.8125C67.3333 49.6667 67.4167 49.5208 67.5 49.375C67.6042 49.2292 67.7604 49.0729 67.9688 48.9062C68.4479 48.5104 68.8125 48.0729 69.0625 47.5938C69.3333 47.1146 69.5312 46.6146 69.6562 46.0938C69.7812 45.5729 69.8542 45.0312 69.875 44.4688C69.8958 43.9062 69.9062 43.3333 69.9062 42.75Z" fill="black"/>
<path d="M114.906 54.375C114.906 55.1042 114.656 55.6771 114.156 56.0938C113.677 56.5312 113.094 56.8542 112.406 57.0625C111.719 57.2917 111 57.4375 110.25 57.5C109.521 57.5625 108.896 57.5938 108.375 57.5938C107.688 57.5938 107.115 57.5312 106.656 57.4062C106.219 57.2812 105.833 57.1458 105.5 57C105.167 56.875 104.875 56.75 104.625 56.625C104.375 56.5 104.115 56.4375 103.844 56.4375C103.49 56.4375 103.135 56.5 102.781 56.625C102.448 56.75 102.104 56.8125 101.75 56.8125C101.5 56.8125 101.292 56.7708 101.125 56.6875C100.979 56.6042 100.854 56.5 100.75 56.375C100.646 56.2708 100.542 56.1771 100.438 56.0938C100.354 56.0104 100.25 55.9688 100.125 55.9688C99.9792 55.9688 99.8646 56.0208 99.7812 56.125C99.6979 56.25 99.6042 56.3854 99.5 56.5312C99.3958 56.6771 99.2396 56.8021 99.0312 56.9062C98.8438 57.0312 98.5625 57.0938 98.1875 57.0938C97.75 57.0938 97.3229 57.0417 96.9062 56.9375C96.4896 56.8542 96.0625 56.8125 95.625 56.8125C95.1875 56.8125 94.75 56.8854 94.3125 57.0312C93.8958 57.1979 93.5 57.2812 93.125 57.2812C92.9583 57.2812 92.8333 57.2188 92.75 57.0938C92.6667 56.9896 92.5729 56.9375 92.4688 56.9375C92.1146 56.9375 91.7396 57.0208 91.3438 57.1875C90.9688 57.3542 90.5833 57.4375 90.1875 57.4375C89.9792 57.4375 89.7708 57.4062 89.5625 57.3438C89.375 57.3021 89.1771 57.2812 88.9688 57.2812C88.6146 57.2812 88.2604 57.3646 87.9062 57.5312C87.5521 57.6979 87.1146 57.7812 86.5938 57.7812C86.4062 57.7812 85.9896 57.75 85.3438 57.6875C84.7188 57.6458 84.0729 57.5729 83.4062 57.4688C82.7396 57.3646 82.1354 57.2292 81.5938 57.0625C81.0729 56.9167 80.8125 56.75 80.8125 56.5625C80.8125 56.0208 80.9062 55.4792 81.0938 54.9375C81.3021 54.3958 81.4062 53.875 81.4062 53.375V53.3125C81.1354 53.3125 80.9792 53.1667 80.9375 52.875C80.9792 52.7917 81.0417 52.7292 81.125 52.6875C81.2292 52.625 81.3333 52.5833 81.4375 52.5625C81.5417 52.5208 81.6354 52.4688 81.7188 52.4062C81.8021 52.3438 81.8438 52.25 81.8438 52.125V52C82.6771 52.0833 83.4896 52.1354 84.2812 52.1562C85.0938 52.1771 85.9375 52.1875 86.8125 52.1875C87.625 52.1875 88.5208 52.1667 89.5 52.125C90.5 52.0625 91.4167 51.9062 92.25 51.6562C93.1042 51.4062 93.8125 51.0312 94.375 50.5312C94.9583 50.0104 95.25 49.2917 95.25 48.375V47.6562C95.1458 45.3646 95.0312 43.1146 94.9062 40.9062C94.8021 38.6771 94.75 36.4167 94.75 34.125C94.75 33.5208 94.6979 32.9375 94.5938 32.375C94.5104 31.7917 94.4688 31.2083 94.4688 30.625C94.4688 29.8958 94.5938 29.1667 94.8438 28.4375C95.1146 27.7083 95.5312 27.0938 96.0938 26.5938C96.0729 26.4688 96.0208 26.3854 95.9375 26.3438C95.8542 26.2812 95.75 26.2396 95.625 26.2188C95.5 26.1979 95.375 26.1771 95.25 26.1562C95.1458 26.1354 95.0521 26.1042 94.9688 26.0625C94.8438 26 94.7604 25.8542 94.7188 25.625C94.6771 25.3958 94.6354 25.1458 94.5938 24.875C94.5729 24.6042 94.5417 24.3438 94.5 24.0938C94.4792 23.8229 94.4167 23.6146 94.3125 23.4688C94.375 22.8646 94.4792 22.2708 94.625 21.6875C94.7708 21.1042 94.8438 20.5104 94.8438 19.9062C94.8438 19.4688 94.7812 19.125 94.6562 18.875C94.5521 18.625 94.4271 18.4167 94.2812 18.25C94.1354 18.0833 94 17.9375 93.875 17.8125C93.7708 17.6667 93.7188 17.4896 93.7188 17.2812C93.7188 17.1146 93.7708 16.9583 93.875 16.8125L93.625 16.7812C93.4167 16.7812 93.2604 16.8333 93.1562 16.9375C93.0521 17.0417 92.9479 17.1562 92.8438 17.2812C92.7604 17.4062 92.6667 17.5208 92.5625 17.625C92.4583 17.7292 92.3125 17.7812 92.125 17.7812C91.9792 17.7812 91.8125 17.75 91.625 17.6875C91.2708 17.7917 90.9375 17.8438 90.625 17.8438C89.8958 17.8438 89.1667 17.75 88.4375 17.5625C87.7292 17.3542 87.0104 17.25 86.2812 17.25C85.8854 17.25 85.5 17.2708 85.125 17.3125C84.75 17.3333 84.375 17.3438 84 17.3438C83.4583 17.3438 82.9167 17.2812 82.375 17.1562C81.8333 17.0312 81.3542 16.7604 80.9375 16.3438V15.9688C80.9375 14.8646 81.3021 14.0312 82.0312 13.4688C82.7812 12.9062 83.6875 12.625 84.75 12.625C85.4792 12.625 86.1979 12.7188 86.9062 12.9062C87.6146 13.0938 88.3333 13.1875 89.0625 13.1875C89.4583 13.1875 89.875 13.1458 90.3125 13.0625C90.75 12.9792 91.1979 12.8854 91.6562 12.7812C92.1146 12.6771 92.5729 12.5833 93.0312 12.5C93.5104 12.4167 93.9792 12.375 94.4375 12.375C95.1458 12.375 95.8125 12.5312 96.4375 12.8438C97.0625 13.1354 97.6875 13.4167 98.3125 13.6875L98.2812 13.9375C98.2812 14.125 98.3229 14.3021 98.4062 14.4688C98.5104 14.6146 98.625 14.7708 98.75 14.9375C98.875 15.0833 98.9792 15.2396 99.0625 15.4062C99.1667 15.5521 99.2188 15.7188 99.2188 15.9062C99.2188 16.0938 99.1875 16.2812 99.125 16.4688C99.0833 16.6354 99.0625 16.8125 99.0625 17C99.0625 17.4583 99.1458 17.8958 99.3125 18.3125C99.5 18.7292 99.5938 19.1771 99.5938 19.6562C99.5938 20.1562 99.5312 20.6458 99.4062 21.125C99.3021 21.6042 99.25 22.0938 99.25 22.5938C99.25 23.1979 99.3229 23.8021 99.4688 24.4062C99.6146 25.0104 99.6875 25.6146 99.6875 26.2188C99.6875 26.7188 99.6042 27.2083 99.4375 27.6875C99.2917 28.1667 99.2188 28.6458 99.2188 29.125C99.2188 29.4792 99.2604 29.8333 99.3438 30.1875C99.4479 30.5208 99.5625 30.8542 99.6875 31.1875C99.8125 31.5208 99.9167 31.8646 100 32.2188C100.104 32.5521 100.156 32.9062 100.156 33.2812V33.9062C100.156 34.2396 100.125 34.5625 100.062 34.875C100.021 35.1667 99.8854 35.4479 99.6562 35.7188C99.7604 36.1146 99.8646 36.5417 99.9688 37C100.094 37.4583 100.156 37.8958 100.156 38.3125C100.156 38.5208 100.135 38.75 100.094 39C100.073 39.2292 100.021 39.4688 99.9375 39.7188C99.875 39.9479 99.7812 40.1667 99.6562 40.375C99.5312 40.5625 99.3854 40.7188 99.2188 40.8438C99.4896 41.6354 99.6667 42.4375 99.75 43.25C99.8333 44.0625 99.8958 44.875 99.9375 45.6875C99.9583 45.9375 100 46.2604 100.062 46.6562C100.125 47.0521 100.188 47.4479 100.25 47.8438C100.312 48.2188 100.365 48.5729 100.406 48.9062C100.469 49.2188 100.5 49.4375 100.5 49.5625C100.5 49.9167 100.438 50.2604 100.312 50.5938C100.188 50.9271 100.125 51.2708 100.125 51.625C100.125 51.8958 100.188 52.1875 100.312 52.5C100.438 52.7917 100.667 52.9375 101 52.9375C101.25 52.9375 101.458 52.8854 101.625 52.7812C101.812 52.6562 102.01 52.5312 102.219 52.4062C102.427 52.2604 102.667 52.1354 102.938 52.0312C103.229 51.9062 103.615 51.8438 104.094 51.8438C104.635 51.8438 105.146 51.9167 105.625 52.0625C106.104 52.2083 106.615 52.2812 107.156 52.2812C107.552 52.2812 107.948 52.25 108.344 52.1875C108.76 52.1042 109.156 52.0208 109.531 51.9375C109.927 51.8333 110.323 51.7396 110.719 51.6562C111.115 51.5729 111.521 51.5312 111.938 51.5312C112.771 51.5312 113.469 51.7708 114.031 52.25C114.615 52.7292 114.906 53.4375 114.906 54.375ZM96.9688 15.4688C96.8854 15.3854 96.7812 15.3021 96.6562 15.2188C96.5521 15.1354 96.4271 15.0938 96.2812 15.0938C96.1771 15.0938 96.0833 15.1458 96 15.25C95.9375 15.3333 95.9062 15.4271 95.9062 15.5312L96.0625 15.9062C96.1458 15.9479 96.2083 15.9688 96.25 15.9688C96.4167 15.9688 96.5521 15.9167 96.6562 15.8125C96.7812 15.6875 96.8854 15.5729 96.9688 15.4688ZM98.8438 24.1562C98.8438 23.9896 98.7917 23.8229 98.6875 23.6562C98.6042 23.4688 98.4583 23.375 98.25 23.375C98.1875 23.375 98.1146 23.3854 98.0312 23.4062C97.9688 23.4271 97.9167 23.4479 97.875 23.4688V24.8125C98.0417 24.8958 98.1667 24.9375 98.25 24.9375C98.4583 24.9375 98.6042 24.8542 98.6875 24.6875C98.7917 24.5 98.8438 24.3229 98.8438 24.1562Z" fill="black"/>
<path d="M149.531 54.375C149.531 55.1042 149.281 55.6771 148.781 56.0938C148.302 56.5312 147.719 56.8542 147.031 57.0625C146.344 57.2917 145.625 57.4375 144.875 57.5C144.146 57.5625 143.521 57.5938 143 57.5938C142.312 57.5938 141.74 57.5312 141.281 57.4062C140.844 57.2812 140.458 57.1458 140.125 57C139.792 56.875 139.5 56.75 139.25 56.625C139 56.5 138.74 56.4375 138.469 56.4375C138.115 56.4375 137.76 56.5 137.406 56.625C137.073 56.75 136.729 56.8125 136.375 56.8125C136.125 56.8125 135.917 56.7708 135.75 56.6875C135.604 56.6042 135.479 56.5 135.375 56.375C135.271 56.2708 135.167 56.1771 135.062 56.0938C134.979 56.0104 134.875 55.9688 134.75 55.9688C134.604 55.9688 134.49 56.0208 134.406 56.125C134.323 56.25 134.229 56.3854 134.125 56.5312C134.021 56.6771 133.865 56.8021 133.656 56.9062C133.469 57.0312 133.188 57.0938 132.812 57.0938C132.375 57.0938 131.948 57.0417 131.531 56.9375C131.115 56.8542 130.688 56.8125 130.25 56.8125C129.812 56.8125 129.375 56.8854 128.938 57.0312C128.521 57.1979 128.125 57.2812 127.75 57.2812C127.583 57.2812 127.458 57.2188 127.375 57.0938C127.292 56.9896 127.198 56.9375 127.094 56.9375C126.74 56.9375 126.365 57.0208 125.969 57.1875C125.594 57.3542 125.208 57.4375 124.812 57.4375C124.604 57.4375 124.396 57.4062 124.188 57.3438C124 57.3021 123.802 57.2812 123.594 57.2812C123.24 57.2812 122.885 57.3646 122.531 57.5312C122.177 57.6979 121.74 57.7812 121.219 57.7812C121.031 57.7812 120.615 57.75 119.969 57.6875C119.344 57.6458 118.698 57.5729 118.031 57.4688C117.365 57.3646 116.76 57.2292 116.219 57.0625C115.698 56.9167 115.438 56.75 115.438 56.5625C115.438 56.0208 115.531 55.4792 115.719 54.9375C115.927 54.3958 116.031 53.875 116.031 53.375V53.3125C115.76 53.3125 115.604 53.1667 115.562 52.875C115.604 52.7917 115.667 52.7292 115.75 52.6875C115.854 52.625 115.958 52.5833 116.062 52.5625C116.167 52.5208 116.26 52.4688 116.344 52.4062C116.427 52.3438 116.469 52.25 116.469 52.125V52C117.302 52.0833 118.115 52.1354 118.906 52.1562C119.719 52.1771 120.562 52.1875 121.438 52.1875C122.25 52.1875 123.146 52.1667 124.125 52.125C125.125 52.0625 126.042 51.9062 126.875 51.6562C127.729 51.4062 128.438 51.0312 129 50.5312C129.583 50.0104 129.875 49.2917 129.875 48.375V47.6562C129.771 45.3646 129.656 43.1146 129.531 40.9062C129.427 38.6771 129.375 36.4167 129.375 34.125C129.375 33.5208 129.323 32.9375 129.219 32.375C129.135 31.7917 129.094 31.2083 129.094 30.625C129.094 29.8958 129.219 29.1667 129.469 28.4375C129.74 27.7083 130.156 27.0938 130.719 26.5938C130.698 26.4688 130.646 26.3854 130.562 26.3438C130.479 26.2812 130.375 26.2396 130.25 26.2188C130.125 26.1979 130 26.1771 129.875 26.1562C129.771 26.1354 129.677 26.1042 129.594 26.0625C129.469 26 129.385 25.8542 129.344 25.625C129.302 25.3958 129.26 25.1458 129.219 24.875C129.198 24.6042 129.167 24.3438 129.125 24.0938C129.104 23.8229 129.042 23.6146 128.938 23.4688C129 22.8646 129.104 22.2708 129.25 21.6875C129.396 21.1042 129.469 20.5104 129.469 19.9062C129.469 19.4688 129.406 19.125 129.281 18.875C129.177 18.625 129.052 18.4167 128.906 18.25C128.76 18.0833 128.625 17.9375 128.5 17.8125C128.396 17.6667 128.344 17.4896 128.344 17.2812C128.344 17.1146 128.396 16.9583 128.5 16.8125L128.25 16.7812C128.042 16.7812 127.885 16.8333 127.781 16.9375C127.677 17.0417 127.573 17.1562 127.469 17.2812C127.385 17.4062 127.292 17.5208 127.188 17.625C127.083 17.7292 126.938 17.7812 126.75 17.7812C126.604 17.7812 126.438 17.75 126.25 17.6875C125.896 17.7917 125.562 17.8438 125.25 17.8438C124.521 17.8438 123.792 17.75 123.062 17.5625C122.354 17.3542 121.635 17.25 120.906 17.25C120.51 17.25 120.125 17.2708 119.75 17.3125C119.375 17.3333 119 17.3438 118.625 17.3438C118.083 17.3438 117.542 17.2812 117 17.1562C116.458 17.0312 115.979 16.7604 115.562 16.3438V15.9688C115.562 14.8646 115.927 14.0312 116.656 13.4688C117.406 12.9062 118.312 12.625 119.375 12.625C120.104 12.625 120.823 12.7188 121.531 12.9062C122.24 13.0938 122.958 13.1875 123.688 13.1875C124.083 13.1875 124.5 13.1458 124.938 13.0625C125.375 12.9792 125.823 12.8854 126.281 12.7812C126.74 12.6771 127.198 12.5833 127.656 12.5C128.135 12.4167 128.604 12.375 129.062 12.375C129.771 12.375 130.438 12.5312 131.062 12.8438C131.688 13.1354 132.312 13.4167 132.938 13.6875L132.906 13.9375C132.906 14.125 132.948 14.3021 133.031 14.4688C133.135 14.6146 133.25 14.7708 133.375 14.9375C133.5 15.0833 133.604 15.2396 133.688 15.4062C133.792 15.5521 133.844 15.7188 133.844 15.9062C133.844 16.0938 133.812 16.2812 133.75 16.4688C133.708 16.6354 133.688 16.8125 133.688 17C133.688 17.4583 133.771 17.8958 133.938 18.3125C134.125 18.7292 134.219 19.1771 134.219 19.6562C134.219 20.1562 134.156 20.6458 134.031 21.125C133.927 21.6042 133.875 22.0938 133.875 22.5938C133.875 23.1979 133.948 23.8021 134.094 24.4062C134.24 25.0104 134.312 25.6146 134.312 26.2188C134.312 26.7188 134.229 27.2083 134.062 27.6875C133.917 28.1667 133.844 28.6458 133.844 29.125C133.844 29.4792 133.885 29.8333 133.969 30.1875C134.073 30.5208 134.188 30.8542 134.312 31.1875C134.438 31.5208 134.542 31.8646 134.625 32.2188C134.729 32.5521 134.781 32.9062 134.781 33.2812V33.9062C134.781 34.2396 134.75 34.5625 134.688 34.875C134.646 35.1667 134.51 35.4479 134.281 35.7188C134.385 36.1146 134.49 36.5417 134.594 37C134.719 37.4583 134.781 37.8958 134.781 38.3125C134.781 38.5208 134.76 38.75 134.719 39C134.698 39.2292 134.646 39.4688 134.562 39.7188C134.5 39.9479 134.406 40.1667 134.281 40.375C134.156 40.5625 134.01 40.7188 133.844 40.8438C134.115 41.6354 134.292 42.4375 134.375 43.25C134.458 44.0625 134.521 44.875 134.562 45.6875C134.583 45.9375 134.625 46.2604 134.688 46.6562C134.75 47.0521 134.812 47.4479 134.875 47.8438C134.938 48.2188 134.99 48.5729 135.031 48.9062C135.094 49.2188 135.125 49.4375 135.125 49.5625C135.125 49.9167 135.062 50.2604 134.938 50.5938C134.812 50.9271 134.75 51.2708 134.75 51.625C134.75 51.8958 134.812 52.1875 134.938 52.5C135.062 52.7917 135.292 52.9375 135.625 52.9375C135.875 52.9375 136.083 52.8854 136.25 52.7812C136.438 52.6562 136.635 52.5312 136.844 52.4062C137.052 52.2604 137.292 52.1354 137.562 52.0312C137.854 51.9062 138.24 51.8438 138.719 51.8438C139.26 51.8438 139.771 51.9167 140.25 52.0625C140.729 52.2083 141.24 52.2812 141.781 52.2812C142.177 52.2812 142.573 52.25 142.969 52.1875C143.385 52.1042 143.781 52.0208 144.156 51.9375C144.552 51.8333 144.948 51.7396 145.344 51.6562C145.74 51.5729 146.146 51.5312 146.562 51.5312C147.396 51.5312 148.094 51.7708 148.656 52.25C149.24 52.7292 149.531 53.4375 149.531 54.375ZM131.594 15.4688C131.51 15.3854 131.406 15.3021 131.281 15.2188C131.177 15.1354 131.052 15.0938 130.906 15.0938C130.802 15.0938 130.708 15.1458 130.625 15.25C130.562 15.3333 130.531 15.4271 130.531 15.5312L130.688 15.9062C130.771 15.9479 130.833 15.9688 130.875 15.9688C131.042 15.9688 131.177 15.9167 131.281 15.8125C131.406 15.6875 131.51 15.5729 131.594 15.4688ZM133.469 24.1562C133.469 23.9896 133.417 23.8229 133.312 23.6562C133.229 23.4688 133.083 23.375 132.875 23.375C132.812 23.375 132.74 23.3854 132.656 23.4062C132.594 23.4271 132.542 23.4479 132.5 23.4688V24.8125C132.667 24.8958 132.792 24.9375 132.875 24.9375C133.083 24.9375 133.229 24.8542 133.312 24.6875C133.417 24.5 133.469 24.3229 133.469 24.1562Z" fill="black"/>
<path d="M189.688 16.7812C189.688 17.3854 189.583 18.0104 189.375 18.6562C189.188 19.2812 188.906 19.8646 188.531 20.4062C188.156 20.9271 187.698 21.3646 187.156 21.7188C186.635 22.0521 186.052 22.2188 185.406 22.2188C184.969 22.2188 184.427 22.1562 183.781 22.0312C183.135 21.8854 182.51 21.6875 181.906 21.4375C181.323 21.1667 180.812 20.8229 180.375 20.4062C179.958 19.9896 179.75 19.5 179.75 18.9375C179.75 18.4375 179.802 17.9271 179.906 17.4062C180.031 16.8646 180.104 16.3229 180.125 15.7812C180.333 15.6771 180.542 15.4896 180.75 15.2188C180.958 14.9479 181.156 14.6771 181.344 14.4062C181.552 14.1146 181.75 13.8542 181.938 13.625C182.146 13.3958 182.354 13.2708 182.562 13.25L182.406 13.3125C182.698 13.1875 183 13.0833 183.312 13C183.646 12.9167 183.979 12.875 184.312 12.875C184.75 12.875 185.271 12.9896 185.875 13.2188C186.5 13.4271 187.094 13.7083 187.656 14.0625C188.219 14.4167 188.698 14.8333 189.094 15.3125C189.49 15.7917 189.688 16.2812 189.688 16.7812ZM204.812 54.8125C204.812 55.1667 204.74 55.5 204.594 55.8125C204.469 56.125 204.281 56.3958 204.031 56.625C203.802 56.875 203.531 57.0729 203.219 57.2188C202.906 57.3646 202.562 57.4375 202.188 57.4375C202.042 57.4375 201.948 57.4167 201.906 57.375C201.865 57.3333 201.792 57.2604 201.688 57.1562C201.396 56.8438 201.042 56.6562 200.625 56.5938C200.208 56.5521 199.771 56.5 199.312 56.4375C198.875 56.3958 198.448 56.2812 198.031 56.0938C197.635 55.9271 197.312 55.5729 197.062 55.0312C196.896 54.6771 196.719 54.4479 196.531 54.3438C196.344 54.2396 196.052 54.1875 195.656 54.1875C194.74 54.1875 193.865 54.3333 193.031 54.625C192.198 54.9167 191.375 55.25 190.562 55.625C189.75 55.9792 188.917 56.3021 188.062 56.5938C187.229 56.8854 186.365 57.0312 185.469 57.0312C184.969 57.0312 184.469 56.9792 183.969 56.875C183.49 56.7917 183.021 56.6458 182.562 56.4375C182.458 56.5417 182.333 56.6146 182.188 56.6562C182.062 56.6979 181.917 56.7188 181.75 56.7188C181.604 56.7188 181.458 56.7083 181.312 56.6875C181.188 56.6667 181.073 56.6562 180.969 56.6562C180.948 56.6562 180.833 56.6875 180.625 56.75C180.417 56.8333 180.292 56.8854 180.25 56.9062L180.438 57.2188C180.312 57.4062 180.031 57.5833 179.594 57.75C179.156 57.9375 178.677 58.0938 178.156 58.2188C177.656 58.3438 177.167 58.4479 176.688 58.5312C176.208 58.6146 175.844 58.6562 175.594 58.6562C174.927 58.6562 174.375 58.5417 173.938 58.3125C173.521 58.1042 173.104 57.7292 172.688 57.1875C172.542 56.9792 172.354 56.7708 172.125 56.5625C171.917 56.3542 171.708 56.1458 171.5 55.9375C171.312 55.7083 171.146 55.4688 171 55.2188C170.875 54.9688 170.812 54.7083 170.812 54.4375C170.812 54.125 170.979 53.8646 171.312 53.6562C171.646 53.4479 172.042 53.2812 172.5 53.1562C172.958 53.0104 173.417 52.9167 173.875 52.875C174.333 52.8125 174.688 52.7812 174.938 52.7812C175.438 52.7812 175.938 52.8542 176.438 53C176.938 53.125 177.438 53.1875 177.938 53.1875C178.396 53.1875 178.833 53.125 179.25 53C179.667 52.875 180.104 52.8125 180.562 52.8125C180.958 52.8125 181.344 52.8438 181.719 52.9062C182.115 52.9479 182.51 52.9688 182.906 52.9688C183.406 52.9688 183.885 52.8854 184.344 52.7188C184.823 52.5312 185.271 52.2917 185.688 52C185.854 50.9792 185.969 49.9583 186.031 48.9375C186.115 47.9167 186.156 46.8854 186.156 45.8438C186.156 44.8229 186.073 43.8021 185.906 42.7812C185.74 41.7604 185.656 40.75 185.656 39.75C185.656 39.6667 185.677 39.625 185.719 39.625C185.76 39.6042 185.802 39.5938 185.844 39.5938C185.906 39.5729 185.958 39.5521 186 39.5312C186.042 39.4896 186.062 39.4062 186.062 39.2812C186.062 38.8438 186 38.4167 185.875 38C185.75 37.5833 185.688 37.1562 185.688 36.7188C185.688 36.1771 185.76 35.6458 185.906 35.125C186.052 34.6042 186.125 34.0729 186.125 33.5312C186.125 33.1562 186.042 32.7812 185.875 32.4062C185.708 32.0312 185.49 31.6979 185.219 31.4062C184.948 31.1146 184.635 30.8854 184.281 30.7188C183.927 30.5312 183.552 30.4375 183.156 30.4375C182.719 30.4375 182.281 30.4896 181.844 30.5938C181.427 30.6979 180.99 30.8229 180.531 30.9688C180.073 31.0938 179.604 31.2083 179.125 31.3125C178.667 31.4167 178.177 31.4688 177.656 31.4688C177.052 31.4688 176.458 31.4271 175.875 31.3438C175.292 31.2604 174.698 31.1667 174.094 31.0625C173.802 31.0208 173.469 30.9792 173.094 30.9375C172.74 30.8958 172.396 30.8229 172.062 30.7188C171.729 30.6146 171.448 30.4583 171.219 30.25C170.99 30.0417 170.875 29.7396 170.875 29.3438C170.875 28.6146 171 28.0625 171.25 27.6875C171.521 27.2917 171.844 27 172.219 26.8125C172.615 26.625 173.052 26.5104 173.531 26.4688C174.01 26.4271 174.469 26.3854 174.906 26.3438C175.698 26.2812 176.479 26.2292 177.25 26.1875C178.042 26.125 178.833 26.0938 179.625 26.0938C180.604 26.0938 181.562 26.1562 182.5 26.2812C183.458 26.3854 184.427 26.4375 185.406 26.4375C186.094 26.4375 186.75 26.5417 187.375 26.75C188 26.9583 188.542 27.2812 189 27.7188C189.479 28.1354 189.854 28.6667 190.125 29.3125C190.396 29.9583 190.531 30.7083 190.531 31.5625C190.531 32.125 190.406 32.6771 190.156 33.2188C189.927 33.7396 189.625 34.2083 189.25 34.625C189.396 34.8958 189.542 35.0833 189.688 35.1875C189.833 35.2708 189.969 35.3542 190.094 35.4375C190.219 35.5 190.323 35.5938 190.406 35.7188C190.49 35.8229 190.531 36.0312 190.531 36.3438C190.531 36.5104 190.552 36.7083 190.594 36.9375C190.656 37.1458 190.802 37.2604 191.031 37.2812C191.031 38.4062 191.021 39.5208 191 40.625C190.979 41.7083 190.969 42.8021 190.969 43.9062C190.969 44.8438 190.969 45.7812 190.969 46.7188C190.99 47.6562 191.073 48.5938 191.219 49.5312C191.302 50.1146 191.469 50.5625 191.719 50.875C191.969 51.1875 192.417 51.3438 193.062 51.3438C194 51.3438 194.927 51.25 195.844 51.0625C196.76 50.8542 197.688 50.75 198.625 50.75C199.167 50.75 199.677 50.8854 200.156 51.1562C200.656 51.4271 201.125 51.7188 201.562 52.0312C202.021 52.3438 202.458 52.6354 202.875 52.9062C203.292 53.1771 203.688 53.3125 204.062 53.3125C204.229 53.3125 204.365 53.375 204.469 53.5C204.573 53.6042 204.646 53.7396 204.688 53.9062C204.75 54.0521 204.781 54.2083 204.781 54.375C204.802 54.5417 204.812 54.6875 204.812 54.8125Z" fill="black"/>
<path d="M244 55.1875C244 55.4792 243.927 55.7188 243.781 55.9062C243.635 56.0938 243.448 56.2396 243.219 56.3438C243.01 56.4479 242.771 56.5104 242.5 56.5312C242.25 56.5729 242.01 56.5938 241.781 56.5938C241.469 56.5938 241.156 56.5729 240.844 56.5312C240.531 56.4896 240.219 56.4479 239.906 56.4062C239.49 56.5521 238.99 56.6979 238.406 56.8438C237.844 57.0104 237.333 57.0938 236.875 57.0938C236.75 57.0938 236.625 57.0729 236.5 57.0312C236.396 56.9896 236.292 56.9688 236.188 56.9688C235.833 56.9688 235.469 57.0312 235.094 57.1562C234.74 57.3021 234.385 57.375 234.031 57.375C233.427 57.375 232.844 57.2917 232.281 57.125C231.74 56.9792 231.167 56.8854 230.562 56.8438C229.583 56.7604 228.823 56.3854 228.281 55.7188C227.76 55.0312 227.479 54.2188 227.438 53.2812C228.083 52.8854 228.76 52.6146 229.469 52.4688C230.198 52.3229 230.927 52.25 231.656 52.25C232.073 52.25 232.479 52.2604 232.875 52.2812C233.292 52.3021 233.708 52.3333 234.125 52.375C234.062 50.8125 233.927 49.25 233.719 47.6875C233.51 46.125 233.406 44.5521 233.406 42.9688C233.406 42.4271 233.417 41.8854 233.438 41.3438C233.479 40.8021 233.552 40.2604 233.656 39.7188C233.76 39.1771 233.896 38.6458 234.062 38.125C234.229 37.5833 234.312 37.0417 234.312 36.5C234.312 36.1458 234.26 35.8229 234.156 35.5312C234.052 35.2188 233.917 34.9062 233.75 34.5938C233.604 34.3438 233.51 34.0625 233.469 33.75C233.427 33.4375 233.375 33.125 233.312 32.8125C233.25 32.4792 233.156 32.1562 233.031 31.8438C232.906 31.5312 232.698 31.25 232.406 31C232.135 30.75 231.75 30.5521 231.25 30.4062C230.75 30.2604 230.094 30.1875 229.281 30.1875C229.031 30.1875 228.656 30.2292 228.156 30.3125C227.677 30.375 227.177 30.4688 226.656 30.5938C226.156 30.6979 225.677 30.8333 225.219 31C224.781 31.1458 224.479 31.3021 224.312 31.4688C224.208 31.5729 224.073 31.7188 223.906 31.9062C223.76 32.0938 223.594 32.2917 223.406 32.5C223.24 32.6875 223.073 32.8646 222.906 33.0312C222.74 33.1771 222.594 33.2604 222.469 33.2812C222.156 33.3438 221.917 33.3958 221.75 33.4375C221.604 33.4792 221.479 33.5417 221.375 33.625C221.292 33.7083 221.219 33.8333 221.156 34C221.094 34.1458 220.99 34.3646 220.844 34.6562C220.802 34.7396 220.719 34.9062 220.594 35.1562C220.469 35.3854 220.344 35.5 220.219 35.5C220.115 35.5 220.042 35.4583 220 35.375C219.958 35.2917 219.885 35.25 219.781 35.25C219.74 35.25 219.677 35.2812 219.594 35.3438C219.531 35.3854 219.479 35.4271 219.438 35.4688V36.3438C219.292 36.5104 219.156 36.6042 219.031 36.625C218.927 36.625 218.833 36.6354 218.75 36.6562C218.688 36.6771 218.635 36.7292 218.594 36.8125C218.573 36.8958 218.562 37.0938 218.562 37.4062C218.562 37.6354 218.51 37.8438 218.406 38.0312C218.302 38.2188 218.188 38.4062 218.062 38.5938C217.958 38.7812 217.854 38.9792 217.75 39.1875C217.646 39.375 217.594 39.5938 217.594 39.8438C217.594 40.2604 217.646 40.6667 217.75 41.0625C217.875 41.4375 217.938 41.8333 217.938 42.25C217.938 42.5208 217.896 42.75 217.812 42.9375C217.729 43.125 217.625 43.3021 217.5 43.4688C217.396 43.6146 217.302 43.7604 217.219 43.9062C217.135 44.0521 217.094 44.2292 217.094 44.4375C217.094 44.7292 217.146 45 217.25 45.25C217.375 45.4792 217.5 45.7188 217.625 45.9688C217.75 46.2188 217.865 46.4792 217.969 46.75C218.094 47.0208 218.156 47.3125 218.156 47.625C218.156 47.9792 218.115 48.3438 218.031 48.7188C217.948 49.0729 217.906 49.4375 217.906 49.8125C217.906 50.25 217.969 50.5938 218.094 50.8438C218.24 51.0729 218.417 51.25 218.625 51.375C218.854 51.5 219.115 51.5938 219.406 51.6562C219.698 51.7188 219.99 51.8125 220.281 51.9375C220.594 52.0417 220.906 52.1979 221.219 52.4062C221.531 52.5938 221.823 52.8854 222.094 53.2812L222.281 53.25C222.635 53.25 222.896 53.3958 223.062 53.6875C223.229 53.9792 223.312 54.2812 223.312 54.5938C223.312 54.8854 223.25 55.1458 223.125 55.375C223 55.5833 222.938 55.8646 222.938 56.2188C222.938 56.4688 222.667 56.6771 222.125 56.8438C221.583 57.0104 220.969 57.1354 220.281 57.2188C219.594 57.3229 218.927 57.3854 218.281 57.4062C217.656 57.4479 217.24 57.4688 217.031 57.4688C216.781 57.4688 216.396 57.4583 215.875 57.4375C215.375 57.4375 214.802 57.4167 214.156 57.375C213.531 57.3542 212.875 57.3125 212.188 57.25C211.5 57.1875 210.865 57.0938 210.281 56.9688C209.698 56.8646 209.198 56.7188 208.781 56.5312C208.385 56.3646 208.135 56.1562 208.031 55.9062C207.927 55.6562 207.823 55.3854 207.719 55.0938C207.615 54.7812 207.562 54.4792 207.562 54.1875C207.562 53.875 207.635 53.5938 207.781 53.3438C207.948 53.0938 208.146 52.8646 208.375 52.6562C208.688 52.3646 209.031 52.1979 209.406 52.1562C209.781 52.0938 210.146 52.0625 210.5 52.0625C210.875 52.0417 211.229 52.0104 211.562 51.9688C211.917 51.9062 212.219 51.7396 212.469 51.4688C212.74 51.1979 212.948 50.7708 213.094 50.1875C213.26 49.6042 213.344 48.7812 213.344 47.7188C213.344 47.4479 213.323 47.1771 213.281 46.9062C213.24 46.6146 213.188 46.3438 213.125 46.0938C213.062 45.8229 213.01 45.5833 212.969 45.375C212.927 45.1667 212.906 45.0104 212.906 44.9062C212.906 44.7812 212.938 44.6458 213 44.5C213.083 44.3542 213.167 44.2083 213.25 44.0625C213.354 43.8958 213.438 43.7188 213.5 43.5312C213.583 43.3438 213.625 43.1354 213.625 42.9062C213.625 42.5521 213.552 42.2083 213.406 41.875C213.281 41.5417 213.219 41.1979 213.219 40.8438C213.219 40.5521 213.271 40.2708 213.375 40C213.479 39.7292 213.531 39.4479 213.531 39.1562C213.531 38.9271 213.469 38.7083 213.344 38.5C213.219 38.2917 213.156 38.0625 213.156 37.8125C213.156 37.5833 213.198 37.3542 213.281 37.125C213.365 36.875 213.406 36.625 213.406 36.375C213.406 35.8333 213.344 35.2812 213.219 34.7188C213.094 34.1354 212.979 33.5729 212.875 33.0312C212.75 32.3854 212.51 31.9062 212.156 31.5938C211.823 31.2604 211.438 31.0104 211 30.8438C210.562 30.6771 210.104 30.5417 209.625 30.4375C209.146 30.3333 208.708 30.1771 208.312 29.9688C207.917 29.7396 207.583 29.4271 207.312 29.0312C207.062 28.6146 206.938 28.0104 206.938 27.2188C206.938 26.6771 207.094 26.2604 207.406 25.9688C207.74 25.6771 208.135 25.4688 208.594 25.3438C209.052 25.1979 209.531 25.1146 210.031 25.0938C210.552 25.0729 211 25.0625 211.375 25.0625C211.979 25.0625 212.573 25.1562 213.156 25.3438C213.76 25.5104 214.365 25.6146 214.969 25.6562C215.24 25.6771 215.5 25.7708 215.75 25.9375C216 26.0833 216.229 26.2708 216.438 26.5C216.646 26.7083 216.812 26.9479 216.938 27.2188C217.062 27.4896 217.135 27.7604 217.156 28.0312C217.156 28.1562 217.198 28.3854 217.281 28.7188C217.365 29.0312 217.458 29.3542 217.562 29.6875C217.688 30.0208 217.812 30.3229 217.938 30.5938C218.083 30.8438 218.229 30.9688 218.375 30.9688C218.5 30.8646 218.583 30.75 218.625 30.625C218.688 30.4792 218.74 30.3438 218.781 30.2188C218.802 30.0938 218.938 29.9271 219.188 29.7188C219.458 29.5104 219.75 29.2917 220.062 29.0625C220.396 28.8333 220.708 28.6146 221 28.4062C221.312 28.1979 221.531 28.0312 221.656 27.9062C221.781 27.7604 221.875 27.6146 221.938 27.4688C222.021 27.3021 222.094 27.1562 222.156 27.0312C222.24 26.8854 222.333 26.7708 222.438 26.6875C222.562 26.6042 222.75 26.5625 223 26.5625H223.156C223.385 26.5625 223.604 26.4688 223.812 26.2812C224.021 26.0729 224.292 25.8438 224.625 25.5938C224.958 25.3438 225.396 25.125 225.938 24.9375C226.479 24.7292 227.198 24.625 228.094 24.625C228.865 24.625 229.635 24.6458 230.406 24.6875C231.177 24.7083 231.906 24.8125 232.594 25C233.302 25.1875 233.958 25.4792 234.562 25.875C235.188 26.2708 235.729 26.8229 236.188 27.5312C236.542 28.0938 236.833 28.5104 237.062 28.7812C237.292 29.0521 237.479 29.3125 237.625 29.5625C237.771 29.8125 237.865 30.1146 237.906 30.4688C237.969 30.8229 238 31.3542 238 32.0625C238 32.3542 238.052 32.625 238.156 32.875C238.26 33.125 238.375 33.3854 238.5 33.6562C238.646 33.9062 238.771 34.1771 238.875 34.4688C238.979 34.7604 239.031 35.0938 239.031 35.4688C239.031 36.1979 238.99 36.9271 238.906 37.6562C238.823 38.3646 238.781 39.0833 238.781 39.8125C238.781 40.3333 238.677 40.8438 238.469 41.3438C238.281 41.8438 238.188 42.3542 238.188 42.875C238.188 43.125 238.25 43.3646 238.375 43.5938C238.5 43.8229 238.562 44.0833 238.562 44.375C238.562 44.7292 238.521 45.0938 238.438 45.4688C238.354 45.8229 238.312 46.1771 238.312 46.5312C238.312 46.8646 238.385 47.1562 238.531 47.4062C238.698 47.6562 238.781 47.9375 238.781 48.25C238.781 48.4167 238.74 48.5521 238.656 48.6562C238.594 48.7604 238.51 48.8646 238.406 48.9688C238.323 49.0729 238.24 49.1875 238.156 49.3125C238.094 49.4167 238.062 49.5521 238.062 49.7188C238.062 50.0312 238.135 50.3542 238.281 50.6875C238.448 51 238.656 51.2917 238.906 51.5625C239.156 51.8125 239.438 52.0208 239.75 52.1875C240.062 52.3333 240.375 52.4062 240.688 52.4062C240.958 52.4062 241.188 52.3542 241.375 52.25C241.583 52.125 241.802 52.0625 242.031 52.0625C242.323 52.0625 242.583 52.1875 242.812 52.4375C243.062 52.6667 243.271 52.9479 243.438 53.2812C243.625 53.6146 243.76 53.9583 243.844 54.3125C243.948 54.6667 244 54.9583 244 55.1875ZM237.25 43.4062C237.25 43.1979 237.177 43 237.031 42.8125C236.906 42.6042 236.729 42.5 236.5 42.5C236.271 42.5 236.115 42.6146 236.031 42.8438C235.948 43.0521 235.906 43.25 235.906 43.4375C235.906 43.6667 235.948 43.8854 236.031 44.0938C236.115 44.3021 236.281 44.4062 236.531 44.4062C236.74 44.4062 236.896 44.3438 237 44.2188C237.125 44.0729 237.208 43.8229 237.25 43.4688V43.4062ZM237.781 49.4062C237.781 49.2604 237.719 49.1458 237.594 49.0625C237.49 48.9583 237.375 48.875 237.25 48.8125C237.208 48.9375 237.135 49.0625 237.031 49.1875C236.927 49.3125 236.823 49.4479 236.719 49.5938C236.615 49.7396 236.51 49.8854 236.406 50.0312C236.323 50.1771 236.281 50.3229 236.281 50.4688C236.281 50.6354 236.333 50.7604 236.438 50.8438C236.542 50.9271 236.667 51 236.812 51.0625C236.833 50.9375 236.896 50.8125 237 50.6875C237.125 50.5625 237.24 50.4271 237.344 50.2812C237.448 50.1354 237.542 50 237.625 49.875C237.729 49.7292 237.781 49.5729 237.781 49.4062ZM217 42.6875C217 42.5417 216.969 42.3646 216.906 42.1562C216.865 41.9479 216.792 41.75 216.688 41.5625C216.604 41.3542 216.49 41.1875 216.344 41.0625C216.219 40.9167 216.062 40.8438 215.875 40.8438C215.646 40.8438 215.448 40.9167 215.281 41.0625C215.115 41.1875 214.906 41.25 214.656 41.25H214.531C214.469 41.4792 214.438 41.6979 214.438 41.9062L214.469 42.0938L214.5 42C214.562 42.2292 214.688 42.4062 214.875 42.5312C215.062 42.6562 215.26 42.7708 215.469 42.875C215.698 42.9583 215.927 43.0417 216.156 43.125C216.385 43.2083 216.583 43.3229 216.75 43.4688C216.917 43.2812 217 43.0208 217 42.6875Z" fill="black"/>
<path d="M298.531 54.375C298.531 55.1042 298.281 55.6771 297.781 56.0938C297.302 56.5312 296.719 56.8542 296.031 57.0625C295.344 57.2917 294.625 57.4375 293.875 57.5C293.146 57.5625 292.521 57.5938 292 57.5938C291.312 57.5938 290.74 57.5312 290.281 57.4062C289.844 57.2812 289.458 57.1458 289.125 57C288.792 56.875 288.5 56.75 288.25 56.625C288 56.5 287.74 56.4375 287.469 56.4375C287.115 56.4375 286.76 56.5 286.406 56.625C286.073 56.75 285.729 56.8125 285.375 56.8125C285.125 56.8125 284.917 56.7708 284.75 56.6875C284.604 56.6042 284.479 56.5 284.375 56.375C284.271 56.2708 284.167 56.1771 284.062 56.0938C283.979 56.0104 283.875 55.9688 283.75 55.9688C283.604 55.9688 283.49 56.0208 283.406 56.125C283.323 56.25 283.229 56.3854 283.125 56.5312C283.021 56.6771 282.865 56.8021 282.656 56.9062C282.469 57.0312 282.188 57.0938 281.812 57.0938C281.375 57.0938 280.948 57.0417 280.531 56.9375C280.115 56.8542 279.688 56.8125 279.25 56.8125C278.812 56.8125 278.375 56.8854 277.938 57.0312C277.521 57.1979 277.125 57.2812 276.75 57.2812C276.583 57.2812 276.458 57.2188 276.375 57.0938C276.292 56.9896 276.198 56.9375 276.094 56.9375C275.74 56.9375 275.365 57.0208 274.969 57.1875C274.594 57.3542 274.208 57.4375 273.812 57.4375C273.604 57.4375 273.396 57.4062 273.188 57.3438C273 57.3021 272.802 57.2812 272.594 57.2812C272.24 57.2812 271.885 57.3646 271.531 57.5312C271.177 57.6979 270.74 57.7812 270.219 57.7812C270.031 57.7812 269.615 57.75 268.969 57.6875C268.344 57.6458 267.698 57.5729 267.031 57.4688C266.365 57.3646 265.76 57.2292 265.219 57.0625C264.698 56.9167 264.438 56.75 264.438 56.5625C264.438 56.0208 264.531 55.4792 264.719 54.9375C264.927 54.3958 265.031 53.875 265.031 53.375V53.3125C264.76 53.3125 264.604 53.1667 264.562 52.875C264.604 52.7917 264.667 52.7292 264.75 52.6875C264.854 52.625 264.958 52.5833 265.062 52.5625C265.167 52.5208 265.26 52.4688 265.344 52.4062C265.427 52.3438 265.469 52.25 265.469 52.125V52C266.302 52.0833 267.115 52.1354 267.906 52.1562C268.719 52.1771 269.562 52.1875 270.438 52.1875C271.25 52.1875 272.146 52.1667 273.125 52.125C274.125 52.0625 275.042 51.9062 275.875 51.6562C276.729 51.4062 277.438 51.0312 278 50.5312C278.583 50.0104 278.875 49.2917 278.875 48.375V47.6562C278.771 45.3646 278.656 43.1146 278.531 40.9062C278.427 38.6771 278.375 36.4167 278.375 34.125C278.375 33.5208 278.323 32.9375 278.219 32.375C278.135 31.7917 278.094 31.2083 278.094 30.625C278.094 29.8958 278.219 29.1667 278.469 28.4375C278.74 27.7083 279.156 27.0938 279.719 26.5938C279.698 26.4688 279.646 26.3854 279.562 26.3438C279.479 26.2812 279.375 26.2396 279.25 26.2188C279.125 26.1979 279 26.1771 278.875 26.1562C278.771 26.1354 278.677 26.1042 278.594 26.0625C278.469 26 278.385 25.8542 278.344 25.625C278.302 25.3958 278.26 25.1458 278.219 24.875C278.198 24.6042 278.167 24.3438 278.125 24.0938C278.104 23.8229 278.042 23.6146 277.938 23.4688C278 22.8646 278.104 22.2708 278.25 21.6875C278.396 21.1042 278.469 20.5104 278.469 19.9062C278.469 19.4688 278.406 19.125 278.281 18.875C278.177 18.625 278.052 18.4167 277.906 18.25C277.76 18.0833 277.625 17.9375 277.5 17.8125C277.396 17.6667 277.344 17.4896 277.344 17.2812C277.344 17.1146 277.396 16.9583 277.5 16.8125L277.25 16.7812C277.042 16.7812 276.885 16.8333 276.781 16.9375C276.677 17.0417 276.573 17.1562 276.469 17.2812C276.385 17.4062 276.292 17.5208 276.188 17.625C276.083 17.7292 275.938 17.7812 275.75 17.7812C275.604 17.7812 275.438 17.75 275.25 17.6875C274.896 17.7917 274.562 17.8438 274.25 17.8438C273.521 17.8438 272.792 17.75 272.062 17.5625C271.354 17.3542 270.635 17.25 269.906 17.25C269.51 17.25 269.125 17.2708 268.75 17.3125C268.375 17.3333 268 17.3438 267.625 17.3438C267.083 17.3438 266.542 17.2812 266 17.1562C265.458 17.0312 264.979 16.7604 264.562 16.3438V15.9688C264.562 14.8646 264.927 14.0312 265.656 13.4688C266.406 12.9062 267.312 12.625 268.375 12.625C269.104 12.625 269.823 12.7188 270.531 12.9062C271.24 13.0938 271.958 13.1875 272.688 13.1875C273.083 13.1875 273.5 13.1458 273.938 13.0625C274.375 12.9792 274.823 12.8854 275.281 12.7812C275.74 12.6771 276.198 12.5833 276.656 12.5C277.135 12.4167 277.604 12.375 278.062 12.375C278.771 12.375 279.438 12.5312 280.062 12.8438C280.688 13.1354 281.312 13.4167 281.938 13.6875L281.906 13.9375C281.906 14.125 281.948 14.3021 282.031 14.4688C282.135 14.6146 282.25 14.7708 282.375 14.9375C282.5 15.0833 282.604 15.2396 282.688 15.4062C282.792 15.5521 282.844 15.7188 282.844 15.9062C282.844 16.0938 282.812 16.2812 282.75 16.4688C282.708 16.6354 282.688 16.8125 282.688 17C282.688 17.4583 282.771 17.8958 282.938 18.3125C283.125 18.7292 283.219 19.1771 283.219 19.6562C283.219 20.1562 283.156 20.6458 283.031 21.125C282.927 21.6042 282.875 22.0938 282.875 22.5938C282.875 23.1979 282.948 23.8021 283.094 24.4062C283.24 25.0104 283.312 25.6146 283.312 26.2188C283.312 26.7188 283.229 27.2083 283.062 27.6875C282.917 28.1667 282.844 28.6458 282.844 29.125C282.844 29.4792 282.885 29.8333 282.969 30.1875C283.073 30.5208 283.188 30.8542 283.312 31.1875C283.438 31.5208 283.542 31.8646 283.625 32.2188C283.729 32.5521 283.781 32.9062 283.781 33.2812V33.9062C283.781 34.2396 283.75 34.5625 283.688 34.875C283.646 35.1667 283.51 35.4479 283.281 35.7188C283.385 36.1146 283.49 36.5417 283.594 37C283.719 37.4583 283.781 37.8958 283.781 38.3125C283.781 38.5208 283.76 38.75 283.719 39C283.698 39.2292 283.646 39.4688 283.562 39.7188C283.5 39.9479 283.406 40.1667 283.281 40.375C283.156 40.5625 283.01 40.7188 282.844 40.8438C283.115 41.6354 283.292 42.4375 283.375 43.25C283.458 44.0625 283.521 44.875 283.562 45.6875C283.583 45.9375 283.625 46.2604 283.688 46.6562C283.75 47.0521 283.812 47.4479 283.875 47.8438C283.938 48.2188 283.99 48.5729 284.031 48.9062C284.094 49.2188 284.125 49.4375 284.125 49.5625C284.125 49.9167 284.062 50.2604 283.938 50.5938C283.812 50.9271 283.75 51.2708 283.75 51.625C283.75 51.8958 283.812 52.1875 283.938 52.5C284.062 52.7917 284.292 52.9375 284.625 52.9375C284.875 52.9375 285.083 52.8854 285.25 52.7812C285.438 52.6562 285.635 52.5312 285.844 52.4062C286.052 52.2604 286.292 52.1354 286.562 52.0312C286.854 51.9062 287.24 51.8438 287.719 51.8438C288.26 51.8438 288.771 51.9167 289.25 52.0625C289.729 52.2083 290.24 52.2812 290.781 52.2812C291.177 52.2812 291.573 52.25 291.969 52.1875C292.385 52.1042 292.781 52.0208 293.156 51.9375C293.552 51.8333 293.948 51.7396 294.344 51.6562C294.74 51.5729 295.146 51.5312 295.562 51.5312C296.396 51.5312 297.094 51.7708 297.656 52.25C298.24 52.7292 298.531 53.4375 298.531 54.375ZM280.594 15.4688C280.51 15.3854 280.406 15.3021 280.281 15.2188C280.177 15.1354 280.052 15.0938 279.906 15.0938C279.802 15.0938 279.708 15.1458 279.625 15.25C279.562 15.3333 279.531 15.4271 279.531 15.5312L279.688 15.9062C279.771 15.9479 279.833 15.9688 279.875 15.9688C280.042 15.9688 280.177 15.9167 280.281 15.8125C280.406 15.6875 280.51 15.5729 280.594 15.4688ZM282.469 24.1562C282.469 23.9896 282.417 23.8229 282.312 23.6562C282.229 23.4688 282.083 23.375 281.875 23.375C281.812 23.375 281.74 23.3854 281.656 23.4062C281.594 23.4271 281.542 23.4479 281.5 23.4688V24.8125C281.667 24.8958 281.792 24.9375 281.875 24.9375C282.083 24.9375 282.229 24.8542 282.312 24.6875C282.417 24.5 282.469 24.3229 282.469 24.1562Z" fill="black"/>
<path d="M333.5 42.3125C333.5 42.6042 333.448 42.8854 333.344 43.1562C333.26 43.4062 333.156 43.625 333.031 43.8125C332.927 44 332.823 44.1562 332.719 44.2812C332.635 44.4062 332.594 44.4792 332.594 44.5C332.594 44.7083 332.656 44.9271 332.781 45.1562C332.927 45.3854 333 45.6354 333 45.9062C333 46.0312 332.948 46.1146 332.844 46.1562C332.76 46.1979 332.667 46.2188 332.562 46.2188C332.375 46.2188 332.219 46.1979 332.094 46.1562C332.115 46.5521 332.146 46.9375 332.188 47.3125C332.25 47.6875 332.281 48.0729 332.281 48.4688C332.281 49.0729 332.219 49.4688 332.094 49.6562C331.99 49.8229 331.875 49.9271 331.75 49.9688C331.625 50.0104 331.5 50.0625 331.375 50.125C331.271 50.1667 331.219 50.3542 331.219 50.6875C331.219 50.875 331.083 51.1146 330.812 51.4062C330.562 51.6979 330.25 51.9896 329.875 52.2812C329.521 52.5729 329.146 52.8229 328.75 53.0312C328.375 53.2396 328.073 53.3438 327.844 53.3438C327.781 53.3438 327.708 53.3229 327.625 53.2812C327.625 53.4479 327.635 53.625 327.656 53.8125C327.677 54 327.688 54.1771 327.688 54.3438C327.688 54.6146 327.604 54.8021 327.438 54.9062C327.271 54.9896 327.083 55.0729 326.875 55.1562C326.562 55.3021 326.24 55.5208 325.906 55.8125C325.573 56.0833 325.229 56.3646 324.875 56.6562C324.521 56.9479 324.156 57.1979 323.781 57.4062C323.427 57.6354 323.052 57.75 322.656 57.75C322.323 57.75 322.01 57.6667 321.719 57.5C321.448 57.3333 321.125 57.25 320.75 57.25C320.417 57.25 320.135 57.2917 319.906 57.375C319.677 57.4792 319.458 57.5833 319.25 57.6875C319.062 57.8125 318.865 57.9167 318.656 58C318.448 58.1042 318.208 58.1562 317.938 58.1562C317.396 58.1562 316.854 58.0104 316.312 57.7188C315.771 57.4479 315.25 57.2292 314.75 57.0625C314.458 56.9583 314.146 56.875 313.812 56.8125C313.479 56.7708 313.156 56.7188 312.844 56.6562C312.531 56.5938 312.229 56.4896 311.938 56.3438C311.667 56.2188 311.427 56.0312 311.219 55.7812C310.781 55.2396 310.271 54.7917 309.688 54.4375C309.104 54.0833 308.51 53.75 307.906 53.4375C307.302 53.125 306.719 52.8021 306.156 52.4688C305.594 52.1146 305.104 51.6562 304.688 51.0938C304.375 50.6562 304.021 50.1875 303.625 49.6875C303.229 49.1667 302.854 48.625 302.5 48.0625C302.167 47.5 301.885 46.9271 301.656 46.3438C301.427 45.7604 301.312 45.1875 301.312 44.625C301.312 44.2083 301.354 43.8021 301.438 43.4062C301.521 43.0104 301.604 42.6146 301.688 42.2188C301.792 41.8021 301.885 41.3958 301.969 41C302.052 40.6042 302.094 40.1979 302.094 39.7812V39.4375C302.094 39.3542 302.062 39.2604 302 39.1562C301.938 39.0521 301.865 38.9583 301.781 38.875C301.719 38.7708 301.646 38.6875 301.562 38.625C301.5 38.5417 301.458 38.5 301.438 38.5C301.396 38.5 301.375 38.5104 301.375 38.5312C301.396 38.3438 301.448 38.0625 301.531 37.6875C301.635 37.2917 301.75 36.8958 301.875 36.5C302 36.0833 302.125 35.7083 302.25 35.375C302.375 35.0208 302.49 34.7917 302.594 34.6875C302.719 34.5833 302.833 34.4792 302.938 34.375C303.062 34.25 303.125 34.0938 303.125 33.9062C303.125 33.7188 303.115 33.5417 303.094 33.375C303.073 33.1875 303.062 33 303.062 32.8125C303.062 32.5625 303.094 32.4167 303.156 32.375C303.219 32.3125 303.302 32.2812 303.406 32.2812C303.51 32.2812 303.615 32.2708 303.719 32.25C303.823 32.2083 303.927 32.0938 304.031 31.9062C304.219 31.5312 304.396 31.1875 304.562 30.875C304.75 30.5417 304.948 30.2396 305.156 29.9688C305.365 29.6979 305.604 29.4479 305.875 29.2188C306.146 28.9896 306.479 28.7708 306.875 28.5625C307.208 28.375 307.531 28.1458 307.844 27.875C308.177 27.6042 308.51 27.3333 308.844 27.0625C309.177 26.7917 309.51 26.5625 309.844 26.375C310.198 26.1875 310.573 26.0938 310.969 26.0938C311.531 26.0938 312.073 26 312.594 25.8125C313.135 25.6042 313.677 25.4479 314.219 25.3438C315.073 25.2188 315.917 25.1042 316.75 25C317.604 24.875 318.469 24.8125 319.344 24.8125C319.823 24.8125 320.406 24.8958 321.094 25.0625C321.781 25.2083 322.479 25.4062 323.188 25.6562C323.917 25.9062 324.594 26.1875 325.219 26.5C325.865 26.8125 326.375 27.125 326.75 27.4375V27.5312C326.75 27.8229 326.698 28.125 326.594 28.4375C326.49 28.7292 326.438 29.0208 326.438 29.3125C326.438 29.3542 326.438 29.3958 326.438 29.4375C326.438 29.4792 326.458 29.5 326.5 29.5C326.854 29.5 327.188 29.4583 327.5 29.375C327.833 29.2708 328.177 29.2188 328.531 29.2188C328.573 29.5729 328.729 29.8125 329 29.9375C329.271 30.0625 329.542 30.1771 329.812 30.2812C330.062 30.4062 330.292 30.6354 330.5 30.9688C330.729 31.2812 330.938 31.6458 331.125 32.0625C331.312 32.4583 331.49 32.8542 331.656 33.25C331.844 33.6458 332.021 33.9688 332.188 34.2188C332.354 34.4688 332.5 34.7708 332.625 35.125C332.771 35.4583 332.885 35.8125 332.969 36.1875C333.073 36.5625 333.146 36.9375 333.188 37.3125C333.229 37.6667 333.25 38 333.25 38.3125C333.25 38.7292 333.167 39.0833 333 39.375C332.854 39.6458 332.688 39.8958 332.5 40.125C332.312 40.3333 332.135 40.5417 331.969 40.75C331.823 40.9375 331.75 41.1562 331.75 41.4062C331.75 41.5521 331.781 41.6875 331.844 41.8125C331.906 41.9375 331.99 42.0521 332.094 42.1562C332.135 42.1354 332.219 42.1146 332.344 42.0938C332.49 42.0729 332.562 42.0104 332.562 41.9062V41.875C332.562 41.7083 332.49 41.5521 332.344 41.4062C332.219 41.2604 332.156 41.0833 332.156 40.875C332.156 40.8333 332.177 40.7708 332.219 40.6875C332.26 40.5833 332.312 40.5312 332.375 40.5312C332.5 40.5312 332.625 40.6146 332.75 40.7812C332.875 40.9271 332.99 41.0938 333.094 41.2812C333.219 41.4479 333.312 41.5938 333.375 41.7188C333.438 41.8438 333.469 41.8854 333.469 41.8438L333.438 41.8125C333.458 41.9167 333.469 42.0104 333.469 42.0938C333.49 42.1562 333.5 42.2292 333.5 42.3125ZM330.375 42.5625C330.375 42.2292 330.25 42.0312 330 41.9688C329.75 41.8854 329.469 41.8333 329.156 41.8125C328.844 41.7917 328.531 41.7604 328.219 41.7188C327.927 41.6771 327.729 41.5208 327.625 41.25V40.9375C327.625 40.4792 327.562 39.9479 327.438 39.3438C327.333 38.7188 327.198 38.0938 327.031 37.4688C326.865 36.8229 326.688 36.1979 326.5 35.5938C326.312 34.9688 326.135 34.4167 325.969 33.9375C325.802 33.4583 325.667 33.0729 325.562 32.7812C325.458 32.4896 325.406 32.3438 325.406 32.3438C325.24 32.3854 325.104 32.4062 325 32.4062C324.646 32.4062 324.333 32.3333 324.062 32.1875C323.812 32.0417 323.521 31.8854 323.188 31.7188C322.875 31.5521 322.479 31.3958 322 31.25C321.542 31.1042 320.927 31.0312 320.156 31.0312C319.302 31.0312 318.458 30.9792 317.625 30.875C316.792 30.75 315.948 30.6875 315.094 30.6875C313.927 30.6875 312.833 30.9583 311.812 31.5C310.792 32.0208 309.896 32.7188 309.125 33.5938C308.354 34.4479 307.75 35.4167 307.312 36.5C306.875 37.5833 306.656 38.6771 306.656 39.7812C306.656 40.2396 306.667 40.7812 306.688 41.4062C306.708 42.0104 306.76 42.625 306.844 43.25C306.927 43.8542 307.062 44.4271 307.25 44.9688C307.438 45.4896 307.698 45.8854 308.031 46.1562V47.0312C308.115 47.1146 308.219 47.1667 308.344 47.1875C308.49 47.1875 308.625 47.1875 308.75 47.1875C308.896 47.1875 309.021 47.2083 309.125 47.25C309.229 47.2708 309.312 47.3542 309.375 47.5C309.646 48.2708 310 48.8646 310.438 49.2812C310.875 49.6771 311.344 50.0208 311.844 50.3125C312.344 50.5833 312.844 50.8646 313.344 51.1562C313.844 51.4271 314.302 51.8333 314.719 52.375C314.885 52.3542 315.062 52.3438 315.25 52.3438C315.438 52.3229 315.615 52.3125 315.781 52.3125C316.448 52.3125 317.094 52.3646 317.719 52.4688C318.365 52.5521 319.01 52.5938 319.656 52.5938C320.344 52.5938 320.958 52.4167 321.5 52.0625C322.062 51.7083 322.542 51.2604 322.938 50.7188C323.188 50.3646 323.417 50.0625 323.625 49.8125C323.833 49.5625 324.042 49.3333 324.25 49.125C324.479 48.8958 324.719 48.6875 324.969 48.5C325.24 48.2917 325.552 48.0625 325.906 47.8125C326.031 47.7292 326.177 47.625 326.344 47.5C326.531 47.375 326.708 47.2396 326.875 47.0938C327.062 46.9271 327.219 46.7708 327.344 46.625C327.469 46.4583 327.531 46.3021 327.531 46.1562C327.531 45.9688 327.5 45.7812 327.438 45.5938C327.396 45.4062 327.375 45.2188 327.375 45.0312C327.375 44.8229 327.406 44.5729 327.469 44.2812C327.531 43.9896 327.625 43.7083 327.75 43.4375C327.896 43.1667 328.062 42.9479 328.25 42.7812C328.458 42.5938 328.708 42.5 329 42.5C329.229 42.5 329.458 42.5521 329.688 42.6562C329.917 42.7604 330.125 42.8854 330.312 43.0312C330.354 42.8229 330.375 42.6667 330.375 42.5625Z" fill="black"/>
<path d="M375.031 27.5C374.99 28.2083 374.771 28.7917 374.375 29.25C374 29.7083 373.531 30.0729 372.969 30.3438C372.406 30.6146 371.792 30.8125 371.125 30.9375C370.479 31.0417 369.875 31.1042 369.312 31.125C368.542 31.1667 368 31.3333 367.688 31.625C367.375 31.9167 367.115 32.4167 366.906 33.125C366.802 33.4583 366.656 33.8646 366.469 34.3438C366.281 34.8229 366.062 35.3125 365.812 35.8125C365.583 36.2917 365.344 36.75 365.094 37.1875C364.844 37.625 364.594 37.9583 364.344 38.1875C364.365 38.4167 364.417 38.6458 364.5 38.875C364.583 39.1042 364.625 39.3333 364.625 39.5625C364.625 39.8333 364.531 40.1146 364.344 40.4062C364.115 40.7812 363.958 41.1146 363.875 41.4062C363.792 41.6771 363.74 41.9479 363.719 42.2188C363.698 42.4688 363.677 42.7396 363.656 43.0312C363.635 43.3021 363.562 43.6146 363.438 43.9688C363.229 44.5312 362.969 45.0729 362.656 45.5938C362.344 46.1146 362.01 46.6146 361.656 47.0938C361.469 47.9688 361.26 48.8646 361.031 49.7812C360.823 50.6979 360.562 51.6042 360.25 52.5C359.938 53.375 359.573 54.2292 359.156 55.0625C358.74 55.875 358.24 56.6354 357.656 57.3438L357.188 57.3125H357C356.438 57.3125 355.885 57.3958 355.344 57.5625C354.802 57.75 354.26 57.8438 353.719 57.8438C353.406 57.8438 353.156 57.7812 352.969 57.6562C352.802 57.5521 352.656 57.4062 352.531 57.2188C352.406 57.0521 352.292 56.8542 352.188 56.625C352.104 56.4167 351.99 56.2083 351.844 56V55.125C351.74 55.0417 351.625 55 351.5 55C351.375 54.9792 351.25 54.9688 351.125 54.9688C351 54.9479 350.885 54.9271 350.781 54.9062C350.677 54.8646 350.594 54.7812 350.531 54.6562C350.406 54.4479 350.323 54.1979 350.281 53.9062C350.26 53.5938 350.24 53.2708 350.219 52.9375C350.219 52.6042 350.198 52.2708 350.156 51.9375C350.135 51.6042 350.062 51.2812 349.938 50.9688C349.812 50.6771 349.688 50.4062 349.562 50.1562C349.438 49.8854 349.312 49.6042 349.188 49.3125C349.042 49 348.938 48.6667 348.875 48.3125C348.833 47.9583 348.792 47.6042 348.75 47.25C348.708 46.8958 348.656 46.5521 348.594 46.2188C348.531 45.8646 348.417 45.5312 348.25 45.2188C348.083 44.9479 347.927 44.7083 347.781 44.5C347.635 44.2917 347.49 44.0833 347.344 43.875C347.219 43.6667 347.094 43.4479 346.969 43.2188C346.865 42.9896 346.781 42.7083 346.719 42.375C346.281 40.375 345.74 38.4271 345.094 36.5312C344.448 34.6146 343.583 32.7917 342.5 31.0625C342.25 31.1875 341.979 31.2812 341.688 31.3438C341.417 31.3854 341.135 31.4062 340.844 31.4062C340.26 31.4062 339.656 31.3229 339.031 31.1562C338.552 31.0521 338.135 30.9583 337.781 30.875C337.448 30.7708 337.167 30.6354 336.938 30.4688C336.708 30.2812 336.531 30.0208 336.406 29.6875C336.302 29.3542 336.25 28.8958 336.25 28.3125C336.25 27.75 336.375 27.3021 336.625 26.9688C336.896 26.6146 337.229 26.3438 337.625 26.1562C338.021 25.9479 338.458 25.8125 338.938 25.75C339.438 25.6667 339.906 25.625 340.344 25.625C341.073 25.625 341.771 25.7083 342.438 25.875C343.125 26.0208 343.812 26.0938 344.5 26.0938C345.188 26.0938 345.865 26.0625 346.531 26C347.219 25.9167 347.906 25.875 348.594 25.875C348.74 25.875 349.021 25.9062 349.438 25.9688C349.875 26.0312 350.323 26.1458 350.781 26.3125C351.26 26.4583 351.688 26.6667 352.062 26.9375C352.458 27.2083 352.688 27.5417 352.75 27.9375C352.75 28.375 352.688 28.8333 352.562 29.3125C352.438 29.7708 352.219 30.1458 351.906 30.4375C351.76 30.5833 351.531 30.6979 351.219 30.7812C350.927 30.8438 350.625 30.9062 350.312 30.9688C350.021 31.0312 349.76 31.0938 349.531 31.1562C349.302 31.2188 349.177 31.2917 349.156 31.375C349.073 31.7708 349 32.1979 348.938 32.6562C348.896 33.1146 348.875 33.5521 348.875 33.9688C348.875 34.2812 348.906 34.5208 348.969 34.6875C349.052 34.8542 349.135 34.9792 349.219 35.0625C349.323 35.1458 349.406 35.2188 349.469 35.2812C349.552 35.3229 349.604 35.3958 349.625 35.5C349.667 35.75 349.708 36 349.75 36.25C349.792 36.4792 349.833 36.7083 349.875 36.9375C349.896 37.1458 349.99 37.3958 350.156 37.6875C350.323 37.9792 350.5 38.2708 350.688 38.5625C350.875 38.8542 351.042 39.1354 351.188 39.4062C351.333 39.6771 351.406 39.8854 351.406 40.0312C351.406 40.0729 351.292 40.125 351.062 40.1875C350.833 40.25 350.719 40.3125 350.719 40.375C350.719 40.4167 350.771 40.4688 350.875 40.5312C350.979 40.5729 351.094 40.625 351.219 40.6875C351.365 40.7292 351.49 40.7708 351.594 40.8125C351.719 40.8333 351.802 40.8438 351.844 40.8438V41.3125C351.844 42.0625 351.948 42.7708 352.156 43.4375C352.365 44.1042 352.594 44.7604 352.844 45.4062C353.115 46.0312 353.375 46.6667 353.625 47.3125C353.875 47.9375 354.031 48.6042 354.094 49.3125L354.5 49.3438H354.656C355.115 49.3438 355.469 49.2083 355.719 48.9375C355.969 48.6667 356.188 48.3646 356.375 48.0312C356.583 47.6979 356.812 47.3958 357.062 47.125C357.312 46.8333 357.656 46.6771 358.094 46.6562C358.115 46.5521 358.125 46.4062 358.125 46.2188C358.125 45.9479 358.083 45.6875 358 45.4375C357.938 45.1667 357.906 44.8958 357.906 44.625C357.906 44.2708 357.958 44.0104 358.062 43.8438C358.167 43.6562 358.281 43.4792 358.406 43.3125C358.531 43.125 358.646 42.9062 358.75 42.6562C358.854 42.3854 358.906 41.9792 358.906 41.4375C358.906 41.2708 358.948 41.0938 359.031 40.9062C359.115 40.7188 359.219 40.5312 359.344 40.3438C359.469 40.1562 359.594 39.9792 359.719 39.8125C359.865 39.625 359.979 39.4583 360.062 39.3125C360.375 38.8542 360.604 38.2917 360.75 37.625C360.917 36.9375 361.031 36.2396 361.094 35.5312C361.177 34.8229 361.219 34.1458 361.219 33.5C361.24 32.8333 361.25 32.2812 361.25 31.8438C361.25 31.3646 361.052 31.0312 360.656 30.8438C360.281 30.6562 359.854 30.5208 359.375 30.4375C358.917 30.3333 358.49 30.2292 358.094 30.125C357.719 30 357.531 29.7708 357.531 29.4375C357.531 29.2917 357.562 29.1667 357.625 29.0625C357.688 28.9375 357.76 28.8229 357.844 28.7188C357.927 28.5938 358 28.4792 358.062 28.375C358.125 28.25 358.156 28.125 358.156 28C358.156 27.8542 358.115 27.7292 358.031 27.625C357.969 27.5 357.938 27.3646 357.938 27.2188C357.938 26.8854 358.073 26.625 358.344 26.4375C358.615 26.2292 358.938 26.0729 359.312 25.9688C359.688 25.8646 360.062 25.8021 360.438 25.7812C360.833 25.7396 361.146 25.7188 361.375 25.7188C361.75 25.7188 362.083 25.7708 362.375 25.875C362.667 25.9583 362.938 26.0625 363.188 26.1875C363.458 26.2917 363.719 26.3958 363.969 26.5C364.219 26.5833 364.469 26.625 364.719 26.625C364.927 26.625 365.073 26.5521 365.156 26.4062C365.385 26.0938 365.542 25.8646 365.625 25.7188C365.708 25.5521 365.802 25.4375 365.906 25.375C366.01 25.3125 366.156 25.2812 366.344 25.2812C366.531 25.2604 366.844 25.2396 367.281 25.2188L368.375 25.1875C368.958 25.1667 369.552 25.1875 370.156 25.25C370.781 25.2917 371.385 25.3958 371.969 25.5625C372.573 25.7292 373.135 25.9688 373.656 26.2812C374.198 26.5938 374.656 27 375.031 27.5ZM367.906 26.5938C367.615 26.5521 367.385 26.4167 367.219 26.1875C367.052 25.9375 366.833 25.7812 366.562 25.7188C366.521 25.7812 366.5 25.8854 366.5 26.0312C366.5 26.2604 366.594 26.4896 366.781 26.7188C366.99 26.9479 367.208 27.0625 367.438 27.0625C367.583 27.0625 367.688 27.0208 367.75 26.9375C367.812 26.8333 367.865 26.7188 367.906 26.5938Z" fill="black"/>
<path d="M406.938 49.4688C406.938 50.0312 406.844 50.5104 406.656 50.9062C406.49 51.3021 406.26 51.6562 405.969 51.9688C405.698 52.2812 405.375 52.5729 405 52.8438C404.646 53.1146 404.281 53.4062 403.906 53.7188C403.615 53.9688 403.354 54.1562 403.125 54.2812C402.896 54.4062 402.667 54.5104 402.438 54.5938C402.229 54.6771 402 54.7604 401.75 54.8438C401.521 54.9271 401.25 55.0417 400.938 55.1875C400.521 55.3958 400.167 55.5938 399.875 55.7812C399.604 55.9479 399.323 56.1042 399.031 56.25C398.76 56.3958 398.458 56.5104 398.125 56.5938C397.792 56.6979 397.375 56.7812 396.875 56.8438C396.042 56.9479 395.198 57.0729 394.344 57.2188C393.51 57.3646 392.677 57.4375 391.844 57.4375C391.677 57.4375 391.5 57.3958 391.312 57.3125C391.146 57.25 390.948 57.1771 390.719 57.0938C390.49 57.0312 390.229 56.9583 389.938 56.875C389.667 56.8125 389.333 56.7812 388.938 56.7812C388.521 56.7812 388.188 56.7188 387.938 56.5938C387.688 56.4688 387.458 56.3229 387.25 56.1562C387.062 55.9896 386.865 55.8125 386.656 55.625C386.448 55.4167 386.177 55.2396 385.844 55.0938C384.594 54.5312 383.531 53.8542 382.656 53.0625C381.781 52.2708 381.031 51.3854 380.406 50.4062C379.781 49.4271 379.26 48.3646 378.844 47.2188C378.427 46.0729 378.073 44.875 377.781 43.625C377.552 42.75 377.438 41.875 377.438 41C377.438 39.8542 377.708 38.7917 378.25 37.8125C378.042 37.2292 377.938 36.6667 377.938 36.125C377.938 35.7292 378.052 35.1458 378.281 34.375C378.51 33.5833 378.802 32.7917 379.156 32C379.531 31.2083 379.927 30.5 380.344 29.875C380.781 29.2292 381.188 28.8333 381.562 28.6875C381.854 28.5833 382.052 28.5 382.156 28.4375C382.281 28.3542 382.344 28.1458 382.344 27.8125C382.344 27.5625 382.438 27.3542 382.625 27.1875C382.833 27.0208 383.073 26.8854 383.344 26.7812C383.635 26.6771 383.917 26.5833 384.188 26.5C384.479 26.4167 384.719 26.3333 384.906 26.25C385.677 25.875 386.406 25.5625 387.094 25.3125C387.802 25.0417 388.5 24.8229 389.188 24.6562C389.896 24.4688 390.625 24.3333 391.375 24.25C392.125 24.1667 392.927 24.125 393.781 24.125C394.24 24.125 394.688 24.1875 395.125 24.3125C395.562 24.4375 395.979 24.6042 396.375 24.8125C396.792 25 397.198 25.2188 397.594 25.4688C397.99 25.6979 398.375 25.9271 398.75 26.1562H398.719C399.031 26.1979 399.323 26.2917 399.594 26.4375C399.885 26.5625 400.188 26.6458 400.5 26.6875C400.792 27.0417 401.167 27.3854 401.625 27.7188C402.104 28.0312 402.562 28.3646 403 28.7188C403.458 29.0729 403.844 29.4583 404.156 29.875C404.49 30.2708 404.656 30.7292 404.656 31.25C404.656 31.3333 404.646 31.4167 404.625 31.5C404.625 31.5833 404.615 31.6771 404.594 31.7812L404.719 31.625C404.802 31.6875 404.875 31.7917 404.938 31.9375C405.021 32.0833 405.094 32.25 405.156 32.4375C405.219 32.6042 405.271 32.7812 405.312 32.9688C405.354 33.1354 405.385 33.2708 405.406 33.375C405.573 33.6458 405.792 33.8646 406.062 34.0312C406.354 34.1979 406.583 34.4271 406.75 34.7188C406.542 34.9271 406.438 35.1979 406.438 35.5312C406.438 35.8854 406.51 36.2396 406.656 36.5938C406.802 36.9271 406.875 37.2708 406.875 37.625C406.875 38.0417 406.854 38.4479 406.812 38.8438C406.771 39.2188 406.75 39.6146 406.75 40.0312C406.75 40.3438 406.625 40.5833 406.375 40.75C406.146 40.9167 405.885 41.0625 405.594 41.1875C405.323 41.3125 405.073 41.4375 404.844 41.5625C404.615 41.6875 404.5 41.8646 404.5 42.0938C404.5 42.2604 404.396 42.3438 404.188 42.3438C404 42.3229 403.844 42.3125 403.719 42.3125C402.802 42.3125 401.885 42.1979 400.969 41.9688C400.073 41.7396 399.177 41.625 398.281 41.625C397.302 41.625 396.333 41.6979 395.375 41.8438C394.417 41.9688 393.448 42.0312 392.469 42.0312C391.74 42.0312 391.01 42.0104 390.281 41.9688C389.573 41.9271 388.854 41.9062 388.125 41.9062C387.938 41.9062 387.583 41.9479 387.062 42.0312C386.542 42.0938 385.99 42.1875 385.406 42.3125C384.844 42.4167 384.302 42.5521 383.781 42.7188C383.26 42.8646 382.896 43.0104 382.688 43.1562C382.667 43.2604 382.656 43.4062 382.656 43.5938C382.656 44.5729 382.938 45.5833 383.5 46.625C384.083 47.6667 384.844 48.6146 385.781 49.4688C386.719 50.3229 387.771 51.0312 388.938 51.5938C390.104 52.1562 391.281 52.4375 392.469 52.4375C393.156 52.4375 393.833 52.4688 394.5 52.5312C395.188 52.5729 395.854 52.7188 396.5 52.9688C397.062 52.6979 397.573 52.3854 398.031 52.0312C398.51 51.6771 398.969 51.3021 399.406 50.9062C399.844 50.5104 400.271 50.1042 400.688 49.6875C401.104 49.2708 401.531 48.8542 401.969 48.4375C402.052 48.3542 402.25 48.2812 402.562 48.2188C402.896 48.1354 403.25 48.0729 403.625 48.0312C404 47.9688 404.354 47.9271 404.688 47.9062C405.042 47.8646 405.281 47.8438 405.406 47.8438C405.885 47.8438 406.333 47.9167 406.75 48.0625C406.875 48.5417 406.938 49.0104 406.938 49.4688ZM402.25 36.7812C402.25 36.4688 402.198 36.1667 402.094 35.875C401.99 35.5833 401.906 35.2812 401.844 34.9688C401.74 34.3854 401.688 33.8229 401.688 33.2812C401.688 32.7188 401.604 32.1562 401.438 31.5938H401.406C401.406 31.7188 401.365 31.8438 401.281 31.9688C401.198 32.0729 401.083 32.125 400.938 32.125C400.688 32.125 400.448 32.0625 400.219 31.9375C399.99 31.8125 399.792 31.6562 399.625 31.4688C398.833 31.1146 398.115 30.7812 397.469 30.4688C396.844 30.1562 396.208 29.8854 395.562 29.6562C394.938 29.4062 394.26 29.2188 393.531 29.0938C392.823 28.9479 392 28.875 391.062 28.875C390.979 28.875 390.896 28.8854 390.812 28.9062C390.75 28.9062 390.688 28.9375 390.625 29L390.781 29.3438L390.531 29.4062C389.969 29.5104 389.5 29.6146 389.125 29.7188C388.771 29.8021 388.448 29.9271 388.156 30.0938C387.865 30.2604 387.573 30.4688 387.281 30.7188C387.01 30.9479 386.656 31.25 386.219 31.625C386.01 31.8125 385.781 31.9583 385.531 32.0625C385.302 32.1458 385.062 32.2292 384.812 32.3125C384.583 32.375 384.354 32.4479 384.125 32.5312C383.917 32.6146 383.74 32.75 383.594 32.9375C383.448 33.4583 383.229 33.9688 382.938 34.4688C382.667 34.9479 382.531 35.4583 382.531 36C382.531 36.3125 382.656 36.5938 382.906 36.8438C383.177 37.0729 383.51 37.2708 383.906 37.4375C384.323 37.6042 384.771 37.75 385.25 37.875C385.75 38 386.24 38.0938 386.719 38.1562C387.198 38.2188 387.635 38.2708 388.031 38.3125C388.448 38.3333 388.771 38.3438 389 38.3438C389.792 38.3438 390.573 38.2708 391.344 38.125C392.115 37.9583 392.896 37.875 393.688 37.875C394.5 37.875 395.312 37.9167 396.125 38C396.938 38.0625 397.75 38.0938 398.562 38.0938C398.771 38.0938 399.083 38.0833 399.5 38.0625C399.917 38.0417 400.323 37.9896 400.719 37.9062C401.135 37.8021 401.49 37.6667 401.781 37.5C402.094 37.3125 402.25 37.0729 402.25 36.7812Z" fill="black"/>
<path d="M428.75 48.3125C428.75 49.0625 428.562 49.6354 428.188 50.0312C427.833 50.4271 427.427 50.7396 426.969 50.9688C426.531 51.1979 426.125 51.3958 425.75 51.5625C425.375 51.7083 425.188 51.9271 425.188 52.2188L425.375 52.4688C425.458 52.4688 425.615 52.4896 425.844 52.5312C426.094 52.5521 426.333 52.5938 426.562 52.6562C426.812 52.7188 427.031 52.7917 427.219 52.875C427.406 52.9583 427.5 53.0521 427.5 53.1562C427.479 53.2396 427.438 53.3125 427.375 53.375C427.312 53.4167 427.25 53.4583 427.188 53.5C427.021 53.625 426.865 53.6979 426.719 53.7188C426.573 53.7396 426.448 53.7708 426.344 53.8125C426.24 53.8333 426.146 53.8958 426.062 54C425.979 54.0833 425.906 54.2708 425.844 54.5625C425.781 54.8125 425.667 55 425.5 55.125C425.333 55.2292 425.156 55.3229 424.969 55.4062C424.802 55.4688 424.646 55.5417 424.5 55.625C424.354 55.7083 424.281 55.8438 424.281 56.0312V56.0938C423.802 55.7396 423.271 55.5625 422.688 55.5625C422.083 55.5625 421.49 55.6667 420.906 55.875C420.323 56.0625 419.729 56.1562 419.125 56.1562C418.625 56.1562 418.083 56.0104 417.5 55.7188C416.917 55.4271 416.375 55.0625 415.875 54.625C415.375 54.1667 414.958 53.6667 414.625 53.125C414.292 52.5625 414.125 52.0104 414.125 51.4688C414.125 51.3229 414.156 51.1979 414.219 51.0938C414.302 50.9688 414.396 50.8542 414.5 50.75C414.396 50.4792 414.271 50.3021 414.125 50.2188C413.979 50.1354 413.833 50.0729 413.688 50.0312C413.562 49.9896 413.448 49.9271 413.344 49.8438C413.26 49.7396 413.219 49.5417 413.219 49.25C413.219 48.8333 413.188 48.4375 413.125 48.0625C413.083 47.6667 413.062 47.2708 413.062 46.875C413.062 46.6458 413.073 46.4167 413.094 46.1875C413.135 45.9583 413.198 45.7604 413.281 45.5938C413.385 45.4062 413.521 45.2604 413.688 45.1562C413.854 45.0312 414.073 44.9688 414.344 44.9688H414.5C414.333 44.7396 414.198 44.4896 414.094 44.2188C413.99 43.9271 413.938 43.6354 413.938 43.3438C413.938 43.3021 413.938 43.2604 413.938 43.2188C413.958 43.1562 414 43.125 414.062 43.125C414.167 43.125 414.26 43.1562 414.344 43.2188C414.448 43.2604 414.552 43.2917 414.656 43.3125L414.938 43.1875C415.042 43.0833 415.094 42.9792 415.094 42.875C415.094 42.7708 415.062 42.6875 415 42.625C414.938 42.5625 414.896 42.4792 414.875 42.375C414.958 42.2708 415.073 42.2083 415.219 42.1875C415.385 42.1458 415.521 42.1146 415.625 42.0938C415.896 42.0312 416.073 41.9583 416.156 41.875C416.26 41.7917 416.323 41.6979 416.344 41.5938C416.365 41.4688 416.385 41.3542 416.406 41.25C416.448 41.1458 416.552 41.0521 416.719 40.9688C416.844 40.9062 417.083 40.8438 417.438 40.7812C417.792 40.7188 418.167 40.6562 418.562 40.5938C418.979 40.5312 419.375 40.4792 419.75 40.4375C420.146 40.3958 420.427 40.3646 420.594 40.3438C420.719 40.5729 420.969 40.75 421.344 40.875C421.74 40.9792 422.188 41.0625 422.688 41.125C423.188 41.1875 423.719 41.25 424.281 41.3125C424.844 41.375 425.354 41.4792 425.812 41.625C426.292 41.7708 426.677 41.9792 426.969 42.25C427.281 42.5208 427.438 42.8854 427.438 43.3438L427.406 43.625L427.281 43.6562C427.052 43.6562 426.844 43.5833 426.656 43.4375C426.469 43.2917 426.26 43.2188 426.031 43.2188C425.927 43.0729 425.74 43.1042 425.469 43.3125C425.198 43.5 424.948 43.7292 424.719 44C424.49 44.25 424.333 44.4896 424.25 44.7188C424.167 44.9271 424.271 44.9792 424.562 44.875C424.708 44.8333 424.844 44.7708 424.969 44.6875C425.115 44.5833 425.271 44.5312 425.438 44.5312C425.521 44.5312 425.625 44.5938 425.75 44.7188C425.875 44.8229 426.021 44.9375 426.188 45.0625C426.375 45.1875 426.573 45.3125 426.781 45.4375C426.99 45.5417 427.24 45.5938 427.531 45.5938C427.802 45.5938 428.062 45.5312 428.312 45.4062C428.396 45.8854 428.49 46.3646 428.594 46.8438C428.698 47.3229 428.75 47.8125 428.75 48.3125ZM423.969 49.9688C423.844 49.7188 423.656 49.5417 423.406 49.4375L423.438 49.5C423.438 49.5833 423.385 49.6667 423.281 49.75C423.198 49.8125 423.094 49.875 422.969 49.9375C422.844 50 422.729 50.0625 422.625 50.125C422.542 50.1875 422.5 50.2396 422.5 50.2812C422.5 50.3438 422.562 50.3854 422.688 50.4062C422.812 50.4271 422.896 50.4375 422.938 50.4375C423.083 50.4375 423.292 50.4062 423.562 50.3438C423.833 50.2604 423.969 50.1354 423.969 49.9688ZM421.625 48.5312C421.292 48.5521 420.958 48.6042 420.625 48.6875C420.312 48.75 419.979 48.7812 419.625 48.7812C419.271 48.7812 418.896 48.6979 418.5 48.5312V49.875C418.688 49.7708 418.875 49.7083 419.062 49.6875C419.25 49.6458 419.448 49.625 419.656 49.625H420.312C421.042 49.625 421.479 49.2604 421.625 48.5312ZM417.188 52.25V52.1562C417.188 51.9062 417.115 51.7188 416.969 51.5938C416.844 51.4688 416.688 51.3646 416.5 51.2812C416.312 51.1979 416.115 51.125 415.906 51.0625C415.698 50.9792 415.521 50.875 415.375 50.75C415.438 51.9167 416.031 52.5104 417.156 52.5312L417.188 52.25Z" fill="black"/>
</svg>
