<svg width="323" height="82" viewBox="0 0 323 82" fill="none" xmlns="http://www.w3.org/2000/svg">
<path d="M0 35C0 15.67 15.67 0 35 0H288C307.33 0 323 15.67 323 35V47C323 66.33 307.33 82 288 82H35C15.67 82 0 66.33 0 47V35Z" fill="white"/>
<path d="M67.848 11.016V11.976C66.76 12.008 65.944 12.136 65.4 12.36C64.856 12.552 64.488 12.936 64.296 13.512C64.136 14.056 64.056 14.92 64.056 16.104V39.912C64.056 41.064 64.136 41.928 64.296 42.504C64.488 43.08 64.856 43.464 65.4 43.656C65.944 43.848 66.76 43.976 67.848 44.04V45C67.048 44.936 66.056 44.904 64.872 44.904C63.688 44.872 62.488 44.856 61.272 44.856C59.928 44.856 58.664 44.872 57.48 44.904C56.296 44.904 55.352 44.936 54.648 45V44.04C55.736 43.976 56.552 43.848 57.096 43.656C57.672 43.464 58.056 43.08 58.248 42.504C58.44 41.928 58.536 41.064 58.536 39.912V13.656L58.776 13.752L46.968 45.192H46.2L33.816 14.088V38.664C33.816 40.008 33.912 41.064 34.104 41.832C34.296 42.568 34.712 43.096 35.352 43.416C35.992 43.736 36.968 43.944 38.28 44.04V45C37.672 44.936 36.888 44.904 35.928 44.904C35 44.872 34.12 44.856 33.288 44.856C32.488 44.856 31.688 44.872 30.888 44.904C30.088 44.904 29.432 44.936 28.92 45V44.04C29.976 43.944 30.776 43.752 31.32 43.464C31.864 43.144 32.232 42.616 32.424 41.88C32.616 41.144 32.712 40.136 32.712 38.856V16.104C32.712 14.92 32.616 14.056 32.424 13.512C32.232 12.936 31.864 12.552 31.32 12.36C30.776 12.136 29.976 12.008 28.92 11.976V11.016C29.432 11.048 30.088 11.08 30.888 11.112C31.688 11.144 32.488 11.16 33.288 11.16C34.216 11.16 35.144 11.144 36.072 11.112C37.032 11.08 37.848 11.048 38.52 11.016L49.128 38.28L48.216 38.904L58.632 11.16C59.048 11.16 59.48 11.16 59.928 11.16C60.376 11.16 60.824 11.16 61.272 11.16C62.488 11.16 63.688 11.144 64.872 11.112C66.056 11.08 67.048 11.048 67.848 11.016Z" fill="black"/>
<path d="M93 20.232V21.192C92.392 21.288 91.832 21.608 91.32 22.152C90.808 22.664 90.312 23.56 89.832 24.84L82.344 44.904L81.192 46.056L71.832 23.928C71.224 22.68 70.632 21.928 70.056 21.672C69.512 21.384 69.048 21.24 68.664 21.24V20.232C69.464 20.328 70.312 20.408 71.208 20.472C72.104 20.504 73.032 20.52 73.992 20.52C75.08 20.52 76.168 20.488 77.256 20.424C78.376 20.36 79.416 20.296 80.376 20.232V21.24C79.608 21.24 78.92 21.304 78.312 21.432C77.736 21.528 77.352 21.832 77.16 22.344C77 22.824 77.16 23.656 77.64 24.84L83.592 39.48L83.256 39.624L88.104 26.76C88.584 25.48 88.776 24.456 88.68 23.688C88.584 22.888 88.248 22.296 87.672 21.912C87.096 21.496 86.248 21.256 85.128 21.192V20.232C85.672 20.264 86.168 20.296 86.616 20.328C87.096 20.328 87.56 20.344 88.008 20.376C88.456 20.376 88.904 20.376 89.352 20.376C90.056 20.376 90.712 20.36 91.32 20.328C91.96 20.296 92.52 20.264 93 20.232ZM82.344 44.904L80.616 49.416C80.296 50.216 79.96 50.888 79.608 51.432C79.288 51.976 78.936 52.424 78.552 52.776C78.072 53.224 77.48 53.544 76.776 53.736C76.072 53.928 75.368 54.024 74.664 54.024C73.992 54.024 73.352 53.896 72.744 53.64C72.168 53.416 71.688 53.064 71.304 52.584C70.92 52.104 70.728 51.512 70.728 50.808C70.728 49.976 71 49.304 71.544 48.792C72.088 48.28 72.808 48.024 73.704 48.024C74.504 48.024 75.176 48.232 75.72 48.648C76.264 49.096 76.536 49.736 76.536 50.568C76.536 51.144 76.376 51.64 76.056 52.056C75.768 52.472 75.384 52.792 74.904 53.016C75 53.048 75.096 53.064 75.192 53.064C75.288 53.064 75.368 53.064 75.432 53.064C76.328 53.064 77.128 52.76 77.832 52.152C78.536 51.576 79.128 50.632 79.608 49.32L81.336 44.712L82.344 44.904Z" fill="black"/>
<path d="M127.588 7.368V39.768C127.588 41.208 127.828 42.28 128.308 42.984C128.82 43.656 129.732 43.992 131.044 43.992V45C130.052 44.904 129.06 44.856 128.068 44.856C126.98 44.856 125.956 44.904 124.996 45C124.068 45.096 123.204 45.272 122.404 45.528V13.128C122.404 11.688 122.148 10.632 121.636 9.96C121.156 9.256 120.26 8.904 118.948 8.904V7.896C119.972 7.992 120.964 8.04 121.924 8.04C122.98 8.04 123.988 7.992 124.948 7.896C125.908 7.768 126.788 7.592 127.588 7.368ZM116.788 19.56C118.196 19.56 119.476 19.864 120.628 20.472C121.812 21.08 122.644 22.104 123.124 23.544L122.548 24.072C122.1 22.92 121.444 22.088 120.58 21.576C119.716 21.032 118.74 20.76 117.652 20.76C115.828 20.76 114.34 21.736 113.188 23.688C112.036 25.608 111.476 28.584 111.508 32.616C111.508 35.272 111.732 37.448 112.18 39.144C112.628 40.808 113.284 42.04 114.148 42.84C115.044 43.64 116.116 44.04 117.364 44.04C118.612 44.04 119.732 43.512 120.724 42.456C121.748 41.4 122.356 39.88 122.548 37.896L122.98 38.904C122.66 41.08 121.892 42.76 120.676 43.944C119.46 45.096 117.828 45.672 115.78 45.672C113.828 45.672 112.1 45.208 110.596 44.28C109.124 43.32 107.988 41.88 107.188 39.96C106.388 38.008 105.988 35.56 105.988 32.616C105.988 29.704 106.468 27.288 107.428 25.368C108.42 23.416 109.732 21.96 111.364 21C112.996 20.04 114.804 19.56 116.788 19.56Z" fill="black"/>
<path d="M140.064 45.336C138.72 45.336 137.568 45.08 136.608 44.568C135.648 44.056 134.928 43.352 134.448 42.456C133.968 41.56 133.728 40.536 133.728 39.384C133.728 37.976 134.048 36.84 134.688 35.976C135.328 35.08 136.144 34.36 137.136 33.816C138.16 33.272 139.232 32.824 140.352 32.472C141.504 32.088 142.576 31.736 143.568 31.416C144.592 31.064 145.424 30.664 146.064 30.216C146.736 29.768 147.072 29.176 147.072 28.44V25.176C147.072 24.024 146.88 23.112 146.496 22.44C146.144 21.736 145.648 21.24 145.008 20.952C144.4 20.664 143.664 20.52 142.8 20.52C142.064 20.52 141.28 20.632 140.448 20.856C139.616 21.048 138.96 21.448 138.48 22.056C139.184 22.248 139.76 22.632 140.208 23.208C140.688 23.752 140.928 24.44 140.928 25.272C140.928 26.168 140.624 26.872 140.016 27.384C139.44 27.896 138.704 28.152 137.808 28.152C136.816 28.152 136.08 27.848 135.6 27.24C135.12 26.6 134.88 25.864 134.88 25.032C134.88 24.168 135.088 23.464 135.504 22.92C135.952 22.376 136.528 21.864 137.232 21.384C138 20.872 138.976 20.44 140.16 20.088C141.376 19.736 142.72 19.56 144.192 19.56C145.568 19.56 146.752 19.72 147.744 20.04C148.768 20.328 149.616 20.808 150.288 21.48C151.088 22.216 151.616 23.144 151.872 24.264C152.128 25.352 152.256 26.68 152.256 28.248V41.496C152.256 42.296 152.352 42.872 152.544 43.224C152.768 43.544 153.12 43.704 153.6 43.704C153.92 43.704 154.224 43.624 154.512 43.464C154.832 43.304 155.2 43.064 155.616 42.744L156.096 43.56C155.424 44.104 154.736 44.536 154.032 44.856C153.36 45.176 152.496 45.336 151.44 45.336C150.416 45.336 149.584 45.176 148.944 44.856C148.304 44.536 147.824 44.072 147.504 43.464C147.216 42.856 147.072 42.104 147.072 41.208C146.24 42.552 145.248 43.576 144.096 44.28C142.944 44.984 141.6 45.336 140.064 45.336ZM142.368 43.032C143.264 43.032 144.096 42.776 144.864 42.264C145.664 41.752 146.4 40.984 147.072 39.96V30.408C146.72 30.92 146.208 31.368 145.536 31.752C144.864 32.104 144.144 32.472 143.376 32.856C142.608 33.24 141.872 33.688 141.168 34.2C140.496 34.68 139.936 35.304 139.488 36.072C139.04 36.84 138.816 37.816 138.816 39C138.816 40.248 139.136 41.24 139.776 41.976C140.416 42.68 141.28 43.032 142.368 43.032Z" fill="black"/>
<path d="M172.986 19.56C173.914 19.56 174.698 19.752 175.338 20.136C176.01 20.52 176.506 21.016 176.826 21.624C177.178 22.2 177.354 22.856 177.354 23.592C177.354 24.52 177.066 25.32 176.49 25.992C175.946 26.632 175.21 26.952 174.282 26.952C173.482 26.952 172.794 26.712 172.218 26.232C171.674 25.752 171.402 25.096 171.402 24.264C171.402 23.56 171.578 22.968 171.93 22.488C172.314 21.976 172.746 21.576 173.226 21.288C172.906 21.032 172.522 20.92 172.074 20.952C171.21 20.984 170.41 21.272 169.674 21.816C168.938 22.328 168.314 23 167.802 23.832C167.29 24.632 166.89 25.496 166.602 26.424C166.314 27.352 166.17 28.216 166.17 29.016V40.056C166.17 41.624 166.602 42.68 167.466 43.224C168.33 43.736 169.53 43.992 171.066 43.992V45C170.33 44.968 169.274 44.936 167.898 44.904C166.554 44.84 165.13 44.808 163.626 44.808C162.474 44.808 161.322 44.84 160.17 44.904C159.018 44.936 158.138 44.968 157.53 45V43.992C158.778 43.992 159.658 43.752 160.17 43.272C160.714 42.792 160.986 41.88 160.986 40.536V25.464C160.986 24.024 160.746 22.968 160.266 22.296C159.786 21.592 158.874 21.24 157.53 21.24V20.232C158.554 20.328 159.546 20.376 160.506 20.376C161.594 20.376 162.602 20.328 163.53 20.232C164.49 20.104 165.37 19.928 166.17 19.704V25.224C166.554 24.296 167.066 23.4 167.706 22.536C168.346 21.672 169.114 20.968 170.01 20.424C170.906 19.848 171.898 19.56 172.986 19.56Z" fill="black"/>
<path d="M186.554 7.368V40.536C186.554 41.88 186.81 42.792 187.322 43.272C187.866 43.752 188.762 43.992 190.01 43.992V45C189.466 44.968 188.618 44.936 187.466 44.904C186.314 44.84 185.162 44.808 184.01 44.808C182.858 44.808 181.69 44.84 180.506 44.904C179.354 44.936 178.49 44.968 177.914 45V43.992C179.162 43.992 180.042 43.752 180.554 43.272C181.098 42.792 181.37 41.88 181.37 40.536V13.128C181.37 11.688 181.13 10.632 180.65 9.96C180.17 9.256 179.258 8.904 177.914 8.904V7.896C178.938 7.992 179.93 8.04 180.89 8.04C181.946 8.04 182.954 7.992 183.914 7.896C184.874 7.768 185.754 7.592 186.554 7.368Z" fill="black"/>
<path d="M198.072 8.136C199.064 8.136 199.896 8.456 200.568 9.096C201.24 9.704 201.576 10.472 201.576 11.4C201.576 12.328 201.24 13.112 200.568 13.752C199.896 14.36 199.064 14.664 198.072 14.664C197.08 14.664 196.248 14.36 195.576 13.752C194.904 13.112 194.568 12.328 194.568 11.4C194.568 10.472 194.904 9.704 195.576 9.096C196.248 8.456 197.08 8.136 198.072 8.136ZM200.952 19.704V40.536C200.952 41.88 201.208 42.792 201.72 43.272C202.264 43.752 203.16 43.992 204.408 43.992V45C203.864 44.968 203.016 44.936 201.864 44.904C200.744 44.84 199.592 44.808 198.408 44.808C197.288 44.808 196.136 44.84 194.952 44.904C193.768 44.936 192.888 44.968 192.312 45V43.992C193.56 43.992 194.44 43.752 194.952 43.272C195.496 42.792 195.768 41.88 195.768 40.536V25.464C195.768 24.024 195.528 22.968 195.048 22.296C194.568 21.592 193.656 21.24 192.312 21.24V20.232C193.336 20.328 194.328 20.376 195.288 20.376C196.376 20.376 197.384 20.328 198.312 20.232C199.272 20.104 200.152 19.928 200.952 19.704Z" fill="black"/>
<path d="M223.406 19.56C224.686 19.56 225.726 19.736 226.526 20.088C227.358 20.408 228.046 20.856 228.59 21.432C229.166 22.04 229.566 22.824 229.79 23.784C230.046 24.744 230.174 26.04 230.174 27.672V40.536C230.174 41.88 230.43 42.792 230.942 43.272C231.486 43.752 232.382 43.992 233.63 43.992V45C233.086 44.968 232.238 44.936 231.086 44.904C229.934 44.84 228.798 44.808 227.678 44.808C226.59 44.808 225.502 44.84 224.414 44.904C223.358 44.936 222.558 44.968 222.014 45V43.992C223.102 43.992 223.87 43.752 224.318 43.272C224.766 42.792 224.99 41.88 224.99 40.536V26.328C224.99 25.4 224.91 24.568 224.75 23.832C224.59 23.064 224.254 22.456 223.742 22.008C223.23 21.528 222.462 21.288 221.438 21.288C220.254 21.288 219.198 21.624 218.27 22.296C217.374 22.968 216.654 23.896 216.11 25.08C215.598 26.232 215.342 27.528 215.342 28.968V40.536C215.342 41.88 215.566 42.792 216.014 43.272C216.494 43.752 217.262 43.992 218.318 43.992V45C217.806 44.968 217.022 44.936 215.966 44.904C214.942 44.84 213.87 44.808 212.75 44.808C211.662 44.808 210.526 44.84 209.342 44.904C208.158 44.936 207.278 44.968 206.702 45V43.992C207.95 43.992 208.83 43.752 209.342 43.272C209.886 42.792 210.158 41.88 210.158 40.536V25.464C210.158 24.024 209.918 22.968 209.438 22.296C208.958 21.592 208.046 21.24 206.702 21.24V20.232C207.726 20.328 208.718 20.376 209.678 20.376C210.766 20.376 211.774 20.328 212.702 20.232C213.662 20.104 214.542 19.928 215.342 19.704V24.936C216.174 22.952 217.31 21.56 218.75 20.76C220.222 19.96 221.774 19.56 223.406 19.56Z" fill="black"/>
<path d="M244.226 54.024C242.434 54.024 240.77 53.848 239.234 53.496C237.73 53.144 236.514 52.6 235.586 51.864C234.69 51.16 234.242 50.248 234.242 49.128C234.242 48.072 234.69 47.144 235.586 46.344C236.482 45.544 237.746 44.936 239.378 44.52L239.714 45.288C239.042 45.576 238.514 46.04 238.13 46.68C237.778 47.32 237.602 48.024 237.602 48.792C237.602 50.2 238.258 51.288 239.57 52.056C240.882 52.824 242.61 53.208 244.754 53.208C246.194 53.208 247.554 53.016 248.834 52.632C250.146 52.28 251.202 51.688 252.002 50.856C252.834 50.024 253.25 48.952 253.25 47.64C253.25 46.616 252.882 45.752 252.146 45.048C251.41 44.376 249.954 44.04 247.778 44.04H244.418C243.298 44.04 242.258 43.944 241.298 43.752C240.338 43.56 239.554 43.192 238.946 42.648C238.37 42.072 238.082 41.272 238.082 40.248C238.082 39.096 238.562 38.008 239.522 36.984C240.482 35.96 242.098 34.952 244.37 33.96L244.946 34.392C244.018 34.904 243.186 35.432 242.45 35.976C241.746 36.488 241.394 37.128 241.394 37.896C241.394 38.92 242.13 39.432 243.602 39.432H249.314C250.818 39.432 252.178 39.64 253.394 40.056C254.61 40.44 255.586 41.064 256.322 41.928C257.058 42.792 257.426 43.928 257.426 45.336C257.426 46.84 256.93 48.248 255.938 49.56C254.978 50.904 253.522 51.976 251.57 52.776C249.618 53.608 247.17 54.024 244.226 54.024ZM244.514 34.776C242.882 34.776 241.394 34.52 240.05 34.008C238.706 33.464 237.65 32.632 236.882 31.512C236.114 30.392 235.73 28.952 235.73 27.192C235.73 25.432 236.114 23.992 236.882 22.872C237.65 21.72 238.706 20.888 240.05 20.376C241.394 19.832 242.882 19.56 244.514 19.56C246.21 19.56 247.714 19.832 249.026 20.376C250.338 20.888 251.378 21.72 252.146 22.872C252.914 23.992 253.298 25.432 253.298 27.192C253.298 28.952 252.914 30.392 252.146 31.512C251.378 32.632 250.338 33.464 249.026 34.008C247.714 34.52 246.21 34.776 244.514 34.776ZM244.514 33.912C245.634 33.912 246.498 33.432 247.106 32.472C247.714 31.512 248.018 29.752 248.018 27.192C248.018 24.632 247.714 22.872 247.106 21.912C246.498 20.92 245.634 20.424 244.514 20.424C243.458 20.424 242.61 20.92 241.97 21.912C241.33 22.872 241.01 24.632 241.01 27.192C241.01 29.752 241.33 31.512 241.97 32.472C242.61 33.432 243.458 33.912 244.514 33.912ZM251.618 23.592L250.754 23.256C251.202 22.136 251.97 21.16 253.058 20.328C254.146 19.496 255.282 19.08 256.466 19.08C257.362 19.08 258.066 19.336 258.578 19.848C259.122 20.328 259.394 21.016 259.394 21.912C259.394 22.904 259.122 23.608 258.578 24.024C258.066 24.44 257.522 24.648 256.946 24.648C256.434 24.648 255.954 24.472 255.506 24.12C255.09 23.768 254.85 23.224 254.786 22.488C254.722 21.72 254.962 20.744 255.506 19.56L256.034 19.752C254.754 20.264 253.81 20.808 253.202 21.384C252.626 21.928 252.098 22.664 251.618 23.592Z" fill="black"/>
</svg>
