<svg width="644" height="211" viewBox="0 0 644 211" fill="none" xmlns="http://www.w3.org/2000/svg">
<path d="M49 168.5C49 145.028 68.0279 126 91.5 126H546.5C569.972 126 589 145.028 589 168.5C589 191.972 569.972 211 546.5 211H91.5C68.0279 211 49 191.972 49 168.5Z" fill="white"/>
<path d="M0 106.5C0 83.0279 19.0279 64 42.5 64H601.5C624.972 64 644 83.0279 644 106.5C644 129.972 624.972 149 601.5 149H42.5C19.0279 149 0 129.972 0 106.5Z" fill="white"/>
<path d="M49 42.5C49 19.0279 68.0279 0 91.5 0H499.5C522.972 0 542 19.0279 542 42.5C542 65.9721 522.972 85 499.5 85H91.5C68.0279 85 49 65.9721 49 42.5Z" fill="white"/>
<path d="M78.384 35.776C77.648 35.776 77.04 35.632 76.56 35.344C76.08 35.056 75.68 34.672 75.36 34.192C75.04 33.68 74.8 33.104 74.64 32.464C74.512 31.824 74.448 31.248 74.448 30.736C74.448 29.168 74.848 27.728 75.648 26.416C76.48 25.104 77.744 24.048 79.44 23.248L79.872 24.112C78.912 24.528 78.08 25.168 77.376 26.032C76.672 26.896 76.288 27.776 76.224 28.672C76.16 29.152 76.192 29.6 76.32 30.016C76.896 29.472 77.6 29.2 78.432 29.2C79.36 29.2 80.144 29.504 80.784 30.112C81.424 30.688 81.744 31.488 81.744 32.512C81.744 33.472 81.408 34.256 80.736 34.864C80.096 35.472 79.312 35.776 78.384 35.776ZM87.12 35.776C86.384 35.776 85.776 35.632 85.296 35.344C84.816 35.056 84.416 34.672 84.096 34.192C83.776 33.68 83.536 33.104 83.376 32.464C83.248 31.824 83.184 31.248 83.184 30.736C83.184 29.168 83.584 27.728 84.384 26.416C85.216 25.104 86.48 24.048 88.176 23.248L88.608 24.112C87.648 24.528 86.816 25.168 86.112 26.032C85.408 26.896 85.024 27.776 84.96 28.672C84.896 29.152 84.928 29.6 85.056 30.016C85.632 29.472 86.336 29.2 87.168 29.2C88.096 29.2 88.88 29.504 89.52 30.112C90.16 30.688 90.48 31.488 90.48 32.512C90.48 33.472 90.144 34.256 89.472 34.864C88.832 35.472 88.048 35.776 87.12 35.776Z" fill="black"/>
<path d="M107.742 24.016V24.976C106.686 25.008 105.886 25.136 105.342 25.36C104.798 25.552 104.43 25.936 104.238 26.512C104.046 27.056 103.95 27.92 103.95 29.104V52.912C103.95 54.064 104.046 54.928 104.238 55.504C104.43 56.08 104.798 56.464 105.342 56.656C105.886 56.848 106.686 56.976 107.742 57.04V58C106.974 57.936 105.998 57.904 104.814 57.904C103.662 57.872 102.478 57.856 101.262 57.856C99.9176 57.856 98.6536 57.872 97.4696 57.904C96.3176 57.904 95.3736 57.936 94.6376 58V57.04C95.7256 56.976 96.5416 56.848 97.0856 56.656C97.6296 56.464 97.9816 56.08 98.1416 55.504C98.3336 54.928 98.4296 54.064 98.4296 52.912V29.104C98.4296 27.92 98.3336 27.056 98.1416 26.512C97.9816 25.936 97.6136 25.552 97.0376 25.36C96.4936 25.136 95.6936 25.008 94.6376 24.976V24.016C95.3736 24.048 96.3176 24.08 97.4696 24.112C98.6536 24.144 99.9176 24.16 101.262 24.16C102.478 24.16 103.662 24.144 104.814 24.112C105.998 24.08 106.974 24.048 107.742 24.016Z" fill="black"/>
<path d="M129.741 20.416V37.888C130.541 35.904 131.661 34.528 133.101 33.76C134.573 32.96 136.125 32.56 137.757 32.56C139.037 32.56 140.077 32.736 140.877 33.088C141.709 33.408 142.397 33.856 142.941 34.432C143.517 35.04 143.933 35.824 144.189 36.784C144.445 37.744 144.573 39.04 144.573 40.672V53.536C144.573 54.88 144.829 55.792 145.341 56.272C145.885 56.752 146.781 56.992 148.029 56.992V58C147.453 57.968 146.589 57.936 145.437 57.904C144.285 57.84 143.165 57.808 142.077 57.808C140.957 57.808 139.853 57.84 138.765 57.904C137.709 57.936 136.925 57.968 136.413 58V56.992C137.501 56.992 138.269 56.752 138.717 56.272C139.165 55.792 139.389 54.88 139.389 53.536V39.328C139.389 38.4 139.309 37.568 139.149 36.832C138.989 36.064 138.637 35.456 138.093 35.008C137.581 34.528 136.813 34.288 135.789 34.288C134.637 34.288 133.597 34.624 132.669 35.296C131.773 35.936 131.053 36.832 130.509 37.984C129.997 39.136 129.741 40.448 129.741 41.92V53.536C129.741 54.88 129.965 55.792 130.413 56.272C130.861 56.752 131.629 56.992 132.717 56.992V58C132.173 57.968 131.373 57.936 130.317 57.904C129.293 57.84 128.237 57.808 127.149 57.808C126.029 57.808 124.877 57.84 123.693 57.904C122.541 57.936 121.677 57.968 121.101 58V56.992C122.349 56.992 123.229 56.752 123.741 56.272C124.285 55.792 124.557 54.88 124.557 53.536V26.176C124.557 24.736 124.301 23.68 123.789 23.008C123.309 22.304 122.413 21.952 121.101 21.952V20.944C122.125 21.04 123.117 21.088 124.077 21.088C125.133 21.088 126.141 21.04 127.101 20.944C128.061 20.816 128.941 20.64 129.741 20.416Z" fill="black"/>
<path d="M156.751 58.336C155.407 58.336 154.256 58.08 153.296 57.568C152.336 57.056 151.615 56.352 151.135 55.456C150.655 54.56 150.415 53.536 150.415 52.384C150.415 50.976 150.736 49.84 151.376 48.976C152.016 48.08 152.832 47.36 153.824 46.816C154.848 46.272 155.92 45.824 157.04 45.472C158.192 45.088 159.263 44.736 160.255 44.416C161.279 44.064 162.111 43.664 162.751 43.216C163.423 42.768 163.76 42.176 163.76 41.44V38.176C163.76 37.024 163.568 36.112 163.184 35.44C162.832 34.736 162.335 34.24 161.695 33.952C161.087 33.664 160.352 33.52 159.488 33.52C158.752 33.52 157.967 33.632 157.135 33.856C156.303 34.048 155.647 34.448 155.167 35.056C155.871 35.248 156.448 35.632 156.896 36.208C157.376 36.752 157.615 37.44 157.615 38.272C157.615 39.168 157.312 39.872 156.704 40.384C156.128 40.896 155.391 41.152 154.495 41.152C153.503 41.152 152.768 40.848 152.288 40.24C151.808 39.6 151.568 38.864 151.568 38.032C151.568 37.168 151.775 36.464 152.191 35.92C152.639 35.376 153.215 34.864 153.919 34.384C154.687 33.872 155.664 33.44 156.848 33.088C158.064 32.736 159.408 32.56 160.88 32.56C162.256 32.56 163.44 32.72 164.432 33.04C165.456 33.328 166.303 33.808 166.975 34.48C167.775 35.216 168.304 36.144 168.56 37.264C168.816 38.352 168.943 39.68 168.943 41.248V54.496C168.943 55.296 169.04 55.872 169.232 56.224C169.456 56.544 169.808 56.704 170.288 56.704C170.608 56.704 170.911 56.624 171.199 56.464C171.519 56.304 171.887 56.064 172.303 55.744L172.784 56.56C172.112 57.104 171.423 57.536 170.719 57.856C170.047 58.176 169.184 58.336 168.128 58.336C167.104 58.336 166.272 58.176 165.632 57.856C164.991 57.536 164.511 57.072 164.191 56.464C163.903 55.856 163.76 55.104 163.76 54.208C162.928 55.552 161.935 56.576 160.783 57.28C159.631 57.984 158.287 58.336 156.751 58.336ZM159.055 56.032C159.951 56.032 160.783 55.776 161.551 55.264C162.351 54.752 163.088 53.984 163.76 52.96V43.408C163.408 43.92 162.895 44.368 162.223 44.752C161.551 45.104 160.832 45.472 160.064 45.856C159.296 46.24 158.559 46.688 157.855 47.2C157.183 47.68 156.624 48.304 156.176 49.072C155.728 49.84 155.503 50.816 155.503 52C155.503 53.248 155.824 54.24 156.464 54.976C157.104 55.68 157.967 56.032 159.055 56.032Z" fill="black"/>
<path d="M196.258 33.232V34.192C195.65 34.288 195.074 34.608 194.53 35.152C194.018 35.664 193.538 36.56 193.09 37.84L185.506 58.192C185.25 58.192 184.978 58.192 184.69 58.192C184.434 58.192 184.178 58.192 183.922 58.192L175.186 36.928C174.674 35.68 174.162 34.928 173.65 34.672C173.17 34.384 172.754 34.24 172.402 34.24V33.232C173.17 33.296 173.954 33.36 174.754 33.424C175.586 33.456 176.498 33.472 177.49 33.472C178.482 33.472 179.522 33.456 180.61 33.424C181.73 33.36 182.77 33.296 183.73 33.232V34.24C182.962 34.24 182.274 34.288 181.666 34.384C181.09 34.48 180.706 34.768 180.514 35.248C180.354 35.696 180.466 36.48 180.85 37.6L186.754 52.48L186.37 52.864L191.314 39.76C191.794 38.48 191.986 37.456 191.89 36.688C191.794 35.888 191.458 35.296 190.882 34.912C190.306 34.496 189.474 34.256 188.386 34.192V33.232C188.93 33.264 189.426 33.296 189.874 33.328C190.354 33.328 190.802 33.344 191.218 33.376C191.666 33.376 192.13 33.376 192.61 33.376C193.314 33.376 193.97 33.36 194.578 33.328C195.218 33.296 195.778 33.264 196.258 33.232Z" fill="black"/>
<path d="M209.044 32.56C211.86 32.56 214.068 33.408 215.668 35.104C217.268 36.8 218.068 39.488 218.068 43.168H201.508L201.412 42.256H212.98C213.012 40.688 212.884 39.248 212.596 37.936C212.308 36.592 211.86 35.52 211.252 34.72C210.644 33.92 209.844 33.52 208.852 33.52C207.476 33.52 206.276 34.256 205.252 35.728C204.26 37.168 203.652 39.488 203.428 42.688L203.572 42.928C203.54 43.376 203.508 43.872 203.476 44.416C203.444 44.928 203.428 45.44 203.428 45.952C203.428 48.16 203.764 50.016 204.436 51.52C205.108 53.024 205.988 54.16 207.076 54.928C208.164 55.664 209.268 56.032 210.388 56.032C211.252 56.032 212.084 55.904 212.884 55.648C213.716 55.36 214.5 54.896 215.236 54.256C215.972 53.584 216.628 52.672 217.204 51.52L218.164 51.904C217.78 52.992 217.188 54.064 216.388 55.12C215.588 56.176 214.564 57.04 213.316 57.712C212.068 58.352 210.612 58.672 208.948 58.672C206.708 58.672 204.756 58.176 203.092 57.184C201.428 56.16 200.148 54.704 199.252 52.816C198.356 50.928 197.908 48.688 197.908 46.096C197.908 43.248 198.372 40.816 199.3 38.8C200.228 36.784 201.524 35.248 203.188 34.192C204.884 33.104 206.836 32.56 209.044 32.56Z" fill="black"/>
<path d="M240.273 20.368V53.536C240.273 54.88 240.529 55.792 241.041 56.272C241.585 56.752 242.481 56.992 243.729 56.992V58C243.185 57.968 242.337 57.936 241.185 57.904C240.033 57.84 238.881 57.808 237.729 57.808C236.577 57.808 235.409 57.84 234.225 57.904C233.073 57.936 232.209 57.968 231.633 58V56.992C232.881 56.992 233.761 56.752 234.273 56.272C234.817 55.792 235.089 54.88 235.089 53.536V26.128C235.089 24.688 234.849 23.632 234.369 22.96C233.889 22.256 232.977 21.904 231.633 21.904V20.896C232.657 20.992 233.649 21.04 234.609 21.04C235.665 21.04 236.673 20.992 237.633 20.896C238.593 20.768 239.473 20.592 240.273 20.368Z" fill="black"/>
<path d="M257.562 32.56C259.706 32.56 261.61 33.008 263.274 33.904C264.938 34.8 266.266 36.208 267.258 38.128C268.25 40.048 268.746 42.56 268.746 45.664C268.746 48.768 268.25 51.28 267.258 53.2C266.266 55.088 264.938 56.48 263.274 57.376C261.61 58.24 259.706 58.672 257.562 58.672C255.45 58.672 253.546 58.24 251.85 57.376C250.154 56.48 248.81 55.088 247.818 53.2C246.858 51.28 246.378 48.768 246.378 45.664C246.378 42.56 246.858 40.048 247.818 38.128C248.81 36.208 250.154 34.8 251.85 33.904C253.546 33.008 255.45 32.56 257.562 32.56ZM257.562 33.52C255.898 33.52 254.538 34.48 253.482 36.4C252.426 38.288 251.898 41.376 251.898 45.664C251.898 49.952 252.426 53.04 253.482 54.928C254.538 56.784 255.898 57.712 257.562 57.712C259.194 57.712 260.538 56.784 261.594 54.928C262.682 53.04 263.226 49.952 263.226 45.664C263.226 41.376 262.682 38.288 261.594 36.4C260.538 34.48 259.194 33.52 257.562 33.52Z" fill="black"/>
<path d="M284.14 32.56C286.284 32.56 288.188 33.008 289.852 33.904C291.516 34.8 292.844 36.208 293.836 38.128C294.828 40.048 295.324 42.56 295.324 45.664C295.324 48.768 294.828 51.28 293.836 53.2C292.844 55.088 291.516 56.48 289.852 57.376C288.188 58.24 286.284 58.672 284.14 58.672C282.028 58.672 280.124 58.24 278.428 57.376C276.732 56.48 275.388 55.088 274.396 53.2C273.436 51.28 272.956 48.768 272.956 45.664C272.956 42.56 273.436 40.048 274.396 38.128C275.388 36.208 276.732 34.8 278.428 33.904C280.124 33.008 282.028 32.56 284.14 32.56ZM284.14 33.52C282.476 33.52 281.116 34.48 280.06 36.4C279.004 38.288 278.476 41.376 278.476 45.664C278.476 49.952 279.004 53.04 280.06 54.928C281.116 56.784 282.476 57.712 284.14 57.712C285.772 57.712 287.116 56.784 288.172 54.928C289.26 53.04 289.804 49.952 289.804 45.664C289.804 41.376 289.26 38.288 288.172 36.4C287.116 34.48 285.772 33.52 284.14 33.52Z" fill="black"/>
<path d="M306.553 20.368V53.536C306.553 54.88 306.777 55.792 307.225 56.272C307.705 56.752 308.505 56.992 309.625 56.992V58C309.081 57.968 308.265 57.936 307.177 57.904C306.121 57.84 305.049 57.808 303.961 57.808C302.841 57.808 301.689 57.84 300.505 57.904C299.353 57.936 298.489 57.968 297.913 58V56.992C299.161 56.992 300.041 56.752 300.553 56.272C301.097 55.792 301.369 54.88 301.369 53.536V26.128C301.369 24.688 301.113 23.632 300.601 22.96C300.121 22.256 299.225 21.904 297.913 21.904V20.896C298.937 20.992 299.929 21.04 300.889 21.04C301.945 21.04 302.953 20.992 303.913 20.896C304.873 20.768 305.753 20.592 306.553 20.368ZM321.913 33.232V34.192C321.049 34.32 320.217 34.608 319.417 35.056C318.617 35.504 317.833 36.128 317.065 36.928L311.305 42.976L311.929 41.776L320.617 54.496C321.097 55.168 321.561 55.728 322.009 56.176C322.457 56.592 323.017 56.864 323.689 56.992V58C323.273 57.968 322.649 57.936 321.817 57.904C321.017 57.84 320.217 57.808 319.417 57.808C318.361 57.808 317.289 57.84 316.201 57.904C315.113 57.936 314.313 57.968 313.801 58V56.992C314.441 56.992 314.873 56.832 315.097 56.512C315.353 56.192 315.321 55.808 315.001 55.36L309.721 47.104C309.177 46.336 308.681 45.84 308.233 45.616C307.785 45.392 307.145 45.264 306.313 45.232V44.272C307.241 44.176 307.993 44 308.569 43.744C309.177 43.488 309.737 43.072 310.249 42.496L313.849 38.848C314.873 37.824 315.385 36.976 315.385 36.304C315.385 35.6 315.049 35.088 314.377 34.768C313.737 34.416 312.873 34.224 311.785 34.192V33.232C312.649 33.264 313.593 33.312 314.617 33.376C315.673 33.408 316.553 33.424 317.257 33.424C317.833 33.424 318.409 33.424 318.985 33.424C319.593 33.392 320.153 33.36 320.665 33.328C321.177 33.296 321.593 33.264 321.913 33.232Z" fill="black"/>
<path d="M335.841 32.56C338.657 32.56 340.865 33.408 342.465 35.104C344.065 36.8 344.865 39.488 344.865 43.168H328.305L328.209 42.256H339.777C339.809 40.688 339.681 39.248 339.393 37.936C339.105 36.592 338.657 35.52 338.049 34.72C337.441 33.92 336.641 33.52 335.649 33.52C334.273 33.52 333.073 34.256 332.049 35.728C331.057 37.168 330.449 39.488 330.225 42.688L330.369 42.928C330.337 43.376 330.305 43.872 330.273 44.416C330.241 44.928 330.225 45.44 330.225 45.952C330.225 48.16 330.561 50.016 331.233 51.52C331.905 53.024 332.785 54.16 333.873 54.928C334.961 55.664 336.065 56.032 337.185 56.032C338.049 56.032 338.881 55.904 339.681 55.648C340.513 55.36 341.297 54.896 342.033 54.256C342.769 53.584 343.425 52.672 344.001 51.52L344.961 51.904C344.577 52.992 343.985 54.064 343.185 55.12C342.385 56.176 341.361 57.04 340.113 57.712C338.865 58.352 337.409 58.672 335.745 58.672C333.505 58.672 331.553 58.176 329.889 57.184C328.225 56.16 326.945 54.704 326.049 52.816C325.153 50.928 324.705 48.688 324.705 46.096C324.705 43.248 325.169 40.816 326.097 38.8C327.025 36.784 328.321 35.248 329.985 34.192C331.681 33.104 333.633 32.56 335.841 32.56Z" fill="black"/>
<path d="M370.635 20.368V52.768C370.635 54.208 370.875 55.28 371.355 55.984C371.867 56.656 372.779 56.992 374.091 56.992V58C373.099 57.904 372.107 57.856 371.115 57.856C370.027 57.856 369.003 57.904 368.043 58C367.115 58.096 366.251 58.272 365.451 58.528V26.128C365.451 24.688 365.195 23.632 364.683 22.96C364.203 22.256 363.307 21.904 361.995 21.904V20.896C363.019 20.992 364.011 21.04 364.971 21.04C366.027 21.04 367.035 20.992 367.995 20.896C368.955 20.768 369.835 20.592 370.635 20.368ZM359.835 32.56C361.243 32.56 362.523 32.864 363.675 33.472C364.859 34.08 365.691 35.104 366.171 36.544L365.595 37.072C365.147 35.92 364.491 35.088 363.627 34.576C362.763 34.032 361.787 33.76 360.699 33.76C358.875 33.76 357.387 34.736 356.235 36.688C355.083 38.608 354.523 41.584 354.555 45.616C354.555 48.272 354.779 50.448 355.227 52.144C355.675 53.808 356.331 55.04 357.195 55.84C358.091 56.64 359.163 57.04 360.411 57.04C361.659 57.04 362.779 56.512 363.771 55.456C364.795 54.4 365.403 52.88 365.595 50.896L366.027 51.904C365.707 54.08 364.939 55.76 363.723 56.944C362.507 58.096 360.875 58.672 358.827 58.672C356.875 58.672 355.147 58.208 353.643 57.28C352.171 56.32 351.035 54.88 350.235 52.96C349.435 51.008 349.035 48.56 349.035 45.616C349.035 42.704 349.515 40.288 350.475 38.368C351.467 36.416 352.779 34.96 354.411 34C356.043 33.04 357.851 32.56 359.835 32.56Z" fill="black"/>
<path d="M394.83 58.336C393.486 58.336 392.334 58.08 391.374 57.568C390.414 57.056 389.694 56.352 389.214 55.456C388.734 54.56 388.494 53.536 388.494 52.384C388.494 50.976 388.814 49.84 389.454 48.976C390.094 48.08 390.91 47.36 391.902 46.816C392.926 46.272 393.998 45.824 395.118 45.472C396.27 45.088 397.342 44.736 398.334 44.416C399.358 44.064 400.19 43.664 400.83 43.216C401.502 42.768 401.838 42.176 401.838 41.44V38.176C401.838 37.024 401.646 36.112 401.262 35.44C400.91 34.736 400.414 34.24 399.774 33.952C399.166 33.664 398.43 33.52 397.566 33.52C396.83 33.52 396.046 33.632 395.214 33.856C394.382 34.048 393.726 34.448 393.246 35.056C393.95 35.248 394.526 35.632 394.974 36.208C395.454 36.752 395.694 37.44 395.694 38.272C395.694 39.168 395.39 39.872 394.782 40.384C394.206 40.896 393.47 41.152 392.574 41.152C391.582 41.152 390.846 40.848 390.366 40.24C389.886 39.6 389.646 38.864 389.646 38.032C389.646 37.168 389.854 36.464 390.27 35.92C390.718 35.376 391.294 34.864 391.998 34.384C392.766 33.872 393.742 33.44 394.926 33.088C396.142 32.736 397.486 32.56 398.958 32.56C400.334 32.56 401.518 32.72 402.51 33.04C403.534 33.328 404.382 33.808 405.054 34.48C405.854 35.216 406.382 36.144 406.638 37.264C406.894 38.352 407.022 39.68 407.022 41.248V54.496C407.022 55.296 407.118 55.872 407.31 56.224C407.534 56.544 407.886 56.704 408.366 56.704C408.686 56.704 408.99 56.624 409.278 56.464C409.598 56.304 409.966 56.064 410.382 55.744L410.862 56.56C410.19 57.104 409.502 57.536 408.798 57.856C408.126 58.176 407.262 58.336 406.206 58.336C405.182 58.336 404.35 58.176 403.71 57.856C403.07 57.536 402.59 57.072 402.27 56.464C401.982 55.856 401.838 55.104 401.838 54.208C401.006 55.552 400.014 56.576 398.862 57.28C397.71 57.984 396.366 58.336 394.83 58.336ZM397.134 56.032C398.03 56.032 398.862 55.776 399.63 55.264C400.43 54.752 401.166 53.984 401.838 52.96V43.408C401.486 43.92 400.974 44.368 400.302 44.752C399.63 45.104 398.91 45.472 398.142 45.856C397.374 46.24 396.638 46.688 395.934 47.2C395.262 47.68 394.702 48.304 394.254 49.072C393.806 49.84 393.582 50.816 393.582 52C393.582 53.248 393.902 54.24 394.542 54.976C395.182 55.68 396.046 56.032 397.134 56.032Z" fill="black"/>
<path d="M420.696 25.312V33.28H427.32V34.24H420.696V53.104C420.696 54.416 420.936 55.344 421.416 55.888C421.896 56.432 422.584 56.704 423.48 56.704C424.312 56.704 425.048 56.368 425.688 55.696C426.36 55.024 426.936 53.888 427.416 52.288L428.328 52.624C427.944 54.32 427.256 55.76 426.264 56.944C425.304 58.096 423.88 58.672 421.992 58.672C420.904 58.672 419.992 58.528 419.256 58.24C418.52 57.984 417.88 57.6 417.336 57.088C416.632 56.352 416.152 55.472 415.896 54.448C415.64 53.424 415.512 52.064 415.512 50.368V34.24H411.096V33.28H415.512V26.272C416.504 26.24 417.432 26.16 418.296 26.032C419.16 25.872 419.96 25.632 420.696 25.312Z" fill="black"/>
<path d="M461.672 33.232V34.192C461.064 34.288 460.504 34.608 459.992 35.152C459.48 35.664 458.984 36.56 458.504 37.84L451.016 57.904L449.864 59.056L440.504 36.928C439.896 35.68 439.304 34.928 438.728 34.672C438.184 34.384 437.72 34.24 437.336 34.24V33.232C438.136 33.328 438.984 33.408 439.88 33.472C440.776 33.504 441.704 33.52 442.664 33.52C443.752 33.52 444.84 33.488 445.928 33.424C447.048 33.36 448.088 33.296 449.048 33.232V34.24C448.28 34.24 447.592 34.304 446.984 34.432C446.408 34.528 446.024 34.832 445.832 35.344C445.672 35.824 445.832 36.656 446.312 37.84L452.264 52.48L451.928 52.624L456.776 39.76C457.256 38.48 457.448 37.456 457.352 36.688C457.256 35.888 456.92 35.296 456.344 34.912C455.768 34.496 454.92 34.256 453.8 34.192V33.232C454.344 33.264 454.84 33.296 455.288 33.328C455.768 33.328 456.232 33.344 456.68 33.376C457.128 33.376 457.576 33.376 458.024 33.376C458.728 33.376 459.384 33.36 459.992 33.328C460.632 33.296 461.192 33.264 461.672 33.232ZM451.016 57.904L449.288 62.416C448.968 63.216 448.632 63.888 448.28 64.432C447.96 64.976 447.608 65.424 447.224 65.776C446.744 66.224 446.152 66.544 445.448 66.736C444.744 66.928 444.04 67.024 443.336 67.024C442.664 67.024 442.024 66.896 441.416 66.64C440.84 66.416 440.36 66.064 439.976 65.584C439.592 65.104 439.4 64.512 439.4 63.808C439.4 62.976 439.672 62.304 440.216 61.792C440.76 61.28 441.48 61.024 442.376 61.024C443.176 61.024 443.848 61.232 444.392 61.648C444.936 62.096 445.208 62.736 445.208 63.568C445.208 64.144 445.048 64.64 444.728 65.056C444.44 65.472 444.056 65.792 443.576 66.016C443.672 66.048 443.768 66.064 443.864 66.064C443.96 66.064 444.04 66.064 444.104 66.064C445 66.064 445.8 65.76 446.504 65.152C447.208 64.576 447.8 63.632 448.28 62.32L450.008 57.712L451.016 57.904Z" fill="black"/>
<path d="M474.874 32.56C477.018 32.56 478.922 33.008 480.586 33.904C482.25 34.8 483.578 36.208 484.57 38.128C485.562 40.048 486.058 42.56 486.058 45.664C486.058 48.768 485.562 51.28 484.57 53.2C483.578 55.088 482.25 56.48 480.586 57.376C478.922 58.24 477.018 58.672 474.874 58.672C472.762 58.672 470.858 58.24 469.162 57.376C467.466 56.48 466.122 55.088 465.13 53.2C464.17 51.28 463.69 48.768 463.69 45.664C463.69 42.56 464.17 40.048 465.13 38.128C466.122 36.208 467.466 34.8 469.162 33.904C470.858 33.008 472.762 32.56 474.874 32.56ZM474.874 33.52C473.21 33.52 471.85 34.48 470.794 36.4C469.738 38.288 469.21 41.376 469.21 45.664C469.21 49.952 469.738 53.04 470.794 54.928C471.85 56.784 473.21 57.712 474.874 57.712C476.506 57.712 477.85 56.784 478.906 54.928C479.994 53.04 480.538 49.952 480.538 45.664C480.538 41.376 479.994 38.288 478.906 36.4C477.85 34.48 476.506 33.52 474.874 33.52Z" fill="black"/>
<path d="M511.964 32.704V52.816C511.964 54.256 512.204 55.328 512.684 56.032C513.196 56.704 514.108 57.04 515.42 57.04V58.048C514.428 57.952 513.436 57.904 512.444 57.904C511.388 57.904 510.38 57.952 509.42 58.048C508.46 58.144 507.58 58.32 506.78 58.576V53.344C505.98 55.264 504.86 56.64 503.42 57.472C502.012 58.272 500.524 58.672 498.956 58.672C497.772 58.672 496.764 58.496 495.932 58.144C495.1 57.824 494.412 57.392 493.868 56.848C493.292 56.208 492.892 55.392 492.668 54.4C492.444 53.376 492.332 52.096 492.332 50.56V38.464C492.332 37.024 492.092 35.968 491.612 35.296C491.132 34.592 490.22 34.24 488.876 34.24V33.232C489.9 33.328 490.892 33.376 491.852 33.376C492.908 33.376 493.916 33.328 494.876 33.232C495.836 33.104 496.716 32.928 497.516 32.704V51.904C497.516 52.832 497.58 53.68 497.708 54.448C497.836 55.216 498.14 55.824 498.62 56.272C499.1 56.72 499.868 56.944 500.924 56.944C502.044 56.944 503.036 56.608 503.9 55.936C504.796 55.264 505.5 54.352 506.012 53.2C506.524 52.048 506.78 50.752 506.78 49.312V38.464C506.78 37.024 506.54 35.968 506.06 35.296C505.58 34.592 504.668 34.24 503.324 34.24V33.232C504.348 33.328 505.34 33.376 506.3 33.376C507.356 33.376 508.364 33.328 509.324 33.232C510.284 33.104 511.164 32.928 511.964 32.704Z" fill="black"/>
<path d="M79.056 85.136C80.048 85.136 80.88 85.456 81.552 86.096C82.224 86.704 82.56 87.472 82.56 88.4C82.56 89.328 82.224 90.112 81.552 90.752C80.88 91.36 80.048 91.664 79.056 91.664C78.064 91.664 77.232 91.36 76.56 90.752C75.888 90.112 75.552 89.328 75.552 88.4C75.552 87.472 75.888 86.704 76.56 86.096C77.232 85.456 78.064 85.136 79.056 85.136ZM81.936 96.704V117.536C81.936 118.88 82.192 119.792 82.704 120.272C83.248 120.752 84.144 120.992 85.392 120.992V122C84.848 121.968 84 121.936 82.848 121.904C81.728 121.84 80.576 121.808 79.392 121.808C78.272 121.808 77.12 121.84 75.936 121.904C74.752 121.936 73.872 121.968 73.296 122V120.992C74.544 120.992 75.424 120.752 75.936 120.272C76.48 119.792 76.752 118.88 76.752 117.536V102.464C76.752 101.024 76.512 99.968 76.032 99.296C75.552 98.592 74.64 98.24 73.296 98.24V97.232C74.32 97.328 75.312 97.376 76.272 97.376C77.36 97.376 78.368 97.328 79.296 97.232C80.256 97.104 81.136 96.928 81.936 96.704Z" fill="black"/>
<path d="M104.391 96.56C105.671 96.56 106.711 96.736 107.511 97.088C108.343 97.408 109.031 97.856 109.575 98.432C110.151 99.04 110.551 99.824 110.775 100.784C111.031 101.744 111.159 103.04 111.159 104.672V117.536C111.159 118.88 111.415 119.792 111.927 120.272C112.471 120.752 113.367 120.992 114.615 120.992V122C114.071 121.968 113.223 121.936 112.071 121.904C110.919 121.84 109.783 121.808 108.663 121.808C107.575 121.808 106.487 121.84 105.399 121.904C104.343 121.936 103.543 121.968 102.999 122V120.992C104.087 120.992 104.855 120.752 105.303 120.272C105.751 119.792 105.975 118.88 105.975 117.536V103.328C105.975 102.4 105.895 101.568 105.735 100.832C105.575 100.064 105.239 99.456 104.727 99.008C104.215 98.528 103.447 98.288 102.423 98.288C101.239 98.288 100.183 98.624 99.2546 99.296C98.3586 99.968 97.6386 100.896 97.0946 102.08C96.5826 103.232 96.3266 104.528 96.3266 105.968V117.536C96.3266 118.88 96.5506 119.792 96.9986 120.272C97.4786 120.752 98.2466 120.992 99.3026 120.992V122C98.7906 121.968 98.0066 121.936 96.9506 121.904C95.9266 121.84 94.8546 121.808 93.7346 121.808C92.6466 121.808 91.5106 121.84 90.3266 121.904C89.1426 121.936 88.2626 121.968 87.6866 122V120.992C88.9346 120.992 89.8146 120.752 90.3266 120.272C90.8706 119.792 91.1426 118.88 91.1426 117.536V102.464C91.1426 101.024 90.9026 99.968 90.4226 99.296C89.9426 98.592 89.0306 98.24 87.6866 98.24V97.232C88.7106 97.328 89.7026 97.376 90.6626 97.376C91.7506 97.376 92.7586 97.328 93.6866 97.232C94.6466 97.104 95.5266 96.928 96.3266 96.704V101.936C97.1586 99.952 98.2946 98.56 99.7346 97.76C101.207 96.96 102.759 96.56 104.391 96.56Z" fill="black"/>
<path d="M144.695 96.56C145.911 96.56 146.935 96.736 147.767 97.088C148.599 97.408 149.271 97.856 149.783 98.432C150.359 99.04 150.759 99.856 150.983 100.88C151.207 101.872 151.319 103.136 151.319 104.672V117.536C151.319 118.88 151.575 119.792 152.087 120.272C152.599 120.752 153.463 120.992 154.679 120.992V122C154.135 121.968 153.287 121.936 152.135 121.904C151.015 121.84 149.911 121.808 148.823 121.808C147.735 121.808 146.663 121.84 145.607 121.904C144.583 121.936 143.799 121.968 143.255 122V120.992C144.311 120.992 145.047 120.752 145.463 120.272C145.911 119.792 146.135 118.88 146.135 117.536V103.328C146.135 102.4 146.071 101.568 145.943 100.832C145.815 100.064 145.511 99.456 145.031 99.008C144.583 98.528 143.863 98.288 142.871 98.288C141.751 98.288 140.743 98.624 139.847 99.296C138.983 99.968 138.279 100.896 137.735 102.08C137.223 103.232 136.967 104.528 136.967 105.968V117.536C136.967 118.88 137.191 119.792 137.639 120.272C138.087 120.752 138.823 120.992 139.847 120.992V122C139.335 121.968 138.567 121.936 137.543 121.904C136.519 121.84 135.463 121.808 134.375 121.808C133.287 121.808 132.151 121.84 130.967 121.904C129.783 121.936 128.903 121.968 128.327 122V120.992C129.575 120.992 130.455 120.752 130.967 120.272C131.511 119.792 131.783 118.88 131.783 117.536V102.464C131.783 101.024 131.543 99.968 131.063 99.296C130.583 98.592 129.671 98.24 128.327 98.24V97.232C129.351 97.328 130.343 97.376 131.303 97.376C132.391 97.376 133.399 97.328 134.327 97.232C135.287 97.104 136.167 96.928 136.967 96.704V101.936C137.799 100.016 138.903 98.64 140.279 97.808C141.687 96.976 143.159 96.56 144.695 96.56ZM159.143 96.56C160.359 96.56 161.383 96.736 162.215 97.088C163.047 97.408 163.719 97.856 164.231 98.432C164.807 99.04 165.207 99.856 165.431 100.88C165.655 101.872 165.767 103.136 165.767 104.672V117.536C165.767 118.88 166.023 119.792 166.535 120.272C167.079 120.752 167.975 120.992 169.223 120.992V122C168.679 121.968 167.831 121.936 166.679 121.904C165.527 121.84 164.391 121.808 163.271 121.808C162.183 121.808 161.111 121.84 160.055 121.904C159.031 121.936 158.247 121.968 157.703 122V120.992C158.759 120.992 159.495 120.752 159.911 120.272C160.359 119.792 160.583 118.88 160.583 117.536V103.328C160.583 102.4 160.519 101.568 160.391 100.832C160.263 100.064 159.959 99.456 159.479 99.008C158.999 98.528 158.247 98.288 157.223 98.288C156.103 98.288 155.095 98.64 154.199 99.344C153.335 100.016 152.631 100.944 152.087 102.128C151.575 103.28 151.319 104.576 151.319 106.016L151.127 102.032C151.991 99.92 153.143 98.48 154.583 97.712C156.055 96.944 157.575 96.56 159.143 96.56Z" fill="black"/>
<path d="M176.978 85.136C177.97 85.136 178.802 85.456 179.474 86.096C180.146 86.704 180.482 87.472 180.482 88.4C180.482 89.328 180.146 90.112 179.474 90.752C178.802 91.36 177.97 91.664 176.978 91.664C175.986 91.664 175.154 91.36 174.482 90.752C173.81 90.112 173.474 89.328 173.474 88.4C173.474 87.472 173.81 86.704 174.482 86.096C175.154 85.456 175.986 85.136 176.978 85.136ZM179.858 96.704V117.536C179.858 118.88 180.114 119.792 180.626 120.272C181.17 120.752 182.066 120.992 183.314 120.992V122C182.77 121.968 181.922 121.936 180.77 121.904C179.65 121.84 178.498 121.808 177.314 121.808C176.194 121.808 175.042 121.84 173.858 121.904C172.674 121.936 171.794 121.968 171.218 122V120.992C172.466 120.992 173.346 120.752 173.858 120.272C174.402 119.792 174.674 118.88 174.674 117.536V102.464C174.674 101.024 174.434 99.968 173.954 99.296C173.474 98.592 172.562 98.24 171.218 98.24V97.232C172.242 97.328 173.234 97.376 174.194 97.376C175.282 97.376 176.29 97.328 177.218 97.232C178.178 97.104 179.058 96.928 179.858 96.704Z" fill="black"/>
<path d="M193.96 84.368V117.536C193.96 118.88 194.217 119.792 194.729 120.272C195.273 120.752 196.169 120.992 197.417 120.992V122C196.873 121.968 196.024 121.936 194.872 121.904C193.72 121.84 192.569 121.808 191.417 121.808C190.265 121.808 189.097 121.84 187.913 121.904C186.761 121.936 185.896 121.968 185.32 122V120.992C186.568 120.992 187.448 120.752 187.96 120.272C188.504 119.792 188.777 118.88 188.777 117.536V90.128C188.777 88.688 188.537 87.632 188.057 86.96C187.577 86.256 186.664 85.904 185.32 85.904V84.896C186.344 84.992 187.336 85.04 188.296 85.04C189.352 85.04 190.36 84.992 191.32 84.896C192.28 84.768 193.16 84.592 193.96 84.368Z" fill="black"/>
<path d="M208.164 84.368V117.536C208.164 118.88 208.42 119.792 208.932 120.272C209.476 120.752 210.372 120.992 211.62 120.992V122C211.076 121.968 210.228 121.936 209.076 121.904C207.924 121.84 206.772 121.808 205.62 121.808C204.468 121.808 203.3 121.84 202.116 121.904C200.964 121.936 200.1 121.968 199.524 122V120.992C200.772 120.992 201.652 120.752 202.164 120.272C202.708 119.792 202.98 118.88 202.98 117.536V90.128C202.98 88.688 202.74 87.632 202.26 86.96C201.78 86.256 200.868 85.904 199.524 85.904V84.896C200.548 84.992 201.54 85.04 202.5 85.04C203.556 85.04 204.564 84.992 205.524 84.896C206.484 84.768 207.364 84.592 208.164 84.368Z" fill="black"/>
<path d="M219.681 85.136C220.673 85.136 221.505 85.456 222.177 86.096C222.849 86.704 223.185 87.472 223.185 88.4C223.185 89.328 222.849 90.112 222.177 90.752C221.505 91.36 220.673 91.664 219.681 91.664C218.689 91.664 217.857 91.36 217.185 90.752C216.513 90.112 216.177 89.328 216.177 88.4C216.177 87.472 216.513 86.704 217.185 86.096C217.857 85.456 218.689 85.136 219.681 85.136ZM222.561 96.704V117.536C222.561 118.88 222.817 119.792 223.329 120.272C223.873 120.752 224.769 120.992 226.017 120.992V122C225.473 121.968 224.625 121.936 223.473 121.904C222.353 121.84 221.201 121.808 220.017 121.808C218.897 121.808 217.745 121.84 216.561 121.904C215.377 121.936 214.497 121.968 213.921 122V120.992C215.169 120.992 216.049 120.752 216.561 120.272C217.105 119.792 217.377 118.88 217.377 117.536V102.464C217.377 101.024 217.137 99.968 216.657 99.296C216.177 98.592 215.265 98.24 213.921 98.24V97.232C214.945 97.328 215.937 97.376 216.897 97.376C217.985 97.376 218.993 97.328 219.921 97.232C220.881 97.104 221.761 96.928 222.561 96.704Z" fill="black"/>
<path d="M240.312 96.56C242.456 96.56 244.36 97.008 246.024 97.904C247.688 98.8 249.016 100.208 250.008 102.128C251 104.048 251.496 106.56 251.496 109.664C251.496 112.768 251 115.28 250.008 117.2C249.016 119.088 247.688 120.48 246.024 121.376C244.36 122.24 242.456 122.672 240.312 122.672C238.2 122.672 236.296 122.24 234.6 121.376C232.904 120.48 231.56 119.088 230.568 117.2C229.608 115.28 229.128 112.768 229.128 109.664C229.128 106.56 229.608 104.048 230.568 102.128C231.56 100.208 232.904 98.8 234.6 97.904C236.296 97.008 238.2 96.56 240.312 96.56ZM240.312 97.52C238.648 97.52 237.288 98.48 236.232 100.4C235.176 102.288 234.648 105.376 234.648 109.664C234.648 113.952 235.176 117.04 236.232 118.928C237.288 120.784 238.648 121.712 240.312 121.712C241.944 121.712 243.288 120.784 244.344 118.928C245.432 117.04 245.976 113.952 245.976 109.664C245.976 105.376 245.432 102.288 244.344 100.4C243.288 98.48 241.944 97.52 240.312 97.52Z" fill="black"/>
<path d="M271.594 96.56C272.874 96.56 273.914 96.736 274.714 97.088C275.546 97.408 276.234 97.856 276.778 98.432C277.354 99.04 277.754 99.824 277.978 100.784C278.234 101.744 278.362 103.04 278.362 104.672V117.536C278.362 118.88 278.618 119.792 279.13 120.272C279.674 120.752 280.57 120.992 281.818 120.992V122C281.274 121.968 280.426 121.936 279.274 121.904C278.122 121.84 276.986 121.808 275.866 121.808C274.778 121.808 273.69 121.84 272.602 121.904C271.546 121.936 270.746 121.968 270.202 122V120.992C271.29 120.992 272.058 120.752 272.506 120.272C272.954 119.792 273.178 118.88 273.178 117.536V103.328C273.178 102.4 273.098 101.568 272.938 100.832C272.778 100.064 272.442 99.456 271.93 99.008C271.418 98.528 270.65 98.288 269.626 98.288C268.442 98.288 267.386 98.624 266.458 99.296C265.562 99.968 264.842 100.896 264.298 102.08C263.786 103.232 263.53 104.528 263.53 105.968V117.536C263.53 118.88 263.754 119.792 264.202 120.272C264.682 120.752 265.45 120.992 266.506 120.992V122C265.994 121.968 265.21 121.936 264.154 121.904C263.13 121.84 262.058 121.808 260.938 121.808C259.85 121.808 258.714 121.84 257.53 121.904C256.346 121.936 255.466 121.968 254.89 122V120.992C256.138 120.992 257.018 120.752 257.53 120.272C258.074 119.792 258.346 118.88 258.346 117.536V102.464C258.346 101.024 258.106 99.968 257.626 99.296C257.146 98.592 256.234 98.24 254.89 98.24V97.232C255.914 97.328 256.906 97.376 257.866 97.376C258.954 97.376 259.962 97.328 260.89 97.232C261.85 97.104 262.73 96.928 263.53 96.704V101.936C264.362 99.952 265.498 98.56 266.938 97.76C268.41 96.96 269.962 96.56 271.594 96.56Z" fill="black"/>
<path d="M292.74 96.56C294.02 96.56 295.124 96.768 296.052 97.184C297.012 97.568 297.7 97.92 298.116 98.24C299.172 99.072 299.828 98.528 300.084 96.608H301.14C301.076 97.504 301.028 98.592 300.996 99.872C300.964 101.12 300.948 102.784 300.948 104.864H299.892C299.7 103.68 299.364 102.528 298.884 101.408C298.436 100.288 297.764 99.36 296.868 98.624C296.004 97.888 294.868 97.52 293.46 97.52C292.404 97.52 291.524 97.824 290.82 98.432C290.116 99.008 289.764 99.872 289.764 101.024C289.764 101.984 290.052 102.816 290.628 103.52C291.204 104.224 291.94 104.88 292.836 105.488C293.764 106.096 294.756 106.752 295.812 107.456C296.996 108.256 298.052 109.056 298.98 109.856C299.94 110.624 300.692 111.488 301.236 112.448C301.812 113.408 302.1 114.528 302.1 115.808C302.1 117.28 301.7 118.528 300.9 119.552C300.132 120.576 299.108 121.36 297.828 121.904C296.548 122.416 295.14 122.672 293.604 122.672C292.836 122.672 292.116 122.592 291.444 122.432C290.772 122.304 290.148 122.128 289.572 121.904C289.22 121.712 288.868 121.52 288.516 121.328C288.196 121.104 287.876 120.896 287.556 120.704C287.236 120.48 286.948 120.512 286.692 120.8C286.436 121.088 286.244 121.6 286.116 122.336H285.06C285.124 121.312 285.172 120.064 285.204 118.592C285.236 117.12 285.252 115.168 285.252 112.736H286.308C286.532 114.496 286.868 116.048 287.316 117.392C287.764 118.736 288.42 119.792 289.284 120.56C290.18 121.296 291.396 121.664 292.932 121.664C293.54 121.664 294.148 121.536 294.756 121.28C295.364 120.992 295.86 120.544 296.244 119.936C296.66 119.328 296.868 118.512 296.868 117.488C296.868 116.08 296.372 114.928 295.38 114.032C294.42 113.104 293.172 112.128 291.636 111.104C290.548 110.336 289.508 109.584 288.516 108.848C287.556 108.08 286.772 107.232 286.164 106.304C285.556 105.344 285.252 104.208 285.252 102.896C285.252 101.456 285.588 100.272 286.26 99.344C286.964 98.416 287.892 97.728 289.044 97.28C290.196 96.8 291.428 96.56 292.74 96.56Z" fill="black"/>
<path d="M329.233 96.56C331.377 96.56 333.281 97.008 334.945 97.904C336.609 98.8 337.938 100.208 338.93 102.128C339.922 104.048 340.418 106.56 340.418 109.664C340.418 112.768 339.922 115.28 338.93 117.2C337.938 119.088 336.609 120.48 334.945 121.376C333.281 122.24 331.377 122.672 329.233 122.672C327.121 122.672 325.218 122.24 323.522 121.376C321.826 120.48 320.482 119.088 319.49 117.2C318.53 115.28 318.049 112.768 318.049 109.664C318.049 106.56 318.53 104.048 319.49 102.128C320.482 100.208 321.826 98.8 323.522 97.904C325.218 97.008 327.121 96.56 329.233 96.56ZM329.233 97.52C327.569 97.52 326.21 98.48 325.154 100.4C324.098 102.288 323.569 105.376 323.569 109.664C323.569 113.952 324.098 117.04 325.154 118.928C326.21 120.784 327.569 121.712 329.233 121.712C330.865 121.712 332.21 120.784 333.266 118.928C334.354 117.04 334.897 113.952 334.897 109.664C334.897 105.376 334.354 102.288 333.266 100.4C332.21 98.48 330.865 97.52 329.233 97.52Z" fill="black"/>
<path d="M355.956 84.464C356.916 84.464 357.764 84.592 358.5 84.848C359.236 85.104 359.892 85.44 360.468 85.856C360.916 86.24 361.284 86.704 361.572 87.248C361.86 87.792 362.004 88.384 362.004 89.024C362.004 89.824 361.732 90.496 361.188 91.04C360.676 91.584 360.004 91.856 359.172 91.856C358.34 91.856 357.636 91.6 357.06 91.088C356.484 90.576 356.196 89.872 356.196 88.976C356.196 88.24 356.388 87.632 356.772 87.152C357.188 86.672 357.748 86.336 358.452 86.144C358.356 85.888 358.132 85.68 357.78 85.52C357.428 85.328 356.948 85.232 356.34 85.232C355.636 85.232 355.028 85.376 354.516 85.664C354.036 85.952 353.652 86.336 353.364 86.816C353.012 87.424 352.772 88.336 352.644 89.552C352.548 90.736 352.5 92.56 352.5 95.024V97.28H357.636V98.24H352.5V117.056C352.5 118.624 352.932 119.68 353.796 120.224C354.692 120.736 355.892 120.992 357.396 120.992V122C356.628 121.968 355.54 121.936 354.132 121.904C352.756 121.84 351.284 121.808 349.716 121.808C348.596 121.808 347.476 121.84 346.356 121.904C345.268 121.936 344.436 121.968 343.86 122V120.992C345.108 120.992 345.988 120.752 346.5 120.272C347.044 119.792 347.316 118.88 347.316 117.536V98.24H343.668V97.28H347.316C347.316 95.392 347.396 93.824 347.556 92.576C347.748 91.296 348.036 90.208 348.42 89.312C348.804 88.384 349.316 87.568 349.956 86.864C350.628 86.16 351.476 85.584 352.5 85.136C353.556 84.688 354.708 84.464 355.956 84.464Z" fill="black"/>
<path d="M380.419 97.232V98.24C379.651 98.24 378.963 98.304 378.355 98.432C377.779 98.528 377.395 98.816 377.203 99.296C377.043 99.776 377.171 100.624 377.587 101.84L382.435 116.144L382.004 116.336L388.579 97.088L389.539 97.52L381.236 122.192C380.98 122.192 380.723 122.192 380.467 122.192C380.211 122.192 379.939 122.192 379.651 122.192L371.875 100.928C371.363 99.648 370.852 98.88 370.34 98.624C369.86 98.368 369.443 98.24 369.091 98.24V97.232C369.859 97.328 370.644 97.408 371.444 97.472C372.276 97.504 373.188 97.52 374.18 97.52C375.172 97.52 376.211 97.488 377.299 97.424C378.419 97.36 379.459 97.296 380.419 97.232ZM406.34 97.232V98.192C405.732 98.288 405.156 98.592 404.612 99.104C404.068 99.616 403.588 100.528 403.172 101.84L396.404 122.192C396.148 122.192 395.875 122.192 395.587 122.192C395.331 122.192 395.075 122.192 394.819 122.192L387.379 102.944L388.579 97.088C388.899 97.12 389.203 97.136 389.491 97.136C389.811 97.104 390.132 97.088 390.452 97.088L397.651 116.768L397.22 116.816L401.444 103.76C401.86 102.448 402.019 101.408 401.923 100.64C401.827 99.872 401.491 99.296 400.915 98.912C400.339 98.528 399.476 98.288 398.324 98.192V97.232C398.9 97.264 399.411 97.296 399.859 97.328C400.339 97.328 400.803 97.344 401.251 97.376C401.731 97.376 402.211 97.376 402.691 97.376C403.395 97.376 404.052 97.36 404.66 97.328C405.3 97.296 405.86 97.264 406.34 97.232Z" fill="black"/>
<path d="M414.142 122.336C412.798 122.336 411.646 122.08 410.686 121.568C409.726 121.056 409.006 120.352 408.526 119.456C408.046 118.56 407.806 117.536 407.806 116.384C407.806 114.976 408.126 113.84 408.766 112.976C409.406 112.08 410.222 111.36 411.214 110.816C412.238 110.272 413.31 109.824 414.43 109.472C415.582 109.088 416.654 108.736 417.646 108.416C418.67 108.064 419.502 107.664 420.142 107.216C420.814 106.768 421.15 106.176 421.15 105.44V102.176C421.15 101.024 420.958 100.112 420.574 99.44C420.222 98.736 419.726 98.24 419.086 97.952C418.478 97.664 417.742 97.52 416.878 97.52C416.142 97.52 415.358 97.632 414.526 97.856C413.694 98.048 413.038 98.448 412.558 99.056C413.262 99.248 413.838 99.632 414.286 100.208C414.766 100.752 415.006 101.44 415.006 102.272C415.006 103.168 414.702 103.872 414.094 104.384C413.518 104.896 412.782 105.152 411.886 105.152C410.894 105.152 410.158 104.848 409.678 104.24C409.198 103.6 408.958 102.864 408.958 102.032C408.958 101.168 409.166 100.464 409.582 99.92C410.03 99.376 410.606 98.864 411.31 98.384C412.078 97.872 413.054 97.44 414.238 97.088C415.454 96.736 416.798 96.56 418.27 96.56C419.646 96.56 420.83 96.72 421.822 97.04C422.846 97.328 423.694 97.808 424.366 98.48C425.166 99.216 425.694 100.144 425.95 101.264C426.206 102.352 426.334 103.68 426.334 105.248V118.496C426.334 119.296 426.43 119.872 426.622 120.224C426.846 120.544 427.198 120.704 427.678 120.704C427.998 120.704 428.302 120.624 428.59 120.464C428.91 120.304 429.278 120.064 429.694 119.744L430.174 120.56C429.502 121.104 428.814 121.536 428.11 121.856C427.438 122.176 426.574 122.336 425.518 122.336C424.494 122.336 423.662 122.176 423.022 121.856C422.382 121.536 421.902 121.072 421.582 120.464C421.294 119.856 421.15 119.104 421.15 118.208C420.318 119.552 419.326 120.576 418.174 121.28C417.022 121.984 415.678 122.336 414.142 122.336ZM416.446 120.032C417.342 120.032 418.174 119.776 418.942 119.264C419.742 118.752 420.478 117.984 421.15 116.96V107.408C420.798 107.92 420.286 108.368 419.614 108.752C418.942 109.104 418.222 109.472 417.454 109.856C416.686 110.24 415.95 110.688 415.246 111.2C414.574 111.68 414.014 112.304 413.566 113.072C413.118 113.84 412.894 114.816 412.894 116C412.894 117.248 413.214 118.24 413.854 118.976C414.494 119.68 415.358 120.032 416.446 120.032Z" fill="black"/>
<path d="M453.984 97.232V98.192C453.376 98.288 452.816 98.608 452.304 99.152C451.792 99.664 451.296 100.56 450.816 101.84L443.328 121.904L442.176 123.056L432.816 100.928C432.208 99.68 431.616 98.928 431.04 98.672C430.496 98.384 430.032 98.24 429.648 98.24V97.232C430.448 97.328 431.296 97.408 432.192 97.472C433.088 97.504 434.016 97.52 434.976 97.52C436.064 97.52 437.152 97.488 438.24 97.424C439.36 97.36 440.4 97.296 441.36 97.232V98.24C440.592 98.24 439.904 98.304 439.296 98.432C438.72 98.528 438.336 98.832 438.144 99.344C437.984 99.824 438.144 100.656 438.624 101.84L444.576 116.48L444.24 116.624L449.088 103.76C449.568 102.48 449.76 101.456 449.664 100.688C449.568 99.888 449.232 99.296 448.656 98.912C448.08 98.496 447.232 98.256 446.112 98.192V97.232C446.656 97.264 447.152 97.296 447.6 97.328C448.08 97.328 448.544 97.344 448.992 97.376C449.44 97.376 449.888 97.376 450.336 97.376C451.04 97.376 451.696 97.36 452.304 97.328C452.944 97.296 453.504 97.264 453.984 97.232ZM443.328 121.904L441.6 126.416C441.28 127.216 440.944 127.888 440.592 128.432C440.272 128.976 439.92 129.424 439.536 129.776C439.056 130.224 438.464 130.544 437.76 130.736C437.056 130.928 436.352 131.024 435.648 131.024C434.976 131.024 434.336 130.896 433.728 130.64C433.152 130.416 432.672 130.064 432.288 129.584C431.904 129.104 431.712 128.512 431.712 127.808C431.712 126.976 431.984 126.304 432.528 125.792C433.072 125.28 433.792 125.024 434.688 125.024C435.488 125.024 436.16 125.232 436.704 125.648C437.248 126.096 437.52 126.736 437.52 127.568C437.52 128.144 437.36 128.64 437.04 129.056C436.752 129.472 436.368 129.792 435.888 130.016C435.984 130.048 436.08 130.064 436.176 130.064C436.272 130.064 436.352 130.064 436.416 130.064C437.312 130.064 438.112 129.76 438.816 129.152C439.52 128.576 440.112 127.632 440.592 126.32L442.32 121.712L443.328 121.904Z" fill="black"/>
<path d="M464.208 96.56C465.488 96.56 466.592 96.768 467.52 97.184C468.48 97.568 469.168 97.92 469.584 98.24C470.64 99.072 471.296 98.528 471.552 96.608H472.608C472.544 97.504 472.496 98.592 472.464 99.872C472.432 101.12 472.416 102.784 472.416 104.864H471.36C471.168 103.68 470.832 102.528 470.352 101.408C469.904 100.288 469.232 99.36 468.336 98.624C467.472 97.888 466.336 97.52 464.928 97.52C463.872 97.52 462.992 97.824 462.288 98.432C461.584 99.008 461.232 99.872 461.232 101.024C461.232 101.984 461.52 102.816 462.096 103.52C462.672 104.224 463.408 104.88 464.304 105.488C465.232 106.096 466.224 106.752 467.28 107.456C468.464 108.256 469.52 109.056 470.448 109.856C471.408 110.624 472.16 111.488 472.704 112.448C473.28 113.408 473.568 114.528 473.568 115.808C473.568 117.28 473.168 118.528 472.368 119.552C471.6 120.576 470.576 121.36 469.296 121.904C468.016 122.416 466.608 122.672 465.072 122.672C464.304 122.672 463.584 122.592 462.912 122.432C462.24 122.304 461.616 122.128 461.04 121.904C460.688 121.712 460.336 121.52 459.984 121.328C459.664 121.104 459.344 120.896 459.024 120.704C458.704 120.48 458.416 120.512 458.16 120.8C457.904 121.088 457.712 121.6 457.584 122.336H456.528C456.592 121.312 456.64 120.064 456.672 118.592C456.704 117.12 456.72 115.168 456.72 112.736H457.776C458 114.496 458.336 116.048 458.784 117.392C459.232 118.736 459.888 119.792 460.752 120.56C461.648 121.296 462.864 121.664 464.4 121.664C465.008 121.664 465.616 121.536 466.224 121.28C466.832 120.992 467.328 120.544 467.712 119.936C468.128 119.328 468.336 118.512 468.336 117.488C468.336 116.08 467.84 114.928 466.848 114.032C465.888 113.104 464.64 112.128 463.104 111.104C462.016 110.336 460.976 109.584 459.984 108.848C459.024 108.08 458.24 107.232 457.632 106.304C457.024 105.344 456.72 104.208 456.72 102.896C456.72 101.456 457.056 100.272 457.728 99.344C458.432 98.416 459.36 97.728 460.512 97.28C461.664 96.8 462.896 96.56 464.208 96.56Z" fill="black"/>
<path d="M495.47 122.336C494.126 122.336 492.974 122.08 492.014 121.568C491.054 121.056 490.334 120.352 489.854 119.456C489.374 118.56 489.134 117.536 489.134 116.384C489.134 114.976 489.454 113.84 490.094 112.976C490.734 112.08 491.55 111.36 492.542 110.816C493.566 110.272 494.638 109.824 495.758 109.472C496.91 109.088 497.982 108.736 498.974 108.416C499.998 108.064 500.83 107.664 501.47 107.216C502.142 106.768 502.478 106.176 502.478 105.44V102.176C502.478 101.024 502.286 100.112 501.902 99.44C501.55 98.736 501.054 98.24 500.414 97.952C499.806 97.664 499.07 97.52 498.206 97.52C497.47 97.52 496.686 97.632 495.854 97.856C495.022 98.048 494.366 98.448 493.886 99.056C494.59 99.248 495.166 99.632 495.614 100.208C496.094 100.752 496.334 101.44 496.334 102.272C496.334 103.168 496.03 103.872 495.422 104.384C494.846 104.896 494.11 105.152 493.214 105.152C492.222 105.152 491.486 104.848 491.006 104.24C490.526 103.6 490.286 102.864 490.286 102.032C490.286 101.168 490.494 100.464 490.91 99.92C491.358 99.376 491.934 98.864 492.638 98.384C493.406 97.872 494.382 97.44 495.566 97.088C496.782 96.736 498.126 96.56 499.598 96.56C500.974 96.56 502.158 96.72 503.15 97.04C504.174 97.328 505.022 97.808 505.694 98.48C506.494 99.216 507.022 100.144 507.278 101.264C507.534 102.352 507.662 103.68 507.662 105.248V118.496C507.662 119.296 507.758 119.872 507.95 120.224C508.174 120.544 508.526 120.704 509.006 120.704C509.326 120.704 509.63 120.624 509.918 120.464C510.238 120.304 510.606 120.064 511.022 119.744L511.502 120.56C510.83 121.104 510.142 121.536 509.438 121.856C508.766 122.176 507.902 122.336 506.846 122.336C505.822 122.336 504.99 122.176 504.35 121.856C503.71 121.536 503.23 121.072 502.91 120.464C502.622 119.856 502.478 119.104 502.478 118.208C501.646 119.552 500.654 120.576 499.502 121.28C498.35 121.984 497.006 122.336 495.47 122.336ZM497.774 120.032C498.67 120.032 499.502 119.776 500.27 119.264C501.07 118.752 501.806 117.984 502.478 116.96V107.408C502.126 107.92 501.614 108.368 500.942 108.752C500.27 109.104 499.55 109.472 498.782 109.856C498.014 110.24 497.278 110.688 496.574 111.2C495.902 111.68 495.342 112.304 494.894 113.072C494.446 113.84 494.222 114.816 494.222 116C494.222 117.248 494.542 118.24 495.182 118.976C495.822 119.68 496.686 120.032 497.774 120.032Z" fill="black"/>
<path d="M529.641 96.56C530.921 96.56 531.961 96.736 532.761 97.088C533.593 97.408 534.281 97.856 534.825 98.432C535.401 99.04 535.801 99.824 536.025 100.784C536.281 101.744 536.409 103.04 536.409 104.672V117.536C536.409 118.88 536.665 119.792 537.177 120.272C537.721 120.752 538.617 120.992 539.865 120.992V122C539.321 121.968 538.473 121.936 537.321 121.904C536.169 121.84 535.033 121.808 533.913 121.808C532.825 121.808 531.737 121.84 530.649 121.904C529.593 121.936 528.793 121.968 528.249 122V120.992C529.337 120.992 530.105 120.752 530.553 120.272C531.001 119.792 531.225 118.88 531.225 117.536V103.328C531.225 102.4 531.145 101.568 530.985 100.832C530.825 100.064 530.489 99.456 529.977 99.008C529.465 98.528 528.697 98.288 527.673 98.288C526.489 98.288 525.433 98.624 524.505 99.296C523.609 99.968 522.889 100.896 522.345 102.08C521.833 103.232 521.577 104.528 521.577 105.968V117.536C521.577 118.88 521.801 119.792 522.249 120.272C522.729 120.752 523.497 120.992 524.553 120.992V122C524.041 121.968 523.257 121.936 522.201 121.904C521.177 121.84 520.105 121.808 518.985 121.808C517.897 121.808 516.761 121.84 515.577 121.904C514.393 121.936 513.513 121.968 512.937 122V120.992C514.185 120.992 515.065 120.752 515.577 120.272C516.121 119.792 516.393 118.88 516.393 117.536V102.464C516.393 101.024 516.153 99.968 515.673 99.296C515.193 98.592 514.281 98.24 512.937 98.24V97.232C513.961 97.328 514.953 97.376 515.913 97.376C517.001 97.376 518.009 97.328 518.937 97.232C519.897 97.104 520.777 96.928 521.577 96.704V101.936C522.409 99.952 523.545 98.56 524.985 97.76C526.457 96.96 528.009 96.56 529.641 96.56Z" fill="black"/>
<path d="M564.323 84.368V116.768C564.323 118.208 564.562 119.28 565.042 119.984C565.554 120.656 566.467 120.992 567.779 120.992V122C566.787 121.904 565.794 121.856 564.802 121.856C563.714 121.856 562.691 121.904 561.731 122C560.803 122.096 559.938 122.272 559.138 122.528V90.128C559.138 88.688 558.882 87.632 558.37 86.96C557.89 86.256 556.994 85.904 555.682 85.904V84.896C556.706 84.992 557.699 85.04 558.659 85.04C559.715 85.04 560.722 84.992 561.682 84.896C562.642 84.768 563.523 84.592 564.323 84.368ZM553.523 96.56C554.931 96.56 556.21 96.864 557.362 97.472C558.546 98.08 559.379 99.104 559.859 100.544L559.282 101.072C558.834 99.92 558.179 99.088 557.315 98.576C556.451 98.032 555.474 97.76 554.386 97.76C552.562 97.76 551.074 98.736 549.922 100.688C548.77 102.608 548.21 105.584 548.242 109.616C548.242 112.272 548.466 114.448 548.914 116.144C549.362 117.808 550.019 119.04 550.883 119.84C551.779 120.64 552.851 121.04 554.099 121.04C555.347 121.04 556.466 120.512 557.458 119.456C558.482 118.4 559.09 116.88 559.282 114.896L559.714 115.904C559.394 118.08 558.627 119.76 557.411 120.944C556.195 122.096 554.563 122.672 552.515 122.672C550.563 122.672 548.835 122.208 547.331 121.28C545.859 120.32 544.722 118.88 543.922 116.96C543.122 115.008 542.722 112.56 542.722 109.616C542.722 106.704 543.202 104.288 544.162 102.368C545.154 100.416 546.467 98.96 548.099 98C549.731 97.04 551.539 96.56 553.523 96.56Z" fill="black"/>
<path d="M595.429 88.016V88.976C594.373 89.008 593.573 89.136 593.029 89.36C592.485 89.552 592.117 89.936 591.925 90.512C591.733 91.056 591.637 91.92 591.637 93.104V116.912C591.637 118.064 591.733 118.928 591.925 119.504C592.117 120.08 592.485 120.464 593.029 120.656C593.573 120.848 594.373 120.976 595.429 121.04V122C594.661 121.936 593.685 121.904 592.501 121.904C591.349 121.872 590.165 121.856 588.949 121.856C587.605 121.856 586.341 121.872 585.157 121.904C584.005 121.904 583.061 121.936 582.325 122V121.04C583.413 120.976 584.229 120.848 584.773 120.656C585.317 120.464 585.669 120.08 585.829 119.504C586.021 118.928 586.117 118.064 586.117 116.912V93.104C586.117 91.92 586.021 91.056 585.829 90.512C585.669 89.936 585.301 89.552 584.725 89.36C584.181 89.136 583.381 89.008 582.325 88.976V88.016C583.061 88.048 584.005 88.08 585.157 88.112C586.341 88.144 587.605 88.16 588.949 88.16C590.165 88.16 591.349 88.144 592.501 88.112C593.685 88.08 594.661 88.048 595.429 88.016Z" fill="black"/>
<path d="M81.6 148.416V165.888C82.4 163.904 83.52 162.528 84.96 161.76C86.432 160.96 87.984 160.56 89.616 160.56C90.896 160.56 91.936 160.736 92.736 161.088C93.568 161.408 94.256 161.856 94.8 162.432C95.376 163.04 95.792 163.824 96.048 164.784C96.304 165.744 96.432 167.04 96.432 168.672V181.536C96.432 182.88 96.688 183.792 97.2 184.272C97.744 184.752 98.64 184.992 99.888 184.992V186C99.312 185.968 98.448 185.936 97.296 185.904C96.144 185.84 95.024 185.808 93.936 185.808C92.816 185.808 91.712 185.84 90.624 185.904C89.568 185.936 88.784 185.968 88.272 186V184.992C89.36 184.992 90.128 184.752 90.576 184.272C91.024 183.792 91.248 182.88 91.248 181.536V167.328C91.248 166.4 91.168 165.568 91.008 164.832C90.848 164.064 90.496 163.456 89.952 163.008C89.44 162.528 88.672 162.288 87.648 162.288C86.496 162.288 85.456 162.624 84.528 163.296C83.632 163.936 82.912 164.832 82.368 165.984C81.856 167.136 81.6 168.448 81.6 169.92V181.536C81.6 182.88 81.824 183.792 82.272 184.272C82.72 184.752 83.488 184.992 84.576 184.992V186C84.032 185.968 83.232 185.936 82.176 185.904C81.152 185.84 80.096 185.808 79.008 185.808C77.888 185.808 76.736 185.84 75.552 185.904C74.4 185.936 73.536 185.968 72.96 186V184.992C74.208 184.992 75.088 184.752 75.6 184.272C76.144 183.792 76.416 182.88 76.416 181.536V154.176C76.416 152.736 76.16 151.68 75.648 151.008C75.168 150.304 74.272 149.952 72.96 149.952V148.944C73.984 149.04 74.976 149.088 75.936 149.088C76.992 149.088 78 149.04 78.96 148.944C79.92 148.816 80.8 148.64 81.6 148.416Z" fill="black"/>
<path d="M108.611 186.336C107.267 186.336 106.115 186.08 105.155 185.568C104.195 185.056 103.475 184.352 102.995 183.456C102.515 182.56 102.275 181.536 102.275 180.384C102.275 178.976 102.595 177.84 103.235 176.976C103.875 176.08 104.691 175.36 105.683 174.816C106.707 174.272 107.779 173.824 108.899 173.472C110.051 173.088 111.123 172.736 112.115 172.416C113.139 172.064 113.971 171.664 114.611 171.216C115.283 170.768 115.619 170.176 115.619 169.44V166.176C115.619 165.024 115.427 164.112 115.043 163.44C114.691 162.736 114.195 162.24 113.555 161.952C112.947 161.664 112.211 161.52 111.347 161.52C110.611 161.52 109.827 161.632 108.995 161.856C108.163 162.048 107.507 162.448 107.027 163.056C107.731 163.248 108.307 163.632 108.755 164.208C109.235 164.752 109.475 165.44 109.475 166.272C109.475 167.168 109.171 167.872 108.563 168.384C107.987 168.896 107.251 169.152 106.355 169.152C105.363 169.152 104.627 168.848 104.147 168.24C103.667 167.6 103.427 166.864 103.427 166.032C103.427 165.168 103.635 164.464 104.051 163.92C104.499 163.376 105.075 162.864 105.779 162.384C106.547 161.872 107.523 161.44 108.707 161.088C109.923 160.736 111.267 160.56 112.739 160.56C114.115 160.56 115.299 160.72 116.291 161.04C117.315 161.328 118.163 161.808 118.835 162.48C119.635 163.216 120.163 164.144 120.419 165.264C120.675 166.352 120.803 167.68 120.803 169.248V182.496C120.803 183.296 120.899 183.872 121.091 184.224C121.315 184.544 121.667 184.704 122.147 184.704C122.467 184.704 122.771 184.624 123.059 184.464C123.379 184.304 123.747 184.064 124.163 183.744L124.643 184.56C123.971 185.104 123.283 185.536 122.579 185.856C121.907 186.176 121.043 186.336 119.987 186.336C118.963 186.336 118.131 186.176 117.491 185.856C116.851 185.536 116.371 185.072 116.051 184.464C115.763 183.856 115.619 183.104 115.619 182.208C114.787 183.552 113.795 184.576 112.643 185.28C111.491 185.984 110.147 186.336 108.611 186.336ZM110.915 184.032C111.811 184.032 112.643 183.776 113.411 183.264C114.211 182.752 114.947 181.984 115.619 180.96V171.408C115.267 171.92 114.755 172.368 114.083 172.752C113.411 173.104 112.691 173.472 111.923 173.856C111.155 174.24 110.419 174.688 109.715 175.2C109.043 175.68 108.483 176.304 108.035 177.072C107.587 177.84 107.363 178.816 107.363 180C107.363 181.248 107.683 182.24 108.323 182.976C108.963 183.68 109.827 184.032 110.915 184.032Z" fill="black"/>
<path d="M148.117 161.232V162.192C147.509 162.288 146.933 162.608 146.389 163.152C145.877 163.664 145.397 164.56 144.949 165.84L137.365 186.192C137.109 186.192 136.837 186.192 136.549 186.192C136.293 186.192 136.037 186.192 135.781 186.192L127.045 164.928C126.533 163.68 126.021 162.928 125.509 162.672C125.029 162.384 124.613 162.24 124.261 162.24V161.232C125.029 161.296 125.813 161.36 126.613 161.424C127.445 161.456 128.357 161.472 129.349 161.472C130.341 161.472 131.381 161.456 132.469 161.424C133.589 161.36 134.629 161.296 135.589 161.232V162.24C134.821 162.24 134.133 162.288 133.525 162.384C132.949 162.48 132.565 162.768 132.373 163.248C132.213 163.696 132.325 164.48 132.709 165.6L138.613 180.48L138.229 180.864L143.173 167.76C143.653 166.48 143.845 165.456 143.749 164.688C143.653 163.888 143.317 163.296 142.741 162.912C142.165 162.496 141.333 162.256 140.245 162.192V161.232C140.789 161.264 141.285 161.296 141.733 161.328C142.213 161.328 142.661 161.344 143.077 161.376C143.525 161.376 143.989 161.376 144.469 161.376C145.173 161.376 145.829 161.36 146.437 161.328C147.077 161.296 147.637 161.264 148.117 161.232Z" fill="black"/>
<path d="M160.903 160.56C163.719 160.56 165.927 161.408 167.527 163.104C169.127 164.8 169.927 167.488 169.927 171.168H153.367L153.271 170.256H164.839C164.871 168.688 164.743 167.248 164.455 165.936C164.167 164.592 163.719 163.52 163.111 162.72C162.503 161.92 161.703 161.52 160.711 161.52C159.335 161.52 158.135 162.256 157.111 163.728C156.119 165.168 155.511 167.488 155.287 170.688L155.431 170.928C155.399 171.376 155.367 171.872 155.335 172.416C155.303 172.928 155.287 173.44 155.287 173.952C155.287 176.16 155.623 178.016 156.295 179.52C156.967 181.024 157.847 182.16 158.935 182.928C160.023 183.664 161.127 184.032 162.247 184.032C163.111 184.032 163.943 183.904 164.743 183.648C165.575 183.36 166.359 182.896 167.095 182.256C167.831 181.584 168.487 180.672 169.063 179.52L170.023 179.904C169.639 180.992 169.047 182.064 168.247 183.12C167.447 184.176 166.423 185.04 165.175 185.712C163.927 186.352 162.471 186.672 160.807 186.672C158.567 186.672 156.615 186.176 154.951 185.184C153.287 184.16 152.007 182.704 151.111 180.816C150.215 178.928 149.767 176.688 149.767 174.096C149.767 171.248 150.231 168.816 151.159 166.8C152.087 164.784 153.383 163.248 155.047 162.192C156.743 161.104 158.695 160.56 160.903 160.56Z" fill="black"/>
<path d="M192.132 148.368V181.536C192.132 182.88 192.388 183.792 192.9 184.272C193.444 184.752 194.34 184.992 195.588 184.992V186C195.044 185.968 194.196 185.936 193.044 185.904C191.892 185.84 190.74 185.808 189.588 185.808C188.436 185.808 187.268 185.84 186.084 185.904C184.932 185.936 184.068 185.968 183.492 186V184.992C184.74 184.992 185.62 184.752 186.132 184.272C186.676 183.792 186.948 182.88 186.948 181.536V154.128C186.948 152.688 186.708 151.632 186.228 150.96C185.748 150.256 184.836 149.904 183.492 149.904V148.896C184.516 148.992 185.508 149.04 186.468 149.04C187.524 149.04 188.532 148.992 189.492 148.896C190.452 148.768 191.332 148.592 192.132 148.368Z" fill="black"/>
<path d="M209.421 160.56C211.565 160.56 213.469 161.008 215.133 161.904C216.797 162.8 218.125 164.208 219.117 166.128C220.109 168.048 220.605 170.56 220.605 173.664C220.605 176.768 220.109 179.28 219.117 181.2C218.125 183.088 216.797 184.48 215.133 185.376C213.469 186.24 211.565 186.672 209.421 186.672C207.309 186.672 205.405 186.24 203.709 185.376C202.013 184.48 200.669 183.088 199.677 181.2C198.717 179.28 198.237 176.768 198.237 173.664C198.237 170.56 198.717 168.048 199.677 166.128C200.669 164.208 202.013 162.8 203.709 161.904C205.405 161.008 207.309 160.56 209.421 160.56ZM209.421 161.52C207.757 161.52 206.397 162.48 205.341 164.4C204.285 166.288 203.757 169.376 203.757 173.664C203.757 177.952 204.285 181.04 205.341 182.928C206.397 184.784 207.757 185.712 209.421 185.712C211.053 185.712 212.397 184.784 213.453 182.928C214.541 181.04 215.085 177.952 215.085 173.664C215.085 169.376 214.541 166.288 213.453 164.4C212.397 162.48 211.053 161.52 209.421 161.52Z" fill="black"/>
<path d="M245.945 161.232V162.192C245.337 162.288 244.761 162.608 244.217 163.152C243.705 163.664 243.225 164.56 242.777 165.84L235.193 186.192C234.937 186.192 234.665 186.192 234.377 186.192C234.121 186.192 233.865 186.192 233.609 186.192L224.873 164.928C224.361 163.68 223.849 162.928 223.337 162.672C222.857 162.384 222.441 162.24 222.089 162.24V161.232C222.857 161.296 223.641 161.36 224.441 161.424C225.273 161.456 226.185 161.472 227.177 161.472C228.169 161.472 229.209 161.456 230.297 161.424C231.417 161.36 232.457 161.296 233.417 161.232V162.24C232.649 162.24 231.961 162.288 231.353 162.384C230.777 162.48 230.393 162.768 230.201 163.248C230.041 163.696 230.153 164.48 230.537 165.6L236.441 180.48L236.057 180.864L241.001 167.76C241.481 166.48 241.673 165.456 241.577 164.688C241.481 163.888 241.145 163.296 240.569 162.912C239.993 162.496 239.161 162.256 238.073 162.192V161.232C238.617 161.264 239.113 161.296 239.561 161.328C240.041 161.328 240.489 161.344 240.905 161.376C241.353 161.376 241.817 161.376 242.297 161.376C243.001 161.376 243.657 161.36 244.265 161.328C244.905 161.296 245.465 161.264 245.945 161.232Z" fill="black"/>
<path d="M258.731 160.56C261.547 160.56 263.755 161.408 265.355 163.104C266.955 164.8 267.755 167.488 267.755 171.168H251.195L251.099 170.256H262.667C262.699 168.688 262.571 167.248 262.283 165.936C261.995 164.592 261.547 163.52 260.939 162.72C260.331 161.92 259.531 161.52 258.539 161.52C257.163 161.52 255.963 162.256 254.939 163.728C253.947 165.168 253.339 167.488 253.115 170.688L253.259 170.928C253.227 171.376 253.195 171.872 253.163 172.416C253.131 172.928 253.115 173.44 253.115 173.952C253.115 176.16 253.451 178.016 254.123 179.52C254.795 181.024 255.675 182.16 256.763 182.928C257.851 183.664 258.955 184.032 260.075 184.032C260.939 184.032 261.771 183.904 262.571 183.648C263.403 183.36 264.187 182.896 264.923 182.256C265.659 181.584 266.315 180.672 266.891 179.52L267.851 179.904C267.467 180.992 266.875 182.064 266.075 183.12C265.275 184.176 264.251 185.04 263.003 185.712C261.755 186.352 260.299 186.672 258.635 186.672C256.395 186.672 254.443 186.176 252.779 185.184C251.115 184.16 249.835 182.704 248.939 180.816C248.043 178.928 247.595 176.688 247.595 174.096C247.595 171.248 248.059 168.816 248.987 166.8C249.915 164.784 251.211 163.248 252.875 162.192C254.571 161.104 256.523 160.56 258.731 160.56Z" fill="black"/>
<path d="M293.526 148.368V180.768C293.526 182.208 293.766 183.28 294.246 183.984C294.758 184.656 295.67 184.992 296.982 184.992V186C295.99 185.904 294.998 185.856 294.006 185.856C292.918 185.856 291.894 185.904 290.934 186C290.006 186.096 289.142 186.272 288.342 186.528V154.128C288.342 152.688 288.086 151.632 287.574 150.96C287.094 150.256 286.198 149.904 284.886 149.904V148.896C285.91 148.992 286.902 149.04 287.862 149.04C288.918 149.04 289.926 148.992 290.886 148.896C291.846 148.768 292.726 148.592 293.526 148.368ZM282.726 160.56C284.134 160.56 285.414 160.864 286.566 161.472C287.75 162.08 288.582 163.104 289.062 164.544L288.486 165.072C288.038 163.92 287.382 163.088 286.518 162.576C285.654 162.032 284.678 161.76 283.59 161.76C281.766 161.76 280.278 162.736 279.126 164.688C277.974 166.608 277.414 169.584 277.446 173.616C277.446 176.272 277.67 178.448 278.118 180.144C278.566 181.808 279.222 183.04 280.086 183.84C280.982 184.64 282.054 185.04 283.302 185.04C284.55 185.04 285.67 184.512 286.662 183.456C287.686 182.4 288.294 180.88 288.486 178.896L288.918 179.904C288.598 182.08 287.83 183.76 286.614 184.944C285.398 186.096 283.766 186.672 281.718 186.672C279.766 186.672 278.038 186.208 276.534 185.28C275.062 184.32 273.926 182.88 273.126 180.96C272.326 179.008 271.926 176.56 271.926 173.616C271.926 170.704 272.406 168.288 273.366 166.368C274.358 164.416 275.67 162.96 277.302 162C278.934 161.04 280.742 160.56 282.726 160.56Z" fill="black"/>
<path d="M332.344 161.232V162.192C331.736 162.288 331.176 162.608 330.664 163.152C330.152 163.664 329.656 164.56 329.176 165.84L321.688 185.904L320.536 187.056L311.176 164.928C310.568 163.68 309.976 162.928 309.4 162.672C308.856 162.384 308.392 162.24 308.008 162.24V161.232C308.808 161.328 309.656 161.408 310.552 161.472C311.448 161.504 312.376 161.52 313.336 161.52C314.424 161.52 315.512 161.488 316.6 161.424C317.72 161.36 318.76 161.296 319.72 161.232V162.24C318.952 162.24 318.264 162.304 317.656 162.432C317.08 162.528 316.696 162.832 316.504 163.344C316.344 163.824 316.504 164.656 316.984 165.84L322.936 180.48L322.6 180.624L327.448 167.76C327.928 166.48 328.12 165.456 328.024 164.688C327.928 163.888 327.592 163.296 327.016 162.912C326.44 162.496 325.592 162.256 324.472 162.192V161.232C325.016 161.264 325.512 161.296 325.96 161.328C326.44 161.328 326.904 161.344 327.352 161.376C327.8 161.376 328.248 161.376 328.696 161.376C329.4 161.376 330.056 161.36 330.664 161.328C331.304 161.296 331.864 161.264 332.344 161.232ZM321.688 185.904L319.96 190.416C319.64 191.216 319.304 191.888 318.952 192.432C318.632 192.976 318.28 193.424 317.896 193.776C317.416 194.224 316.824 194.544 316.12 194.736C315.416 194.928 314.712 195.024 314.008 195.024C313.336 195.024 312.696 194.896 312.088 194.64C311.512 194.416 311.032 194.064 310.648 193.584C310.264 193.104 310.072 192.512 310.072 191.808C310.072 190.976 310.344 190.304 310.888 189.792C311.432 189.28 312.152 189.024 313.048 189.024C313.848 189.024 314.52 189.232 315.064 189.648C315.608 190.096 315.88 190.736 315.88 191.568C315.88 192.144 315.72 192.64 315.4 193.056C315.112 193.472 314.728 193.792 314.248 194.016C314.344 194.048 314.44 194.064 314.536 194.064C314.632 194.064 314.712 194.064 314.776 194.064C315.672 194.064 316.472 193.76 317.176 193.152C317.88 192.576 318.472 191.632 318.952 190.32L320.68 185.712L321.688 185.904Z" fill="black"/>
<path d="M345.546 160.56C347.69 160.56 349.594 161.008 351.258 161.904C352.922 162.8 354.25 164.208 355.242 166.128C356.234 168.048 356.73 170.56 356.73 173.664C356.73 176.768 356.234 179.28 355.242 181.2C354.25 183.088 352.922 184.48 351.258 185.376C349.594 186.24 347.69 186.672 345.546 186.672C343.434 186.672 341.53 186.24 339.834 185.376C338.138 184.48 336.794 183.088 335.802 181.2C334.842 179.28 334.362 176.768 334.362 173.664C334.362 170.56 334.842 168.048 335.802 166.128C336.794 164.208 338.138 162.8 339.834 161.904C341.53 161.008 343.434 160.56 345.546 160.56ZM345.546 161.52C343.882 161.52 342.522 162.48 341.466 164.4C340.41 166.288 339.882 169.376 339.882 173.664C339.882 177.952 340.41 181.04 341.466 182.928C342.522 184.784 343.882 185.712 345.546 185.712C347.178 185.712 348.522 184.784 349.578 182.928C350.666 181.04 351.21 177.952 351.21 173.664C351.21 169.376 350.666 166.288 349.578 164.4C348.522 162.48 347.178 161.52 345.546 161.52Z" fill="black"/>
<path d="M382.636 160.704V180.816C382.636 182.256 382.876 183.328 383.356 184.032C383.868 184.704 384.78 185.04 386.092 185.04V186.048C385.1 185.952 384.108 185.904 383.116 185.904C382.06 185.904 381.052 185.952 380.092 186.048C379.132 186.144 378.252 186.32 377.452 186.576V181.344C376.652 183.264 375.532 184.64 374.092 185.472C372.684 186.272 371.196 186.672 369.628 186.672C368.444 186.672 367.436 186.496 366.604 186.144C365.772 185.824 365.084 185.392 364.54 184.848C363.964 184.208 363.564 183.392 363.34 182.4C363.116 181.376 363.004 180.096 363.004 178.56V166.464C363.004 165.024 362.764 163.968 362.284 163.296C361.804 162.592 360.892 162.24 359.548 162.24V161.232C360.572 161.328 361.564 161.376 362.524 161.376C363.58 161.376 364.588 161.328 365.548 161.232C366.508 161.104 367.388 160.928 368.188 160.704V179.904C368.188 180.832 368.252 181.68 368.38 182.448C368.508 183.216 368.812 183.824 369.292 184.272C369.772 184.72 370.54 184.944 371.596 184.944C372.716 184.944 373.708 184.608 374.572 183.936C375.468 183.264 376.172 182.352 376.684 181.2C377.196 180.048 377.452 178.752 377.452 177.312V166.464C377.452 165.024 377.212 163.968 376.732 163.296C376.252 162.592 375.34 162.24 373.996 162.24V161.232C375.02 161.328 376.012 161.376 376.972 161.376C378.028 161.376 379.036 161.328 379.996 161.232C380.956 161.104 381.836 160.928 382.636 160.704Z" fill="black"/>
<path d="M405.868 149.136C406.86 149.136 407.693 149.456 408.365 150.096C409.037 150.704 409.372 151.472 409.372 152.4C409.372 153.328 409.037 154.112 408.365 154.752C407.693 155.36 406.86 155.664 405.868 155.664C404.876 155.664 404.044 155.36 403.372 154.752C402.7 154.112 402.365 153.328 402.365 152.4C402.365 151.472 402.7 150.704 403.372 150.096C404.044 149.456 404.876 149.136 405.868 149.136ZM408.749 160.704V181.536C408.749 182.88 409.005 183.792 409.517 184.272C410.061 184.752 410.956 184.992 412.204 184.992V186C411.66 185.968 410.812 185.936 409.66 185.904C408.54 185.84 407.388 185.808 406.204 185.808C405.084 185.808 403.933 185.84 402.749 185.904C401.565 185.936 400.684 185.968 400.108 186V184.992C401.356 184.992 402.237 184.752 402.749 184.272C403.293 183.792 403.565 182.88 403.565 181.536V166.464C403.565 165.024 403.325 163.968 402.845 163.296C402.365 162.592 401.452 162.24 400.108 162.24V161.232C401.132 161.328 402.125 161.376 403.085 161.376C404.173 161.376 405.18 161.328 406.108 161.232C407.068 161.104 407.949 160.928 408.749 160.704Z" fill="black"/>
<path d="M431.203 160.56C432.483 160.56 433.523 160.736 434.323 161.088C435.155 161.408 435.843 161.856 436.387 162.432C436.963 163.04 437.363 163.824 437.587 164.784C437.843 165.744 437.971 167.04 437.971 168.672V181.536C437.971 182.88 438.227 183.792 438.739 184.272C439.283 184.752 440.179 184.992 441.427 184.992V186C440.883 185.968 440.035 185.936 438.883 185.904C437.731 185.84 436.595 185.808 435.475 185.808C434.387 185.808 433.299 185.84 432.211 185.904C431.155 185.936 430.355 185.968 429.811 186V184.992C430.899 184.992 431.667 184.752 432.115 184.272C432.563 183.792 432.787 182.88 432.787 181.536V167.328C432.787 166.4 432.707 165.568 432.547 164.832C432.387 164.064 432.051 163.456 431.539 163.008C431.027 162.528 430.259 162.288 429.235 162.288C428.051 162.288 426.995 162.624 426.067 163.296C425.171 163.968 424.451 164.896 423.907 166.08C423.395 167.232 423.139 168.528 423.139 169.968V181.536C423.139 182.88 423.363 183.792 423.811 184.272C424.291 184.752 425.059 184.992 426.115 184.992V186C425.603 185.968 424.819 185.936 423.763 185.904C422.739 185.84 421.667 185.808 420.547 185.808C419.459 185.808 418.323 185.84 417.139 185.904C415.955 185.936 415.075 185.968 414.499 186V184.992C415.747 184.992 416.627 184.752 417.139 184.272C417.683 183.792 417.955 182.88 417.955 181.536V166.464C417.955 165.024 417.715 163.968 417.235 163.296C416.755 162.592 415.843 162.24 414.499 162.24V161.232C415.523 161.328 416.515 161.376 417.475 161.376C418.563 161.376 419.571 161.328 420.499 161.232C421.459 161.104 422.339 160.928 423.139 160.704V165.936C423.971 163.952 425.107 162.56 426.547 161.76C428.019 160.96 429.571 160.56 431.203 160.56Z" fill="black"/>
<path d="M467.044 160.56C469.86 160.56 472.068 161.408 473.668 163.104C475.268 164.8 476.068 167.488 476.068 171.168H459.508L459.412 170.256H470.98C471.012 168.688 470.884 167.248 470.596 165.936C470.308 164.592 469.86 163.52 469.252 162.72C468.644 161.92 467.844 161.52 466.852 161.52C465.476 161.52 464.276 162.256 463.252 163.728C462.26 165.168 461.652 167.488 461.428 170.688L461.572 170.928C461.54 171.376 461.508 171.872 461.476 172.416C461.444 172.928 461.428 173.44 461.428 173.952C461.428 176.16 461.764 178.016 462.436 179.52C463.108 181.024 463.988 182.16 465.076 182.928C466.164 183.664 467.268 184.032 468.388 184.032C469.252 184.032 470.084 183.904 470.884 183.648C471.716 183.36 472.5 182.896 473.236 182.256C473.972 181.584 474.628 180.672 475.204 179.52L476.164 179.904C475.78 180.992 475.188 182.064 474.388 183.12C473.588 184.176 472.564 185.04 471.316 185.712C470.068 186.352 468.612 186.672 466.948 186.672C464.708 186.672 462.756 186.176 461.092 185.184C459.428 184.16 458.148 182.704 457.252 180.816C456.356 178.928 455.908 176.688 455.908 174.096C455.908 171.248 456.372 168.816 457.3 166.8C458.228 164.784 459.524 163.248 461.188 162.192C462.884 161.104 464.836 160.56 467.044 160.56Z" fill="black"/>
<path d="M486.142 186.336C484.798 186.336 483.646 186.08 482.686 185.568C481.726 185.056 481.006 184.352 480.526 183.456C480.046 182.56 479.806 181.536 479.806 180.384C479.806 178.976 480.126 177.84 480.766 176.976C481.406 176.08 482.222 175.36 483.214 174.816C484.238 174.272 485.31 173.824 486.43 173.472C487.582 173.088 488.654 172.736 489.646 172.416C490.67 172.064 491.502 171.664 492.142 171.216C492.814 170.768 493.15 170.176 493.15 169.44V166.176C493.15 165.024 492.958 164.112 492.574 163.44C492.222 162.736 491.726 162.24 491.086 161.952C490.478 161.664 489.742 161.52 488.878 161.52C488.142 161.52 487.358 161.632 486.526 161.856C485.694 162.048 485.038 162.448 484.558 163.056C485.262 163.248 485.838 163.632 486.286 164.208C486.766 164.752 487.006 165.44 487.006 166.272C487.006 167.168 486.702 167.872 486.094 168.384C485.518 168.896 484.782 169.152 483.886 169.152C482.894 169.152 482.158 168.848 481.678 168.24C481.198 167.6 480.958 166.864 480.958 166.032C480.958 165.168 481.166 164.464 481.582 163.92C482.03 163.376 482.606 162.864 483.31 162.384C484.078 161.872 485.054 161.44 486.238 161.088C487.454 160.736 488.798 160.56 490.27 160.56C491.646 160.56 492.83 160.72 493.822 161.04C494.846 161.328 495.694 161.808 496.366 162.48C497.166 163.216 497.694 164.144 497.95 165.264C498.206 166.352 498.334 167.68 498.334 169.248V182.496C498.334 183.296 498.43 183.872 498.622 184.224C498.846 184.544 499.198 184.704 499.678 184.704C499.998 184.704 500.302 184.624 500.59 184.464C500.91 184.304 501.278 184.064 501.694 183.744L502.174 184.56C501.502 185.104 500.814 185.536 500.11 185.856C499.438 186.176 498.574 186.336 497.518 186.336C496.494 186.336 495.662 186.176 495.022 185.856C494.382 185.536 493.902 185.072 493.582 184.464C493.294 183.856 493.15 183.104 493.15 182.208C492.318 183.552 491.326 184.576 490.174 185.28C489.022 185.984 487.678 186.336 486.142 186.336ZM488.446 184.032C489.342 184.032 490.174 183.776 490.942 183.264C491.742 182.752 492.478 181.984 493.15 180.96V171.408C492.798 171.92 492.286 172.368 491.614 172.752C490.942 173.104 490.222 173.472 489.454 173.856C488.686 174.24 487.95 174.688 487.246 175.2C486.574 175.68 486.014 176.304 485.566 177.072C485.118 177.84 484.894 178.816 484.894 180C484.894 181.248 485.214 182.24 485.854 182.976C486.494 183.68 487.358 184.032 488.446 184.032Z" fill="black"/>
<path d="M515.8 160.56C516.888 160.56 517.928 160.704 518.92 160.992C519.912 161.248 520.777 161.616 521.513 162.096C522.281 162.576 522.856 163.152 523.24 163.824C523.656 164.496 523.865 165.232 523.865 166.032C523.865 166.992 523.593 167.744 523.049 168.288C522.505 168.832 521.801 169.104 520.937 169.104C520.073 169.104 519.352 168.864 518.776 168.384C518.2 167.904 517.912 167.216 517.912 166.32C517.912 165.488 518.153 164.816 518.633 164.304C519.113 163.76 519.672 163.408 520.312 163.248C520.024 162.768 519.512 162.368 518.776 162.048C518.072 161.696 517.304 161.52 516.472 161.52C515.608 161.52 514.777 161.744 513.977 162.192C513.209 162.64 512.521 163.328 511.913 164.256C511.305 165.184 510.808 166.384 510.424 167.856C510.072 169.328 509.897 171.104 509.897 173.184C509.897 175.872 510.201 178.016 510.809 179.616C511.449 181.184 512.281 182.304 513.305 182.976C514.329 183.648 515.433 183.984 516.617 183.984C517.385 183.984 518.169 183.84 518.969 183.552C519.801 183.264 520.584 182.784 521.32 182.112C522.088 181.44 522.76 180.528 523.336 179.376L524.248 179.712C523.896 180.768 523.336 181.84 522.568 182.928C521.832 184.016 520.857 184.912 519.641 185.616C518.425 186.32 516.937 186.672 515.177 186.672C513.161 186.672 511.336 186.176 509.704 185.184C508.072 184.192 506.776 182.752 505.816 180.864C504.856 178.944 504.376 176.608 504.376 173.856C504.376 171.168 504.856 168.832 505.816 166.848C506.808 164.832 508.169 163.28 509.897 162.192C511.625 161.104 513.592 160.56 515.8 160.56Z" fill="black"/>
<path d="M535.397 148.416V165.888C536.197 163.904 537.317 162.528 538.757 161.76C540.229 160.96 541.781 160.56 543.413 160.56C544.693 160.56 545.733 160.736 546.533 161.088C547.365 161.408 548.053 161.856 548.597 162.432C549.173 163.04 549.589 163.824 549.845 164.784C550.101 165.744 550.229 167.04 550.229 168.672V181.536C550.229 182.88 550.485 183.792 550.997 184.272C551.541 184.752 552.437 184.992 553.685 184.992V186C553.109 185.968 552.245 185.936 551.093 185.904C549.941 185.84 548.821 185.808 547.733 185.808C546.613 185.808 545.509 185.84 544.421 185.904C543.365 185.936 542.581 185.968 542.069 186V184.992C543.157 184.992 543.925 184.752 544.373 184.272C544.821 183.792 545.045 182.88 545.045 181.536V167.328C545.045 166.4 544.965 165.568 544.805 164.832C544.645 164.064 544.293 163.456 543.749 163.008C543.237 162.528 542.469 162.288 541.445 162.288C540.293 162.288 539.253 162.624 538.325 163.296C537.429 163.936 536.709 164.832 536.165 165.984C535.653 167.136 535.397 168.448 535.397 169.92V181.536C535.397 182.88 535.621 183.792 536.069 184.272C536.517 184.752 537.285 184.992 538.373 184.992V186C537.829 185.968 537.029 185.936 535.973 185.904C534.949 185.84 533.893 185.808 532.805 185.808C531.685 185.808 530.533 185.84 529.349 185.904C528.197 185.936 527.333 185.968 526.757 186V184.992C528.005 184.992 528.885 184.752 529.397 184.272C529.941 183.792 530.213 182.88 530.213 181.536V154.176C530.213 152.736 529.957 151.68 529.445 151.008C528.965 150.304 528.069 149.952 526.757 149.952V148.944C527.781 149.04 528.773 149.088 529.733 149.088C530.789 149.088 531.797 149.04 532.757 148.944C533.717 148.816 534.597 148.64 535.397 148.416Z" fill="black"/>
<path d="M567.667 151.344C568.403 151.344 569.011 151.488 569.491 151.776C569.971 152.064 570.371 152.448 570.691 152.928C571.043 153.44 571.267 154.016 571.363 154.656C571.491 155.296 571.555 155.872 571.555 156.384C571.555 157.952 571.155 159.392 570.355 160.704C569.555 162.016 568.307 163.072 566.611 163.872L566.179 163.008C567.139 162.592 567.971 161.952 568.675 161.088C569.379 160.224 569.763 159.344 569.827 158.448C569.859 157.968 569.827 157.52 569.731 157.104C569.155 157.648 568.451 157.92 567.619 157.92C566.691 157.92 565.907 157.632 565.267 157.056C564.627 156.48 564.307 155.68 564.307 154.656C564.307 153.664 564.627 152.864 565.267 152.256C565.939 151.648 566.739 151.344 567.667 151.344ZM558.931 151.344C559.667 151.344 560.275 151.488 560.755 151.776C561.235 152.064 561.635 152.448 561.955 152.928C562.307 153.44 562.531 154.016 562.627 154.656C562.755 155.296 562.819 155.872 562.819 156.384C562.819 157.952 562.419 159.392 561.619 160.704C560.819 162.016 559.571 163.072 557.875 163.872L557.443 163.008C558.403 162.592 559.235 161.952 559.939 161.088C560.643 160.224 561.027 159.344 561.091 158.448C561.123 157.968 561.091 157.52 560.995 157.104C560.419 157.648 559.715 157.92 558.883 157.92C557.955 157.92 557.171 157.632 556.531 157.056C555.891 156.48 555.571 155.68 555.571 154.656C555.571 153.664 555.891 152.864 556.531 152.256C557.203 151.648 558.003 151.344 558.931 151.344Z" fill="black"/>
</svg>
