<svg width="371" height="249" viewBox="0 0 371 249" fill="none" xmlns="http://www.w3.org/2000/svg">
<path d="M150.931 0H22.0794C9.8853 0 0 9.8853 0 22.0794C0 34.2736 9.8853 44.1589 22.0794 44.1589H150.692C157.18 44.1589 163.417 46.4059 168.936 49.819C187.577 61.348 199.267 59.4612 217.822 62.5214C219.637 62.8207 221.478 63 223.318 63H348.921C361.115 63 371 53.1147 371 40.9206C371 28.7264 361.115 18.8411 348.921 18.8411H220.552C200.012 20.6927 187.404 17.892 168.702 5.57347C163.406 2.08549 157.272 0 150.931 0Z" fill="#D1D5E4"/>
<path d="M77.5 115C65.0736 115 55 104.926 55 92.5C55 80.0736 65.0736 70 77.5 70H286.476C296.707 70 305 78.2933 305 88.5235C305 96.2172 300.244 103.11 293.051 105.841L285.256 108.801C282.403 109.884 279.402 110.525 276.356 110.703L202.796 115H77.5Z" fill="#D1D5E4"/>
<path d="M157.663 142.814C118.98 146.996 101.018 144.914 77.085 142.727C65.1253 141.634 55 151.136 55 163.146C55 174.663 64.337 184 75.8547 184H283.208C293.034 184 301 176.035 301 166.209C301 153.916 288.375 143.69 276.101 144.368C260.391 145.236 236.609 145.594 200.308 145.764C198.321 145.774 196.307 145.997 194.35 146.342C191.151 146.906 188.45 147.193 186.082 147.159C176.548 147.02 167.143 141.789 157.663 142.814Z" fill="#D1D5E4"/>
<path d="M306 201H52C38.7452 201 28 211.745 28 225C28 238.255 38.7452 249 52 249H306C319.255 249 330 238.255 330 225C330 211.745 319.255 201 306 201Z" fill="#D1D5E4"/>
<path d="M187 239L190 210H279L275.5 239H187Z" fill="#D28684"/>
<path d="M200 110L197.5 79H275.5L283 108L200 110Z" fill="#D28684"/>
<path d="M47.8929 9.915L58.8729 38.22C59.3229 39.36 59.8329 40.125 60.4029 40.515C60.9729 40.875 61.4979 41.07 61.9779 41.1V42C61.3779 41.94 60.6429 41.91 59.7729 41.91C58.9029 41.88 58.0329 41.865 57.1629 41.865C55.9929 41.865 54.8979 41.88 53.8779 41.91C52.8579 41.91 52.0329 41.94 51.4029 42V41.1C52.9329 41.04 53.9079 40.785 54.3279 40.335C54.7479 39.855 54.6579 38.85 54.0579 37.32L45.6879 14.955L46.4079 14.37L38.5779 34.71C38.0979 35.91 37.8129 36.93 37.7229 37.77C37.6329 38.58 37.7079 39.225 37.9479 39.705C38.2179 40.185 38.6529 40.53 39.2529 40.74C39.8829 40.95 40.6629 41.07 41.5929 41.1V42C40.7529 41.94 39.8679 41.91 38.9379 41.91C38.0379 41.88 37.1979 41.865 36.4179 41.865C35.6679 41.865 35.0229 41.88 34.4829 41.91C33.9729 41.91 33.4929 41.94 33.0429 42V41.1C33.6429 40.95 34.2579 40.605 34.8879 40.065C35.5179 39.495 36.0879 38.535 36.5979 37.185L47.1729 9.915C47.2929 9.915 47.4129 9.915 47.5329 9.915C47.6529 9.915 47.7729 9.915 47.8929 9.915ZM53.3829 29.04V29.94H39.9729L40.4229 29.04H53.3829Z" fill="black"/>
<path d="M78.1276 18.195C79.2676 18.195 80.2126 18.345 80.9626 18.645C81.7426 18.945 82.3876 19.365 82.8976 19.905C83.4676 20.505 83.8726 21.255 84.1126 22.155C84.3526 23.055 84.4726 24.27 84.4726 25.8V37.815C84.4726 39.075 84.7276 39.93 85.2376 40.38C85.7776 40.83 86.6626 41.055 87.8926 41.055V42C87.3826 41.97 86.6026 41.94 85.5526 41.91C84.5026 41.85 83.4826 41.82 82.4926 41.82C81.5026 41.82 80.5276 41.85 79.5676 41.91C78.6376 41.94 77.9326 41.97 77.4526 42V41.055C78.5326 41.055 79.2976 40.83 79.7476 40.38C80.1976 39.93 80.4226 39.075 80.4226 37.815V24.81C80.4226 23.88 80.3476 23.025 80.1976 22.245C80.0476 21.465 79.7026 20.835 79.1626 20.355C78.6526 19.875 77.8576 19.635 76.7776 19.635C75.5176 19.635 74.4076 19.995 73.4476 20.715C72.5176 21.435 71.7826 22.425 71.2426 23.685C70.7326 24.915 70.4776 26.295 70.4776 27.825V37.815C70.4776 39.075 70.7026 39.93 71.1526 40.38C71.6026 40.83 72.3676 41.055 73.4476 41.055V42C72.9676 41.97 72.2476 41.94 71.2876 41.91C70.3576 41.85 69.3976 41.82 68.4076 41.82C67.4176 41.82 66.3976 41.85 65.3476 41.91C64.2976 41.94 63.5176 41.97 63.0076 42V41.055C64.2376 41.055 65.1076 40.83 65.6176 40.38C66.1576 39.93 66.4276 39.075 66.4276 37.815V23.73C66.4276 22.38 66.1876 21.39 65.7076 20.76C65.2276 20.1 64.3276 19.77 63.0076 19.77V18.825C63.9676 18.915 64.8976 18.96 65.7976 18.96C66.6676 18.96 67.4926 18.915 68.2726 18.825C69.0826 18.705 69.8176 18.54 70.4776 18.33V23.64C71.2576 21.6 72.3376 20.19 73.7176 19.41C75.1276 18.6 76.5976 18.195 78.1276 18.195Z" fill="black"/>
<path d="M110.333 6.72V37.095C110.333 38.445 110.573 39.45 111.053 40.11C111.563 40.74 112.463 41.055 113.753 41.055V42C112.823 41.91 111.893 41.865 110.963 41.865C110.093 41.865 109.253 41.91 108.443 42C107.663 42.09 106.943 42.255 106.283 42.495V12.12C106.283 10.77 106.043 9.78 105.563 9.15C105.083 8.49 104.183 8.16 102.863 8.16V7.215C103.823 7.305 104.753 7.35 105.653 7.35C106.523 7.35 107.348 7.305 108.128 7.215C108.938 7.095 109.673 6.93 110.333 6.72ZM100.883 18.195C102.203 18.195 103.433 18.51 104.573 19.14C105.743 19.77 106.523 20.85 106.913 22.38L106.328 22.83C105.908 21.57 105.248 20.655 104.348 20.085C103.478 19.515 102.443 19.23 101.243 19.23C99.4732 19.23 97.9882 20.145 96.7882 21.975C95.6182 23.805 95.0482 26.625 95.0782 30.435C95.0782 32.865 95.3032 34.89 95.7532 36.51C96.2332 38.1 96.9232 39.3 97.8232 40.11C98.7532 40.89 99.8782 41.28 101.198 41.28C102.458 41.28 103.598 40.74 104.618 39.66C105.638 38.58 106.253 36.99 106.463 34.89L107.003 35.52C106.763 37.8 106.028 39.555 104.798 40.785C103.598 42.015 101.963 42.63 99.8932 42.63C98.0332 42.63 96.3982 42.18 94.9882 41.28C93.6082 40.38 92.5432 39.03 91.7932 37.23C91.0732 35.43 90.7132 33.165 90.7132 30.435C90.7132 27.705 91.1782 25.44 92.1082 23.64C93.0682 21.81 94.3132 20.445 95.8432 19.545C97.4032 18.645 99.0832 18.195 100.883 18.195Z" fill="black"/>
<path d="M135.267 18.195C136.467 18.195 137.487 18.39 138.327 18.78C139.167 19.17 139.782 19.53 140.172 19.86C141.162 20.67 141.762 20.13 141.972 18.24H143.007C142.947 19.08 142.902 20.085 142.872 21.255C142.842 22.395 142.827 23.94 142.827 25.89H141.792C141.612 24.78 141.297 23.7 140.847 22.65C140.427 21.6 139.797 20.745 138.957 20.085C138.117 19.395 137.022 19.05 135.672 19.05C134.622 19.05 133.737 19.35 133.017 19.95C132.327 20.52 131.982 21.375 131.982 22.515C131.982 23.415 132.252 24.195 132.792 24.855C133.332 25.485 134.037 26.085 134.907 26.655C135.777 27.195 136.722 27.795 137.742 28.455C138.882 29.175 139.917 29.91 140.847 30.66C141.777 31.41 142.512 32.235 143.052 33.135C143.622 34.035 143.907 35.1 143.907 36.33C143.907 37.71 143.547 38.865 142.827 39.795C142.107 40.725 141.162 41.43 139.992 41.91C138.852 42.39 137.592 42.63 136.212 42.63C135.552 42.63 134.922 42.57 134.322 42.45C133.752 42.36 133.197 42.21 132.657 42C132.357 41.85 132.042 41.67 131.712 41.46C131.412 41.25 131.112 41.025 130.812 40.785C130.512 40.545 130.242 40.56 130.002 40.83C129.762 41.07 129.582 41.565 129.462 42.315H128.427C128.487 41.355 128.532 40.185 128.562 38.805C128.592 37.425 128.607 35.595 128.607 33.315H129.642C129.852 34.995 130.152 36.465 130.542 37.725C130.932 38.985 131.547 39.975 132.387 40.695C133.227 41.385 134.397 41.73 135.897 41.73C136.497 41.73 137.097 41.595 137.697 41.325C138.327 41.055 138.852 40.605 139.272 39.975C139.692 39.345 139.902 38.505 139.902 37.455C139.902 36.135 139.422 35.055 138.462 34.215C137.502 33.375 136.287 32.49 134.817 31.56C133.737 30.87 132.717 30.18 131.757 29.49C130.827 28.8 130.062 28.02 129.462 27.15C128.892 26.28 128.607 25.23 128.607 24C128.607 22.65 128.907 21.555 129.507 20.715C130.137 19.845 130.962 19.215 131.982 18.825C133.002 18.405 134.097 18.195 135.267 18.195Z" fill="black"/>
<path d="M167.769 18.33V37.14C167.769 38.49 168.009 39.495 168.489 40.155C168.999 40.785 169.899 41.1 171.189 41.1V42.045C170.259 41.955 169.329 41.91 168.399 41.91C167.529 41.91 166.689 41.955 165.879 42.045C165.099 42.135 164.379 42.3 163.719 42.54V37.23C162.969 39.18 161.904 40.575 160.524 41.415C159.174 42.225 157.779 42.63 156.339 42.63C155.289 42.63 154.374 42.48 153.594 42.18C152.814 41.88 152.169 41.46 151.659 40.92C151.089 40.32 150.699 39.54 150.489 38.58C150.279 37.62 150.174 36.435 150.174 35.025V23.73C150.174 22.38 149.934 21.39 149.454 20.76C148.974 20.1 148.074 19.77 146.754 19.77V18.825C147.714 18.915 148.644 18.96 149.544 18.96C150.414 18.96 151.239 18.915 152.019 18.825C152.829 18.705 153.564 18.54 154.224 18.33V36.015C154.224 36.945 154.284 37.8 154.404 38.58C154.524 39.36 154.824 39.99 155.304 40.47C155.784 40.95 156.564 41.19 157.644 41.19C158.814 41.19 159.849 40.83 160.749 40.11C161.679 39.39 162.399 38.415 162.909 37.185C163.449 35.955 163.719 34.575 163.719 33.045V23.73C163.719 22.38 163.479 21.39 162.999 20.76C162.519 20.1 161.619 19.77 160.299 19.77V18.825C161.259 18.915 162.189 18.96 163.089 18.96C163.959 18.96 164.784 18.915 165.564 18.825C166.374 18.705 167.109 18.54 167.769 18.33Z" fill="black"/>
<path d="M193.961 6.72V37.095C193.961 38.445 194.201 39.45 194.681 40.11C195.191 40.74 196.091 41.055 197.381 41.055V42C196.451 41.91 195.521 41.865 194.591 41.865C193.721 41.865 192.881 41.91 192.071 42C191.291 42.09 190.571 42.255 189.911 42.495V12.12C189.911 10.77 189.671 9.78 189.191 9.15C188.711 8.49 187.811 8.16 186.491 8.16V7.215C187.451 7.305 188.381 7.35 189.281 7.35C190.151 7.35 190.976 7.305 191.756 7.215C192.566 7.095 193.301 6.93 193.961 6.72ZM184.511 18.195C185.831 18.195 187.061 18.51 188.201 19.14C189.371 19.77 190.151 20.85 190.541 22.38L189.956 22.83C189.536 21.57 188.876 20.655 187.976 20.085C187.106 19.515 186.071 19.23 184.871 19.23C183.101 19.23 181.616 20.145 180.416 21.975C179.246 23.805 178.676 26.625 178.706 30.435C178.706 32.865 178.931 34.89 179.381 36.51C179.861 38.1 180.551 39.3 181.451 40.11C182.381 40.89 183.506 41.28 184.826 41.28C186.086 41.28 187.226 40.74 188.246 39.66C189.266 38.58 189.881 36.99 190.091 34.89L190.631 35.52C190.391 37.8 189.656 39.555 188.426 40.785C187.226 42.015 185.591 42.63 183.521 42.63C181.661 42.63 180.026 42.18 178.616 41.28C177.236 40.38 176.171 39.03 175.421 37.23C174.701 35.43 174.341 33.165 174.341 30.435C174.341 27.705 174.806 25.44 175.736 23.64C176.696 21.81 177.941 20.445 179.471 19.545C181.031 18.645 182.711 18.195 184.511 18.195Z" fill="black"/>
<path d="M220.109 6.72V37.095C220.109 38.445 220.349 39.45 220.829 40.11C221.339 40.74 222.239 41.055 223.529 41.055V42C222.599 41.91 221.669 41.865 220.739 41.865C219.869 41.865 219.029 41.91 218.219 42C217.439 42.09 216.719 42.255 216.059 42.495V12.12C216.059 10.77 215.819 9.78 215.339 9.15C214.859 8.49 213.959 8.16 212.639 8.16V7.215C213.599 7.305 214.529 7.35 215.429 7.35C216.299 7.35 217.124 7.305 217.904 7.215C218.714 7.095 219.449 6.93 220.109 6.72ZM210.659 18.195C211.979 18.195 213.209 18.51 214.349 19.14C215.519 19.77 216.299 20.85 216.689 22.38L216.104 22.83C215.684 21.57 215.024 20.655 214.124 20.085C213.254 19.515 212.219 19.23 211.019 19.23C209.249 19.23 207.764 20.145 206.564 21.975C205.394 23.805 204.824 26.625 204.854 30.435C204.854 32.865 205.079 34.89 205.529 36.51C206.009 38.1 206.699 39.3 207.599 40.11C208.529 40.89 209.654 41.28 210.974 41.28C212.234 41.28 213.374 40.74 214.394 39.66C215.414 38.58 216.029 36.99 216.239 34.89L216.779 35.52C216.539 37.8 215.804 39.555 214.574 40.785C213.374 42.015 211.739 42.63 209.669 42.63C207.809 42.63 206.174 42.18 204.764 41.28C203.384 40.38 202.319 39.03 201.569 37.23C200.849 35.43 200.489 33.165 200.489 30.435C200.489 27.705 200.954 25.44 201.884 23.64C202.844 21.81 204.089 20.445 205.619 19.545C207.179 18.645 208.859 18.195 210.659 18.195Z" fill="black"/>
<path d="M236.716 18.195C239.356 18.195 241.411 19.005 242.881 20.625C244.381 22.215 245.131 24.705 245.131 28.095H229.246L229.201 27.24H240.811C240.871 25.77 240.751 24.42 240.451 23.19C240.151 21.93 239.671 20.925 239.011 20.175C238.381 19.425 237.556 19.05 236.536 19.05C235.156 19.05 233.926 19.74 232.846 21.12C231.796 22.5 231.166 24.69 230.956 27.69L231.091 27.87C231.031 28.32 230.986 28.815 230.956 29.355C230.926 29.895 230.911 30.435 230.911 30.975C230.911 33.015 231.241 34.77 231.901 36.24C232.561 37.71 233.416 38.835 234.466 39.615C235.546 40.365 236.656 40.74 237.796 40.74C238.696 40.74 239.551 40.605 240.361 40.335C241.171 40.035 241.921 39.555 242.611 38.895C243.301 38.235 243.901 37.35 244.411 36.24L245.311 36.6C244.981 37.59 244.441 38.55 243.691 39.48C242.941 40.41 241.996 41.175 240.856 41.775C239.716 42.345 238.396 42.63 236.896 42.63C234.736 42.63 232.876 42.135 231.316 41.145C229.786 40.155 228.601 38.79 227.761 37.05C226.951 35.28 226.546 33.255 226.546 30.975C226.546 28.335 226.966 26.07 227.806 24.18C228.646 22.26 229.831 20.79 231.361 19.77C232.891 18.72 234.676 18.195 236.716 18.195Z" fill="black"/>
<path d="M263.665 18.195C264.805 18.195 265.75 18.345 266.5 18.645C267.28 18.945 267.925 19.365 268.435 19.905C269.005 20.505 269.41 21.255 269.65 22.155C269.89 23.055 270.01 24.27 270.01 25.8V37.815C270.01 39.075 270.265 39.93 270.775 40.38C271.315 40.83 272.2 41.055 273.43 41.055V42C272.92 41.97 272.14 41.94 271.09 41.91C270.04 41.85 269.02 41.82 268.03 41.82C267.04 41.82 266.065 41.85 265.105 41.91C264.175 41.94 263.47 41.97 262.99 42V41.055C264.07 41.055 264.835 40.83 265.285 40.38C265.735 39.93 265.96 39.075 265.96 37.815V24.81C265.96 23.88 265.885 23.025 265.735 22.245C265.585 21.465 265.24 20.835 264.7 20.355C264.19 19.875 263.395 19.635 262.315 19.635C261.055 19.635 259.945 19.995 258.985 20.715C258.055 21.435 257.32 22.425 256.78 23.685C256.27 24.915 256.015 26.295 256.015 27.825V37.815C256.015 39.075 256.24 39.93 256.69 40.38C257.14 40.83 257.905 41.055 258.985 41.055V42C258.505 41.97 257.785 41.94 256.825 41.91C255.895 41.85 254.935 41.82 253.945 41.82C252.955 41.82 251.935 41.85 250.885 41.91C249.835 41.94 249.055 41.97 248.545 42V41.055C249.775 41.055 250.645 40.83 251.155 40.38C251.695 39.93 251.965 39.075 251.965 37.815V23.73C251.965 22.38 251.725 21.39 251.245 20.76C250.765 20.1 249.865 19.77 248.545 19.77V18.825C249.505 18.915 250.435 18.96 251.335 18.96C252.205 18.96 253.03 18.915 253.81 18.825C254.62 18.705 255.355 18.54 256.015 18.33V23.64C256.795 21.6 257.875 20.19 259.255 19.41C260.665 18.6 262.135 18.195 263.665 18.195Z" fill="black"/>
<path d="M282.55 6.72V37.815C282.55 39.075 282.805 39.93 283.315 40.38C283.855 40.83 284.74 41.055 285.97 41.055V42C285.46 41.97 284.68 41.94 283.63 41.91C282.61 41.85 281.575 41.82 280.525 41.82C279.505 41.82 278.47 41.85 277.42 41.91C276.37 41.94 275.59 41.97 275.08 42V41.055C276.31 41.055 277.18 40.83 277.69 40.38C278.23 39.93 278.5 39.075 278.5 37.815V12.12C278.5 10.77 278.26 9.78 277.78 9.15C277.3 8.49 276.4 8.16 275.08 8.16V7.215C276.04 7.305 276.97 7.35 277.87 7.35C278.74 7.35 279.565 7.305 280.345 7.215C281.155 7.095 281.89 6.93 282.55 6.72Z" fill="black"/>
<path d="M309.196 18.825V19.725C308.626 19.785 308.101 20.04 307.621 20.49C307.141 20.94 306.691 21.735 306.271 22.875L298.891 42.225H298.126L289.846 22.29C289.276 21.12 288.706 20.415 288.136 20.175C287.596 19.905 287.146 19.77 286.786 19.77V18.825C287.446 18.915 288.136 18.99 288.856 19.05C289.576 19.08 290.356 19.095 291.196 19.095C292.126 19.095 293.101 19.065 294.121 19.005C295.171 18.945 296.146 18.885 297.046 18.825V19.77C296.296 19.77 295.621 19.83 295.021 19.95C294.451 20.04 294.091 20.355 293.941 20.895C293.791 21.405 293.971 22.29 294.481 23.55L300.016 37.275L299.746 37.365L304.876 23.955C305.266 22.965 305.416 22.185 305.326 21.615C305.266 21.015 304.966 20.565 304.426 20.265C303.886 19.965 303.076 19.785 301.996 19.725V18.825C302.536 18.855 303.001 18.885 303.391 18.915C303.781 18.915 304.156 18.93 304.516 18.96C304.906 18.96 305.326 18.96 305.776 18.96C306.466 18.96 307.081 18.945 307.621 18.915C308.191 18.885 308.716 18.855 309.196 18.825ZM298.891 42.225L297.361 46.14C297.061 46.89 296.746 47.52 296.416 48.03C296.116 48.54 295.786 48.96 295.426 49.29C294.946 49.74 294.376 50.04 293.716 50.19C293.056 50.37 292.456 50.46 291.916 50.46C291.346 50.46 290.821 50.355 290.341 50.145C289.891 49.935 289.531 49.62 289.261 49.2C288.991 48.81 288.856 48.33 288.856 47.76C288.856 47.04 289.066 46.455 289.486 46.005C289.906 45.585 290.491 45.375 291.241 45.375C291.871 45.375 292.411 45.555 292.861 45.915C293.311 46.275 293.536 46.8 293.536 47.49C293.536 48 293.416 48.42 293.176 48.75C292.936 49.08 292.651 49.335 292.321 49.515C292.381 49.545 292.426 49.56 292.456 49.56C292.516 49.56 292.561 49.56 292.591 49.56C293.401 49.56 294.121 49.275 294.751 48.705C295.381 48.165 295.936 47.28 296.416 46.05L298.036 41.865L298.891 42.225Z" fill="black"/>
<path d="M71.7267 107.315C70.4967 107.315 69.4317 107.09 68.5317 106.64C67.6317 106.16 66.9417 105.5 66.4617 104.66C66.0117 103.82 65.7867 102.845 65.7867 101.735C65.7867 100.415 66.0867 99.335 66.6867 98.495C67.3167 97.655 68.1117 96.98 69.0717 96.47C70.0317 95.96 71.0367 95.54 72.0867 95.21C73.1667 94.85 74.1867 94.52 75.1467 94.22C76.1067 93.89 76.8867 93.515 77.4867 93.095C78.1167 92.675 78.4317 92.12 78.4317 91.43V88.64C78.4317 87.38 78.2367 86.42 77.8467 85.76C77.4867 85.1 76.9917 84.665 76.3617 84.455C75.7317 84.215 75.0267 84.095 74.2467 84.095C73.4967 84.095 72.6867 84.2 71.8167 84.41C70.9767 84.62 70.3017 85.055 69.7917 85.715C70.3617 85.835 70.8567 86.135 71.2767 86.615C71.6967 87.095 71.9067 87.71 71.9067 88.46C71.9067 89.21 71.6667 89.81 71.1867 90.26C70.7067 90.68 70.0917 90.89 69.3417 90.89C68.4717 90.89 67.8267 90.62 67.4067 90.08C67.0167 89.51 66.8217 88.88 66.8217 88.19C66.8217 87.41 67.0167 86.78 67.4067 86.3C67.7967 85.82 68.2917 85.37 68.8917 84.95C69.5817 84.47 70.4667 84.065 71.5467 83.735C72.6567 83.375 73.9017 83.195 75.2817 83.195C76.5117 83.195 77.5617 83.345 78.4317 83.645C79.3017 83.915 80.0217 84.32 80.5917 84.86C81.3717 85.58 81.8817 86.465 82.1217 87.515C82.3617 88.535 82.4817 89.765 82.4817 91.205V103.715C82.4817 104.465 82.5867 105.005 82.7967 105.335C83.0367 105.665 83.3967 105.83 83.8767 105.83C84.2067 105.83 84.5217 105.755 84.8217 105.605C85.1217 105.455 85.4817 105.215 85.9017 104.885L86.3967 105.65C85.7667 106.13 85.1667 106.535 84.5967 106.865C84.0267 107.165 83.2617 107.315 82.3017 107.315C81.4317 107.315 80.7117 107.165 80.1417 106.865C79.5717 106.565 79.1367 106.13 78.8367 105.56C78.5667 104.96 78.4317 104.21 78.4317 103.31C77.6217 104.66 76.6467 105.665 75.5067 106.325C74.3967 106.985 73.1367 107.315 71.7267 107.315ZM73.3467 105.515C74.3367 105.515 75.2517 105.23 76.0917 104.66C76.9617 104.09 77.7417 103.235 78.4317 102.095V93.275C78.0717 93.785 77.5467 94.22 76.8567 94.58C76.1667 94.91 75.4167 95.255 74.6067 95.615C73.7967 95.945 73.0167 96.35 72.2667 96.83C71.5467 97.28 70.9467 97.88 70.4667 98.63C69.9867 99.38 69.7467 100.355 69.7467 101.555C69.7467 102.755 70.0617 103.715 70.6917 104.435C71.3517 105.155 72.2367 105.515 73.3467 105.515Z" fill="black"/>
<path d="M94.9038 71.72V102.815C94.9038 104.075 95.1588 104.93 95.6688 105.38C96.2088 105.83 97.0938 106.055 98.3238 106.055V107C97.8138 106.97 97.0338 106.94 95.9838 106.91C94.9638 106.85 93.9288 106.82 92.8788 106.82C91.8588 106.82 90.8238 106.85 89.7738 106.91C88.7238 106.94 87.9438 106.97 87.4338 107V106.055C88.6638 106.055 89.5338 105.83 90.0438 105.38C90.5838 104.93 90.8539 104.075 90.8539 102.815V77.12C90.8539 75.77 90.6139 74.78 90.1339 74.15C89.6539 73.49 88.7538 73.16 87.4338 73.16V72.215C88.3938 72.305 89.3238 72.35 90.2238 72.35C91.0938 72.35 91.9188 72.305 92.6988 72.215C93.5088 72.095 94.2438 71.93 94.9038 71.72Z" fill="black"/>
<path d="M107.78 71.72V102.815C107.78 104.075 108.035 104.93 108.545 105.38C109.085 105.83 109.97 106.055 111.2 106.055V107C110.69 106.97 109.91 106.94 108.86 106.91C107.84 106.85 106.805 106.82 105.755 106.82C104.735 106.82 103.7 106.85 102.65 106.91C101.6 106.94 100.82 106.97 100.31 107V106.055C101.54 106.055 102.41 105.83 102.92 105.38C103.46 104.93 103.73 104.075 103.73 102.815V77.12C103.73 75.77 103.49 74.78 103.01 74.15C102.53 73.49 101.63 73.16 100.31 73.16V72.215C101.27 72.305 102.2 72.35 103.1 72.35C103.97 72.35 104.795 72.305 105.575 72.215C106.385 72.095 107.12 71.93 107.78 71.72Z" fill="black"/>
<path d="M131.381 76.355V83.87H138.041V84.77H131.381V102.185C131.381 103.595 131.636 104.585 132.146 105.155C132.656 105.725 133.361 106.01 134.261 106.01C135.161 106.01 135.941 105.65 136.601 104.93C137.261 104.18 137.831 102.935 138.311 101.195L139.211 101.42C138.911 103.16 138.311 104.63 137.411 105.83C136.541 107.03 135.191 107.63 133.361 107.63C132.341 107.63 131.501 107.495 130.841 107.225C130.181 106.985 129.596 106.625 129.086 106.145C128.426 105.455 127.961 104.63 127.691 103.67C127.451 102.71 127.331 101.435 127.331 99.845V84.77H123.011V83.87H127.331V76.985C128.081 76.955 128.801 76.895 129.491 76.805C130.181 76.715 130.811 76.565 131.381 76.355Z" fill="black"/>
<path d="M147.109 71.765V88.595C147.889 86.555 148.969 85.145 150.349 84.365C151.759 83.585 153.229 83.195 154.759 83.195C155.899 83.195 156.844 83.345 157.594 83.645C158.374 83.945 159.019 84.365 159.529 84.905C160.099 85.505 160.504 86.255 160.744 87.155C160.984 88.055 161.104 89.27 161.104 90.8V102.815C161.104 104.075 161.359 104.93 161.869 105.38C162.409 105.83 163.294 106.055 164.524 106.055V107C164.014 106.97 163.234 106.94 162.184 106.91C161.134 106.85 160.114 106.82 159.124 106.82C158.134 106.82 157.159 106.85 156.199 106.91C155.269 106.94 154.564 106.97 154.084 107V106.055C155.164 106.055 155.929 105.83 156.379 105.38C156.829 104.93 157.054 104.075 157.054 102.815V89.81C157.054 88.88 156.979 88.025 156.829 87.245C156.679 86.465 156.334 85.835 155.794 85.355C155.284 84.875 154.489 84.635 153.409 84.635C152.179 84.635 151.084 84.98 150.124 85.67C149.194 86.36 148.459 87.32 147.919 88.55C147.379 89.78 147.109 91.19 147.109 92.78V102.815C147.109 104.075 147.334 104.93 147.784 105.38C148.234 105.83 148.999 106.055 150.079 106.055V107C149.599 106.97 148.879 106.94 147.919 106.91C146.989 106.85 146.029 106.82 145.039 106.82C144.049 106.82 143.029 106.85 141.979 106.91C140.929 106.94 140.149 106.97 139.639 107V106.055C140.869 106.055 141.739 105.83 142.249 105.38C142.789 104.93 143.059 104.075 143.059 102.815V77.165C143.059 75.815 142.819 74.825 142.339 74.195C141.859 73.535 140.959 73.205 139.639 73.205V72.26C140.599 72.35 141.529 72.395 142.429 72.395C143.299 72.395 144.124 72.35 144.904 72.26C145.714 72.14 146.449 71.975 147.109 71.765Z" fill="black"/>
<path d="M177.434 83.195C180.074 83.195 182.129 84.005 183.599 85.625C185.099 87.215 185.849 89.705 185.849 93.095H169.964L169.919 92.24H181.529C181.589 90.77 181.469 89.42 181.169 88.19C180.869 86.93 180.389 85.925 179.729 85.175C179.099 84.425 178.274 84.05 177.254 84.05C175.874 84.05 174.644 84.74 173.564 86.12C172.514 87.5 171.884 89.69 171.674 92.69L171.809 92.87C171.749 93.32 171.704 93.815 171.674 94.355C171.644 94.895 171.629 95.435 171.629 95.975C171.629 98.015 171.959 99.77 172.619 101.24C173.279 102.71 174.134 103.835 175.184 104.615C176.264 105.365 177.374 105.74 178.514 105.74C179.414 105.74 180.269 105.605 181.079 105.335C181.889 105.035 182.639 104.555 183.329 103.895C184.019 103.235 184.619 102.35 185.129 101.24L186.029 101.6C185.699 102.59 185.159 103.55 184.409 104.48C183.659 105.41 182.714 106.175 181.574 106.775C180.434 107.345 179.114 107.63 177.614 107.63C175.454 107.63 173.594 107.135 172.034 106.145C170.504 105.155 169.319 103.79 168.479 102.05C167.669 100.28 167.264 98.255 167.264 95.975C167.264 93.335 167.684 91.07 168.524 89.18C169.364 87.26 170.549 85.79 172.079 84.77C173.609 83.72 175.394 83.195 177.434 83.195Z" fill="black"/>
<path d="M206.261 71.72V102.815C206.261 104.075 206.516 104.93 207.026 105.38C207.566 105.83 208.451 106.055 209.681 106.055V107C209.171 106.97 208.391 106.94 207.341 106.91C206.321 106.85 205.286 106.82 204.236 106.82C203.216 106.82 202.181 106.85 201.131 106.91C200.081 106.94 199.301 106.97 198.791 107V106.055C200.021 106.055 200.891 105.83 201.401 105.38C201.941 104.93 202.211 104.075 202.211 102.815V77.12C202.211 75.77 201.971 74.78 201.491 74.15C201.011 73.49 200.111 73.16 198.791 73.16V72.215C199.751 72.305 200.681 72.35 201.581 72.35C202.451 72.35 203.276 72.305 204.056 72.215C204.866 72.095 205.601 71.93 206.261 71.72Z" fill="black"/>
<path d="M222.568 83.195C224.488 83.195 226.213 83.615 227.743 84.455C229.273 85.295 230.488 86.615 231.388 88.415C232.318 90.215 232.783 92.555 232.783 95.435C232.783 98.315 232.318 100.655 231.388 102.455C230.488 104.225 229.273 105.53 227.743 106.37C226.213 107.21 224.488 107.63 222.568 107.63C220.678 107.63 218.953 107.21 217.393 106.37C215.863 105.53 214.633 104.225 213.703 102.455C212.803 100.655 212.353 98.315 212.353 95.435C212.353 92.555 212.803 90.215 213.703 88.415C214.633 86.615 215.863 85.295 217.393 84.455C218.953 83.615 220.678 83.195 222.568 83.195ZM222.568 84.095C220.858 84.095 219.448 84.98 218.338 86.75C217.258 88.52 216.718 91.415 216.718 95.435C216.718 99.455 217.258 102.35 218.338 104.12C219.448 105.86 220.858 106.73 222.568 106.73C224.278 106.73 225.673 105.86 226.753 104.12C227.863 102.35 228.418 99.455 228.418 95.435C228.418 91.415 227.863 88.52 226.753 86.75C225.673 84.98 224.278 84.095 222.568 84.095Z" fill="black"/>
<path d="M256.453 83.825V84.725C255.883 84.785 255.358 85.04 254.878 85.49C254.398 85.94 253.949 86.735 253.529 87.875L246.148 107.225C246.028 107.225 245.908 107.225 245.788 107.225C245.668 107.225 245.533 107.225 245.383 107.225L237.104 87.29C236.624 86.12 236.143 85.415 235.663 85.175C235.213 84.905 234.823 84.77 234.493 84.77V83.825C235.093 83.855 235.709 83.9 236.339 83.96C236.999 83.99 237.703 84.005 238.453 84.005C239.383 84.005 240.358 83.99 241.378 83.96C242.428 83.93 243.403 83.885 244.303 83.825V84.77C243.553 84.77 242.879 84.83 242.279 84.95C241.709 85.04 241.334 85.325 241.154 85.805C241.004 86.285 241.154 87.11 241.604 88.28L247.229 102.185L246.958 102.41L252.089 88.955C252.479 87.965 252.628 87.185 252.538 86.615C252.478 86.015 252.179 85.565 251.639 85.265C251.129 84.965 250.333 84.785 249.253 84.725V83.825C249.793 83.855 250.258 83.885 250.648 83.915C251.038 83.915 251.413 83.93 251.773 83.96C252.163 83.96 252.583 83.96 253.033 83.96C253.723 83.96 254.338 83.945 254.878 83.915C255.448 83.885 255.973 83.855 256.453 83.825Z" fill="black"/>
<path d="M268.445 83.195C271.085 83.195 273.14 84.005 274.61 85.625C276.11 87.215 276.86 89.705 276.86 93.095H260.975L260.93 92.24H272.54C272.6 90.77 272.48 89.42 272.18 88.19C271.88 86.93 271.4 85.925 270.74 85.175C270.11 84.425 269.285 84.05 268.265 84.05C266.885 84.05 265.655 84.74 264.575 86.12C263.525 87.5 262.895 89.69 262.685 92.69L262.82 92.87C262.76 93.32 262.715 93.815 262.685 94.355C262.655 94.895 262.64 95.435 262.64 95.975C262.64 98.015 262.97 99.77 263.63 101.24C264.29 102.71 265.145 103.835 266.195 104.615C267.275 105.365 268.385 105.74 269.525 105.74C270.425 105.74 271.28 105.605 272.09 105.335C272.9 105.035 273.65 104.555 274.34 103.895C275.03 103.235 275.63 102.35 276.14 101.24L277.04 101.6C276.71 102.59 276.17 103.55 275.42 104.48C274.67 105.41 273.725 106.175 272.585 106.775C271.445 107.345 270.125 107.63 268.625 107.63C266.465 107.63 264.605 107.135 263.045 106.145C261.515 105.155 260.33 103.79 259.49 102.05C258.68 100.28 258.275 98.255 258.275 95.975C258.275 93.335 258.695 91.07 259.535 89.18C260.375 87.26 261.56 85.79 263.09 84.77C264.62 83.72 266.405 83.195 268.445 83.195Z" fill="black"/>
<path d="M68.9533 148.195C70.1533 148.195 71.1733 148.39 72.0133 148.78C72.8533 149.17 73.4683 149.53 73.8583 149.86C74.8483 150.67 75.4483 150.13 75.6583 148.24H76.6933C76.6333 149.08 76.5883 150.085 76.5583 151.255C76.5283 152.395 76.5133 153.94 76.5133 155.89H75.4783C75.2983 154.78 74.9833 153.7 74.5333 152.65C74.1133 151.6 73.4833 150.745 72.6433 150.085C71.8033 149.395 70.7083 149.05 69.3583 149.05C68.3083 149.05 67.4233 149.35 66.7033 149.95C66.0133 150.52 65.6683 151.375 65.6683 152.515C65.6683 153.415 65.9383 154.195 66.4783 154.855C67.0183 155.485 67.7233 156.085 68.5933 156.655C69.4633 157.195 70.4083 157.795 71.4283 158.455C72.5683 159.175 73.6033 159.91 74.5333 160.66C75.4633 161.41 76.1983 162.235 76.7383 163.135C77.3083 164.035 77.5933 165.1 77.5933 166.33C77.5933 167.71 77.2333 168.865 76.5133 169.795C75.7933 170.725 74.8483 171.43 73.6783 171.91C72.5383 172.39 71.2783 172.63 69.8983 172.63C69.2383 172.63 68.6083 172.57 68.0083 172.45C67.4383 172.36 66.8833 172.21 66.3433 172C66.0433 171.85 65.7283 171.67 65.3983 171.46C65.0983 171.25 64.7983 171.025 64.4983 170.785C64.1983 170.545 63.9283 170.56 63.6883 170.83C63.4483 171.07 63.2683 171.565 63.1483 172.315H62.1133C62.1733 171.355 62.2183 170.185 62.2483 168.805C62.2783 167.425 62.2933 165.595 62.2933 163.315H63.3283C63.5383 164.995 63.8383 166.465 64.2283 167.725C64.6183 168.985 65.2333 169.975 66.0733 170.695C66.9133 171.385 68.0833 171.73 69.5833 171.73C70.1833 171.73 70.7833 171.595 71.3833 171.325C72.0133 171.055 72.5383 170.605 72.9583 169.975C73.3783 169.345 73.5883 168.505 73.5883 167.455C73.5883 166.135 73.1083 165.055 72.1483 164.215C71.1883 163.375 69.9733 162.49 68.5033 161.56C67.4233 160.87 66.4033 160.18 65.4433 159.49C64.5133 158.8 63.7483 158.02 63.1483 157.15C62.5783 156.28 62.2933 155.23 62.2933 154C62.2933 152.65 62.5933 151.555 63.1933 150.715C63.8233 149.845 64.6483 149.215 65.6683 148.825C66.6883 148.405 67.7833 148.195 68.9533 148.195Z" fill="black"/>
<path d="M92.0502 148.195C93.9702 148.195 95.6952 148.615 97.2252 149.455C98.7552 150.295 99.9702 151.615 100.87 153.415C101.8 155.215 102.265 157.555 102.265 160.435C102.265 163.315 101.8 165.655 100.87 167.455C99.9702 169.225 98.7552 170.53 97.2252 171.37C95.6952 172.21 93.9702 172.63 92.0502 172.63C90.1602 172.63 88.4352 172.21 86.8752 171.37C85.3452 170.53 84.1152 169.225 83.1852 167.455C82.2852 165.655 81.8352 163.315 81.8352 160.435C81.8352 157.555 82.2852 155.215 83.1852 153.415C84.1152 151.615 85.3452 150.295 86.8752 149.455C88.4352 148.615 90.1602 148.195 92.0502 148.195ZM92.0502 149.095C90.3402 149.095 88.9302 149.98 87.8202 151.75C86.7402 153.52 86.2002 156.415 86.2002 160.435C86.2002 164.455 86.7402 167.35 87.8202 169.12C88.9302 170.86 90.3402 171.73 92.0502 171.73C93.7602 171.73 95.1552 170.86 96.2352 169.12C97.3452 167.35 97.9002 164.455 97.9002 160.435C97.9002 156.415 97.3452 153.52 96.2352 151.75C95.1552 149.98 93.7602 149.095 92.0502 149.095Z" fill="black"/>
<path d="M120.799 148.195C121.939 148.195 122.884 148.345 123.634 148.645C124.414 148.945 125.059 149.365 125.569 149.905C126.139 150.505 126.544 151.255 126.784 152.155C127.024 153.055 127.144 154.27 127.144 155.8V167.815C127.144 169.075 127.399 169.93 127.909 170.38C128.449 170.83 129.334 171.055 130.564 171.055V172C130.054 171.97 129.274 171.94 128.224 171.91C127.174 171.85 126.154 171.82 125.164 171.82C124.174 171.82 123.199 171.85 122.239 171.91C121.309 171.94 120.604 171.97 120.124 172V171.055C121.204 171.055 121.969 170.83 122.419 170.38C122.869 169.93 123.094 169.075 123.094 167.815V154.81C123.094 153.88 123.019 153.025 122.869 152.245C122.719 151.465 122.374 150.835 121.834 150.355C121.324 149.875 120.529 149.635 119.449 149.635C118.189 149.635 117.079 149.995 116.119 150.715C115.189 151.435 114.454 152.425 113.914 153.685C113.404 154.915 113.149 156.295 113.149 157.825V167.815C113.149 169.075 113.374 169.93 113.824 170.38C114.274 170.83 115.039 171.055 116.119 171.055V172C115.639 171.97 114.919 171.94 113.959 171.91C113.029 171.85 112.069 171.82 111.079 171.82C110.089 171.82 109.069 171.85 108.019 171.91C106.969 171.94 106.189 171.97 105.679 172V171.055C106.909 171.055 107.779 170.83 108.289 170.38C108.829 169.93 109.099 169.075 109.099 167.815V153.73C109.099 152.38 108.859 151.39 108.379 150.76C107.899 150.1 106.999 149.77 105.679 149.77V148.825C106.639 148.915 107.569 148.96 108.469 148.96C109.339 148.96 110.164 148.915 110.944 148.825C111.754 148.705 112.489 148.54 113.149 148.33V153.64C113.929 151.6 115.009 150.19 116.389 149.41C117.799 148.6 119.269 148.195 120.799 148.195Z" fill="black"/>
<path d="M140.37 180.46C138.78 180.46 137.28 180.295 135.87 179.965C134.46 179.635 133.32 179.11 132.45 178.39C131.61 177.7 131.19 176.815 131.19 175.735C131.19 174.685 131.61 173.785 132.45 173.035C133.29 172.285 134.43 171.715 135.87 171.325L136.14 172.045C135.48 172.255 134.955 172.675 134.565 173.305C134.175 173.935 133.98 174.64 133.98 175.42C133.98 176.8 134.61 177.85 135.87 178.57C137.16 179.32 138.825 179.695 140.865 179.695C142.215 179.695 143.535 179.515 144.825 179.155C146.115 178.825 147.18 178.255 148.02 177.445C148.86 176.635 149.28 175.57 149.28 174.25C149.28 173.26 148.92 172.45 148.2 171.82C147.51 171.16 146.13 170.83 144.06 170.83H140.73C139.77 170.83 138.84 170.755 137.94 170.605C137.04 170.455 136.305 170.14 135.735 169.66C135.165 169.18 134.88 168.445 134.88 167.455C134.88 166.435 135.3 165.46 136.14 164.53C136.98 163.57 138.525 162.595 140.775 161.605L141.315 162.01C140.295 162.55 139.41 163.105 138.66 163.675C137.91 164.215 137.535 164.86 137.535 165.61C137.535 166.57 138.255 167.05 139.695 167.05H145.32C146.58 167.05 147.735 167.23 148.785 167.59C149.865 167.95 150.735 168.52 151.395 169.3C152.055 170.08 152.385 171.1 152.385 172.36C152.385 173.77 151.935 175.09 151.035 176.32C150.135 177.55 148.785 178.54 146.985 179.29C145.215 180.07 143.01 180.46 140.37 180.46ZM140.595 162.415C139.125 162.415 137.79 162.175 136.59 161.695C135.39 161.185 134.445 160.405 133.755 159.355C133.065 158.305 132.72 156.955 132.72 155.305C132.72 153.655 133.065 152.305 133.755 151.255C134.445 150.205 135.39 149.44 136.59 148.96C137.79 148.45 139.125 148.195 140.595 148.195C142.095 148.195 143.43 148.45 144.6 148.96C145.8 149.44 146.745 150.205 147.435 151.255C148.125 152.305 148.47 153.655 148.47 155.305C148.47 156.955 148.125 158.305 147.435 159.355C146.745 160.405 145.8 161.185 144.6 161.695C143.43 162.175 142.095 162.415 140.595 162.415ZM140.595 161.605C141.735 161.605 142.62 161.155 143.25 160.255C143.91 159.355 144.24 157.705 144.24 155.305C144.24 152.905 143.91 151.255 143.25 150.355C142.62 149.455 141.735 149.005 140.595 149.005C139.485 149.005 138.6 149.455 137.94 150.355C137.28 151.255 136.95 152.905 136.95 155.305C136.95 157.705 137.28 159.355 137.94 160.255C138.6 161.155 139.485 161.605 140.595 161.605ZM147.075 151.93L146.265 151.615C146.685 150.595 147.405 149.695 148.425 148.915C149.445 148.135 150.51 147.745 151.62 147.745C152.4 147.745 153.03 147.97 153.51 148.42C153.99 148.84 154.23 149.485 154.23 150.355C154.23 151.285 153.975 151.945 153.465 152.335C152.985 152.695 152.49 152.875 151.98 152.875C151.53 152.875 151.11 152.725 150.72 152.425C150.33 152.095 150.105 151.585 150.045 150.895C149.985 150.205 150.195 149.32 150.675 148.24L151.26 148.375C150 148.855 149.1 149.365 148.56 149.905C148.02 150.415 147.525 151.09 147.075 151.93Z" fill="black"/>
<path d="M163.699 148.195C164.899 148.195 165.919 148.39 166.759 148.78C167.599 149.17 168.214 149.53 168.604 149.86C169.594 150.67 170.194 150.13 170.404 148.24H171.439C171.379 149.08 171.334 150.085 171.304 151.255C171.274 152.395 171.259 153.94 171.259 155.89H170.224C170.044 154.78 169.729 153.7 169.279 152.65C168.859 151.6 168.229 150.745 167.389 150.085C166.549 149.395 165.454 149.05 164.104 149.05C163.054 149.05 162.169 149.35 161.449 149.95C160.759 150.52 160.414 151.375 160.414 152.515C160.414 153.415 160.684 154.195 161.224 154.855C161.764 155.485 162.469 156.085 163.339 156.655C164.209 157.195 165.154 157.795 166.174 158.455C167.314 159.175 168.349 159.91 169.279 160.66C170.209 161.41 170.944 162.235 171.484 163.135C172.054 164.035 172.339 165.1 172.339 166.33C172.339 167.71 171.979 168.865 171.259 169.795C170.539 170.725 169.594 171.43 168.424 171.91C167.284 172.39 166.024 172.63 164.644 172.63C163.984 172.63 163.354 172.57 162.754 172.45C162.184 172.36 161.629 172.21 161.089 172C160.789 171.85 160.474 171.67 160.144 171.46C159.844 171.25 159.544 171.025 159.244 170.785C158.944 170.545 158.674 170.56 158.434 170.83C158.194 171.07 158.014 171.565 157.894 172.315H156.859C156.919 171.355 156.964 170.185 156.994 168.805C157.024 167.425 157.039 165.595 157.039 163.315H158.074C158.284 164.995 158.584 166.465 158.974 167.725C159.364 168.985 159.979 169.975 160.819 170.695C161.659 171.385 162.829 171.73 164.329 171.73C164.929 171.73 165.529 171.595 166.129 171.325C166.759 171.055 167.284 170.605 167.704 169.975C168.124 169.345 168.334 168.505 168.334 167.455C168.334 166.135 167.854 165.055 166.894 164.215C165.934 163.375 164.719 162.49 163.249 161.56C162.169 160.87 161.149 160.18 160.189 159.49C159.259 158.8 158.494 158.02 157.894 157.15C157.324 156.28 157.039 155.23 157.039 154C157.039 152.65 157.339 151.555 157.939 150.715C158.569 149.845 159.394 149.215 160.414 148.825C161.434 148.405 162.529 148.195 163.699 148.195Z" fill="black"/>
<path d="M194.296 148.825V149.77C193.546 149.77 192.886 149.83 192.316 149.95C191.746 150.04 191.371 150.34 191.191 150.85C191.011 151.36 191.146 152.26 191.596 153.55L196.276 166.96L195.961 166.915L202.576 148.645L203.476 149.005L195.241 172.225C195.121 172.225 195.001 172.225 194.881 172.225C194.761 172.225 194.626 172.225 194.476 172.225L187.096 152.29C186.616 151.09 186.136 150.37 185.656 150.13C185.206 149.89 184.816 149.77 184.486 149.77V148.825C185.086 148.915 185.701 148.99 186.331 149.05C186.991 149.08 187.696 149.095 188.446 149.095C189.376 149.095 190.351 149.065 191.371 149.005C192.421 148.945 193.396 148.885 194.296 148.825ZM219.001 148.825V149.725C218.431 149.785 217.891 150.04 217.381 150.49C216.901 150.91 216.466 151.705 216.076 152.875L209.551 172.225C209.431 172.225 209.311 172.225 209.191 172.225C209.071 172.225 208.936 172.225 208.786 172.225L201.541 153.82L202.576 148.645C202.756 148.645 202.921 148.645 203.071 148.645C203.251 148.645 203.431 148.645 203.611 148.645L210.631 167.23L210.271 167.5L214.726 153.955C215.056 152.935 215.176 152.14 215.086 151.57C215.026 150.97 214.726 150.535 214.186 150.265C213.676 149.965 212.881 149.785 211.801 149.725V148.825C212.341 148.855 212.806 148.885 213.196 148.915C213.586 148.915 213.961 148.93 214.321 148.96C214.711 148.96 215.131 148.96 215.581 148.96C216.271 148.96 216.886 148.945 217.426 148.915C217.996 148.885 218.521 148.855 219.001 148.825Z" fill="black"/>
<path d="M230.959 148.195C233.599 148.195 235.654 149.005 237.124 150.625C238.624 152.215 239.374 154.705 239.374 158.095H223.489L223.444 157.24H235.054C235.114 155.77 234.994 154.42 234.694 153.19C234.394 151.93 233.914 150.925 233.254 150.175C232.624 149.425 231.799 149.05 230.779 149.05C229.399 149.05 228.169 149.74 227.089 151.12C226.039 152.5 225.409 154.69 225.199 157.69L225.334 157.87C225.274 158.32 225.229 158.815 225.199 159.355C225.169 159.895 225.154 160.435 225.154 160.975C225.154 163.015 225.484 164.77 226.144 166.24C226.804 167.71 227.659 168.835 228.709 169.615C229.789 170.365 230.899 170.74 232.039 170.74C232.939 170.74 233.794 170.605 234.604 170.335C235.414 170.035 236.164 169.555 236.854 168.895C237.544 168.235 238.144 167.35 238.654 166.24L239.554 166.6C239.224 167.59 238.684 168.55 237.934 169.48C237.184 170.41 236.239 171.175 235.099 171.775C233.959 172.345 232.639 172.63 231.139 172.63C228.979 172.63 227.119 172.135 225.559 171.145C224.029 170.155 222.844 168.79 222.004 167.05C221.194 165.28 220.789 163.255 220.789 160.975C220.789 158.335 221.209 156.07 222.049 154.18C222.889 152.26 224.074 150.79 225.604 149.77C227.134 148.72 228.919 148.195 230.959 148.195Z" fill="black"/>
<path d="M256.783 148.195C257.593 148.195 258.298 148.36 258.898 148.69C259.528 149.02 260.008 149.455 260.338 149.995C260.698 150.505 260.878 151.09 260.878 151.75C260.878 152.5 260.638 153.16 260.158 153.73C259.708 154.3 259.093 154.585 258.313 154.585C257.683 154.585 257.128 154.39 256.648 154C256.168 153.58 255.928 152.995 255.928 152.245C255.928 151.675 256.078 151.195 256.378 150.805C256.708 150.385 257.068 150.055 257.458 149.815C257.248 149.515 256.933 149.365 256.513 149.365C255.583 149.365 254.728 149.65 253.948 150.22C253.168 150.76 252.508 151.465 251.968 152.335C251.428 153.205 251.008 154.135 250.708 155.125C250.408 156.085 250.258 156.985 250.258 157.825V167.365C250.258 168.835 250.678 169.825 251.518 170.335C252.388 170.815 253.558 171.055 255.028 171.055V172C254.338 171.97 253.363 171.94 252.103 171.91C250.843 171.85 249.508 171.82 248.098 171.82C247.078 171.82 246.058 171.85 245.038 171.91C244.048 171.94 243.298 171.97 242.788 172V171.055C244.018 171.055 244.888 170.83 245.398 170.38C245.938 169.93 246.208 169.075 246.208 167.815V153.73C246.208 152.38 245.968 151.39 245.488 150.76C245.008 150.1 244.108 149.77 242.788 149.77V148.825C243.748 148.915 244.678 148.96 245.578 148.96C246.448 148.96 247.273 148.915 248.053 148.825C248.863 148.705 249.598 148.54 250.258 148.33V153.955C250.588 153.085 251.053 152.215 251.653 151.345C252.283 150.445 253.033 149.695 253.903 149.095C254.773 148.495 255.733 148.195 256.783 148.195Z" fill="black"/>
<path d="M272.883 148.195C275.523 148.195 277.578 149.005 279.048 150.625C280.548 152.215 281.298 154.705 281.298 158.095H265.413L265.368 157.24H276.978C277.038 155.77 276.918 154.42 276.618 153.19C276.318 151.93 275.838 150.925 275.178 150.175C274.548 149.425 273.723 149.05 272.703 149.05C271.323 149.05 270.093 149.74 269.013 151.12C267.963 152.5 267.333 154.69 267.123 157.69L267.258 157.87C267.198 158.32 267.153 158.815 267.123 159.355C267.093 159.895 267.078 160.435 267.078 160.975C267.078 163.015 267.408 164.77 268.068 166.24C268.728 167.71 269.583 168.835 270.633 169.615C271.713 170.365 272.823 170.74 273.963 170.74C274.863 170.74 275.718 170.605 276.528 170.335C277.338 170.035 278.088 169.555 278.778 168.895C279.468 168.235 280.068 167.35 280.578 166.24L281.478 166.6C281.148 167.59 280.608 168.55 279.858 169.48C279.108 170.41 278.163 171.175 277.023 171.775C275.883 172.345 274.563 172.63 273.063 172.63C270.903 172.63 269.043 172.135 267.483 171.145C265.953 170.155 264.768 168.79 263.928 167.05C263.118 165.28 262.713 163.255 262.713 160.975C262.713 158.335 263.133 156.07 263.973 154.18C264.813 152.26 265.998 150.79 267.528 149.77C269.058 148.72 270.843 148.195 272.883 148.195Z" fill="black"/>
<path d="M75.1105 237.315C73.8805 237.315 72.8155 237.09 71.9155 236.64C71.0155 236.16 70.3255 235.5 69.8455 234.66C69.3955 233.82 69.1705 232.845 69.1705 231.735C69.1705 230.415 69.4705 229.335 70.0705 228.495C70.7005 227.655 71.4955 226.98 72.4555 226.47C73.4155 225.96 74.4205 225.54 75.4705 225.21C76.5505 224.85 77.5705 224.52 78.5305 224.22C79.4905 223.89 80.2705 223.515 80.8705 223.095C81.5005 222.675 81.8155 222.12 81.8155 221.43V218.64C81.8155 217.38 81.6205 216.42 81.2305 215.76C80.8705 215.1 80.3755 214.665 79.7455 214.455C79.1155 214.215 78.4105 214.095 77.6305 214.095C76.8805 214.095 76.0705 214.2 75.2005 214.41C74.3605 214.62 73.6855 215.055 73.1755 215.715C73.7455 215.835 74.2405 216.135 74.6605 216.615C75.0805 217.095 75.2905 217.71 75.2905 218.46C75.2905 219.21 75.0505 219.81 74.5705 220.26C74.0905 220.68 73.4755 220.89 72.7255 220.89C71.8555 220.89 71.2105 220.62 70.7905 220.08C70.4005 219.51 70.2055 218.88 70.2055 218.19C70.2055 217.41 70.4005 216.78 70.7905 216.3C71.1805 215.82 71.6755 215.37 72.2755 214.95C72.9655 214.47 73.8505 214.065 74.9305 213.735C76.0405 213.375 77.2855 213.195 78.6655 213.195C79.8955 213.195 80.9455 213.345 81.8155 213.645C82.6855 213.915 83.4055 214.32 83.9755 214.86C84.7555 215.58 85.2655 216.465 85.5055 217.515C85.7455 218.535 85.8655 219.765 85.8655 221.205V233.715C85.8655 234.465 85.9705 235.005 86.1805 235.335C86.4205 235.665 86.7805 235.83 87.2605 235.83C87.5905 235.83 87.9055 235.755 88.2055 235.605C88.5055 235.455 88.8655 235.215 89.2855 234.885L89.7805 235.65C89.1505 236.13 88.5505 236.535 87.9805 236.865C87.4105 237.165 86.6455 237.315 85.6855 237.315C84.8155 237.315 84.0955 237.165 83.5255 236.865C82.9555 236.565 82.5205 236.13 82.2205 235.56C81.9505 234.96 81.8155 234.21 81.8155 233.31C81.0055 234.66 80.0305 235.665 78.8905 236.325C77.7805 236.985 76.5205 237.315 75.1105 237.315ZM76.7305 235.515C77.7205 235.515 78.6355 235.23 79.4755 234.66C80.3455 234.09 81.1255 233.235 81.8155 232.095V223.275C81.4555 223.785 80.9305 224.22 80.2405 224.58C79.5505 224.91 78.8005 225.255 77.9905 225.615C77.1805 225.945 76.4005 226.35 75.6505 226.83C74.9305 227.28 74.3305 227.88 73.8505 228.63C73.3705 229.38 73.1305 230.355 73.1305 231.555C73.1305 232.755 73.4455 233.715 74.0755 234.435C74.7355 235.155 75.6205 235.515 76.7305 235.515Z" fill="black"/>
<path d="M104.498 213.195C106.958 213.195 108.998 214.215 110.618 216.255C112.238 218.265 113.048 221.325 113.048 225.435C113.048 228.135 112.583 230.4 111.653 232.23C110.753 234.03 109.538 235.38 108.008 236.28C106.478 237.18 104.813 237.63 103.013 237.63C101.513 237.63 100.058 237.21 98.6476 236.37C97.2676 235.5 96.2326 234.225 95.5426 232.545L96.4426 233.04C97.1926 234.24 98.1226 235.14 99.2326 235.74C100.343 236.31 101.483 236.595 102.653 236.595C104.663 236.595 106.163 235.695 107.153 233.895C108.173 232.065 108.683 229.245 108.683 225.435C108.683 223.005 108.488 220.98 108.098 219.36C107.708 217.74 107.108 216.54 106.298 215.76C105.488 214.95 104.453 214.545 103.193 214.545C101.813 214.545 100.523 215.175 99.3226 216.435C98.1526 217.665 97.4326 219.48 97.1626 221.88L96.6226 221.25C96.9526 218.7 97.8376 216.72 99.2776 215.31C100.748 213.9 102.488 213.195 104.498 213.195ZM97.4776 201.765V234.66C97.0876 234.99 96.6826 235.335 96.2626 235.695C95.8726 236.025 95.4826 236.355 95.0926 236.685C94.7026 237.015 94.2976 237.36 93.8776 237.72L93.1126 237.405C93.2326 236.985 93.3076 236.565 93.3376 236.145C93.3976 235.695 93.4276 235.245 93.4276 234.795V207.165C93.4276 205.815 93.1876 204.825 92.7076 204.195C92.2276 203.535 91.3276 203.205 90.0076 203.205V202.26C90.9676 202.35 91.8976 202.395 92.7976 202.395C93.6676 202.395 94.4926 202.35 95.2726 202.26C96.0826 202.14 96.8176 201.975 97.4776 201.765Z" fill="black"/>
<path d="M127.514 213.195C129.434 213.195 131.159 213.615 132.689 214.455C134.219 215.295 135.434 216.615 136.334 218.415C137.264 220.215 137.729 222.555 137.729 225.435C137.729 228.315 137.264 230.655 136.334 232.455C135.434 234.225 134.219 235.53 132.689 236.37C131.159 237.21 129.434 237.63 127.514 237.63C125.624 237.63 123.899 237.21 122.339 236.37C120.809 235.53 119.579 234.225 118.649 232.455C117.749 230.655 117.299 228.315 117.299 225.435C117.299 222.555 117.749 220.215 118.649 218.415C119.579 216.615 120.809 215.295 122.339 214.455C123.899 213.615 125.624 213.195 127.514 213.195ZM127.514 214.095C125.804 214.095 124.394 214.98 123.284 216.75C122.204 218.52 121.664 221.415 121.664 225.435C121.664 229.455 122.204 232.35 123.284 234.12C124.394 235.86 125.804 236.73 127.514 236.73C129.224 236.73 130.619 235.86 131.699 234.12C132.809 232.35 133.364 229.455 133.364 225.435C133.364 221.415 132.809 218.52 131.699 216.75C130.619 214.98 129.224 214.095 127.514 214.095Z" fill="black"/>
<path d="M161.572 213.33V232.14C161.572 233.49 161.812 234.495 162.292 235.155C162.802 235.785 163.702 236.1 164.992 236.1V237.045C164.062 236.955 163.132 236.91 162.202 236.91C161.332 236.91 160.492 236.955 159.682 237.045C158.902 237.135 158.182 237.3 157.522 237.54V232.23C156.772 234.18 155.707 235.575 154.327 236.415C152.977 237.225 151.582 237.63 150.142 237.63C149.092 237.63 148.177 237.48 147.397 237.18C146.617 236.88 145.972 236.46 145.462 235.92C144.892 235.32 144.502 234.54 144.292 233.58C144.082 232.62 143.977 231.435 143.977 230.025V218.73C143.977 217.38 143.737 216.39 143.257 215.76C142.777 215.1 141.877 214.77 140.557 214.77V213.825C141.517 213.915 142.447 213.96 143.347 213.96C144.217 213.96 145.042 213.915 145.822 213.825C146.632 213.705 147.367 213.54 148.027 213.33V231.015C148.027 231.945 148.087 232.8 148.207 233.58C148.327 234.36 148.627 234.99 149.107 235.47C149.587 235.95 150.367 236.19 151.447 236.19C152.617 236.19 153.652 235.83 154.552 235.11C155.482 234.39 156.202 233.415 156.712 232.185C157.252 230.955 157.522 229.575 157.522 228.045V218.73C157.522 217.38 157.282 216.39 156.802 215.76C156.322 215.1 155.422 214.77 154.102 214.77V213.825C155.062 213.915 155.992 213.96 156.892 213.96C157.762 213.96 158.587 213.915 159.367 213.825C160.177 213.705 160.912 213.54 161.572 213.33Z" fill="black"/>
<path d="M174.535 206.355V213.87H181.195V214.77H174.535V232.185C174.535 233.595 174.79 234.585 175.3 235.155C175.81 235.725 176.515 236.01 177.415 236.01C178.315 236.01 179.095 235.65 179.755 234.93C180.415 234.18 180.985 232.935 181.465 231.195L182.365 231.42C182.065 233.16 181.465 234.63 180.565 235.83C179.695 237.03 178.345 237.63 176.515 237.63C175.495 237.63 174.655 237.495 173.995 237.225C173.335 236.985 172.75 236.625 172.24 236.145C171.58 235.455 171.115 234.63 170.845 233.67C170.605 232.71 170.485 231.435 170.485 229.845V214.77H166.165V213.87H170.485V206.985C171.235 206.955 171.955 206.895 172.645 206.805C173.335 206.715 173.965 206.565 174.535 206.355Z" fill="black"/>
<path d="M213.396 213.825V214.725C212.826 214.785 212.301 215.04 211.821 215.49C211.341 215.94 210.891 216.735 210.471 217.875L203.091 237.225H202.326L194.046 217.29C193.476 216.12 192.906 215.415 192.336 215.175C191.796 214.905 191.346 214.77 190.986 214.77V213.825C191.646 213.915 192.336 213.99 193.056 214.05C193.776 214.08 194.556 214.095 195.396 214.095C196.326 214.095 197.301 214.065 198.321 214.005C199.371 213.945 200.346 213.885 201.246 213.825V214.77C200.496 214.77 199.821 214.83 199.221 214.95C198.651 215.04 198.291 215.355 198.141 215.895C197.991 216.405 198.171 217.29 198.681 218.55L204.216 232.275L203.946 232.365L209.076 218.955C209.466 217.965 209.616 217.185 209.526 216.615C209.466 216.015 209.166 215.565 208.626 215.265C208.086 214.965 207.276 214.785 206.196 214.725V213.825C206.736 213.855 207.201 213.885 207.591 213.915C207.981 213.915 208.356 213.93 208.716 213.96C209.106 213.96 209.526 213.96 209.976 213.96C210.666 213.96 211.281 213.945 211.821 213.915C212.391 213.885 212.916 213.855 213.396 213.825ZM203.091 237.225L201.561 241.14C201.261 241.89 200.946 242.52 200.616 243.03C200.316 243.54 199.986 243.96 199.626 244.29C199.146 244.74 198.576 245.04 197.916 245.19C197.256 245.37 196.656 245.46 196.116 245.46C195.546 245.46 195.021 245.355 194.541 245.145C194.091 244.935 193.731 244.62 193.461 244.2C193.191 243.81 193.056 243.33 193.056 242.76C193.056 242.04 193.266 241.455 193.686 241.005C194.106 240.585 194.691 240.375 195.441 240.375C196.071 240.375 196.611 240.555 197.061 240.915C197.511 241.275 197.736 241.8 197.736 242.49C197.736 243 197.616 243.42 197.376 243.75C197.136 244.08 196.851 244.335 196.521 244.515C196.581 244.545 196.626 244.56 196.656 244.56C196.716 244.56 196.761 244.56 196.791 244.56C197.601 244.56 198.321 244.275 198.951 243.705C199.581 243.165 200.136 242.28 200.616 241.05L202.236 236.865L203.091 237.225Z" fill="black"/>
<path d="M225.776 213.195C227.696 213.195 229.421 213.615 230.951 214.455C232.481 215.295 233.696 216.615 234.596 218.415C235.526 220.215 235.991 222.555 235.991 225.435C235.991 228.315 235.526 230.655 234.596 232.455C233.696 234.225 232.481 235.53 230.951 236.37C229.421 237.21 227.696 237.63 225.776 237.63C223.886 237.63 222.161 237.21 220.601 236.37C219.071 235.53 217.841 234.225 216.911 232.455C216.011 230.655 215.561 228.315 215.561 225.435C215.561 222.555 216.011 220.215 216.911 218.415C217.841 216.615 219.071 215.295 220.601 214.455C222.161 213.615 223.886 213.195 225.776 213.195ZM225.776 214.095C224.066 214.095 222.656 214.98 221.546 216.75C220.466 218.52 219.926 221.415 219.926 225.435C219.926 229.455 220.466 232.35 221.546 234.12C222.656 235.86 224.066 236.73 225.776 236.73C227.486 236.73 228.881 235.86 229.961 234.12C231.071 232.35 231.626 229.455 231.626 225.435C231.626 221.415 231.071 218.52 229.961 216.75C228.881 214.98 227.486 214.095 225.776 214.095Z" fill="black"/>
<path d="M259.834 213.33V232.14C259.834 233.49 260.074 234.495 260.554 235.155C261.064 235.785 261.964 236.1 263.254 236.1V237.045C262.324 236.955 261.394 236.91 260.464 236.91C259.594 236.91 258.754 236.955 257.944 237.045C257.164 237.135 256.444 237.3 255.784 237.54V232.23C255.034 234.18 253.969 235.575 252.589 236.415C251.239 237.225 249.844 237.63 248.404 237.63C247.354 237.63 246.439 237.48 245.659 237.18C244.879 236.88 244.234 236.46 243.724 235.92C243.154 235.32 242.764 234.54 242.554 233.58C242.344 232.62 242.239 231.435 242.239 230.025V218.73C242.239 217.38 241.999 216.39 241.519 215.76C241.039 215.1 240.139 214.77 238.819 214.77V213.825C239.779 213.915 240.709 213.96 241.609 213.96C242.479 213.96 243.304 213.915 244.084 213.825C244.894 213.705 245.629 213.54 246.289 213.33V231.015C246.289 231.945 246.349 232.8 246.469 233.58C246.589 234.36 246.889 234.99 247.369 235.47C247.849 235.95 248.629 236.19 249.709 236.19C250.879 236.19 251.914 235.83 252.814 235.11C253.744 234.39 254.464 233.415 254.974 232.185C255.514 230.955 255.784 229.575 255.784 228.045V218.73C255.784 217.38 255.544 216.39 255.064 215.76C254.584 215.1 253.684 214.77 252.364 214.77V213.825C253.324 213.915 254.254 213.96 255.154 213.96C256.024 213.96 256.849 213.915 257.629 213.825C258.439 213.705 259.174 213.54 259.834 213.33Z" fill="black"/>
<path d="M269.917 231.87C270.697 231.87 271.372 232.155 271.942 232.725C272.512 233.295 272.797 233.97 272.797 234.75C272.797 235.53 272.512 236.205 271.942 236.775C271.372 237.345 270.697 237.63 269.917 237.63C269.137 237.63 268.462 237.345 267.892 236.775C267.322 236.205 267.037 235.53 267.037 234.75C267.037 233.97 267.322 233.295 267.892 232.725C268.462 232.155 269.137 231.87 269.917 231.87Z" fill="black"/>
</svg>
