<svg width="162" height="509" viewBox="0 0 162 509" fill="none" xmlns="http://www.w3.org/2000/svg">
<path d="M0 25C0 11.1929 11.1929 0 25 0H137C150.807 0 162 11.1929 162 25V484C162 497.807 150.807 509 137 509H25C11.1929 509 0 497.807 0 484V25Z" fill="white"/>
<path d="M86.1027 12.68V13.48C85.196 13.5067 84.5027 13.6133 84.0227 13.8C83.5693 13.96 83.2627 14.28 83.1027 14.76C82.9427 15.2133 82.8627 15.9333 82.8627 16.92V36.76C82.8627 37.72 82.9427 38.44 83.1027 38.92C83.2627 39.4 83.5693 39.72 84.0227 39.88C84.5027 40.04 85.196 40.1467 86.1027 40.2V41C85.4893 40.9467 84.716 40.92 83.7827 40.92C82.876 40.8933 81.956 40.88 81.0227 40.88C79.9827 40.88 79.0093 40.8933 78.1027 40.92C77.196 40.92 76.4627 40.9467 75.9027 41V40.2C76.8093 40.1467 77.4893 40.04 77.9427 39.88C78.4227 39.72 78.7427 39.4 78.9027 38.92C79.0627 38.44 79.1427 37.72 79.1427 36.76V16.92C79.1427 15.9333 79.0627 15.2133 78.9027 14.76C78.7427 14.28 78.4227 13.96 77.9427 13.8C77.4893 13.6133 76.8093 13.5067 75.9027 13.48V12.68C76.4627 12.7067 77.196 12.7333 78.1027 12.76C79.0093 12.7867 79.9827 12.8 81.0227 12.8C81.956 12.8 82.876 12.7867 83.7827 12.76C84.716 12.7333 85.4893 12.7067 86.1027 12.68Z" fill="black"/>
<path d="M57.0247 68.4V69.24C56.358 69.24 55.7714 69.2933 55.2647 69.4C54.758 69.48 54.4247 69.7467 54.2647 70.2C54.1047 70.6533 54.2247 71.4533 54.6247 72.6L58.7847 84.52L58.5047 84.48L64.3847 68.24L65.1847 68.56L57.8647 89.2C57.758 89.2 57.6514 89.2 57.5447 89.2C57.438 89.2 57.318 89.2 57.1847 89.2L50.6247 71.48C50.198 70.4133 49.7714 69.7733 49.3447 69.56C48.9447 69.3467 48.598 69.24 48.3047 69.24V68.4C48.838 68.48 49.3847 68.5467 49.9447 68.6C50.5314 68.6267 51.158 68.64 51.8247 68.64C52.6514 68.64 53.518 68.6133 54.4247 68.56C55.358 68.5067 56.2247 68.4533 57.0247 68.4ZM78.9847 68.4V69.2C78.478 69.2533 77.998 69.48 77.5447 69.88C77.118 70.2533 76.7314 70.96 76.3847 72L70.5847 89.2C70.478 89.2 70.3714 89.2 70.2647 89.2C70.158 89.2 70.038 89.2 69.9047 89.2L63.4647 72.84L64.3847 68.24C64.5447 68.24 64.6914 68.24 64.8247 68.24C64.9847 68.24 65.1447 68.24 65.3047 68.24L71.5447 84.76L71.2247 85L75.1847 72.96C75.478 72.0533 75.5847 71.3467 75.5047 70.84C75.4514 70.3067 75.1847 69.92 74.7047 69.68C74.2514 69.4133 73.5447 69.2533 72.5847 69.2V68.4C73.0647 68.4267 73.478 68.4533 73.8247 68.48C74.1714 68.48 74.5047 68.4933 74.8247 68.52C75.1714 68.52 75.5447 68.52 75.9447 68.52C76.558 68.52 77.1047 68.5067 77.5847 68.48C78.0914 68.4533 78.558 68.4267 78.9847 68.4Z" fill="black"/>
<path d="M84.8059 58.4C85.4993 58.4 86.0993 58.6533 86.6059 59.16C87.1126 59.6667 87.3659 60.2667 87.3659 60.96C87.3659 61.6533 87.1126 62.2533 86.6059 62.76C86.0993 63.2667 85.4993 63.52 84.8059 63.52C84.1126 63.52 83.5126 63.2667 83.0059 62.76C82.4993 62.2533 82.2459 61.6533 82.2459 60.96C82.2459 60.2667 82.4993 59.6667 83.0059 59.16C83.5126 58.6533 84.1126 58.4 84.8059 58.4ZM86.8859 67.96V85.28C86.8859 86.4 87.1126 87.16 87.5659 87.56C88.0459 87.96 88.8326 88.16 89.9259 88.16V89C89.4726 88.9733 88.7793 88.9467 87.8459 88.92C86.9393 88.8667 86.0193 88.84 85.0859 88.84C84.1793 88.84 83.2593 88.8667 82.3259 88.92C81.3926 88.9467 80.6993 88.9733 80.2459 89V88.16C81.3393 88.16 82.1126 87.96 82.5659 87.56C83.0459 87.16 83.2859 86.4 83.2859 85.28V72.76C83.2859 71.56 83.0726 70.68 82.6459 70.12C82.2193 69.5333 81.4193 69.24 80.2459 69.24V68.4C81.0993 68.48 81.9259 68.52 82.7259 68.52C83.4993 68.52 84.2326 68.48 84.9259 68.4C85.6459 68.2933 86.2993 68.1467 86.8859 67.96Z" fill="black"/>
<path d="M98.3247 57.64V85.28C98.3247 86.4 98.5514 87.16 99.0047 87.56C99.4847 87.96 100.271 88.16 101.365 88.16V89C100.911 88.9733 100.218 88.9467 99.2847 88.92C98.378 88.8667 97.458 88.84 96.5247 88.84C95.618 88.84 94.698 88.8667 93.7647 88.92C92.8314 88.9467 92.138 88.9733 91.6847 89V88.16C92.778 88.16 93.5514 87.96 94.0047 87.56C94.4847 87.16 94.7247 86.4 94.7247 85.28V62.44C94.7247 61.24 94.5114 60.36 94.0847 59.8C93.658 59.2133 92.858 58.92 91.6847 58.92V58.08C92.538 58.16 93.3647 58.2 94.1647 58.2C94.938 58.2 95.6714 58.16 96.3647 58.08C97.0847 57.9733 97.738 57.8267 98.3247 57.64Z" fill="black"/>
<path d="M109.77 57.64V85.28C109.77 86.4 109.997 87.16 110.45 87.56C110.93 87.96 111.717 88.16 112.81 88.16V89C112.357 88.9733 111.663 88.9467 110.73 88.92C109.823 88.8667 108.903 88.84 107.97 88.84C107.063 88.84 106.143 88.8667 105.21 88.92C104.277 88.9467 103.583 88.9733 103.13 89V88.16C104.223 88.16 104.997 87.96 105.45 87.56C105.93 87.16 106.17 86.4 106.17 85.28V62.44C106.17 61.24 105.957 60.36 105.53 59.8C105.103 59.2133 104.303 58.92 103.13 58.92V58.08C103.983 58.16 104.81 58.2 105.61 58.2C106.383 58.2 107.117 58.16 107.81 58.08C108.53 57.9733 109.183 57.8267 109.77 57.64Z" fill="black"/>
<path d="M44.9945 115.84C46.0079 115.84 46.8479 115.973 47.5145 116.24C48.2079 116.507 48.7812 116.88 49.2345 117.36C49.7412 117.893 50.1012 118.56 50.3145 119.36C50.5279 120.16 50.6345 121.24 50.6345 122.6V133.28C50.6345 134.4 50.8612 135.16 51.3145 135.56C51.7945 135.96 52.5812 136.16 53.6745 136.16V137C53.2212 136.973 52.5279 136.947 51.5945 136.92C50.6612 136.867 49.7545 136.84 48.8745 136.84C47.9945 136.84 47.1279 136.867 46.2745 136.92C45.4479 136.947 44.8212 136.973 44.3945 137V136.16C45.3545 136.16 46.0345 135.96 46.4345 135.56C46.8345 135.16 47.0345 134.4 47.0345 133.28V121.72C47.0345 120.893 46.9679 120.133 46.8345 119.44C46.7012 118.747 46.3945 118.187 45.9145 117.76C45.4612 117.333 44.7545 117.12 43.7945 117.12C42.6745 117.12 41.6879 117.44 40.8345 118.08C40.0079 118.72 39.3545 119.6 38.8745 120.72C38.4212 121.813 38.1945 123.04 38.1945 124.4V133.28C38.1945 134.4 38.3945 135.16 38.7945 135.56C39.1945 135.96 39.8745 136.16 40.8345 136.16V137C40.4079 136.973 39.7679 136.947 38.9145 136.92C38.0879 136.867 37.2345 136.84 36.3545 136.84C35.4745 136.84 34.5679 136.867 33.6345 136.92C32.7012 136.947 32.0079 136.973 31.5545 137V136.16C32.6479 136.16 33.4212 135.96 33.8745 135.56C34.3545 135.16 34.5945 134.4 34.5945 133.28V120.76C34.5945 119.56 34.3812 118.68 33.9545 118.12C33.5279 117.533 32.7279 117.24 31.5545 117.24V116.4C32.4079 116.48 33.2345 116.52 34.0345 116.52C34.8079 116.52 35.5412 116.48 36.2345 116.4C36.9545 116.293 37.6079 116.147 38.1945 115.96V120.68C38.8879 118.867 39.8479 117.613 41.0745 116.92C42.3279 116.2 43.6345 115.84 44.9945 115.84Z" fill="black"/>
<path d="M65.1417 115.84C67.4884 115.84 69.3151 116.56 70.6217 118C71.9551 119.413 72.6217 121.627 72.6217 124.64H58.5017L58.4617 123.88H68.7817C68.835 122.573 68.7284 121.373 68.4617 120.28C68.195 119.16 67.7684 118.267 67.1817 117.6C66.6217 116.933 65.8884 116.6 64.9817 116.6C63.7551 116.6 62.6617 117.213 61.7017 118.44C60.7684 119.667 60.2084 121.613 60.0217 124.28L60.1417 124.44C60.0884 124.84 60.0484 125.28 60.0217 125.76C59.9951 126.24 59.9817 126.72 59.9817 127.2C59.9817 129.013 60.2751 130.573 60.8617 131.88C61.4484 133.187 62.2084 134.187 63.1417 134.88C64.1017 135.547 65.0884 135.88 66.1017 135.88C66.9017 135.88 67.6617 135.76 68.3817 135.52C69.1017 135.253 69.7684 134.827 70.3817 134.24C70.9951 133.653 71.5284 132.867 71.9817 131.88L72.7817 132.2C72.4884 133.08 72.0084 133.933 71.3417 134.76C70.6751 135.587 69.835 136.267 68.8217 136.8C67.8084 137.307 66.6351 137.56 65.3017 137.56C63.3817 137.56 61.7284 137.12 60.3417 136.24C58.9817 135.36 57.9284 134.147 57.1817 132.6C56.4617 131.027 56.1017 129.227 56.1017 127.2C56.1017 124.853 56.4751 122.84 57.2217 121.16C57.9684 119.453 59.0217 118.147 60.3817 117.24C61.7417 116.307 63.3284 115.84 65.1417 115.84Z" fill="black"/>
<path d="M93.7798 116.4V117.2C93.2732 117.253 92.8065 117.48 92.3798 117.88C91.9532 118.28 91.5532 118.987 91.1798 120L84.6198 137.2C84.5132 137.2 84.4065 137.2 84.2998 137.2C84.1932 137.2 84.0732 137.2 83.9398 137.2L76.5798 119.48C76.1532 118.44 75.7265 117.813 75.2998 117.6C74.8998 117.36 74.5532 117.24 74.2598 117.24V116.4C74.7932 116.427 75.3398 116.467 75.8998 116.52C76.4865 116.547 77.1132 116.56 77.7798 116.56C78.6065 116.56 79.4732 116.547 80.3798 116.52C81.3132 116.493 82.1798 116.453 82.9798 116.4V117.24C82.3132 117.24 81.7132 117.293 81.1798 117.4C80.6732 117.48 80.3398 117.733 80.1798 118.16C80.0465 118.587 80.1798 119.32 80.5798 120.36L85.5798 132.72L85.3398 132.92L89.8998 120.96C90.2465 120.08 90.3798 119.387 90.2998 118.88C90.2465 118.347 89.9798 117.947 89.4998 117.68C89.0465 117.413 88.3398 117.253 87.3798 117.2V116.4C87.8598 116.427 88.2732 116.453 88.6198 116.48C88.9665 116.48 89.2998 116.493 89.6198 116.52C89.9665 116.52 90.3398 116.52 90.7398 116.52C91.3532 116.52 91.8998 116.507 92.3798 116.48C92.8865 116.453 93.3532 116.427 93.7798 116.4Z" fill="black"/>
<path d="M104.439 115.84C106.785 115.84 108.612 116.56 109.919 118C111.252 119.413 111.919 121.627 111.919 124.64H97.7986L97.7586 123.88H108.079C108.132 122.573 108.025 121.373 107.759 120.28C107.492 119.16 107.065 118.267 106.479 117.6C105.919 116.933 105.185 116.6 104.279 116.6C103.052 116.6 101.959 117.213 100.999 118.44C100.065 119.667 99.5053 121.613 99.3186 124.28L99.4386 124.44C99.3853 124.84 99.3453 125.28 99.3186 125.76C99.2919 126.24 99.2786 126.72 99.2786 127.2C99.2786 129.013 99.5719 130.573 100.159 131.88C100.745 133.187 101.505 134.187 102.439 134.88C103.399 135.547 104.385 135.88 105.399 135.88C106.199 135.88 106.959 135.76 107.679 135.52C108.399 135.253 109.065 134.827 109.679 134.24C110.292 133.653 110.825 132.867 111.279 131.88L112.079 132.2C111.785 133.08 111.305 133.933 110.639 134.76C109.972 135.587 109.132 136.267 108.119 136.8C107.105 137.307 105.932 137.56 104.599 137.56C102.679 137.56 101.025 137.12 99.6386 136.24C98.2786 135.36 97.2253 134.147 96.4786 132.6C95.7586 131.027 95.3986 129.227 95.3986 127.2C95.3986 124.853 95.7719 122.84 96.5186 121.16C97.2653 119.453 98.3186 118.147 99.6786 117.24C101.039 116.307 102.625 115.84 104.439 115.84Z" fill="black"/>
<path d="M127.393 115.84C128.113 115.84 128.74 115.987 129.273 116.28C129.833 116.573 130.26 116.96 130.553 117.44C130.873 117.893 131.033 118.413 131.033 119C131.033 119.667 130.82 120.253 130.393 120.76C129.993 121.267 129.446 121.52 128.753 121.52C128.193 121.52 127.7 121.347 127.273 121C126.846 120.627 126.633 120.107 126.633 119.44C126.633 118.933 126.766 118.507 127.033 118.16C127.326 117.787 127.646 117.493 127.993 117.28C127.806 117.013 127.526 116.88 127.153 116.88C126.326 116.88 125.566 117.133 124.873 117.64C124.18 118.12 123.593 118.747 123.113 119.52C122.633 120.293 122.26 121.12 121.993 122C121.726 122.853 121.593 123.653 121.593 124.4V132.88C121.593 134.187 121.966 135.067 122.713 135.52C123.486 135.947 124.526 136.16 125.833 136.16V137C125.22 136.973 124.353 136.947 123.233 136.92C122.113 136.867 120.926 136.84 119.673 136.84C118.766 136.84 117.86 136.867 116.953 136.92C116.073 136.947 115.406 136.973 114.953 137V136.16C116.046 136.16 116.82 135.96 117.273 135.56C117.753 135.16 117.993 134.4 117.993 133.28V120.76C117.993 119.56 117.78 118.68 117.353 118.12C116.926 117.533 116.126 117.24 114.953 117.24V116.4C115.806 116.48 116.633 116.52 117.433 116.52C118.206 116.52 118.94 116.48 119.633 116.4C120.353 116.293 121.006 116.147 121.593 115.96V120.96C121.886 120.187 122.3 119.413 122.833 118.64C123.393 117.84 124.06 117.173 124.833 116.64C125.606 116.107 126.46 115.84 127.393 115.84Z" fill="black"/>
<path d="M45.3798 153.72C46.1265 153.72 46.7798 153.827 47.3398 154.04C47.9265 154.227 48.4332 154.48 48.8598 154.8C49.2598 155.12 49.5665 155.493 49.7798 155.92C49.9932 156.347 50.0998 156.8 50.0998 157.28C50.0998 157.893 49.8998 158.4 49.4998 158.8C49.0998 159.2 48.5932 159.4 47.9798 159.4C47.3932 159.4 46.8732 159.213 46.4198 158.84C45.9932 158.44 45.7798 157.907 45.7798 157.24C45.7798 156.68 45.9265 156.227 46.2198 155.88C46.5398 155.533 46.9532 155.307 47.4598 155.2C47.3798 154.96 47.1665 154.76 46.8198 154.6C46.4998 154.413 46.0598 154.32 45.4998 154.32C44.8865 154.32 44.3532 154.453 43.8998 154.72C43.4732 154.987 43.1398 155.347 42.8998 155.8C42.5798 156.36 42.3798 157.2 42.2998 158.32C42.2198 159.413 42.1798 161.107 42.1798 163.4V164.44H46.4598V165.24H42.1798V180.88C42.1798 182.187 42.5532 183.067 43.2998 183.52C44.0732 183.947 45.1132 184.16 46.4198 184.16V185C45.8065 184.973 44.9398 184.947 43.8198 184.92C42.6998 184.867 41.5132 184.84 40.2598 184.84C39.3532 184.84 38.4465 184.867 37.5398 184.92C36.6598 184.947 35.9932 184.973 35.5398 185V184.16C36.6332 184.16 37.4065 183.96 37.8598 183.56C38.3398 183.16 38.5798 182.4 38.5798 181.28V165.24H35.3798V164.44H38.5798C38.5798 162.867 38.6465 161.547 38.7798 160.48C38.9132 159.413 39.1265 158.507 39.4198 157.76C39.7132 156.987 40.1132 156.307 40.6198 155.72C41.1532 155.107 41.8332 154.627 42.6598 154.28C43.4865 153.907 44.3932 153.72 45.3798 153.72Z" fill="black"/>
<path d="M57.917 163.84C59.6237 163.84 61.157 164.213 62.517 164.96C63.877 165.707 64.957 166.88 65.757 168.48C66.5837 170.08 66.997 172.16 66.997 174.72C66.997 177.28 66.5837 179.36 65.757 180.96C64.957 182.533 63.877 183.693 62.517 184.44C61.157 185.187 59.6237 185.56 57.917 185.56C56.237 185.56 54.7037 185.187 53.317 184.44C51.957 183.693 50.8637 182.533 50.037 180.96C49.237 179.36 48.837 177.28 48.837 174.72C48.837 172.16 49.237 170.08 50.037 168.48C50.8637 166.88 51.957 165.707 53.317 164.96C54.7037 164.213 56.237 163.84 57.917 163.84ZM57.917 164.64C56.397 164.64 55.1437 165.427 54.157 167C53.197 168.573 52.717 171.147 52.717 174.72C52.717 178.293 53.197 180.867 54.157 182.44C55.1437 183.987 56.397 184.76 57.917 184.76C59.437 184.76 60.677 183.987 61.637 182.44C62.6237 180.867 63.117 178.293 63.117 174.72C63.117 171.147 62.6237 168.573 61.637 167C60.677 165.427 59.437 164.64 57.917 164.64Z" fill="black"/>
<path d="M82.4711 163.84C83.1911 163.84 83.8178 163.987 84.3511 164.28C84.9111 164.573 85.3378 164.96 85.6311 165.44C85.9511 165.893 86.1111 166.413 86.1111 167C86.1111 167.667 85.8978 168.253 85.4711 168.76C85.0711 169.267 84.5244 169.52 83.8311 169.52C83.2711 169.52 82.7778 169.347 82.3511 169C81.9244 168.627 81.7111 168.107 81.7111 167.44C81.7111 166.933 81.8444 166.507 82.1111 166.16C82.4044 165.787 82.7244 165.493 83.0711 165.28C82.8844 165.013 82.6044 164.88 82.2311 164.88C81.4044 164.88 80.6444 165.133 79.9511 165.64C79.2578 166.12 78.6711 166.747 78.1911 167.52C77.7111 168.293 77.3378 169.12 77.0711 170C76.8044 170.853 76.6711 171.653 76.6711 172.4V180.88C76.6711 182.187 77.0444 183.067 77.7911 183.52C78.5644 183.947 79.6044 184.16 80.9111 184.16V185C80.2978 184.973 79.4311 184.947 78.3111 184.92C77.1911 184.867 76.0044 184.84 74.7511 184.84C73.8444 184.84 72.9378 184.867 72.0311 184.92C71.1511 184.947 70.4844 184.973 70.0311 185V184.16C71.1244 184.16 71.8978 183.96 72.3511 183.56C72.8311 183.16 73.0711 182.4 73.0711 181.28V168.76C73.0711 167.56 72.8578 166.68 72.4311 166.12C72.0044 165.533 71.2044 165.24 70.0311 165.24V164.4C70.8844 164.48 71.7111 164.52 72.5111 164.52C73.2844 164.52 74.0178 164.48 74.7111 164.4C75.4311 164.293 76.0844 164.147 76.6711 163.96V168.96C76.9644 168.187 77.3778 167.413 77.9111 166.64C78.4711 165.84 79.1378 165.173 79.9111 164.64C80.6844 164.107 81.5378 163.84 82.4711 163.84Z" fill="black"/>
<path d="M95.2036 192.52C93.7903 192.52 92.4569 192.373 91.2036 192.08C89.9503 191.787 88.9369 191.32 88.1636 190.68C87.4169 190.067 87.0436 189.28 87.0436 188.32C87.0436 187.387 87.4169 186.587 88.1636 185.92C88.9103 185.253 89.9236 184.747 91.2036 184.4L91.4436 185.04C90.8569 185.227 90.3903 185.6 90.0436 186.16C89.6969 186.72 89.5236 187.347 89.5236 188.04C89.5236 189.267 90.0836 190.2 91.2036 190.84C92.3503 191.507 93.8303 191.84 95.6436 191.84C96.8436 191.84 98.0169 191.68 99.1636 191.36C100.31 191.067 101.257 190.56 102.004 189.84C102.75 189.12 103.124 188.173 103.124 187C103.124 186.12 102.804 185.4 102.164 184.84C101.55 184.253 100.324 183.96 98.4836 183.96H95.5236C94.6703 183.96 93.8436 183.893 93.0436 183.76C92.2436 183.627 91.5903 183.347 91.0836 182.92C90.5769 182.493 90.3236 181.84 90.3236 180.96C90.3236 180.053 90.6969 179.187 91.4436 178.36C92.1903 177.507 93.5636 176.64 95.5636 175.76L96.0436 176.12C95.1369 176.6 94.3503 177.093 93.6836 177.6C93.0169 178.08 92.6836 178.653 92.6836 179.32C92.6836 180.173 93.3236 180.6 94.6036 180.6H99.6036C100.724 180.6 101.75 180.76 102.684 181.08C103.644 181.4 104.417 181.907 105.004 182.6C105.59 183.293 105.884 184.2 105.884 185.32C105.884 186.573 105.484 187.747 104.684 188.84C103.884 189.933 102.684 190.813 101.084 191.48C99.5103 192.173 97.5503 192.52 95.2036 192.52ZM95.4036 176.48C94.0969 176.48 92.9103 176.267 91.8436 175.84C90.7769 175.387 89.9369 174.693 89.3236 173.76C88.7103 172.827 88.4036 171.627 88.4036 170.16C88.4036 168.693 88.7103 167.493 89.3236 166.56C89.9369 165.627 90.7769 164.947 91.8436 164.52C92.9103 164.067 94.0969 163.84 95.4036 163.84C96.7369 163.84 97.9236 164.067 98.9636 164.52C100.03 164.947 100.87 165.627 101.484 166.56C102.097 167.493 102.404 168.693 102.404 170.16C102.404 171.627 102.097 172.827 101.484 173.76C100.87 174.693 100.03 175.387 98.9636 175.84C97.9236 176.267 96.7369 176.48 95.4036 176.48ZM95.4036 175.76C96.4169 175.76 97.2036 175.36 97.7636 174.56C98.3503 173.76 98.6436 172.293 98.6436 170.16C98.6436 168.027 98.3503 166.56 97.7636 165.76C97.2036 164.96 96.4169 164.56 95.4036 164.56C94.4169 164.56 93.6303 164.96 93.0436 165.76C92.4569 166.56 92.1636 168.027 92.1636 170.16C92.1636 172.293 92.4569 173.76 93.0436 174.56C93.6303 175.36 94.4169 175.76 95.4036 175.76ZM101.164 167.16L100.444 166.88C100.817 165.973 101.457 165.173 102.364 164.48C103.27 163.787 104.217 163.44 105.204 163.44C105.897 163.44 106.457 163.64 106.884 164.04C107.31 164.413 107.524 164.987 107.524 165.76C107.524 166.587 107.297 167.173 106.844 167.52C106.417 167.84 105.977 168 105.524 168C105.124 168 104.75 167.867 104.404 167.6C104.057 167.307 103.857 166.853 103.804 166.24C103.75 165.627 103.937 164.84 104.364 163.88L104.884 164C103.764 164.427 102.964 164.88 102.484 165.36C102.004 165.813 101.564 166.413 101.164 167.16Z" fill="black"/>
<path d="M118.306 163.84C120.652 163.84 122.479 164.56 123.786 166C125.119 167.413 125.786 169.627 125.786 172.64H111.666L111.626 171.88H121.946C121.999 170.573 121.892 169.373 121.626 168.28C121.359 167.16 120.932 166.267 120.346 165.6C119.786 164.933 119.052 164.6 118.146 164.6C116.919 164.6 115.826 165.213 114.866 166.44C113.932 167.667 113.372 169.613 113.186 172.28L113.306 172.44C113.252 172.84 113.212 173.28 113.186 173.76C113.159 174.24 113.146 174.72 113.146 175.2C113.146 177.013 113.439 178.573 114.026 179.88C114.612 181.187 115.372 182.187 116.306 182.88C117.266 183.547 118.252 183.88 119.266 183.88C120.066 183.88 120.826 183.76 121.546 183.52C122.266 183.253 122.932 182.827 123.546 182.24C124.159 181.653 124.692 180.867 125.146 179.88L125.946 180.2C125.652 181.08 125.172 181.933 124.506 182.76C123.839 183.587 122.999 184.267 121.986 184.8C120.972 185.307 119.799 185.56 118.466 185.56C116.546 185.56 114.892 185.12 113.506 184.24C112.146 183.36 111.092 182.147 110.346 180.6C109.626 179.027 109.266 177.227 109.266 175.2C109.266 172.853 109.639 170.84 110.386 169.16C111.132 167.453 112.186 166.147 113.546 165.24C114.906 164.307 116.492 163.84 118.306 163.84Z" fill="black"/>
<path d="M59.6547 205.76V212.44H65.5747V213.24H59.6547V228.72C59.6547 229.973 59.8814 230.853 60.3347 231.36C60.788 231.867 61.4147 232.12 62.2147 232.12C63.0147 232.12 63.708 231.8 64.2947 231.16C64.8814 230.493 65.388 229.387 65.8147 227.84L66.6147 228.04C66.348 229.587 65.8147 230.893 65.0147 231.96C64.2414 233.027 63.0414 233.56 61.4147 233.56C60.508 233.56 59.7614 233.44 59.1747 233.2C58.588 232.987 58.068 232.667 57.6147 232.24C57.028 231.627 56.6147 230.893 56.3747 230.04C56.1614 229.187 56.0547 228.053 56.0547 226.64V213.24H52.2147V212.44H56.0547V206.32C56.7214 206.293 57.3614 206.24 57.9747 206.16C58.588 206.08 59.148 205.947 59.6547 205.76Z" fill="black"/>
<path d="M73.6353 201.68V216.64C74.3286 214.827 75.2886 213.573 76.5153 212.88C77.7686 212.187 79.0753 211.84 80.4353 211.84C81.4486 211.84 82.2886 211.973 82.9553 212.24C83.6486 212.507 84.222 212.88 84.6753 213.36C85.182 213.893 85.542 214.56 85.7553 215.36C85.9686 216.16 86.0753 217.24 86.0753 218.6V229.28C86.0753 230.4 86.302 231.16 86.7553 231.56C87.2353 231.96 88.022 232.16 89.1153 232.16V233C88.662 232.973 87.9687 232.947 87.0353 232.92C86.102 232.867 85.1953 232.84 84.3153 232.84C83.4353 232.84 82.5687 232.867 81.7153 232.92C80.8887 232.947 80.262 232.973 79.8353 233V232.16C80.7953 232.16 81.4753 231.96 81.8753 231.56C82.2753 231.16 82.4753 230.4 82.4753 229.28V217.72C82.4753 216.893 82.4086 216.133 82.2753 215.44C82.142 214.747 81.8353 214.187 81.3553 213.76C80.902 213.333 80.1953 213.12 79.2353 213.12C78.142 213.12 77.1686 213.427 76.3153 214.04C75.4886 214.653 74.8353 215.507 74.3553 216.6C73.8753 217.693 73.6353 218.947 73.6353 220.36V229.28C73.6353 230.4 73.8353 231.16 74.2353 231.56C74.6353 231.96 75.3153 232.16 76.2753 232.16V233C75.8486 232.973 75.2086 232.947 74.3553 232.92C73.5286 232.867 72.6753 232.84 71.7953 232.84C70.9153 232.84 70.0086 232.867 69.0753 232.92C68.142 232.947 67.4486 232.973 66.9953 233V232.16C68.0886 232.16 68.862 231.96 69.3153 231.56C69.7953 231.16 70.0353 230.4 70.0353 229.28V206.48C70.0353 205.28 69.822 204.4 69.3953 203.84C68.9686 203.253 68.1686 202.96 66.9953 202.96V202.12C67.8486 202.2 68.6753 202.24 69.4753 202.24C70.2486 202.24 70.982 202.2 71.6753 202.12C72.3953 202.013 73.0486 201.867 73.6353 201.68Z" fill="black"/>
<path d="M100.591 211.84C102.938 211.84 104.764 212.56 106.071 214C107.404 215.413 108.071 217.627 108.071 220.64H93.9509L93.9109 219.88H104.231C104.284 218.573 104.178 217.373 103.911 216.28C103.644 215.16 103.218 214.267 102.631 213.6C102.071 212.933 101.338 212.6 100.431 212.6C99.2043 212.6 98.1109 213.213 97.1509 214.44C96.2176 215.667 95.6576 217.613 95.4709 220.28L95.5909 220.44C95.5376 220.84 95.4976 221.28 95.4709 221.76C95.4443 222.24 95.4309 222.72 95.4309 223.2C95.4309 225.013 95.7243 226.573 96.3109 227.88C96.8976 229.187 97.6576 230.187 98.5909 230.88C99.5509 231.547 100.538 231.88 101.551 231.88C102.351 231.88 103.111 231.76 103.831 231.52C104.551 231.253 105.218 230.827 105.831 230.24C106.444 229.653 106.978 228.867 107.431 227.88L108.231 228.2C107.938 229.08 107.458 229.933 106.791 230.76C106.124 231.587 105.284 232.267 104.271 232.8C103.258 233.307 102.084 233.56 100.751 233.56C98.8309 233.56 97.1776 233.12 95.7909 232.24C94.4309 231.36 93.3776 230.147 92.6309 228.6C91.9109 227.027 91.5509 225.227 91.5509 223.2C91.5509 220.853 91.9243 218.84 92.6709 217.16C93.4176 215.453 94.4709 214.147 95.8309 213.24C97.1909 212.307 98.7776 211.84 100.591 211.84Z" fill="black"/>
<path d="M19.7741 249.84C20.7074 249.84 21.5207 249.973 22.2141 250.24C22.9074 250.507 23.4807 250.88 23.9341 251.36C24.4407 251.893 24.7874 252.587 24.9741 253.44C25.1607 254.293 25.2541 255.347 25.2541 256.6V267.28C25.2541 268.4 25.4807 269.16 25.9341 269.56C26.4141 269.96 27.2007 270.16 28.2941 270.16V271C27.8407 270.973 27.1474 270.947 26.2141 270.92C25.2807 270.867 24.3741 270.84 23.4941 270.84C22.6141 270.84 21.7474 270.867 20.8941 270.92C20.0674 270.947 19.4407 270.973 19.0141 271V270.16C19.9741 270.16 20.6541 269.96 21.0541 269.56C21.4541 269.16 21.6541 268.4 21.6541 267.28V255.72C21.6541 254.893 21.6007 254.133 21.4941 253.44C21.3874 252.747 21.1207 252.187 20.6941 251.76C20.2674 251.333 19.5741 251.12 18.6141 251.12C17.5741 251.12 16.6407 251.44 15.8141 252.08C15.0141 252.72 14.3741 253.6 13.8941 254.72C13.4407 255.813 13.2141 257.04 13.2141 258.4V267.28C13.2141 268.4 13.4141 269.16 13.8141 269.56C14.2141 269.96 14.8941 270.16 15.8541 270.16V271C15.4274 270.973 14.7874 270.947 13.9341 270.92C13.1074 270.867 12.2541 270.84 11.3741 270.84C10.4941 270.84 9.5874 270.867 8.65406 270.92C7.72073 270.947 7.0274 270.973 6.57406 271V270.16C7.6674 270.16 8.44073 269.96 8.89406 269.56C9.37406 269.16 9.61406 268.4 9.61406 267.28V254.76C9.61406 253.56 9.40073 252.68 8.97406 252.12C8.5474 251.533 7.7474 251.24 6.57406 251.24V250.4C7.4274 250.48 8.25406 250.52 9.05406 250.52C9.8274 250.52 10.5607 250.48 11.2541 250.4C11.9741 250.293 12.6274 250.147 13.2141 249.96V254.68C13.9074 252.947 14.8541 251.707 16.0541 250.96C17.2541 250.213 18.4941 249.84 19.7741 249.84ZM31.8141 249.84C32.7474 249.84 33.5607 249.973 34.2541 250.24C34.9474 250.507 35.5207 250.88 35.9741 251.36C36.4807 251.893 36.8274 252.587 37.0141 253.44C37.2007 254.293 37.2941 255.347 37.2941 256.6V267.28C37.2941 268.4 37.5207 269.16 37.9741 269.56C38.4541 269.96 39.2407 270.16 40.3341 270.16V271C39.8807 270.973 39.1874 270.947 38.2541 270.92C37.3207 270.867 36.4141 270.84 35.5341 270.84C34.6541 270.84 33.7874 270.867 32.9341 270.92C32.1074 270.947 31.4807 270.973 31.0541 271V270.16C32.0141 270.16 32.6941 269.96 33.0941 269.56C33.4941 269.16 33.6941 268.4 33.6941 267.28V255.72C33.6941 254.893 33.6407 254.133 33.5341 253.44C33.4274 252.747 33.1607 252.187 32.7341 251.76C32.3074 251.333 31.6141 251.12 30.6541 251.12C29.6141 251.12 28.6807 251.44 27.8541 252.08C27.0541 252.72 26.4141 253.587 25.9341 254.68C25.4807 255.773 25.2541 257 25.2541 258.36L25.1341 254.64C25.8541 252.8 26.8274 251.547 28.0541 250.88C29.2807 250.187 30.5341 249.84 31.8141 249.84Z" fill="black"/>
<path d="M51.8819 249.84C53.5885 249.84 55.1219 250.213 56.4819 250.96C57.8419 251.707 58.9219 252.88 59.7219 254.48C60.5485 256.08 60.9619 258.16 60.9619 260.72C60.9619 263.28 60.5485 265.36 59.7219 266.96C58.9219 268.533 57.8419 269.693 56.4819 270.44C55.1219 271.187 53.5885 271.56 51.8819 271.56C50.2019 271.56 48.6685 271.187 47.2819 270.44C45.9219 269.693 44.8285 268.533 44.0019 266.96C43.2019 265.36 42.8019 263.28 42.8019 260.72C42.8019 258.16 43.2019 256.08 44.0019 254.48C44.8285 252.88 45.9219 251.707 47.2819 250.96C48.6685 250.213 50.2019 249.84 51.8819 249.84ZM51.8819 250.64C50.3619 250.64 49.1085 251.427 48.1219 253C47.1619 254.573 46.6819 257.147 46.6819 260.72C46.6819 264.293 47.1619 266.867 48.1219 268.44C49.1085 269.987 50.3619 270.76 51.8819 270.76C53.4019 270.76 54.6419 269.987 55.6019 268.44C56.5885 266.867 57.0819 264.293 57.0819 260.72C57.0819 257.147 56.5885 254.573 55.6019 253C54.6419 251.427 53.4019 250.64 51.8819 250.64Z" fill="black"/>
<path d="M77.1959 249.84C78.1293 249.84 78.9426 249.973 79.6359 250.24C80.3293 250.507 80.9026 250.88 81.3559 251.36C81.8626 251.893 82.2093 252.587 82.3959 253.44C82.5826 254.293 82.6759 255.347 82.6759 256.6V267.28C82.6759 268.4 82.9026 269.16 83.3559 269.56C83.8359 269.96 84.6226 270.16 85.7159 270.16V271C85.2626 270.973 84.5693 270.947 83.6359 270.92C82.7026 270.867 81.7959 270.84 80.9159 270.84C80.0359 270.84 79.1693 270.867 78.3159 270.92C77.4893 270.947 76.8626 270.973 76.4359 271V270.16C77.3959 270.16 78.0759 269.96 78.4759 269.56C78.8759 269.16 79.0759 268.4 79.0759 267.28V255.72C79.0759 254.893 79.0226 254.133 78.9159 253.44C78.8093 252.747 78.5426 252.187 78.1159 251.76C77.6893 251.333 76.9959 251.12 76.0359 251.12C74.9959 251.12 74.0626 251.44 73.2359 252.08C72.4359 252.72 71.7959 253.6 71.3159 254.72C70.8626 255.813 70.6359 257.04 70.6359 258.4V267.28C70.6359 268.4 70.8359 269.16 71.2359 269.56C71.6359 269.96 72.3159 270.16 73.2759 270.16V271C72.8493 270.973 72.2093 270.947 71.3559 270.92C70.5293 270.867 69.6759 270.84 68.7959 270.84C67.9159 270.84 67.0093 270.867 66.0759 270.92C65.1426 270.947 64.4493 270.973 63.9959 271V270.16C65.0893 270.16 65.8626 269.96 66.3159 269.56C66.7959 269.16 67.0359 268.4 67.0359 267.28V254.76C67.0359 253.56 66.8226 252.68 66.3959 252.12C65.9693 251.533 65.1693 251.24 63.9959 251.24V250.4C64.8493 250.48 65.6759 250.52 66.4759 250.52C67.2493 250.52 67.9826 250.48 68.6759 250.4C69.3959 250.293 70.0493 250.147 70.6359 249.96V254.68C71.3293 252.947 72.2759 251.707 73.4759 250.96C74.6759 250.213 75.9159 249.84 77.1959 249.84ZM89.2359 249.84C90.1693 249.84 90.9826 249.973 91.6759 250.24C92.3693 250.507 92.9426 250.88 93.3959 251.36C93.9026 251.893 94.2493 252.587 94.4359 253.44C94.6226 254.293 94.7159 255.347 94.7159 256.6V267.28C94.7159 268.4 94.9426 269.16 95.3959 269.56C95.8759 269.96 96.6626 270.16 97.7559 270.16V271C97.3026 270.973 96.6093 270.947 95.6759 270.92C94.7426 270.867 93.8359 270.84 92.9559 270.84C92.0759 270.84 91.2093 270.867 90.3559 270.92C89.5293 270.947 88.9026 270.973 88.4759 271V270.16C89.4359 270.16 90.1159 269.96 90.5159 269.56C90.9159 269.16 91.1159 268.4 91.1159 267.28V255.72C91.1159 254.893 91.0626 254.133 90.9559 253.44C90.8493 252.747 90.5826 252.187 90.1559 251.76C89.7293 251.333 89.0359 251.12 88.0759 251.12C87.0359 251.12 86.1026 251.44 85.2759 252.08C84.4759 252.72 83.8359 253.587 83.3559 254.68C82.9026 255.773 82.6759 257 82.6759 258.36L82.5559 254.64C83.2759 252.8 84.2493 251.547 85.4759 250.88C86.7026 250.187 87.9559 249.84 89.2359 249.84Z" fill="black"/>
<path d="M109.224 249.84C111.57 249.84 113.397 250.56 114.704 252C116.037 253.413 116.704 255.627 116.704 258.64H102.584L102.544 257.88H112.864C112.917 256.573 112.81 255.373 112.544 254.28C112.277 253.16 111.85 252.267 111.264 251.6C110.704 250.933 109.97 250.6 109.064 250.6C107.837 250.6 106.744 251.213 105.784 252.44C104.85 253.667 104.29 255.613 104.104 258.28L104.224 258.44C104.17 258.84 104.13 259.28 104.104 259.76C104.077 260.24 104.064 260.72 104.064 261.2C104.064 263.013 104.357 264.573 104.944 265.88C105.53 267.187 106.29 268.187 107.224 268.88C108.184 269.547 109.17 269.88 110.184 269.88C110.984 269.88 111.744 269.76 112.464 269.52C113.184 269.253 113.85 268.827 114.464 268.24C115.077 267.653 115.61 266.867 116.064 265.88L116.864 266.2C116.57 267.08 116.09 267.933 115.424 268.76C114.757 269.587 113.917 270.267 112.904 270.8C111.89 271.307 110.717 271.56 109.384 271.56C107.464 271.56 105.81 271.12 104.424 270.24C103.064 269.36 102.01 268.147 101.264 266.6C100.544 265.027 100.184 263.227 100.184 261.2C100.184 258.853 100.557 256.84 101.304 255.16C102.05 253.453 103.104 252.147 104.464 251.24C105.824 250.307 107.41 249.84 109.224 249.84Z" fill="black"/>
<path d="M133.178 249.84C134.191 249.84 135.031 249.973 135.698 250.24C136.391 250.507 136.965 250.88 137.418 251.36C137.925 251.893 138.285 252.56 138.498 253.36C138.711 254.16 138.818 255.24 138.818 256.6V267.28C138.818 268.4 139.045 269.16 139.498 269.56C139.978 269.96 140.765 270.16 141.858 270.16V271C141.405 270.973 140.711 270.947 139.778 270.92C138.845 270.867 137.938 270.84 137.058 270.84C136.178 270.84 135.311 270.867 134.458 270.92C133.631 270.947 133.005 270.973 132.578 271V270.16C133.538 270.16 134.218 269.96 134.618 269.56C135.018 269.16 135.218 268.4 135.218 267.28V255.72C135.218 254.893 135.151 254.133 135.018 253.44C134.885 252.747 134.578 252.187 134.098 251.76C133.645 251.333 132.938 251.12 131.978 251.12C130.858 251.12 129.871 251.44 129.018 252.08C128.191 252.72 127.538 253.6 127.058 254.72C126.605 255.813 126.378 257.04 126.378 258.4V267.28C126.378 268.4 126.578 269.16 126.978 269.56C127.378 269.96 128.058 270.16 129.018 270.16V271C128.591 270.973 127.951 270.947 127.098 270.92C126.271 270.867 125.418 270.84 124.538 270.84C123.658 270.84 122.751 270.867 121.818 270.92C120.885 270.947 120.191 270.973 119.738 271V270.16C120.831 270.16 121.605 269.96 122.058 269.56C122.538 269.16 122.778 268.4 122.778 267.28V254.76C122.778 253.56 122.565 252.68 122.138 252.12C121.711 251.533 120.911 251.24 119.738 251.24V250.4C120.591 250.48 121.418 250.52 122.218 250.52C122.991 250.52 123.725 250.48 124.418 250.4C125.138 250.293 125.791 250.147 126.378 249.96V254.68C127.071 252.867 128.031 251.613 129.258 250.92C130.511 250.2 131.818 249.84 133.178 249.84Z" fill="black"/>
<path d="M150.045 243.76V250.44H155.965V251.24H150.045V266.72C150.045 267.973 150.272 268.853 150.725 269.36C151.179 269.867 151.805 270.12 152.605 270.12C153.405 270.12 154.099 269.8 154.685 269.16C155.272 268.493 155.779 267.387 156.205 265.84L157.005 266.04C156.739 267.587 156.205 268.893 155.405 269.96C154.632 271.027 153.432 271.56 151.805 271.56C150.899 271.56 150.152 271.44 149.565 271.2C148.979 270.987 148.459 270.667 148.005 270.24C147.419 269.627 147.005 268.893 146.765 268.04C146.552 267.187 146.445 266.053 146.445 264.64V251.24H142.605V250.44H146.445V244.32C147.112 244.293 147.752 244.24 148.365 244.16C148.979 244.08 149.539 243.947 150.045 243.76Z" fill="black"/>
<path d="M86.1027 286.68V287.48C85.196 287.507 84.5027 287.613 84.0227 287.8C83.5693 287.96 83.2627 288.28 83.1027 288.76C82.9427 289.213 82.8627 289.933 82.8627 290.92V310.76C82.8627 311.72 82.9427 312.44 83.1027 312.92C83.2627 313.4 83.5693 313.72 84.0227 313.88C84.5027 314.04 85.196 314.147 86.1027 314.2V315C85.4893 314.947 84.716 314.92 83.7827 314.92C82.876 314.893 81.956 314.88 81.0227 314.88C79.9827 314.88 79.0093 314.893 78.1027 314.92C77.196 314.92 76.4627 314.947 75.9027 315V314.2C76.8093 314.147 77.4893 314.04 77.9427 313.88C78.4227 313.72 78.7427 313.4 78.9027 312.92C79.0627 312.44 79.1427 311.72 79.1427 310.76V290.92C79.1427 289.933 79.0627 289.213 78.9027 288.76C78.7427 288.28 78.4227 287.96 77.9427 287.8C77.4893 287.613 76.8093 287.507 75.9027 287.48V286.68C76.4627 286.707 77.196 286.733 78.1027 286.76C79.0093 286.787 79.9827 286.8 81.0227 286.8C81.956 286.8 82.876 286.787 83.7827 286.76C84.716 286.733 85.4893 286.707 86.1027 286.68Z" fill="black"/>
<path d="M23.1742 337.84C23.8942 337.84 24.5209 337.987 25.0542 338.28C25.6142 338.573 26.0409 338.96 26.3342 339.44C26.6542 339.893 26.8142 340.413 26.8142 341C26.8142 341.667 26.6009 342.253 26.1742 342.76C25.7742 343.267 25.2276 343.52 24.5342 343.52C23.9742 343.52 23.4809 343.347 23.0542 343C22.6276 342.627 22.4142 342.107 22.4142 341.44C22.4142 340.933 22.5476 340.507 22.8142 340.16C23.1076 339.787 23.4276 339.493 23.7742 339.28C23.5876 339.013 23.3076 338.88 22.9342 338.88C22.1076 338.88 21.3476 339.133 20.6542 339.64C19.9609 340.12 19.3742 340.747 18.8942 341.52C18.4142 342.293 18.0409 343.12 17.7742 344C17.5076 344.853 17.3742 345.653 17.3742 346.4V354.88C17.3742 356.187 17.7476 357.067 18.4942 357.52C19.2676 357.947 20.3076 358.16 21.6142 358.16V359C21.0009 358.973 20.1342 358.947 19.0142 358.92C17.8942 358.867 16.7076 358.84 15.4542 358.84C14.5476 358.84 13.6409 358.867 12.7342 358.92C11.8542 358.947 11.1876 358.973 10.7342 359V358.16C11.8276 358.16 12.6009 357.96 13.0542 357.56C13.5342 357.16 13.7742 356.4 13.7742 355.28V342.76C13.7742 341.56 13.5609 340.68 13.1342 340.12C12.7076 339.533 11.9076 339.24 10.7342 339.24V338.4C11.5876 338.48 12.4142 338.52 13.2142 338.52C13.9876 338.52 14.7209 338.48 15.4142 338.4C16.1342 338.293 16.7876 338.147 17.3742 337.96V342.96C17.6676 342.187 18.0809 341.413 18.6142 340.64C19.1742 339.84 19.8409 339.173 20.6142 338.64C21.3876 338.107 22.2409 337.84 23.1742 337.84Z" fill="black"/>
<path d="M37.4855 337.84C39.8321 337.84 41.6588 338.56 42.9655 340C44.2988 341.413 44.9655 343.627 44.9655 346.64H30.8455L30.8055 345.88H41.1255C41.1788 344.573 41.0721 343.373 40.8055 342.28C40.5388 341.16 40.1121 340.267 39.5255 339.6C38.9655 338.933 38.2321 338.6 37.3255 338.6C36.0988 338.6 35.0055 339.213 34.0455 340.44C33.1121 341.667 32.5521 343.613 32.3655 346.28L32.4855 346.44C32.4321 346.84 32.3921 347.28 32.3655 347.76C32.3388 348.24 32.3255 348.72 32.3255 349.2C32.3255 351.013 32.6188 352.573 33.2055 353.88C33.7921 355.187 34.5521 356.187 35.4855 356.88C36.4455 357.547 37.4321 357.88 38.4455 357.88C39.2455 357.88 40.0055 357.76 40.7255 357.52C41.4455 357.253 42.1121 356.827 42.7255 356.24C43.3388 355.653 43.8721 354.867 44.3255 353.88L45.1255 354.2C44.8321 355.08 44.3521 355.933 43.6855 356.76C43.0188 357.587 42.1788 358.267 41.1655 358.8C40.1521 359.307 38.9788 359.56 37.6455 359.56C35.7255 359.56 34.0721 359.12 32.6855 358.24C31.3255 357.36 30.2721 356.147 29.5255 354.6C28.8055 353.027 28.4455 351.227 28.4455 349.2C28.4455 346.853 28.8188 344.84 29.5655 343.16C30.3121 341.453 31.3655 340.147 32.7255 339.24C34.0855 338.307 35.6721 337.84 37.4855 337.84Z" fill="black"/>
<path d="M53.6798 359.28C52.5865 359.28 51.6398 359.08 50.8398 358.68C50.0398 358.253 49.4265 357.667 48.9998 356.92C48.5998 356.173 48.3998 355.307 48.3998 354.32C48.3998 353.147 48.6665 352.187 49.1998 351.44C49.7598 350.693 50.4665 350.093 51.3198 349.64C52.1732 349.187 53.0665 348.813 53.9998 348.52C54.9598 348.2 55.8665 347.907 56.7198 347.64C57.5732 347.347 58.2665 347.013 58.7998 346.64C59.3598 346.267 59.6398 345.773 59.6398 345.16V342.68C59.6398 341.56 59.4665 340.707 59.1198 340.12C58.7998 339.533 58.3598 339.147 57.7998 338.96C57.2398 338.747 56.6132 338.64 55.9198 338.64C55.2532 338.64 54.5332 338.733 53.7598 338.92C53.0132 339.107 52.4132 339.493 51.9598 340.08C52.4665 340.187 52.9065 340.453 53.2798 340.88C53.6532 341.307 53.8398 341.853 53.8398 342.52C53.8398 343.187 53.6265 343.72 53.1998 344.12C52.7732 344.493 52.2265 344.68 51.5598 344.68C50.7865 344.68 50.2132 344.44 49.8398 343.96C49.4932 343.453 49.3198 342.893 49.3198 342.28C49.3198 341.587 49.4932 341.027 49.8398 340.6C50.1865 340.173 50.6265 339.773 51.1598 339.4C51.7732 338.973 52.5598 338.613 53.5198 338.32C54.5065 338 55.6132 337.84 56.8398 337.84C57.9332 337.84 58.8665 337.973 59.6398 338.24C60.4132 338.48 61.0532 338.84 61.5598 339.32C62.2532 339.96 62.7065 340.747 62.9198 341.68C63.1332 342.587 63.2398 343.68 63.2398 344.96V356.08C63.2398 356.747 63.3332 357.227 63.5198 357.52C63.7332 357.813 64.0532 357.96 64.4798 357.96C64.7732 357.96 65.0532 357.893 65.3198 357.76C65.5865 357.627 65.9065 357.413 66.2798 357.12L66.7198 357.8C66.1598 358.227 65.6265 358.587 65.1198 358.88C64.6132 359.147 63.9332 359.28 63.0798 359.28C62.3065 359.28 61.6665 359.147 61.1598 358.88C60.6532 358.613 60.2665 358.227 59.9998 357.72C59.7598 357.187 59.6398 356.52 59.6398 355.72C58.9198 356.92 58.0532 357.813 57.0398 358.4C56.0532 358.987 54.9332 359.28 53.6798 359.28ZM55.1198 357.68C55.9998 357.68 56.8132 357.427 57.5598 356.92C58.3332 356.413 59.0265 355.653 59.6398 354.64V346.8C59.3198 347.253 58.8532 347.64 58.2398 347.96C57.6265 348.253 56.9598 348.56 56.2398 348.88C55.5198 349.173 54.8265 349.533 54.1598 349.96C53.5198 350.36 52.9865 350.893 52.5598 351.56C52.1332 352.227 51.9198 353.093 51.9198 354.16C51.9198 355.227 52.1998 356.08 52.7598 356.72C53.3465 357.36 54.1332 357.68 55.1198 357.68Z" fill="black"/>
<path d="M74.2817 327.64V355.28C74.2817 356.4 74.5084 357.16 74.9617 357.56C75.4417 357.96 76.2284 358.16 77.3217 358.16V359C76.8684 358.973 76.1751 358.947 75.2417 358.92C74.3351 358.867 73.4151 358.84 72.4817 358.84C71.5751 358.84 70.6551 358.867 69.7217 358.92C68.7884 358.947 68.095 358.973 67.6417 359V358.16C68.735 358.16 69.5084 357.96 69.9617 357.56C70.4417 357.16 70.6817 356.4 70.6817 355.28V332.44C70.6817 331.24 70.4684 330.36 70.0417 329.8C69.6151 329.213 68.815 328.92 67.6417 328.92V328.08C68.495 328.16 69.3217 328.2 70.1217 328.2C70.8951 328.2 71.6284 328.16 72.3217 328.08C73.0417 327.973 73.695 327.827 74.2817 327.64Z" fill="black"/>
<path d="M83.927 328.4C84.6204 328.4 85.2204 328.653 85.727 329.16C86.2337 329.667 86.487 330.267 86.487 330.96C86.487 331.653 86.2337 332.253 85.727 332.76C85.2204 333.267 84.6204 333.52 83.927 333.52C83.2337 333.52 82.6337 333.267 82.127 332.76C81.6204 332.253 81.367 331.653 81.367 330.96C81.367 330.267 81.6204 329.667 82.127 329.16C82.6337 328.653 83.2337 328.4 83.927 328.4ZM86.007 337.96V355.28C86.007 356.4 86.2337 357.16 86.687 357.56C87.167 357.96 87.9537 358.16 89.047 358.16V359C88.5937 358.973 87.9004 358.947 86.967 358.92C86.0604 358.867 85.1404 358.84 84.207 358.84C83.3004 358.84 82.3804 358.867 81.447 358.92C80.5137 358.947 79.8204 358.973 79.367 359V358.16C80.4604 358.16 81.2337 357.96 81.687 357.56C82.167 357.16 82.407 356.4 82.407 355.28V342.76C82.407 341.56 82.1937 340.68 81.767 340.12C81.3404 339.533 80.5404 339.24 79.367 339.24V338.4C80.2204 338.48 81.047 338.52 81.847 338.52C82.6204 338.52 83.3537 338.48 84.047 338.4C84.767 338.293 85.4204 338.147 86.007 337.96Z" fill="black"/>
<path d="M107.486 338.2L95.9258 358.4H100.326C101.392 358.4 102.312 358.187 103.086 357.76C103.886 357.333 104.526 356.653 105.006 355.72C105.486 354.76 105.779 353.507 105.886 351.96H106.806C106.806 353.667 106.819 355.107 106.846 356.28C106.872 357.453 106.912 358.413 106.966 359.16C105.792 359.107 104.566 359.067 103.286 359.04C102.032 359.013 100.779 359 99.5258 359C98.1924 359 96.8325 359.013 95.4458 359.04C94.0591 359.093 92.7258 359.147 91.4458 359.2L103.006 339H98.6058C97.4324 339 96.4458 339.213 95.6458 339.64C94.8724 340.067 94.2724 340.76 93.8458 341.72C93.4458 342.653 93.1791 343.893 93.0458 345.44H92.1258C92.1258 343.707 92.1125 342.267 92.0858 341.12C92.0591 339.947 92.0191 338.987 91.9658 338.24C93.1391 338.293 94.3524 338.333 95.6058 338.36C96.8858 338.387 98.1525 338.4 99.4058 338.4C100.739 338.4 102.099 338.387 103.486 338.36C104.872 338.307 106.206 338.253 107.486 338.2Z" fill="black"/>
<path d="M119.829 337.84C122.176 337.84 124.003 338.56 125.309 340C126.643 341.413 127.309 343.627 127.309 346.64H113.189L113.149 345.88H123.469C123.523 344.573 123.416 343.373 123.149 342.28C122.883 341.16 122.456 340.267 121.869 339.6C121.309 338.933 120.576 338.6 119.669 338.6C118.443 338.6 117.349 339.213 116.389 340.44C115.456 341.667 114.896 343.613 114.709 346.28L114.829 346.44C114.776 346.84 114.736 347.28 114.709 347.76C114.683 348.24 114.669 348.72 114.669 349.2C114.669 351.013 114.963 352.573 115.549 353.88C116.136 355.187 116.896 356.187 117.829 356.88C118.789 357.547 119.776 357.88 120.789 357.88C121.589 357.88 122.349 357.76 123.069 357.52C123.789 357.253 124.456 356.827 125.069 356.24C125.683 355.653 126.216 354.867 126.669 353.88L127.469 354.2C127.176 355.08 126.696 355.933 126.029 356.76C125.363 357.587 124.523 358.267 123.509 358.8C122.496 359.307 121.323 359.56 119.989 359.56C118.069 359.56 116.416 359.12 115.029 358.24C113.669 357.36 112.616 356.147 111.869 354.6C111.149 353.027 110.789 351.227 110.789 349.2C110.789 346.853 111.163 344.84 111.909 343.16C112.656 341.453 113.709 340.147 115.069 339.24C116.429 338.307 118.016 337.84 119.829 337.84Z" fill="black"/>
<path d="M148.544 327.64V354.64C148.544 355.84 148.757 356.733 149.184 357.32C149.637 357.88 150.437 358.16 151.584 358.16V359C150.757 358.92 149.93 358.88 149.104 358.88C148.33 358.88 147.584 358.92 146.864 359C146.17 359.08 145.53 359.227 144.944 359.44V332.44C144.944 331.24 144.73 330.36 144.304 329.8C143.877 329.213 143.077 328.92 141.904 328.92V328.08C142.757 328.16 143.584 328.2 144.384 328.2C145.157 328.2 145.89 328.16 146.584 328.08C147.304 327.973 147.957 327.827 148.544 327.64ZM140.144 337.84C141.317 337.84 142.41 338.12 143.424 338.68C144.464 339.24 145.157 340.2 145.504 341.56L144.984 341.96C144.61 340.84 144.024 340.027 143.224 339.52C142.45 339.013 141.53 338.76 140.464 338.76C138.89 338.76 137.57 339.573 136.504 341.2C135.464 342.827 134.957 345.333 134.984 348.72C134.984 350.88 135.184 352.68 135.584 354.12C136.01 355.533 136.624 356.6 137.424 357.32C138.25 358.013 139.25 358.36 140.424 358.36C141.544 358.36 142.557 357.88 143.464 356.92C144.37 355.96 144.917 354.547 145.104 352.68L145.584 353.24C145.37 355.267 144.717 356.827 143.624 357.92C142.557 359.013 141.104 359.56 139.264 359.56C137.61 359.56 136.157 359.16 134.904 358.36C133.677 357.56 132.73 356.36 132.064 354.76C131.424 353.16 131.104 351.147 131.104 348.72C131.104 346.293 131.517 344.28 132.344 342.68C133.197 341.053 134.304 339.84 135.664 339.04C137.05 338.24 138.544 337.84 140.144 337.84Z" fill="black"/>
<path d="M86.1027 374.68V375.48C85.196 375.507 84.5027 375.613 84.0227 375.8C83.5693 375.96 83.2627 376.28 83.1027 376.76C82.9427 377.213 82.8627 377.933 82.8627 378.92V398.76C82.8627 399.72 82.9427 400.44 83.1027 400.92C83.2627 401.4 83.5693 401.72 84.0227 401.88C84.5027 402.04 85.196 402.147 86.1027 402.2V403C85.4893 402.947 84.716 402.92 83.7827 402.92C82.876 402.893 81.956 402.88 81.0227 402.88C79.9827 402.88 79.0093 402.893 78.1027 402.92C77.196 402.92 76.4627 402.947 75.9027 403V402.2C76.8093 402.147 77.4893 402.04 77.9427 401.88C78.4227 401.72 78.7427 401.4 78.9027 400.92C79.0627 400.44 79.1427 399.72 79.1427 398.76V378.92C79.1427 377.933 79.0627 377.213 78.9027 376.76C78.7427 376.28 78.4227 375.96 77.9427 375.8C77.4893 375.613 76.8093 375.507 75.9027 375.48V374.68C76.4627 374.707 77.196 374.733 78.1027 374.76C79.0093 374.787 79.9827 374.8 81.0227 374.8C81.956 374.8 82.876 374.787 83.7827 374.76C84.716 374.733 85.4893 374.707 86.1027 374.68Z" fill="black"/>
<path d="M40.8247 408.64V436.28C40.8247 437.4 41.0514 438.16 41.5047 438.56C41.9847 438.96 42.7714 439.16 43.8647 439.16V440C43.4114 439.973 42.718 439.947 41.7847 439.92C40.878 439.867 39.958 439.84 39.0247 439.84C38.118 439.84 37.198 439.867 36.2647 439.92C35.3314 439.947 34.638 439.973 34.1847 440V439.16C35.278 439.16 36.0514 438.96 36.5047 438.56C36.9847 438.16 37.2247 437.4 37.2247 436.28V413.44C37.2247 412.24 37.0114 411.36 36.5847 410.8C36.158 410.213 35.358 409.92 34.1847 409.92V409.08C35.038 409.16 35.8647 409.2 36.6647 409.2C37.438 409.2 38.1714 409.16 38.8647 409.08C39.5847 408.973 40.238 408.827 40.8247 408.64Z" fill="black"/>
<path d="M55.3194 418.84C57.026 418.84 58.5594 419.213 59.9194 419.96C61.2794 420.707 62.3594 421.88 63.1594 423.48C63.986 425.08 64.3994 427.16 64.3994 429.72C64.3994 432.28 63.986 434.36 63.1594 435.96C62.3594 437.533 61.2794 438.693 59.9194 439.44C58.5594 440.187 57.026 440.56 55.3194 440.56C53.6394 440.56 52.106 440.187 50.7194 439.44C49.3594 438.693 48.266 437.533 47.4394 435.96C46.6394 434.36 46.2394 432.28 46.2394 429.72C46.2394 427.16 46.6394 425.08 47.4394 423.48C48.266 421.88 49.3594 420.707 50.7194 419.96C52.106 419.213 53.6394 418.84 55.3194 418.84ZM55.3194 419.64C53.7994 419.64 52.546 420.427 51.5594 422C50.5994 423.573 50.1194 426.147 50.1194 429.72C50.1194 433.293 50.5994 435.867 51.5594 437.44C52.546 438.987 53.7994 439.76 55.3194 439.76C56.8394 439.76 58.0794 438.987 59.0394 437.44C60.026 435.867 60.5194 433.293 60.5194 429.72C60.5194 426.147 60.026 423.573 59.0394 422C58.0794 420.427 56.8394 419.64 55.3194 419.64Z" fill="black"/>
<path d="M85.44 419.4V420.2C84.9333 420.253 84.4667 420.48 84.04 420.88C83.6133 421.28 83.2133 421.987 82.84 423L76.28 440.2C76.1733 440.2 76.0667 440.2 75.96 440.2C75.8533 440.2 75.7333 440.2 75.6 440.2L68.24 422.48C67.8133 421.44 67.3867 420.813 66.96 420.6C66.56 420.36 66.2133 420.24 65.92 420.24V419.4C66.4533 419.427 67 419.467 67.56 419.52C68.1467 419.547 68.7733 419.56 69.44 419.56C70.2667 419.56 71.1333 419.547 72.04 419.52C72.9733 419.493 73.84 419.453 74.64 419.4V420.24C73.9733 420.24 73.3733 420.293 72.84 420.4C72.3333 420.48 72 420.733 71.84 421.16C71.7067 421.587 71.84 422.32 72.24 423.36L77.24 435.72L77 435.92L81.56 423.96C81.9067 423.08 82.04 422.387 81.96 421.88C81.9067 421.347 81.64 420.947 81.16 420.68C80.7067 420.413 80 420.253 79.04 420.2V419.4C79.52 419.427 79.9333 419.453 80.28 419.48C80.6267 419.48 80.96 419.493 81.28 419.52C81.6267 419.52 82 419.52 82.4 419.52C83.0133 419.52 83.56 419.507 84.04 419.48C84.5467 419.453 85.0133 419.427 85.44 419.4Z" fill="black"/>
<path d="M96.0987 418.84C98.4454 418.84 100.272 419.56 101.579 421C102.912 422.413 103.579 424.627 103.579 427.64H89.4587L89.4187 426.88H99.7387C99.7921 425.573 99.6854 424.373 99.4187 423.28C99.1521 422.16 98.7254 421.267 98.1387 420.6C97.5787 419.933 96.8454 419.6 95.9388 419.6C94.7121 419.6 93.6188 420.213 92.6588 421.44C91.7254 422.667 91.1654 424.613 90.9788 427.28L91.0987 427.44C91.0454 427.84 91.0054 428.28 90.9788 428.76C90.9521 429.24 90.9388 429.72 90.9388 430.2C90.9388 432.013 91.2321 433.573 91.8187 434.88C92.4054 436.187 93.1654 437.187 94.0987 437.88C95.0587 438.547 96.0454 438.88 97.0587 438.88C97.8587 438.88 98.6188 438.76 99.3388 438.52C100.059 438.253 100.725 437.827 101.339 437.24C101.952 436.653 102.485 435.867 102.939 434.88L103.739 435.2C103.445 436.08 102.965 436.933 102.299 437.76C101.632 438.587 100.792 439.267 99.7787 439.8C98.7654 440.307 97.5921 440.56 96.2588 440.56C94.3388 440.56 92.6854 440.12 91.2988 439.24C89.9388 438.36 88.8854 437.147 88.1387 435.6C87.4187 434.027 87.0587 432.227 87.0587 430.2C87.0587 427.853 87.4321 425.84 88.1787 424.16C88.9254 422.453 89.9788 421.147 91.3388 420.24C92.6988 419.307 94.2854 418.84 96.0987 418.84Z" fill="black"/>
<path d="M124.813 408.64V435.64C124.813 436.84 125.026 437.733 125.453 438.32C125.906 438.88 126.706 439.16 127.853 439.16V440C127.026 439.92 126.2 439.88 125.373 439.88C124.6 439.88 123.853 439.92 123.133 440C122.44 440.08 121.8 440.227 121.213 440.44V413.44C121.213 412.24 121 411.36 120.573 410.8C120.146 410.213 119.346 409.92 118.173 409.92V409.08C119.026 409.16 119.853 409.2 120.653 409.2C121.426 409.2 122.16 409.16 122.853 409.08C123.573 408.973 124.226 408.827 124.813 408.64ZM116.413 418.84C117.586 418.84 118.68 419.12 119.693 419.68C120.733 420.24 121.426 421.2 121.773 422.56L121.253 422.96C120.88 421.84 120.293 421.027 119.493 420.52C118.72 420.013 117.8 419.76 116.733 419.76C115.16 419.76 113.84 420.573 112.773 422.2C111.733 423.827 111.226 426.333 111.253 429.72C111.253 431.88 111.453 433.68 111.853 435.12C112.28 436.533 112.893 437.6 113.693 438.32C114.52 439.013 115.52 439.36 116.693 439.36C117.813 439.36 118.826 438.88 119.733 437.92C120.64 436.96 121.186 435.547 121.373 433.68L121.853 434.24C121.64 436.267 120.986 437.827 119.893 438.92C118.826 440.013 117.373 440.56 115.533 440.56C113.88 440.56 112.426 440.16 111.173 439.36C109.946 438.56 109 437.36 108.333 435.76C107.693 434.16 107.373 432.147 107.373 429.72C107.373 427.293 107.786 425.28 108.613 423.68C109.466 422.053 110.573 420.84 111.933 420.04C113.32 419.24 114.813 418.84 116.413 418.84Z" fill="black"/>
<path d="M68.2795 465.4V466.2C67.7729 466.253 67.3062 466.48 66.8795 466.88C66.4529 467.28 66.0529 467.987 65.6795 469L59.1195 486.2H58.4395L51.0795 468.48C50.5729 467.44 50.0662 466.813 49.5595 466.6C49.0795 466.36 48.6795 466.24 48.3595 466.24V465.4C48.9462 465.48 49.5595 465.547 50.1995 465.6C50.8395 465.627 51.5329 465.64 52.2795 465.64C53.1062 465.64 53.9729 465.613 54.8795 465.56C55.8129 465.507 56.6795 465.453 57.4795 465.4V466.24C56.8129 466.24 56.2129 466.293 55.6795 466.4C55.1729 466.48 54.8529 466.76 54.7195 467.24C54.5862 467.693 54.7462 468.48 55.1995 469.6L60.1195 481.8L59.8795 481.88L64.4395 469.96C64.7862 469.08 64.9195 468.387 64.8395 467.88C64.7862 467.347 64.5195 466.947 64.0395 466.68C63.5595 466.413 62.8395 466.253 61.8795 466.2V465.4C62.3595 465.427 62.7729 465.453 63.1195 465.48C63.4662 465.48 63.7995 465.493 64.1195 465.52C64.4662 465.52 64.8395 465.52 65.2395 465.52C65.8529 465.52 66.3995 465.507 66.8795 465.48C67.3862 465.453 67.8529 465.427 68.2795 465.4ZM59.1195 486.2L57.7595 489.68C57.4929 490.347 57.2129 490.907 56.9195 491.36C56.6529 491.813 56.3595 492.187 56.0395 492.48C55.6129 492.88 55.1062 493.147 54.5195 493.28C53.9329 493.44 53.3995 493.52 52.9195 493.52C52.4129 493.52 51.9462 493.427 51.5195 493.24C51.1195 493.053 50.7995 492.773 50.5595 492.4C50.3195 492.053 50.1995 491.627 50.1995 491.12C50.1995 490.48 50.3862 489.96 50.7595 489.56C51.1329 489.187 51.6529 489 52.3195 489C52.8795 489 53.3595 489.16 53.7595 489.48C54.1595 489.8 54.3595 490.267 54.3595 490.88C54.3595 491.333 54.2529 491.707 54.0395 492C53.8262 492.293 53.5729 492.52 53.2795 492.68C53.3329 492.707 53.3729 492.72 53.3995 492.72C53.4529 492.72 53.4929 492.72 53.5195 492.72C54.2395 492.72 54.8795 492.467 55.4395 491.96C55.9995 491.48 56.4929 490.693 56.9195 489.6L58.3595 485.88L59.1195 486.2Z" fill="black"/>
<path d="M79.2842 464.84C80.9909 464.84 82.5242 465.213 83.8842 465.96C85.2442 466.707 86.3242 467.88 87.1242 469.48C87.9509 471.08 88.3642 473.16 88.3642 475.72C88.3642 478.28 87.9509 480.36 87.1242 481.96C86.3242 483.533 85.2442 484.693 83.8842 485.44C82.5242 486.187 80.9909 486.56 79.2842 486.56C77.6042 486.56 76.0709 486.187 74.6842 485.44C73.3242 484.693 72.2309 483.533 71.4042 481.96C70.6042 480.36 70.2042 478.28 70.2042 475.72C70.2042 473.16 70.6042 471.08 71.4042 469.48C72.2309 467.88 73.3242 466.707 74.6842 465.96C76.0709 465.213 77.6042 464.84 79.2842 464.84ZM79.2842 465.64C77.7642 465.64 76.5109 466.427 75.5242 468C74.5642 469.573 74.0842 472.147 74.0842 475.72C74.0842 479.293 74.5642 481.867 75.5242 483.44C76.5109 484.987 77.7642 485.76 79.2842 485.76C80.8042 485.76 82.0442 484.987 83.0042 483.44C83.9909 481.867 84.4842 479.293 84.4842 475.72C84.4842 472.147 83.9909 469.573 83.0042 468C82.0442 466.427 80.8042 465.64 79.2842 465.64Z" fill="black"/>
<path d="M109.558 464.96V481.68C109.558 482.88 109.772 483.773 110.198 484.36C110.652 484.92 111.452 485.2 112.598 485.2V486.04C111.772 485.96 110.945 485.92 110.118 485.92C109.345 485.92 108.598 485.96 107.878 486.04C107.185 486.12 106.545 486.267 105.958 486.48V481.76C105.292 483.493 104.345 484.733 103.118 485.48C101.918 486.2 100.678 486.56 99.3983 486.56C98.465 486.56 97.6516 486.427 96.9583 486.16C96.2649 485.893 95.6916 485.52 95.2383 485.04C94.7316 484.507 94.3849 483.813 94.1983 482.96C94.0116 482.107 93.9183 481.053 93.9183 479.8V469.76C93.9183 468.56 93.7049 467.68 93.2783 467.12C92.8516 466.533 92.0516 466.24 90.8783 466.24V465.4C91.7316 465.48 92.5583 465.52 93.3583 465.52C94.1316 465.52 94.8649 465.48 95.5583 465.4C96.2783 465.293 96.9316 465.147 97.5183 464.96V480.68C97.5183 481.507 97.5716 482.267 97.6783 482.96C97.785 483.653 98.0516 484.213 98.4783 484.64C98.9049 485.067 99.5983 485.28 100.558 485.28C101.598 485.28 102.518 484.96 103.318 484.32C104.145 483.68 104.785 482.813 105.238 481.72C105.718 480.627 105.958 479.4 105.958 478.04V469.76C105.958 468.56 105.745 467.68 105.318 467.12C104.892 466.533 104.092 466.24 102.918 466.24V465.4C103.772 465.48 104.598 465.52 105.398 465.52C106.172 465.52 106.905 465.48 107.598 465.4C108.318 465.293 108.972 465.147 109.558 464.96Z" fill="black"/>
</svg>
