<svg width="305" height="137" viewBox="0 0 305 137" fill="none" xmlns="http://www.w3.org/2000/svg">
<path d="M34.3403 117.209C34.1524 106.441 42.7291 97.5598 53.497 97.3718L284.462 93.3403C295.23 93.1524 304.111 101.729 304.299 112.497C304.487 123.265 295.91 132.146 285.142 132.334L54.1777 136.366C43.4098 136.554 34.5283 127.977 34.3403 117.209Z" fill="#E8D5CB"/>
<path d="M0 74.5C0 61.5213 10.5213 51 23.5 51H241.5C254.479 51 265 61.5213 265 74.5C265 87.4787 254.479 98 241.5 98H23.5C10.5213 98 0 87.4787 0 74.5Z" fill="#E8D5CB"/>
<path d="M39 39.5C39 28.7304 47.7304 20 58.5 20H272.5C283.27 20 292 28.7304 292 39.5C292 50.2695 283.27 59 272.5 59H58.5C47.7305 59 39 50.2695 39 39.5Z" fill="#E8D5CB"/>
<path d="M41.1735 13.8718C43.4785 4.55377 52.9008 -1.13147 62.2189 1.17349L152.071 23.3999C161.389 25.7048 167.075 35.1271 164.77 44.4452C162.465 53.7633 153.042 59.4485 143.724 57.1435L53.8719 34.9172C44.5538 32.6122 38.8686 23.1899 41.1735 13.8718Z" fill="#E8D5CB"/>
<path d="M67.6995 107.241C66.7609 96.5124 74.6972 87.0543 85.4258 86.1156L261.633 70.6995C272.361 69.7609 281.819 77.6972 282.758 88.4258C283.697 99.1544 275.76 108.613 265.032 109.551L88.8249 124.967C78.0963 125.906 68.6382 117.97 67.6995 107.241Z" fill="#E8D5CB"/>
<path d="M62.5312 24.875L71.3906 42.0078L80.2734 24.875H85.4062L73.6406 46.25V59H69.1172V46.25L57.3516 24.875H62.5312Z" fill="black"/>
<path d="M86.4375 46.6015V46.0625C86.4375 44.2344 86.7031 42.539 87.2344 40.9765C87.7656 39.3984 88.5312 38.0312 89.5312 36.875C90.5312 35.7031 91.7422 34.7969 93.1641 34.1562C94.5859 33.5 96.1797 33.1719 97.9453 33.1719C99.7266 33.1719 101.328 33.5 102.75 34.1562C104.188 34.7969 105.406 35.7031 106.406 36.875C107.422 38.0312 108.195 39.3984 108.727 40.9765C109.258 42.539 109.523 44.2344 109.523 46.0625V46.6015C109.523 48.4297 109.258 50.125 108.727 51.6875C108.195 53.25 107.422 54.6172 106.406 55.789C105.406 56.9453 104.195 57.8515 102.773 58.5078C101.367 59.1484 99.7734 59.4687 97.9922 59.4687C96.2109 59.4687 94.6094 59.1484 93.1875 58.5078C91.7656 57.8515 90.5469 56.9453 89.5312 55.789C88.5312 54.6172 87.7656 53.25 87.2344 51.6875C86.7031 50.125 86.4375 48.4297 86.4375 46.6015ZM90.7734 46.0625V46.6015C90.7734 47.8672 90.9219 49.0625 91.2188 50.1875C91.5156 51.2969 91.9609 52.2812 92.5547 53.1406C93.1641 54 93.9219 54.6797 94.8281 55.1797C95.7344 55.664 96.7891 55.9062 97.9922 55.9062C99.1797 55.9062 100.219 55.664 101.109 55.1797C102.016 54.6797 102.766 54 103.359 53.1406C103.953 52.2812 104.398 51.2969 104.695 50.1875C105.008 49.0625 105.164 47.8672 105.164 46.6015V46.0625C105.164 44.8125 105.008 43.6328 104.695 42.5234C104.398 41.3984 103.945 40.4062 103.336 39.5469C102.742 38.6719 101.992 37.9844 101.086 37.4844C100.195 36.9844 99.1484 36.7344 97.9453 36.7344C96.7578 36.7344 95.7109 36.9844 94.8047 37.4844C93.9141 37.9844 93.1641 38.6719 92.5547 39.5469C91.9609 40.4062 91.5156 41.3984 91.2188 42.5234C90.9219 43.6328 90.7734 44.8125 90.7734 46.0625Z" fill="black"/>
<path d="M130.477 53.1406V33.6406H134.836V59H130.688L130.477 53.1406ZM131.297 47.7969L133.102 47.75C133.102 49.4375 132.922 51 132.562 52.4375C132.219 53.8594 131.656 55.0937 130.875 56.1406C130.094 57.1875 129.07 58.0078 127.805 58.6015C126.539 59.1797 125 59.4687 123.188 59.4687C121.953 59.4687 120.82 59.289 119.789 58.9297C118.773 58.5703 117.898 58.0156 117.164 57.2656C116.43 56.5156 115.859 55.539 115.453 54.3359C115.062 53.1328 114.867 51.6875 114.867 50V33.6406H119.203V50.0469C119.203 51.1875 119.328 52.1328 119.578 52.8828C119.844 53.6172 120.195 54.2031 120.633 54.6406C121.086 55.0625 121.586 55.3594 122.133 55.5312C122.695 55.7031 123.273 55.789 123.867 55.789C125.711 55.789 127.172 55.4375 128.25 54.7344C129.328 54.0156 130.102 53.0547 130.57 51.8515C131.055 50.6328 131.297 49.2812 131.297 47.7969Z" fill="black"/>
<path d="M168.117 52.2734C168.117 51.6484 167.977 51.0703 167.695 50.539C167.43 49.9922 166.875 49.5 166.031 49.0625C165.203 48.6094 163.953 48.2187 162.281 47.8906C160.875 47.5937 159.602 47.2422 158.461 46.8359C157.336 46.4297 156.375 45.9375 155.578 45.3594C154.797 44.7812 154.195 44.1015 153.773 43.3203C153.352 42.539 153.141 41.625 153.141 40.5781C153.141 39.5781 153.359 38.6328 153.797 37.7422C154.25 36.8515 154.883 36.0625 155.695 35.375C156.523 34.6875 157.516 34.1484 158.672 33.7578C159.828 33.3672 161.117 33.1719 162.539 33.1719C164.57 33.1719 166.305 33.5312 167.742 34.25C169.18 34.9687 170.281 35.9297 171.047 37.1328C171.812 38.3203 172.195 39.6406 172.195 41.0937H167.859C167.859 40.3906 167.648 39.7109 167.227 39.0547C166.82 38.3828 166.219 37.8281 165.422 37.3906C164.641 36.9531 163.68 36.7344 162.539 36.7344C161.336 36.7344 160.359 36.9219 159.609 37.2969C158.875 37.6562 158.336 38.1172 157.992 38.6797C157.664 39.2422 157.5 39.8359 157.5 40.4609C157.5 40.9297 157.578 41.3515 157.734 41.7265C157.906 42.0859 158.203 42.4219 158.625 42.7344C159.047 43.0312 159.641 43.3125 160.406 43.5781C161.172 43.8437 162.148 44.1094 163.336 44.375C165.414 44.8437 167.125 45.4062 168.469 46.0625C169.812 46.7187 170.812 47.5234 171.469 48.4765C172.125 49.4297 172.453 50.5859 172.453 51.9453C172.453 53.0547 172.219 54.0703 171.75 54.9922C171.297 55.914 170.633 56.7109 169.758 57.3828C168.898 58.039 167.867 58.5547 166.664 58.9297C165.477 59.289 164.141 59.4687 162.656 59.4687C160.422 59.4687 158.531 59.0703 156.984 58.2734C155.438 57.4765 154.266 56.4453 153.469 55.1797C152.672 53.914 152.273 52.5781 152.273 51.1719H156.633C156.695 52.3594 157.039 53.3047 157.664 54.0078C158.289 54.6953 159.055 55.1875 159.961 55.4844C160.867 55.7656 161.766 55.9062 162.656 55.9062C163.844 55.9062 164.836 55.75 165.633 55.4375C166.445 55.125 167.062 54.6953 167.484 54.1484C167.906 53.6015 168.117 52.9765 168.117 52.2734Z" fill="black"/>
<path d="M188.766 33.6406V36.9687H175.055V33.6406H188.766ZM179.695 27.4765H184.031V52.7187C184.031 53.5781 184.164 54.2265 184.43 54.664C184.695 55.1015 185.039 55.3906 185.461 55.5312C185.883 55.6719 186.336 55.7422 186.82 55.7422C187.18 55.7422 187.555 55.7109 187.945 55.6484C188.352 55.5703 188.656 55.5078 188.859 55.4609L188.883 59C188.539 59.1094 188.086 59.2109 187.523 59.3047C186.977 59.414 186.312 59.4687 185.531 59.4687C184.469 59.4687 183.492 59.2578 182.602 58.8359C181.711 58.414 181 57.7109 180.469 56.7265C179.953 55.7265 179.695 54.3828 179.695 52.6953V27.4765Z" fill="black"/>
<path d="M192.234 46.6015V46.0625C192.234 44.2344 192.5 42.539 193.031 40.9765C193.562 39.3984 194.328 38.0312 195.328 36.875C196.328 35.7031 197.539 34.7969 198.961 34.1562C200.383 33.5 201.977 33.1719 203.742 33.1719C205.523 33.1719 207.125 33.5 208.547 34.1562C209.984 34.7969 211.203 35.7031 212.203 36.875C213.219 38.0312 213.992 39.3984 214.523 40.9765C215.055 42.539 215.32 44.2344 215.32 46.0625V46.6015C215.32 48.4297 215.055 50.125 214.523 51.6875C213.992 53.25 213.219 54.6172 212.203 55.789C211.203 56.9453 209.992 57.8515 208.57 58.5078C207.164 59.1484 205.57 59.4687 203.789 59.4687C202.008 59.4687 200.406 59.1484 198.984 58.5078C197.562 57.8515 196.344 56.9453 195.328 55.789C194.328 54.6172 193.562 53.25 193.031 51.6875C192.5 50.125 192.234 48.4297 192.234 46.6015ZM196.57 46.0625V46.6015C196.57 47.8672 196.719 49.0625 197.016 50.1875C197.312 51.2969 197.758 52.2812 198.352 53.1406C198.961 54 199.719 54.6797 200.625 55.1797C201.531 55.664 202.586 55.9062 203.789 55.9062C204.977 55.9062 206.016 55.664 206.906 55.1797C207.812 54.6797 208.562 54 209.156 53.1406C209.75 52.2812 210.195 51.2969 210.492 50.1875C210.805 49.0625 210.961 47.8672 210.961 46.6015V46.0625C210.961 44.8125 210.805 43.6328 210.492 42.5234C210.195 41.3984 209.742 40.4062 209.133 39.5469C208.539 38.6719 207.789 37.9844 206.883 37.4844C205.992 36.9844 204.945 36.7344 203.742 36.7344C202.555 36.7344 201.508 36.9844 200.602 37.4844C199.711 37.9844 198.961 38.6719 198.352 39.5469C197.758 40.4062 197.312 41.3984 197.016 42.5234C196.719 43.6328 196.57 44.8125 196.57 46.0625Z" fill="black"/>
<path d="M225.469 23V59H221.109V23H225.469Z" fill="black"/>
<path d="M242.953 59.4687C241.188 59.4687 239.586 59.1719 238.148 58.5781C236.727 57.9687 235.5 57.1172 234.469 56.0234C233.453 54.9297 232.672 53.6328 232.125 52.1328C231.578 50.6328 231.305 48.9922 231.305 47.2109V46.2265C231.305 44.164 231.609 42.3281 232.219 40.7187C232.828 39.0937 233.656 37.7187 234.703 36.5937C235.75 35.4687 236.938 34.6172 238.266 34.039C239.594 33.4609 240.969 33.1719 242.391 33.1719C244.203 33.1719 245.766 33.4844 247.078 34.1094C248.406 34.7344 249.492 35.6094 250.336 36.7344C251.18 37.8437 251.805 39.1562 252.211 40.6719C252.617 42.1719 252.82 43.8125 252.82 45.5937V47.539H233.883V44H248.484V43.6719C248.422 42.5469 248.188 41.4531 247.781 40.3906C247.391 39.3281 246.766 38.4531 245.906 37.7656C245.047 37.0781 243.875 36.7344 242.391 36.7344C241.406 36.7344 240.5 36.9453 239.672 37.3672C238.844 37.7734 238.133 38.3828 237.539 39.1953C236.945 40.0078 236.484 41 236.156 42.1719C235.828 43.3437 235.664 44.6953 235.664 46.2265V47.2109C235.664 48.414 235.828 49.5469 236.156 50.6094C236.5 51.6562 236.992 52.5781 237.633 53.375C238.289 54.1719 239.078 54.7969 240 55.25C240.938 55.7031 242 55.9297 243.188 55.9297C244.719 55.9297 246.016 55.6172 247.078 54.9922C248.141 54.3672 249.07 53.5312 249.867 52.4844L252.492 54.5703C251.945 55.3984 251.25 56.1875 250.406 56.9375C249.562 57.6875 248.523 58.2969 247.289 58.7656C246.07 59.2344 244.625 59.4687 242.953 59.4687Z" fill="black"/>
<path d="M64.6172 94.6797V115H60.2578V89.6406H64.3828L64.6172 94.6797ZM63.7266 101.359L61.7109 101.289C61.7266 99.5547 61.9531 97.9531 62.3906 96.4844C62.8281 95 63.4766 93.7109 64.3359 92.6172C65.1953 91.5234 66.2656 90.6797 67.5469 90.0859C68.8281 89.4765 70.3125 89.1719 72 89.1719C73.1875 89.1719 74.2812 89.3437 75.2812 89.6875C76.2812 90.0156 77.1484 90.539 77.8828 91.2578C78.6172 91.9765 79.1875 92.8984 79.5938 94.0234C80 95.1484 80.2031 96.5078 80.2031 98.1015V115H75.8672V98.3125C75.8672 96.9844 75.6406 95.9219 75.1875 95.125C74.75 94.3281 74.125 93.75 73.3125 93.3906C72.5 93.0156 71.5469 92.8281 70.4531 92.8281C69.1719 92.8281 68.1016 93.0547 67.2422 93.5078C66.3828 93.9609 65.6953 94.5859 65.1797 95.3828C64.6641 96.1797 64.2891 97.0937 64.0547 98.125C63.8359 99.1406 63.7266 100.219 63.7266 101.359ZM80.1562 98.9687L77.25 99.8594C77.2656 98.4687 77.4922 97.1328 77.9297 95.8515C78.3828 94.5703 79.0312 93.4297 79.875 92.4297C80.7344 91.4297 81.7891 90.6406 83.0391 90.0625C84.2891 89.4687 85.7188 89.1719 87.3281 89.1719C88.6875 89.1719 89.8906 89.3515 90.9375 89.7109C92 90.0703 92.8906 90.625 93.6094 91.375C94.3438 92.1094 94.8984 93.0547 95.2734 94.2109C95.6484 95.3672 95.8359 96.7422 95.8359 98.3359V115H91.4766V98.289C91.4766 96.8672 91.25 95.7656 90.7969 94.9844C90.3594 94.1875 89.7344 93.6328 88.9219 93.3203C88.125 92.9922 87.1719 92.8281 86.0625 92.8281C85.1094 92.8281 84.2656 92.9922 83.5312 93.3203C82.7969 93.6484 82.1797 94.1015 81.6797 94.6797C81.1797 95.2422 80.7969 95.8906 80.5312 96.625C80.2812 97.3594 80.1562 98.1406 80.1562 98.9687Z" fill="black"/>
<path d="M109.523 112.375L116.578 89.6406H121.219L111.047 118.914C110.812 119.539 110.5 120.211 110.109 120.93C109.734 121.664 109.25 122.359 108.656 123.016C108.062 123.672 107.344 124.203 106.5 124.609C105.672 125.031 104.68 125.242 103.523 125.242C103.18 125.242 102.742 125.195 102.211 125.102C101.68 125.008 101.305 124.93 101.086 124.867L101.062 121.352C101.188 121.367 101.383 121.383 101.648 121.398C101.93 121.43 102.125 121.445 102.234 121.445C103.219 121.445 104.055 121.312 104.742 121.047C105.43 120.797 106.008 120.367 106.477 119.758C106.961 119.164 107.375 118.344 107.719 117.297L109.523 112.375ZM104.344 89.6406L110.93 109.328L112.055 113.898L108.938 115.492L99.6094 89.6406H104.344Z" fill="black"/>
<path d="M141.375 79V115H137.039V79H141.375ZM140.344 101.359L138.539 101.289C138.555 99.5547 138.812 97.9531 139.312 96.4844C139.812 95 140.516 93.7109 141.422 92.6172C142.328 91.5234 143.406 90.6797 144.656 90.0859C145.922 89.4765 147.32 89.1719 148.852 89.1719C150.102 89.1719 151.227 89.3437 152.227 89.6875C153.227 90.0156 154.078 90.5469 154.781 91.2812C155.5 92.0156 156.047 92.9687 156.422 94.1406C156.797 95.2969 156.984 96.7109 156.984 98.3828V115H152.625V98.3359C152.625 97.0078 152.43 95.9453 152.039 95.1484C151.648 94.3359 151.078 93.75 150.328 93.3906C149.578 93.0156 148.656 92.8281 147.562 92.8281C146.484 92.8281 145.5 93.0547 144.609 93.5078C143.734 93.9609 142.977 94.5859 142.336 95.3828C141.711 96.1797 141.219 97.0937 140.859 98.125C140.516 99.1406 140.344 100.219 140.344 101.359Z" fill="black"/>
<path d="M174 115.469C172.234 115.469 170.633 115.172 169.195 114.578C167.773 113.969 166.547 113.117 165.516 112.023C164.5 110.93 163.719 109.633 163.172 108.133C162.625 106.633 162.352 104.992 162.352 103.211V102.227C162.352 100.164 162.656 98.3281 163.266 96.7187C163.875 95.0937 164.703 93.7187 165.75 92.5937C166.797 91.4687 167.984 90.6172 169.312 90.039C170.641 89.4609 172.016 89.1719 173.438 89.1719C175.25 89.1719 176.812 89.4844 178.125 90.1094C179.453 90.7344 180.539 91.6094 181.383 92.7344C182.227 93.8437 182.852 95.1562 183.258 96.6719C183.664 98.1719 183.867 99.8125 183.867 101.594V103.539H164.93V100H179.531V99.6719C179.469 98.5469 179.234 97.4531 178.828 96.3906C178.438 95.3281 177.812 94.4531 176.953 93.7656C176.094 93.0781 174.922 92.7344 173.438 92.7344C172.453 92.7344 171.547 92.9453 170.719 93.3672C169.891 93.7734 169.18 94.3828 168.586 95.1953C167.992 96.0078 167.531 97 167.203 98.1719C166.875 99.3437 166.711 100.695 166.711 102.227V103.211C166.711 104.414 166.875 105.547 167.203 106.609C167.547 107.656 168.039 108.578 168.68 109.375C169.336 110.172 170.125 110.797 171.047 111.25C171.984 111.703 173.047 111.93 174.234 111.93C175.766 111.93 177.062 111.617 178.125 110.992C179.188 110.367 180.117 109.531 180.914 108.484L183.539 110.57C182.992 111.398 182.297 112.187 181.453 112.937C180.609 113.687 179.57 114.297 178.336 114.766C177.117 115.234 175.672 115.469 174 115.469Z" fill="black"/>
<path d="M203.883 110.664V97.6094C203.883 96.6094 203.68 95.7422 203.273 95.0078C202.883 94.2578 202.289 93.6797 201.492 93.2734C200.695 92.8672 199.711 92.664 198.539 92.664C197.445 92.664 196.484 92.8515 195.656 93.2265C194.844 93.6015 194.203 94.0937 193.734 94.7031C193.281 95.3125 193.055 95.9687 193.055 96.6719H188.719C188.719 95.7656 188.953 94.8672 189.422 93.9765C189.891 93.0859 190.562 92.2812 191.438 91.5625C192.328 90.8281 193.391 90.25 194.625 89.8281C195.875 89.3906 197.266 89.1719 198.797 89.1719C200.641 89.1719 202.266 89.4844 203.672 90.1094C205.094 90.7344 206.203 91.6797 207 92.9453C207.812 94.1953 208.219 95.7656 208.219 97.6562V109.469C208.219 110.312 208.289 111.211 208.43 112.164C208.586 113.117 208.812 113.937 209.109 114.625V115H204.586C204.367 114.5 204.195 113.836 204.07 113.008C203.945 112.164 203.883 111.383 203.883 110.664ZM204.633 99.625L204.68 102.672H200.297C199.062 102.672 197.961 102.773 196.992 102.977C196.023 103.164 195.211 103.453 194.555 103.844C193.898 104.234 193.398 104.727 193.055 105.32C192.711 105.898 192.539 106.578 192.539 107.359C192.539 108.156 192.719 108.883 193.078 109.539C193.438 110.195 193.977 110.719 194.695 111.109C195.43 111.484 196.328 111.672 197.391 111.672C198.719 111.672 199.891 111.391 200.906 110.828C201.922 110.266 202.727 109.578 203.32 108.766C203.93 107.953 204.258 107.164 204.305 106.398L206.156 108.484C206.047 109.141 205.75 109.867 205.266 110.664C204.781 111.461 204.133 112.227 203.32 112.961C202.523 113.68 201.57 114.281 200.461 114.766C199.367 115.234 198.133 115.469 196.758 115.469C195.039 115.469 193.531 115.133 192.234 114.461C190.953 113.789 189.953 112.891 189.234 111.766C188.531 110.625 188.18 109.352 188.18 107.945C188.18 106.586 188.445 105.391 188.977 104.359C189.508 103.312 190.273 102.445 191.273 101.758C192.273 101.055 193.477 100.523 194.883 100.164C196.289 99.8047 197.859 99.625 199.594 99.625H204.633Z" fill="black"/>
<path d="M219.375 93.625V115H215.039V89.6406H219.258L219.375 93.625ZM227.297 89.5L227.273 93.5312C226.914 93.4531 226.57 93.4062 226.242 93.3906C225.93 93.3594 225.57 93.3437 225.164 93.3437C224.164 93.3437 223.281 93.5 222.516 93.8125C221.75 94.125 221.102 94.5625 220.57 95.125C220.039 95.6875 219.617 96.3594 219.305 97.1406C219.008 97.9062 218.812 98.75 218.719 99.6719L217.5 100.375C217.5 98.8437 217.648 97.4062 217.945 96.0625C218.258 94.7187 218.734 93.5312 219.375 92.5C220.016 91.4531 220.828 90.6406 221.812 90.0625C222.812 89.4687 224 89.1719 225.375 89.1719C225.688 89.1719 226.047 89.2109 226.453 89.289C226.859 89.3515 227.141 89.4219 227.297 89.5Z" fill="black"/>
<path d="M243.094 89.6406V92.9687H229.383V89.6406H243.094ZM234.023 83.4765H238.359V108.719C238.359 109.578 238.492 110.227 238.758 110.664C239.023 111.102 239.367 111.391 239.789 111.531C240.211 111.672 240.664 111.742 241.148 111.742C241.508 111.742 241.883 111.711 242.273 111.648C242.68 111.57 242.984 111.508 243.188 111.461L243.211 115C242.867 115.109 242.414 115.211 241.852 115.305C241.305 115.414 240.641 115.469 239.859 115.469C238.797 115.469 237.82 115.258 236.93 114.836C236.039 114.414 235.328 113.711 234.797 112.727C234.281 111.727 234.023 110.383 234.023 108.695V83.4765Z" fill="black"/>
<path d="M252.117 109.844V113.336C252.117 114.758 251.758 116.258 251.039 117.836C250.32 119.43 249.312 120.758 248.016 121.82L245.555 120.109C246.055 119.422 246.477 118.719 246.82 118C247.164 117.297 247.422 116.562 247.594 115.797C247.781 115.047 247.875 114.25 247.875 113.406V109.844H252.117Z" fill="black"/>
</svg>
